<?xml version="1.0" encoding="utf-8"?>
<!-- Generator: Adobe Illustrator 22.0.1, SVG Export Plug-In . SVG Version: 6.00 Build 0)  -->
<svg version="1.1" id="Layer_1" xmlns="http://www.w3.org/2000/svg" xmlns:xlink="http://www.w3.org/1999/xlink" x="0px" y="0px"
	 viewBox="0 0 86.4 85.6" style="enable-background:new 0 0 86.4 85.6;" xml:space="preserve">
<style type="text/css">
	.st0{display:none;}
	.st1{display:inline;fill:#020203;}
	.st2{display:inline;}
	.st3{fill:#1C1F2C;}
	.st4{fill:#636363;}
</style>
<g>
	<g class="st0">
		<path class="st1" d="M-23.5,19.6c-0.3,0-0.5,0.2-0.5,0.5c0,0.3,0.2,0.5,0.5,0.5c0.3,0,0.5-0.2,0.5-0.5
			C-23,19.9-23.2,19.6-23.5,19.6z"/>
		<circle class="st1" cx="-20.6" cy="17.3" r="0.5"/>
		<path class="st1" d="M-23.5,16.7c-0.3,0-0.5,0.2-0.5,0.5s0.2,0.5,0.5,0.5c0.3,0,0.5-0.2,0.5-0.5S-23.2,16.7-23.5,16.7z"/>
		<path class="st1" d="M-17.7,13.8c-0.3,0-0.5,0.2-0.5,0.5c0,0.3,0.2,0.5,0.5,0.5c0.3,0,0.5-0.2,0.5-0.5
			C-17.2,14.1-17.4,13.8-17.7,13.8z"/>
		<path class="st1" d="M-20.6,13.8c-0.3,0-0.5,0.2-0.5,0.5c0,0.3,0.2,0.5,0.5,0.5c0.3,0,0.5-0.2,0.5-0.5
			C-20.1,14.1-20.3,13.8-20.6,13.8z"/>
		<path class="st1" d="M-23.5,13.8c-0.3,0-0.5,0.2-0.5,0.5c0,0.3,0.2,0.5,0.5,0.5c0.3,0,0.5-0.2,0.5-0.5
			C-23,14.1-23.2,13.8-23.5,13.8z"/>
		<circle class="st1" cx="-14.9" cy="11.5" r="0.5"/>
		<path class="st1" d="M-17.7,10.9c-0.3,0-0.5,0.2-0.5,0.5c0,0.3,0.2,0.5,0.5,0.5c0.3,0,0.5-0.2,0.5-0.5
			C-17.2,11.2-17.4,10.9-17.7,10.9z"/>
		<circle class="st1" cx="-20.6" cy="11.5" r="0.5"/>
		<path class="st1" d="M-23.5,10.9c-0.3,0-0.5,0.2-0.5,0.5c0,0.3,0.2,0.5,0.5,0.5c0.3,0,0.5-0.2,0.5-0.5
			C-23,11.2-23.2,10.9-23.5,10.9z"/>
		<path class="st1" d="M-12,8.1c-0.3,0-0.5,0.2-0.5,0.5c0,0.3,0.2,0.5,0.5,0.5c0.3,0,0.5-0.2,0.5-0.5C-11.4,8.3-11.7,8.1-12,8.1z"/>
		<path class="st1" d="M-14.9,8.1c-0.3,0-0.5,0.2-0.5,0.5c0,0.3,0.2,0.5,0.5,0.5s0.5-0.2,0.5-0.5C-14.3,8.3-14.6,8.1-14.9,8.1z"/>
		<path class="st1" d="M-17.7,8.1c-0.3,0-0.5,0.2-0.5,0.5c0,0.3,0.2,0.5,0.5,0.5c0.3,0,0.5-0.2,0.5-0.5C-17.2,8.3-17.4,8.1-17.7,8.1
			z"/>
		<path class="st1" d="M-20.6,8.1c-0.3,0-0.5,0.2-0.5,0.5c0,0.3,0.2,0.5,0.5,0.5c0.3,0,0.5-0.2,0.5-0.5C-20.1,8.3-20.3,8.1-20.6,8.1
			z"/>
		<path class="st1" d="M-23.5,8.1c-0.3,0-0.5,0.2-0.5,0.5c0,0.3,0.2,0.5,0.5,0.5c0.3,0,0.5-0.2,0.5-0.5C-23,8.3-23.2,8.1-23.5,8.1z"
			/>
		<path class="st1" d="M-9.1,5.2c-0.3,0-0.5,0.2-0.5,0.5c0,0.3,0.2,0.5,0.5,0.5c0.3,0,0.5-0.2,0.5-0.5C-8.5,5.4-8.8,5.2-9.1,5.2z"/>
		<path class="st1" d="M-12,5.2c-0.3,0-0.5,0.2-0.5,0.5c0,0.3,0.2,0.5,0.5,0.5c0.3,0,0.5-0.2,0.5-0.5C-11.4,5.4-11.7,5.2-12,5.2z"/>
		<path class="st1" d="M-14.9,5.2c-0.3,0-0.5,0.2-0.5,0.5c0,0.3,0.2,0.5,0.5,0.5s0.5-0.2,0.5-0.5C-14.3,5.4-14.6,5.2-14.9,5.2z"/>
		<path class="st1" d="M-17.7,5.2c-0.3,0-0.5,0.2-0.5,0.5c0,0.3,0.2,0.5,0.5,0.5c0.3,0,0.5-0.2,0.5-0.5C-17.2,5.4-17.4,5.2-17.7,5.2
			z"/>
		<path class="st1" d="M-20.6,5.2c-0.3,0-0.5,0.2-0.5,0.5c0,0.3,0.2,0.5,0.5,0.5c0.3,0,0.5-0.2,0.5-0.5C-20.1,5.4-20.3,5.2-20.6,5.2
			z"/>
		<path class="st1" d="M-23.5,5.2c-0.3,0-0.5,0.2-0.5,0.5c0,0.3,0.2,0.5,0.5,0.5c0.3,0,0.5-0.2,0.5-0.5C-23,5.4-23.2,5.2-23.5,5.2z"
			/>
		<path class="st1" d="M-6.2,2.3c-0.3,0-0.5,0.2-0.5,0.5c0,0.3,0.2,0.5,0.5,0.5c0.3,0,0.5-0.2,0.5-0.5C-5.6,2.5-5.9,2.3-6.2,2.3z"/>
		<path class="st1" d="M-9.1,2.3c-0.3,0-0.5,0.2-0.5,0.5c0,0.3,0.2,0.5,0.5,0.5c0.3,0,0.5-0.2,0.5-0.5C-8.5,2.5-8.8,2.3-9.1,2.3z"/>
		<path class="st1" d="M-12,2.3c-0.3,0-0.5,0.2-0.5,0.5c0,0.3,0.2,0.5,0.5,0.5c0.3,0,0.5-0.2,0.5-0.5C-11.4,2.5-11.7,2.3-12,2.3z"/>
		<path class="st1" d="M-14.9,2.3c-0.3,0-0.5,0.2-0.5,0.5c0,0.3,0.2,0.5,0.5,0.5s0.5-0.2,0.5-0.5C-14.3,2.5-14.6,2.3-14.9,2.3z"/>
		<path class="st1" d="M-17.7,2.3c-0.3,0-0.5,0.2-0.5,0.5c0,0.3,0.2,0.5,0.5,0.5c0.3,0,0.5-0.2,0.5-0.5C-17.2,2.5-17.4,2.3-17.7,2.3
			z"/>
		<path class="st1" d="M-20.6,2.3c-0.3,0-0.5,0.2-0.5,0.5c0,0.3,0.2,0.5,0.5,0.5c0.3,0,0.5-0.2,0.5-0.5C-20.1,2.5-20.3,2.3-20.6,2.3
			z"/>
		<path class="st1" d="M-23.5,2.3c-0.3,0-0.5,0.2-0.5,0.5c0,0.3,0.2,0.5,0.5,0.5c0.3,0,0.5-0.2,0.5-0.5C-23,2.5-23.2,2.3-23.5,2.3z"
			/>
		<path class="st1" d="M-3.3-0.6c-0.3,0-0.5,0.2-0.5,0.5c0,0.3,0.2,0.5,0.5,0.5s0.5-0.2,0.5-0.5C-2.7-0.4-3-0.6-3.3-0.6z"/>
		<path class="st1" d="M-6.2-0.6c-0.3,0-0.5,0.2-0.5,0.5c0,0.3,0.2,0.5,0.5,0.5c0.3,0,0.5-0.2,0.5-0.5C-5.6-0.4-5.9-0.6-6.2-0.6z"/>
		<path class="st1" d="M-9.1-0.6c-0.3,0-0.5,0.2-0.5,0.5c0,0.3,0.2,0.5,0.5,0.5c0.3,0,0.5-0.2,0.5-0.5C-8.5-0.4-8.8-0.6-9.1-0.6z"/>
		<path class="st1" d="M-12-0.6c-0.3,0-0.5,0.2-0.5,0.5c0,0.3,0.2,0.5,0.5,0.5c0.3,0,0.5-0.2,0.5-0.5C-11.4-0.4-11.7-0.6-12-0.6z"/>
		<path class="st1" d="M-14.9-0.6c-0.3,0-0.5,0.2-0.5,0.5c0,0.3,0.2,0.5,0.5,0.5s0.5-0.2,0.5-0.5C-14.3-0.4-14.6-0.6-14.9-0.6z"/>
		<path class="st1" d="M-17.7-0.6c-0.3,0-0.5,0.2-0.5,0.5c0,0.3,0.2,0.5,0.5,0.5c0.3,0,0.5-0.2,0.5-0.5C-17.2-0.4-17.4-0.6-17.7-0.6
			z"/>
		<path class="st1" d="M-20.6-0.6c-0.3,0-0.5,0.2-0.5,0.5c0,0.3,0.2,0.5,0.5,0.5c0.3,0,0.5-0.2,0.5-0.5C-20.1-0.4-20.3-0.6-20.6-0.6
			z"/>
		<path class="st1" d="M-23.5-0.6c-0.3,0-0.5,0.2-0.5,0.5c0,0.3,0.2,0.5,0.5,0.5c0.3,0,0.5-0.2,0.5-0.5C-23-0.4-23.2-0.6-23.5-0.6z"
			/>
		<path class="st1" d="M-0.4-3.5c-0.3,0-0.5,0.2-0.5,0.5c0,0.3,0.2,0.5,0.5,0.5c0.3,0,0.5-0.2,0.5-0.5C0.2-3.3-0.1-3.5-0.4-3.5z"/>
		<path class="st1" d="M-3.3-3.5c-0.3,0-0.5,0.2-0.5,0.5c0,0.3,0.2,0.5,0.5,0.5S-2.7-2.7-2.7-3C-2.7-3.3-3-3.5-3.3-3.5z"/>
		<path class="st1" d="M-6.2-3.5c-0.3,0-0.5,0.2-0.5,0.5c0,0.3,0.2,0.5,0.5,0.5c0.3,0,0.5-0.2,0.5-0.5C-5.6-3.3-5.9-3.5-6.2-3.5z"/>
		<path class="st1" d="M-9.1-3.5c-0.3,0-0.5,0.2-0.5,0.5c0,0.3,0.2,0.5,0.5,0.5c0.3,0,0.5-0.2,0.5-0.5C-8.5-3.3-8.8-3.5-9.1-3.5z"/>
		<path class="st1" d="M-12-3.5c-0.3,0-0.5,0.2-0.5,0.5c0,0.3,0.2,0.5,0.5,0.5c0.3,0,0.5-0.2,0.5-0.5C-11.4-3.3-11.7-3.5-12-3.5z"/>
		<path class="st1" d="M-14.9-3.5c-0.3,0-0.5,0.2-0.5,0.5c0,0.3,0.2,0.5,0.5,0.5s0.5-0.2,0.5-0.5C-14.3-3.3-14.6-3.5-14.9-3.5z"/>
		<path class="st1" d="M-17.7-3.5c-0.3,0-0.5,0.2-0.5,0.5c0,0.3,0.2,0.5,0.5,0.5c0.3,0,0.5-0.2,0.5-0.5C-17.2-3.3-17.4-3.5-17.7-3.5
			z"/>
		<path class="st1" d="M-20.6-3.5c-0.3,0-0.5,0.2-0.5,0.5c0,0.3,0.2,0.5,0.5,0.5c0.3,0,0.5-0.2,0.5-0.5C-20.1-3.3-20.3-3.5-20.6-3.5
			z"/>
		<path class="st1" d="M-23.5-3.5c-0.3,0-0.5,0.2-0.5,0.5c0,0.3,0.2,0.5,0.5,0.5c0.3,0,0.5-0.2,0.5-0.5C-23-3.3-23.2-3.5-23.5-3.5z"
			/>
		<path class="st1" d="M2.5-6.4C2.2-6.4,2-6.2,2-5.9c0,0.3,0.2,0.5,0.5,0.5s0.5-0.2,0.5-0.5C3.1-6.2,2.8-6.4,2.5-6.4z"/>
		<path class="st1" d="M-0.4-6.4c-0.3,0-0.5,0.2-0.5,0.5c0,0.3,0.2,0.5,0.5,0.5c0.3,0,0.5-0.2,0.5-0.5C0.2-6.2-0.1-6.4-0.4-6.4z"/>
		<path class="st1" d="M-3.3-6.4c-0.3,0-0.5,0.2-0.5,0.5c0,0.3,0.2,0.5,0.5,0.5s0.5-0.2,0.5-0.5C-2.7-6.2-3-6.4-3.3-6.4z"/>
		<path class="st1" d="M-6.2-6.4c-0.3,0-0.5,0.2-0.5,0.5c0,0.3,0.2,0.5,0.5,0.5c0.3,0,0.5-0.2,0.5-0.5C-5.6-6.2-5.9-6.4-6.2-6.4z"/>
		<path class="st1" d="M-9.1-6.4c-0.3,0-0.5,0.2-0.5,0.5c0,0.3,0.2,0.5,0.5,0.5c0.3,0,0.5-0.2,0.5-0.5C-8.5-6.2-8.8-6.4-9.1-6.4z"/>
		<path class="st1" d="M-12-6.4c-0.3,0-0.5,0.2-0.5,0.5c0,0.3,0.2,0.5,0.5,0.5c0.3,0,0.5-0.2,0.5-0.5C-11.4-6.2-11.7-6.4-12-6.4z"/>
		<path class="st1" d="M-14.9-6.4c-0.3,0-0.5,0.2-0.5,0.5c0,0.3,0.2,0.5,0.5,0.5s0.5-0.2,0.5-0.5C-14.3-6.2-14.6-6.4-14.9-6.4z"/>
		<path class="st1" d="M-17.7-6.4c-0.3,0-0.5,0.2-0.5,0.5c0,0.3,0.2,0.5,0.5,0.5c0.3,0,0.5-0.2,0.5-0.5C-17.2-6.2-17.4-6.4-17.7-6.4
			z"/>
		<path class="st1" d="M-20.6-6.4c-0.3,0-0.5,0.2-0.5,0.5c0,0.3,0.2,0.5,0.5,0.5c0.3,0,0.5-0.2,0.5-0.5C-20.1-6.2-20.3-6.4-20.6-6.4
			z"/>
		<path class="st1" d="M-23.5-6.4c-0.3,0-0.5,0.2-0.5,0.5c0,0.3,0.2,0.5,0.5,0.5c0.3,0,0.5-0.2,0.5-0.5C-23-6.2-23.2-6.4-23.5-6.4z"
			/>
		<path class="st1" d="M5.4-9.3c-0.3,0-0.5,0.2-0.5,0.5c0,0.3,0.2,0.5,0.5,0.5c0.3,0,0.5-0.2,0.5-0.5C5.9-9.1,5.7-9.3,5.4-9.3z"/>
		<path class="st1" d="M2.5-9.3C2.2-9.3,2-9.1,2-8.8c0,0.3,0.2,0.5,0.5,0.5s0.5-0.2,0.5-0.5C3.1-9.1,2.8-9.3,2.5-9.3z"/>
		<path class="st1" d="M-0.4-9.3c-0.3,0-0.5,0.2-0.5,0.5c0,0.3,0.2,0.5,0.5,0.5c0.3,0,0.5-0.2,0.5-0.5C0.2-9.1-0.1-9.3-0.4-9.3z"/>
		<path class="st1" d="M-3.3-9.3c-0.3,0-0.5,0.2-0.5,0.5c0,0.3,0.2,0.5,0.5,0.5s0.5-0.2,0.5-0.5C-2.7-9.1-3-9.3-3.3-9.3z"/>
		<path class="st1" d="M-6.2-9.3c-0.3,0-0.5,0.2-0.5,0.5c0,0.3,0.2,0.5,0.5,0.5c0.3,0,0.5-0.2,0.5-0.5C-5.6-9.1-5.9-9.3-6.2-9.3z"/>
		<path class="st1" d="M-9.1-9.3c-0.3,0-0.5,0.2-0.5,0.5c0,0.3,0.2,0.5,0.5,0.5c0.3,0,0.5-0.2,0.5-0.5C-8.5-9.1-8.8-9.3-9.1-9.3z"/>
		<path class="st1" d="M-12-9.3c-0.3,0-0.5,0.2-0.5,0.5c0,0.3,0.2,0.5,0.5,0.5c0.3,0,0.5-0.2,0.5-0.5C-11.4-9.1-11.7-9.3-12-9.3z"/>
		<path class="st1" d="M-14.9-9.3c-0.3,0-0.5,0.2-0.5,0.5c0,0.3,0.2,0.5,0.5,0.5s0.5-0.2,0.5-0.5C-14.3-9.1-14.6-9.3-14.9-9.3z"/>
		<path class="st1" d="M-17.7-9.3c-0.3,0-0.5,0.2-0.5,0.5c0,0.3,0.2,0.5,0.5,0.5c0.3,0,0.5-0.2,0.5-0.5C-17.2-9.1-17.4-9.3-17.7-9.3
			z"/>
		<path class="st1" d="M-20.6-9.3c-0.3,0-0.5,0.2-0.5,0.5c0,0.3,0.2,0.5,0.5,0.5c0.3,0,0.5-0.2,0.5-0.5C-20.1-9.1-20.3-9.3-20.6-9.3
			z"/>
		<path class="st1" d="M-23.5-9.3c-0.3,0-0.5,0.2-0.5,0.5c0,0.3,0.2,0.5,0.5,0.5c0.3,0,0.5-0.2,0.5-0.5C-23-9.1-23.2-9.3-23.5-9.3z"
			/>
		<circle class="st1" cx="8.3" cy="-11.7" r="0.5"/>
		<path class="st1" d="M5.4-12.2c-0.3,0-0.5,0.2-0.5,0.5c0,0.3,0.2,0.5,0.5,0.5c0.3,0,0.5-0.2,0.5-0.5C5.9-12,5.7-12.2,5.4-12.2z"/>
		<circle class="st1" cx="2.5" cy="-11.7" r="0.5"/>
		<path class="st1" d="M-0.4-12.2c-0.3,0-0.5,0.2-0.5,0.5c0,0.3,0.2,0.5,0.5,0.5c0.3,0,0.5-0.2,0.5-0.5C0.2-12-0.1-12.2-0.4-12.2z"
			/>
		<circle class="st1" cx="-3.3" cy="-11.7" r="0.5"/>
		<path class="st1" d="M-6.2-12.2c-0.3,0-0.5,0.2-0.5,0.5c0,0.3,0.2,0.5,0.5,0.5c0.3,0,0.5-0.2,0.5-0.5C-5.6-12-5.9-12.2-6.2-12.2z"
			/>
		<circle class="st1" cx="-9.1" cy="-11.7" r="0.5"/>
		<path class="st1" d="M-12-12.2c-0.3,0-0.5,0.2-0.5,0.5c0,0.3,0.2,0.5,0.5,0.5c0.3,0,0.5-0.2,0.5-0.5C-11.4-12-11.7-12.2-12-12.2z"
			/>
		<circle class="st1" cx="-14.9" cy="-11.7" r="0.5"/>
		<path class="st1" d="M-17.7-12.2c-0.3,0-0.5,0.2-0.5,0.5c0,0.3,0.2,0.5,0.5,0.5c0.3,0,0.5-0.2,0.5-0.5
			C-17.2-12-17.4-12.2-17.7-12.2z"/>
		<circle class="st1" cx="-20.6" cy="-11.7" r="0.5"/>
		<path class="st1" d="M-23.5-12.2c-0.3,0-0.5,0.2-0.5,0.5c0,0.3,0.2,0.5,0.5,0.5c0.3,0,0.5-0.2,0.5-0.5C-23-12-23.2-12.2-23.5-12.2
			z"/>
		<path class="st1" d="M11.2-15.1c-0.3,0-0.5,0.2-0.5,0.5c0,0.3,0.2,0.5,0.5,0.5c0.3,0,0.5-0.2,0.5-0.5
			C11.7-14.9,11.5-15.1,11.2-15.1z"/>
		<path class="st1" d="M8.3-15.1c-0.3,0-0.5,0.2-0.5,0.5C7.7-14.3,8-14,8.3-14c0.3,0,0.5-0.2,0.5-0.5C8.8-14.9,8.6-15.1,8.3-15.1z"
			/>
		<path class="st1" d="M5.4-15.1c-0.3,0-0.5,0.2-0.5,0.5c0,0.3,0.2,0.5,0.5,0.5c0.3,0,0.5-0.2,0.5-0.5C5.9-14.9,5.7-15.1,5.4-15.1z"
			/>
		<path class="st1" d="M2.5-15.1c-0.3,0-0.5,0.2-0.5,0.5C2-14.3,2.2-14,2.5-14s0.5-0.2,0.5-0.5C3.1-14.9,2.8-15.1,2.5-15.1z"/>
		<path class="st1" d="M-0.4-15.1c-0.3,0-0.5,0.2-0.5,0.5c0,0.3,0.2,0.5,0.5,0.5c0.3,0,0.5-0.2,0.5-0.5C0.2-14.9-0.1-15.1-0.4-15.1z
			"/>
		<path class="st1" d="M-3.3-15.1c-0.3,0-0.5,0.2-0.5,0.5c0,0.3,0.2,0.5,0.5,0.5s0.5-0.2,0.5-0.5C-2.7-14.9-3-15.1-3.3-15.1z"/>
		<path class="st1" d="M-6.2-15.1c-0.3,0-0.5,0.2-0.5,0.5c0,0.3,0.2,0.5,0.5,0.5c0.3,0,0.5-0.2,0.5-0.5C-5.6-14.9-5.9-15.1-6.2-15.1
			z"/>
		<path class="st1" d="M-9.1-15.1c-0.3,0-0.5,0.2-0.5,0.5c0,0.3,0.2,0.5,0.5,0.5c0.3,0,0.5-0.2,0.5-0.5C-8.5-14.9-8.8-15.1-9.1-15.1
			z"/>
		<path class="st1" d="M-12-15.1c-0.3,0-0.5,0.2-0.5,0.5c0,0.3,0.2,0.5,0.5,0.5c0.3,0,0.5-0.2,0.5-0.5C-11.4-14.9-11.7-15.1-12-15.1
			z"/>
		<path class="st1" d="M-14.9-15.1c-0.3,0-0.5,0.2-0.5,0.5c0,0.3,0.2,0.5,0.5,0.5s0.5-0.2,0.5-0.5C-14.3-14.9-14.6-15.1-14.9-15.1z"
			/>
		<path class="st1" d="M-17.7-15.1c-0.3,0-0.5,0.2-0.5,0.5c0,0.3,0.2,0.5,0.5,0.5c0.3,0,0.5-0.2,0.5-0.5
			C-17.2-14.9-17.4-15.1-17.7-15.1z"/>
		<path class="st1" d="M-20.6-15.1c-0.3,0-0.5,0.2-0.5,0.5c0,0.3,0.2,0.5,0.5,0.5c0.3,0,0.5-0.2,0.5-0.5
			C-20.1-14.9-20.3-15.1-20.6-15.1z"/>
		<path class="st1" d="M-23.5-15.1c-0.3,0-0.5,0.2-0.5,0.5c0,0.3,0.2,0.5,0.5,0.5c0.3,0,0.5-0.2,0.5-0.5
			C-23-14.9-23.2-15.1-23.5-15.1z"/>
		<circle class="st1" cx="14.1" cy="-17.4" r="0.5"/>
		<path class="st1" d="M11.2-18c-0.3,0-0.5,0.2-0.5,0.5c0,0.3,0.2,0.5,0.5,0.5c0.3,0,0.5-0.2,0.5-0.5C11.7-17.7,11.5-18,11.2-18z"/>
		<circle class="st1" cx="8.3" cy="-17.4" r="0.5"/>
		<path class="st1" d="M5.4-18c-0.3,0-0.5,0.2-0.5,0.5c0,0.3,0.2,0.5,0.5,0.5c0.3,0,0.5-0.2,0.5-0.5C5.9-17.7,5.7-18,5.4-18z"/>
		<circle class="st1" cx="2.5" cy="-17.4" r="0.5"/>
		<path class="st1" d="M-0.4-18c-0.3,0-0.5,0.2-0.5,0.5c0,0.3,0.2,0.5,0.5,0.5c0.3,0,0.5-0.2,0.5-0.5C0.2-17.7-0.1-18-0.4-18z"/>
		<circle class="st1" cx="-3.3" cy="-17.4" r="0.5"/>
		<path class="st1" d="M-6.2-18c-0.3,0-0.5,0.2-0.5,0.5c0,0.3,0.2,0.5,0.5,0.5c0.3,0,0.5-0.2,0.5-0.5C-5.6-17.7-5.9-18-6.2-18z"/>
		<circle class="st1" cx="-9.1" cy="-17.4" r="0.5"/>
		<path class="st1" d="M-12-18c-0.3,0-0.5,0.2-0.5,0.5c0,0.3,0.2,0.5,0.5,0.5c0.3,0,0.5-0.2,0.5-0.5C-11.4-17.7-11.7-18-12-18z"/>
		<circle class="st1" cx="-14.9" cy="-17.4" r="0.5"/>
		<path class="st1" d="M-17.7-18c-0.3,0-0.5,0.2-0.5,0.5c0,0.3,0.2,0.5,0.5,0.5c0.3,0,0.5-0.2,0.5-0.5C-17.2-17.7-17.4-18-17.7-18z"
			/>
		<circle class="st1" cx="-20.6" cy="-17.4" r="0.5"/>
		<path class="st1" d="M-23.5-18c-0.3,0-0.5,0.2-0.5,0.5c0,0.3,0.2,0.5,0.5,0.5c0.3,0,0.5-0.2,0.5-0.5C-23-17.7-23.2-18-23.5-18z"/>
		<path class="st1" d="M17-20.9c-0.3,0-0.5,0.2-0.5,0.5c0,0.3,0.2,0.5,0.5,0.5c0.3,0,0.5-0.2,0.5-0.5C17.5-20.6,17.3-20.9,17-20.9z"
			/>
		<path class="st1" d="M14.1-20.9c-0.3,0-0.5,0.2-0.5,0.5c0,0.3,0.2,0.5,0.5,0.5s0.5-0.2,0.5-0.5C14.6-20.6,14.4-20.9,14.1-20.9z"/>
		<path class="st1" d="M11.2-20.9c-0.3,0-0.5,0.2-0.5,0.5c0,0.3,0.2,0.5,0.5,0.5c0.3,0,0.5-0.2,0.5-0.5
			C11.7-20.6,11.5-20.9,11.2-20.9z"/>
		<path class="st1" d="M8.3-20.9c-0.3,0-0.5,0.2-0.5,0.5c0,0.3,0.2,0.5,0.5,0.5c0.3,0,0.5-0.2,0.5-0.5C8.8-20.6,8.6-20.9,8.3-20.9z"
			/>
		<path class="st1" d="M5.4-20.9c-0.3,0-0.5,0.2-0.5,0.5c0,0.3,0.2,0.5,0.5,0.5c0.3,0,0.5-0.2,0.5-0.5C5.9-20.6,5.7-20.9,5.4-20.9z"
			/>
		<path class="st1" d="M2.5-20.9c-0.3,0-0.5,0.2-0.5,0.5c0,0.3,0.2,0.5,0.5,0.5s0.5-0.2,0.5-0.5C3.1-20.6,2.8-20.9,2.5-20.9z"/>
		<path class="st1" d="M-0.4-20.9c-0.3,0-0.5,0.2-0.5,0.5c0,0.3,0.2,0.5,0.5,0.5c0.3,0,0.5-0.2,0.5-0.5C0.2-20.6-0.1-20.9-0.4-20.9z
			"/>
		<path class="st1" d="M-3.3-20.9c-0.3,0-0.5,0.2-0.5,0.5c0,0.3,0.2,0.5,0.5,0.5s0.5-0.2,0.5-0.5C-2.7-20.6-3-20.9-3.3-20.9z"/>
		<path class="st1" d="M-6.2-20.9c-0.3,0-0.5,0.2-0.5,0.5c0,0.3,0.2,0.5,0.5,0.5c0.3,0,0.5-0.2,0.5-0.5C-5.6-20.6-5.9-20.9-6.2-20.9
			z"/>
		<path class="st1" d="M-9.1-20.9c-0.3,0-0.5,0.2-0.5,0.5c0,0.3,0.2,0.5,0.5,0.5c0.3,0,0.5-0.2,0.5-0.5C-8.5-20.6-8.8-20.9-9.1-20.9
			z"/>
		<path class="st1" d="M-12-20.9c-0.3,0-0.5,0.2-0.5,0.5c0,0.3,0.2,0.5,0.5,0.5c0.3,0,0.5-0.2,0.5-0.5C-11.4-20.6-11.7-20.9-12-20.9
			z"/>
		<path class="st1" d="M-14.9-20.9c-0.3,0-0.5,0.2-0.5,0.5c0,0.3,0.2,0.5,0.5,0.5s0.5-0.2,0.5-0.5C-14.3-20.6-14.6-20.9-14.9-20.9z"
			/>
		<path class="st1" d="M-17.7-20.9c-0.3,0-0.5,0.2-0.5,0.5c0,0.3,0.2,0.5,0.5,0.5c0.3,0,0.5-0.2,0.5-0.5
			C-17.2-20.6-17.4-20.9-17.7-20.9z"/>
		<path class="st1" d="M-20.6-20.9c-0.3,0-0.5,0.2-0.5,0.5c0,0.3,0.2,0.5,0.5,0.5c0.3,0,0.5-0.2,0.5-0.5
			C-20.1-20.6-20.3-20.9-20.6-20.9z"/>
		<path class="st1" d="M-23.5-20.9c-0.3,0-0.5,0.2-0.5,0.5c0,0.3,0.2,0.5,0.5,0.5c0.3,0,0.5-0.2,0.5-0.5
			C-23-20.6-23.2-20.9-23.5-20.9z"/>
		<circle class="st1" cx="19.9" cy="-23.2" r="0.5"/>
		<path class="st1" d="M17-23.8c-0.3,0-0.5,0.2-0.5,0.5c0,0.3,0.2,0.5,0.5,0.5c0.3,0,0.5-0.2,0.5-0.5C17.5-23.5,17.3-23.8,17-23.8z"
			/>
		<circle class="st1" cx="14.1" cy="-23.2" r="0.5"/>
		<path class="st1" d="M11.2-23.8c-0.3,0-0.5,0.2-0.5,0.5c0,0.3,0.2,0.5,0.5,0.5c0.3,0,0.5-0.2,0.5-0.5
			C11.7-23.5,11.5-23.8,11.2-23.8z"/>
		<circle class="st1" cx="8.3" cy="-23.2" r="0.5"/>
		<path class="st1" d="M5.4-23.8c-0.3,0-0.5,0.2-0.5,0.5c0,0.3,0.2,0.5,0.5,0.5c0.3,0,0.5-0.2,0.5-0.5C5.9-23.5,5.7-23.8,5.4-23.8z"
			/>
		<circle class="st1" cx="2.5" cy="-23.2" r="0.5"/>
		<path class="st1" d="M-0.4-23.8c-0.3,0-0.5,0.2-0.5,0.5c0,0.3,0.2,0.5,0.5,0.5c0.3,0,0.5-0.2,0.5-0.5C0.2-23.5-0.1-23.8-0.4-23.8z
			"/>
		<circle class="st1" cx="-3.3" cy="-23.2" r="0.5"/>
		<path class="st1" d="M-6.2-23.8c-0.3,0-0.5,0.2-0.5,0.5c0,0.3,0.2,0.5,0.5,0.5c0.3,0,0.5-0.2,0.5-0.5C-5.6-23.5-5.9-23.8-6.2-23.8
			z"/>
		<circle class="st1" cx="-9.1" cy="-23.2" r="0.5"/>
		<path class="st1" d="M-12-23.8c-0.3,0-0.5,0.2-0.5,0.5c0,0.3,0.2,0.5,0.5,0.5c0.3,0,0.5-0.2,0.5-0.5C-11.4-23.5-11.7-23.8-12-23.8
			z"/>
		<circle class="st1" cx="-14.9" cy="-23.2" r="0.5"/>
		<path class="st1" d="M-17.7-23.8c-0.3,0-0.5,0.2-0.5,0.5c0,0.3,0.2,0.5,0.5,0.5c0.3,0,0.5-0.2,0.5-0.5
			C-17.2-23.5-17.4-23.8-17.7-23.8z"/>
		<circle class="st1" cx="-20.6" cy="-23.2" r="0.5"/>
		<path class="st1" d="M-23.5-23.8c-0.3,0-0.5,0.2-0.5,0.5c0,0.3,0.2,0.5,0.5,0.5c0.3,0,0.5-0.2,0.5-0.5
			C-23-23.5-23.2-23.8-23.5-23.8z"/>
		<path class="st1" d="M22.8-26.7c-0.3,0-0.5,0.2-0.5,0.5c0,0.3,0.2,0.5,0.5,0.5c0.3,0,0.5-0.2,0.5-0.5
			C23.3-26.4,23.1-26.7,22.8-26.7z"/>
		<path class="st1" d="M19.9-26.7c-0.3,0-0.5,0.2-0.5,0.5c0,0.3,0.2,0.5,0.5,0.5s0.5-0.2,0.5-0.5C20.4-26.4,20.2-26.7,19.9-26.7z"/>
		<path class="st1" d="M17-26.7c-0.3,0-0.5,0.2-0.5,0.5c0,0.3,0.2,0.5,0.5,0.5c0.3,0,0.5-0.2,0.5-0.5C17.5-26.4,17.3-26.7,17-26.7z"
			/>
		<path class="st1" d="M14.1-26.7c-0.3,0-0.5,0.2-0.5,0.5c0,0.3,0.2,0.5,0.5,0.5s0.5-0.2,0.5-0.5C14.6-26.4,14.4-26.7,14.1-26.7z"/>
		<path class="st1" d="M11.2-26.7c-0.3,0-0.5,0.2-0.5,0.5c0,0.3,0.2,0.5,0.5,0.5c0.3,0,0.5-0.2,0.5-0.5
			C11.7-26.4,11.5-26.7,11.2-26.7z"/>
		<path class="st1" d="M8.3-26.7c-0.3,0-0.5,0.2-0.5,0.5c0,0.3,0.2,0.5,0.5,0.5c0.3,0,0.5-0.2,0.5-0.5C8.8-26.4,8.6-26.7,8.3-26.7z"
			/>
		<path class="st1" d="M5.4-26.7c-0.3,0-0.5,0.2-0.5,0.5c0,0.3,0.2,0.5,0.5,0.5c0.3,0,0.5-0.2,0.5-0.5C5.9-26.4,5.7-26.7,5.4-26.7z"
			/>
		<path class="st1" d="M2.5-26.7c-0.3,0-0.5,0.2-0.5,0.5c0,0.3,0.2,0.5,0.5,0.5s0.5-0.2,0.5-0.5C3.1-26.4,2.8-26.7,2.5-26.7z"/>
		<path class="st1" d="M-0.4-26.7c-0.3,0-0.5,0.2-0.5,0.5c0,0.3,0.2,0.5,0.5,0.5c0.3,0,0.5-0.2,0.5-0.5C0.2-26.4-0.1-26.7-0.4-26.7z
			"/>
		<path class="st1" d="M-3.3-26.7c-0.3,0-0.5,0.2-0.5,0.5c0,0.3,0.2,0.5,0.5,0.5s0.5-0.2,0.5-0.5C-2.7-26.4-3-26.7-3.3-26.7z"/>
		<path class="st1" d="M-6.2-26.7c-0.3,0-0.5,0.2-0.5,0.5c0,0.3,0.2,0.5,0.5,0.5c0.3,0,0.5-0.2,0.5-0.5C-5.6-26.4-5.9-26.7-6.2-26.7
			z"/>
		<path class="st1" d="M-9.1-26.7c-0.3,0-0.5,0.2-0.5,0.5c0,0.3,0.2,0.5,0.5,0.5c0.3,0,0.5-0.2,0.5-0.5C-8.5-26.4-8.8-26.7-9.1-26.7
			z"/>
		<path class="st1" d="M-12-26.7c-0.3,0-0.5,0.2-0.5,0.5c0,0.3,0.2,0.5,0.5,0.5c0.3,0,0.5-0.2,0.5-0.5C-11.4-26.4-11.7-26.7-12-26.7
			z"/>
		<path class="st1" d="M-14.9-26.7c-0.3,0-0.5,0.2-0.5,0.5c0,0.3,0.2,0.5,0.5,0.5s0.5-0.2,0.5-0.5C-14.3-26.4-14.6-26.7-14.9-26.7z"
			/>
		<path class="st1" d="M-17.7-26.7c-0.3,0-0.5,0.2-0.5,0.5c0,0.3,0.2,0.5,0.5,0.5c0.3,0,0.5-0.2,0.5-0.5
			C-17.2-26.4-17.4-26.7-17.7-26.7z"/>
		<path class="st1" d="M-20.6-26.7c-0.3,0-0.5,0.2-0.5,0.5c0,0.3,0.2,0.5,0.5,0.5c0.3,0,0.5-0.2,0.5-0.5
			C-20.1-26.4-20.3-26.7-20.6-26.7z"/>
		<path class="st1" d="M-23.5-26.7c-0.3,0-0.5,0.2-0.5,0.5c0,0.3,0.2,0.5,0.5,0.5c0.3,0,0.5-0.2,0.5-0.5
			C-23-26.4-23.2-26.7-23.5-26.7z"/>
		<path class="st1" d="M25.7-29.6c-0.3,0-0.5,0.2-0.5,0.5c0,0.3,0.2,0.5,0.5,0.5c0.3,0,0.5-0.2,0.5-0.5C26.2-29.3,26-29.6,25.7-29.6
			z"/>
		<path class="st1" d="M22.8-29.6c-0.3,0-0.5,0.2-0.5,0.5c0,0.3,0.2,0.5,0.5,0.5c0.3,0,0.5-0.2,0.5-0.5
			C23.3-29.3,23.1-29.6,22.8-29.6z"/>
		<path class="st1" d="M19.9-29.6c-0.3,0-0.5,0.2-0.5,0.5c0,0.3,0.2,0.5,0.5,0.5s0.5-0.2,0.5-0.5C20.4-29.3,20.2-29.6,19.9-29.6z"/>
		<path class="st1" d="M17-29.6c-0.3,0-0.5,0.2-0.5,0.5c0,0.3,0.2,0.5,0.5,0.5c0.3,0,0.5-0.2,0.5-0.5C17.5-29.3,17.3-29.6,17-29.6z"
			/>
		<path class="st1" d="M14.1-29.6c-0.3,0-0.5,0.2-0.5,0.5c0,0.3,0.2,0.5,0.5,0.5s0.5-0.2,0.5-0.5C14.6-29.3,14.4-29.6,14.1-29.6z"/>
		<path class="st1" d="M11.2-29.6c-0.3,0-0.5,0.2-0.5,0.5c0,0.3,0.2,0.5,0.5,0.5c0.3,0,0.5-0.2,0.5-0.5
			C11.7-29.3,11.5-29.6,11.2-29.6z"/>
		<path class="st1" d="M8.3-29.6c-0.3,0-0.5,0.2-0.5,0.5c0,0.3,0.2,0.5,0.5,0.5c0.3,0,0.5-0.2,0.5-0.5C8.8-29.3,8.6-29.6,8.3-29.6z"
			/>
		<path class="st1" d="M5.4-29.6c-0.3,0-0.5,0.2-0.5,0.5c0,0.3,0.2,0.5,0.5,0.5c0.3,0,0.5-0.2,0.5-0.5C5.9-29.3,5.7-29.6,5.4-29.6z"
			/>
		<path class="st1" d="M2.5-29.6C2.2-29.6,2-29.3,2-29c0,0.3,0.2,0.5,0.5,0.5s0.5-0.2,0.5-0.5C3.1-29.3,2.8-29.6,2.5-29.6z"/>
		<path class="st1" d="M-0.4-29.6c-0.3,0-0.5,0.2-0.5,0.5c0,0.3,0.2,0.5,0.5,0.5c0.3,0,0.5-0.2,0.5-0.5C0.2-29.3-0.1-29.6-0.4-29.6z
			"/>
		<path class="st1" d="M-3.3-29.6c-0.3,0-0.5,0.2-0.5,0.5c0,0.3,0.2,0.5,0.5,0.5s0.5-0.2,0.5-0.5C-2.7-29.3-3-29.6-3.3-29.6z"/>
		<path class="st1" d="M-6.2-29.6c-0.3,0-0.5,0.2-0.5,0.5c0,0.3,0.2,0.5,0.5,0.5c0.3,0,0.5-0.2,0.5-0.5C-5.6-29.3-5.9-29.6-6.2-29.6
			z"/>
		<path class="st1" d="M-9.1-29.6c-0.3,0-0.5,0.2-0.5,0.5c0,0.3,0.2,0.5,0.5,0.5c0.3,0,0.5-0.2,0.5-0.5C-8.5-29.3-8.8-29.6-9.1-29.6
			z"/>
		<path class="st1" d="M-12-29.6c-0.3,0-0.5,0.2-0.5,0.5c0,0.3,0.2,0.5,0.5,0.5c0.3,0,0.5-0.2,0.5-0.5C-11.4-29.3-11.7-29.6-12-29.6
			z"/>
		<path class="st1" d="M-14.9-29.6c-0.3,0-0.5,0.2-0.5,0.5c0,0.3,0.2,0.5,0.5,0.5s0.5-0.2,0.5-0.5C-14.3-29.3-14.6-29.6-14.9-29.6z"
			/>
		<path class="st1" d="M-17.7-29.6c-0.3,0-0.5,0.2-0.5,0.5c0,0.3,0.2,0.5,0.5,0.5c0.3,0,0.5-0.2,0.5-0.5
			C-17.2-29.3-17.4-29.6-17.7-29.6z"/>
		<path class="st1" d="M-20.6-29.6c-0.3,0-0.5,0.2-0.5,0.5c0,0.3,0.2,0.5,0.5,0.5c0.3,0,0.5-0.2,0.5-0.5
			C-20.1-29.3-20.3-29.6-20.6-29.6z"/>
		<path class="st1" d="M-23.5-29.6c-0.3,0-0.5,0.2-0.5,0.5c0,0.3,0.2,0.5,0.5,0.5c0.3,0,0.5-0.2,0.5-0.5
			C-23-29.3-23.2-29.6-23.5-29.6z"/>
		<path class="st1" d="M28.6-32.5c-0.3,0-0.5,0.2-0.5,0.5c0,0.3,0.2,0.5,0.5,0.5c0.3,0,0.5-0.2,0.5-0.5
			C29.1-32.2,28.9-32.5,28.6-32.5z"/>
		<path class="st1" d="M25.7-32.5c-0.3,0-0.5,0.2-0.5,0.5c0,0.3,0.2,0.5,0.5,0.5c0.3,0,0.5-0.2,0.5-0.5C26.2-32.2,26-32.5,25.7-32.5
			z"/>
		<path class="st1" d="M22.8-32.5c-0.3,0-0.5,0.2-0.5,0.5c0,0.3,0.2,0.5,0.5,0.5c0.3,0,0.5-0.2,0.5-0.5
			C23.3-32.2,23.1-32.5,22.8-32.5z"/>
		<path class="st1" d="M19.9-32.5c-0.3,0-0.5,0.2-0.5,0.5c0,0.3,0.2,0.5,0.5,0.5s0.5-0.2,0.5-0.5C20.4-32.2,20.2-32.5,19.9-32.5z"/>
		<path class="st1" d="M17-32.5c-0.3,0-0.5,0.2-0.5,0.5c0,0.3,0.2,0.5,0.5,0.5c0.3,0,0.5-0.2,0.5-0.5C17.5-32.2,17.3-32.5,17-32.5z"
			/>
		<path class="st1" d="M14.1-32.5c-0.3,0-0.5,0.2-0.5,0.5c0,0.3,0.2,0.5,0.5,0.5s0.5-0.2,0.5-0.5C14.6-32.2,14.4-32.5,14.1-32.5z"/>
		<path class="st1" d="M11.2-32.5c-0.3,0-0.5,0.2-0.5,0.5c0,0.3,0.2,0.5,0.5,0.5c0.3,0,0.5-0.2,0.5-0.5
			C11.7-32.2,11.5-32.5,11.2-32.5z"/>
		<path class="st1" d="M8.3-32.5c-0.3,0-0.5,0.2-0.5,0.5c0,0.3,0.2,0.5,0.5,0.5c0.3,0,0.5-0.2,0.5-0.5C8.8-32.2,8.6-32.5,8.3-32.5z"
			/>
		<path class="st1" d="M5.4-32.5c-0.3,0-0.5,0.2-0.5,0.5c0,0.3,0.2,0.5,0.5,0.5c0.3,0,0.5-0.2,0.5-0.5C5.9-32.2,5.7-32.5,5.4-32.5z"
			/>
		<path class="st1" d="M2.5-32.5c-0.3,0-0.5,0.2-0.5,0.5c0,0.3,0.2,0.5,0.5,0.5s0.5-0.2,0.5-0.5C3.1-32.2,2.8-32.5,2.5-32.5z"/>
		<path class="st1" d="M-0.4-32.5c-0.3,0-0.5,0.2-0.5,0.5c0,0.3,0.2,0.5,0.5,0.5c0.3,0,0.5-0.2,0.5-0.5C0.2-32.2-0.1-32.5-0.4-32.5z
			"/>
		<path class="st1" d="M-3.3-32.5c-0.3,0-0.5,0.2-0.5,0.5c0,0.3,0.2,0.5,0.5,0.5s0.5-0.2,0.5-0.5C-2.7-32.2-3-32.5-3.3-32.5z"/>
		<path class="st1" d="M-6.2-32.5c-0.3,0-0.5,0.2-0.5,0.5c0,0.3,0.2,0.5,0.5,0.5c0.3,0,0.5-0.2,0.5-0.5C-5.6-32.2-5.9-32.5-6.2-32.5
			z"/>
		<path class="st1" d="M-9.1-32.5c-0.3,0-0.5,0.2-0.5,0.5c0,0.3,0.2,0.5,0.5,0.5c0.3,0,0.5-0.2,0.5-0.5C-8.5-32.2-8.8-32.5-9.1-32.5
			z"/>
		<path class="st1" d="M-12-32.5c-0.3,0-0.5,0.2-0.5,0.5c0,0.3,0.2,0.5,0.5,0.5c0.3,0,0.5-0.2,0.5-0.5C-11.4-32.2-11.7-32.5-12-32.5
			z"/>
		<path class="st1" d="M-14.9-32.5c-0.3,0-0.5,0.2-0.5,0.5c0,0.3,0.2,0.5,0.5,0.5s0.5-0.2,0.5-0.5C-14.3-32.2-14.6-32.5-14.9-32.5z"
			/>
		<path class="st1" d="M-17.7-32.5c-0.3,0-0.5,0.2-0.5,0.5c0,0.3,0.2,0.5,0.5,0.5c0.3,0,0.5-0.2,0.5-0.5
			C-17.2-32.2-17.4-32.5-17.7-32.5z"/>
		<path class="st1" d="M-20.6-32.5c-0.3,0-0.5,0.2-0.5,0.5c0,0.3,0.2,0.5,0.5,0.5c0.3,0,0.5-0.2,0.5-0.5
			C-20.1-32.2-20.3-32.5-20.6-32.5z"/>
		<path class="st1" d="M-23.5-32.5c-0.3,0-0.5,0.2-0.5,0.5c0,0.3,0.2,0.5,0.5,0.5c0.3,0,0.5-0.2,0.5-0.5
			C-23-32.2-23.2-32.5-23.5-32.5z"/>
		<path class="st1" d="M31.4-35.4c-0.3,0-0.5,0.2-0.5,0.5c0,0.3,0.2,0.5,0.5,0.5c0.3,0,0.5-0.2,0.5-0.5C32-35.1,31.7-35.4,31.4-35.4
			z"/>
		<path class="st1" d="M28.6-35.4c-0.3,0-0.5,0.2-0.5,0.5c0,0.3,0.2,0.5,0.5,0.5c0.3,0,0.5-0.2,0.5-0.5
			C29.1-35.1,28.9-35.4,28.6-35.4z"/>
		<path class="st1" d="M25.7-35.4c-0.3,0-0.5,0.2-0.5,0.5c0,0.3,0.2,0.5,0.5,0.5c0.3,0,0.5-0.2,0.5-0.5C26.2-35.1,26-35.4,25.7-35.4
			z"/>
		<path class="st1" d="M22.8-35.4c-0.3,0-0.5,0.2-0.5,0.5c0,0.3,0.2,0.5,0.5,0.5c0.3,0,0.5-0.2,0.5-0.5
			C23.3-35.1,23.1-35.4,22.8-35.4z"/>
		<path class="st1" d="M19.9-35.4c-0.3,0-0.5,0.2-0.5,0.5c0,0.3,0.2,0.5,0.5,0.5s0.5-0.2,0.5-0.5C20.4-35.1,20.2-35.4,19.9-35.4z"/>
		<path class="st1" d="M17-35.4c-0.3,0-0.5,0.2-0.5,0.5c0,0.3,0.2,0.5,0.5,0.5c0.3,0,0.5-0.2,0.5-0.5C17.5-35.1,17.3-35.4,17-35.4z"
			/>
		<path class="st1" d="M14.1-35.4c-0.3,0-0.5,0.2-0.5,0.5c0,0.3,0.2,0.5,0.5,0.5s0.5-0.2,0.5-0.5C14.6-35.1,14.4-35.4,14.1-35.4z"/>
		<path class="st1" d="M11.2-35.4c-0.3,0-0.5,0.2-0.5,0.5c0,0.3,0.2,0.5,0.5,0.5c0.3,0,0.5-0.2,0.5-0.5
			C11.7-35.1,11.5-35.4,11.2-35.4z"/>
		<path class="st1" d="M8.3-35.4c-0.3,0-0.5,0.2-0.5,0.5c0,0.3,0.2,0.5,0.5,0.5c0.3,0,0.5-0.2,0.5-0.5C8.8-35.1,8.6-35.4,8.3-35.4z"
			/>
		<path class="st1" d="M5.4-35.4c-0.3,0-0.5,0.2-0.5,0.5c0,0.3,0.2,0.5,0.5,0.5c0.3,0,0.5-0.2,0.5-0.5C5.9-35.1,5.7-35.4,5.4-35.4z"
			/>
		<path class="st1" d="M2.5-35.4c-0.3,0-0.5,0.2-0.5,0.5c0,0.3,0.2,0.5,0.5,0.5s0.5-0.2,0.5-0.5C3.1-35.1,2.8-35.4,2.5-35.4z"/>
		<path class="st1" d="M-0.4-35.4c-0.3,0-0.5,0.2-0.5,0.5c0,0.3,0.2,0.5,0.5,0.5c0.3,0,0.5-0.2,0.5-0.5C0.2-35.1-0.1-35.4-0.4-35.4z
			"/>
		<path class="st1" d="M-3.3-35.4c-0.3,0-0.5,0.2-0.5,0.5c0,0.3,0.2,0.5,0.5,0.5s0.5-0.2,0.5-0.5C-2.7-35.1-3-35.4-3.3-35.4z"/>
		<path class="st1" d="M-6.2-35.4c-0.3,0-0.5,0.2-0.5,0.5c0,0.3,0.2,0.5,0.5,0.5c0.3,0,0.5-0.2,0.5-0.5C-5.6-35.1-5.9-35.4-6.2-35.4
			z"/>
		<path class="st1" d="M-9.1-35.4c-0.3,0-0.5,0.2-0.5,0.5c0,0.3,0.2,0.5,0.5,0.5c0.3,0,0.5-0.2,0.5-0.5C-8.5-35.1-8.8-35.4-9.1-35.4
			z"/>
		<path class="st1" d="M-12-35.4c-0.3,0-0.5,0.2-0.5,0.5c0,0.3,0.2,0.5,0.5,0.5c0.3,0,0.5-0.2,0.5-0.5C-11.4-35.1-11.7-35.4-12-35.4
			z"/>
		<path class="st1" d="M-14.9-35.4c-0.3,0-0.5,0.2-0.5,0.5c0,0.3,0.2,0.5,0.5,0.5s0.5-0.2,0.5-0.5C-14.3-35.1-14.6-35.4-14.9-35.4z"
			/>
		<path class="st1" d="M-17.7-35.4c-0.3,0-0.5,0.2-0.5,0.5c0,0.3,0.2,0.5,0.5,0.5c0.3,0,0.5-0.2,0.5-0.5
			C-17.2-35.1-17.4-35.4-17.7-35.4z"/>
		<path class="st1" d="M-20.6-35.4c-0.3,0-0.5,0.2-0.5,0.5c0,0.3,0.2,0.5,0.5,0.5c0.3,0,0.5-0.2,0.5-0.5
			C-20.1-35.1-20.3-35.4-20.6-35.4z"/>
		<path class="st1" d="M-23.5-35.4c-0.3,0-0.5,0.2-0.5,0.5c0,0.3,0.2,0.5,0.5,0.5c0.3,0,0.5-0.2,0.5-0.5
			C-23-35.1-23.2-35.4-23.5-35.4z"/>
	</g>
	<g class="st0">
		<g class="st2">
			<polygon class="st3" points="-82.1,-53.4 -82.1,-22.9 -83.9,-21.1 -83.9,-51.7 			"/>
		</g>
		<g class="st2">
			<polygon class="st3" points="-86.4,-49.2 -86.4,-18.6 -88.2,-16.9 -88.2,-47.4 			"/>
		</g>
		<g class="st2">
			<polygon class="st3" points="-90.7,-44.9 -90.7,-14.3 -92.4,-12.6 -92.4,-43.1 			"/>
		</g>
		<g class="st2">
			<polygon class="st3" points="-94.9,-40.6 -94.9,-10.1 -96.7,-8.3 -96.7,-38.9 			"/>
		</g>
		<g class="st2">
			<polygon class="st3" points="-99.2,-36.4 -99.2,-5.8 -101,-4 -101,-34.6 			"/>
		</g>
		<g class="st2">
			<polygon class="st3" points="-103.5,-32.1 -103.5,-1.5 -105.2,0.2 -105.2,-30.3 			"/>
		</g>
		<g class="st2">
			<polygon class="st3" points="-107.7,-27.8 -107.7,2.7 -109.5,4.5 -109.5,-26.1 			"/>
		</g>
		<g class="st2">
			<polygon class="st3" points="-112,-23.5 -112,7 -113.8,8.8 -113.8,-21.8 			"/>
		</g>
		<g class="st2">
			<polygon class="st3" points="-116.3,-19.3 -116.3,11.3 -118,13 -118,-17.5 			"/>
		</g>
		<g class="st2">
			<polygon class="st3" points="-120.6,-15 -120.6,15.6 -122.3,17.3 -122.3,-13.2 			"/>
		</g>
		<g class="st2">
			<polygon class="st3" points="-124.8,-10.7 -124.8,19.8 -126.6,21.6 -126.6,-9 			"/>
		</g>
		<g class="st2">
			<polygon class="st3" points="-129.1,-6.5 -129.1,24.1 -130.9,25.8 -130.9,-4.7 			"/>
		</g>
		<g class="st2">
			<polygon class="st3" points="-133.4,-2.2 -133.4,28.4 -135.1,30.1 -135.1,-0.4 			"/>
		</g>
	</g>
	<g>
		<polygon class="st3" points="79.7,79.1 8.8,79.1 79.7,8.1 		"/>
		<path class="st4" d="M56,77.6L56,77.6c-0.2-0.3-0.7-0.5-1-0.3c-0.3,0.1-0.5,0.5-0.5,0.8c0,0.3,0.2,0.6,0.5,0.8
			c0.1,0,0.2,0.1,0.3,0.1c0.3,0,0.6-0.1,0.7-0.4c0.1-0.1,0.1-0.2,0.1-0.2l0.1-0.1c0,0,0-0.1,0-0.1c0,0,0,0,0-0.1
			C56.2,77.9,56.1,77.7,56,77.6z M55.8,78.1c0,0.1-0.1,0.1-0.1,0.2c-0.1,0.2-0.4,0.3-0.6,0.2c-0.2-0.1-0.3-0.3-0.3-0.5
			c0-0.2,0.1-0.4,0.3-0.5c0,0,0.1,0,0.1,0c0.2,0,0.4,0.1,0.4,0.2l0,0.1C55.8,77.9,55.9,78,55.8,78.1L55.8,78.1z M78.3,9.5L78,9.9
			c0.6,0,1.2,0,1.8,0V9.5C79.3,9.5,78.8,9.5,78.3,9.5z M56.1,62.6c-0.2-0.6-0.6-0.5-0.9-0.5l-0.1,0c-0.3,0-0.4,0.3-0.5,0.5
			c0,0.1,0,0.1-0.1,0.2c0,0.1-0.1,0.2,0,0.4c0.1,0.3,0.4,0.6,0.7,0.6c0.1,0,0.1,0,0.2,0c0.6,0,0.8-0.5,0.9-0.7c0,0,0-0.1,0-0.1
			c0,0,0,0,0,0C56.2,62.8,56.2,62.7,56.1,62.6C56.1,62.6,56.1,62.6,56.1,62.6z M55.9,62.9c-0.1,0.4-0.3,0.5-0.7,0.5
			c-0.1,0-0.4-0.4-0.4-0.5c0-0.1,0.1-0.1,0.1-0.2c0.1-0.2,0.1-0.2,0.2-0.3l0.1,0c0.1,0,0.2,0,0.3,0c0.2,0,0.3,0.1,0.3,0.3
			C55.8,62.7,55.8,62.8,55.9,62.9C55.9,62.8,55.9,62.9,55.9,62.9C55.9,62.9,55.9,62.9,55.9,62.9z M60.2,62.8c0-0.3-0.2-0.4-0.3-0.6
			c-0.1-0.1-0.1-0.2-0.1-0.2c-0.2-0.4-0.5-0.9-0.7-1.3c-0.3-0.5-0.7-1.1-0.9-1.7c-0.2-0.3-0.5-0.5-0.9-0.5c-0.7,0-1.5,0-2.2,0
			c-0.5,0-1.1,0-1.6,0c-0.4,0-0.7,0.1-0.9,0.5c-0.5,1-1.1,2-1.7,2.9l-0.2,0.4c-0.2,0.3-0.2,0.6,0,0.9l0.2,0.4
			c0.6,0.9,1.2,1.9,1.7,2.9c0.2,0.4,0.5,0.5,0.9,0.5c0,0,0,0,0.1,0c0.7,0,1.4,0,2.3,0c0.4,0,0.9,0,1.4,0c0.4,0,0.6-0.1,0.8-0.4
			c0.4-0.8,0.9-1.6,1.4-2.4l0.7-1.2c0,0,0-0.1,0.1-0.2l0-0.1C60.2,62.9,60.2,62.9,60.2,62.8C60.2,62.9,60.2,62.9,60.2,62.8z
			 M59.9,62.9C59.8,62.9,59.8,63,59.9,62.9l-0.7,1.3c-0.5,0.8-0.9,1.6-1.4,2.4c-0.1,0.2-0.2,0.3-0.5,0.3c-0.6,0-1,0-1.4,0
			c-0.9,0-1.7,0-2.4,0c-0.3,0-0.5-0.1-0.6-0.4c-0.5-1-1.1-2-1.7-2.9l-0.2-0.4c-0.1-0.2-0.1-0.4,0-0.6l0.2-0.4
			c0.6-0.9,1.2-1.9,1.7-2.9c0.1-0.3,0.3-0.4,0.5-0.4c0,0,0,0,0.1,0c0.5,0,1.1,0,1.6,0c0.7,0,1.4,0,2.2,0c0.3,0,0.4,0.1,0.6,0.3
			c0.3,0.6,0.6,1.2,1,1.7c0.2,0.4,0.5,0.8,0.7,1.3c0,0.1,0.1,0.2,0.2,0.3C59.7,62.6,59.8,62.7,59.9,62.9L59.9,62.9z M68.2,69.7
			c-0.3,0.1-0.4,0.4-0.5,0.7l0,0c-0.1,0.3,0.3,0.8,0.6,0.9c0.1,0,0.2,0,0.2,0c0.3,0,0.6-0.2,0.8-0.4c0,0,0-0.1,0.1-0.1
			c0.1-0.1,0.1-0.2,0.2-0.4c0,0,0,0,0,0c0-0.1-0.1-0.2-0.1-0.3C69.1,69.7,68.7,69.5,68.2,69.7z M69.1,70.5c0,0.1-0.1,0.1-0.1,0.2
			c0,0,0,0.1-0.1,0.1c-0.1,0.2-0.4,0.3-0.6,0.2c-0.1,0-0.3-0.4-0.3-0.5l0,0c0.1-0.2,0.1-0.4,0.3-0.4c0.1,0,0.2,0,0.2,0
			c0.2,0,0.4,0.1,0.5,0.4C69,70.4,69.1,70.4,69.1,70.5C69.1,70.4,69.1,70.5,69.1,70.5z M78.9,59.1c-0.5,1-1.1,2-1.7,2.9L77,62.4
			c-0.2,0.3-0.2,0.6,0,0.9l0.2,0.4c0.6,0.9,1.1,1.9,1.7,2.9c0.2,0.4,0.4,0.5,0.8,0.5v-0.3c-0.2,0-0.4-0.1-0.5-0.4
			c-0.5-1-1.1-2-1.7-2.9l-0.2-0.4c-0.1-0.2-0.1-0.4,0-0.6l0.2-0.4c0.6-0.9,1.2-1.9,1.7-2.9c0.1-0.3,0.3-0.3,0.5-0.4v-0.3
			C79.4,58.6,79.1,58.7,78.9,59.1z M79,43.8c-0.4,0.7-0.7,1.3-1.1,1.9c-0.1,0.2-0.3,0.5-0.4,0.7L77,47.3c-0.2,0.3-0.2,0.5,0,0.8
			c0.2,0.4,0.4,0.8,0.7,1.2c0.2,0.4,0.4,0.7,0.6,1.1c0.1,0.2,0.2,0.4,0.3,0.6c0.1,0.2,0.3,0.5,0.4,0.7c0.2,0.3,0.4,0.4,0.7,0.4
			c0,0,0,0,0,0v-0.3c0,0,0,0,0,0c-0.2,0-0.3,0-0.4-0.2c-0.1-0.2-0.3-0.5-0.4-0.7c-0.1-0.2-0.2-0.4-0.3-0.6c-0.2-0.4-0.4-0.7-0.6-1.1
			c-0.2-0.4-0.4-0.8-0.7-1.2c-0.1-0.1-0.1-0.3,0-0.4l0.5-0.8c0.1-0.2,0.3-0.5,0.4-0.7c0.4-0.6,0.8-1.3,1.1-2
			c0.1-0.2,0.2-0.2,0.4-0.2c0,0,0,0,0,0v-0.3c0,0,0,0,0,0C79.4,43.4,79.2,43.5,79,43.8z M29.6,77.6L29.6,77.6
			c-0.2-0.3-0.7-0.5-1-0.3c-0.3,0.1-0.5,0.5-0.5,0.8c0,0.3,0.2,0.6,0.5,0.8c0.1,0,0.2,0.1,0.3,0.1c0.3,0,0.6-0.1,0.7-0.4
			c0.1-0.1,0.1-0.2,0.1-0.2l0.1-0.1c0,0,0-0.1,0-0.1c0,0,0,0,0-0.1C29.8,77.9,29.7,77.7,29.6,77.6z M29.5,78.1
			c0,0.1-0.1,0.2-0.1,0.2c-0.1,0.2-0.4,0.3-0.6,0.2c-0.2-0.1-0.3-0.3-0.3-0.5c0-0.2,0.1-0.4,0.3-0.5c0,0,0.1,0,0.1,0
			c0.2,0,0.4,0.1,0.4,0.2l0,0.1C29.4,77.9,29.5,78,29.5,78.1L29.5,78.1z M55.3,33.3c0.6,0,0.8-0.5,0.9-0.7c0,0,0-0.1,0-0.1
			c0,0,0,0,0,0c0-0.1-0.1-0.2-0.1-0.3c0,0,0,0,0-0.1c0-0.1-0.1-0.2-0.1-0.3l-0.2,0.2c0,0,0,0.1,0.1,0.1c0,0.1,0,0.1,0.1,0.2
			c0,0,0,0.1,0,0.1c0,0,0,0,0,0c-0.1,0.4-0.3,0.5-0.7,0.5c0,0-0.1-0.1-0.2-0.1l-0.2,0.2c0.1,0.1,0.3,0.2,0.4,0.2
			C55.2,33.3,55.3,33.3,55.3,33.3z M44.1,44.4c0.4,0,0.6-0.1,0.8-0.5c0.4-0.7,0.8-1.5,1.3-2.2l-0.9,0.9c-0.2,0.4-0.4,0.7-0.6,1.1
			C44.5,44,44.4,44,44.1,44c-0.1,0-0.2,0-0.3,0l-0.3,0.3C43.7,44.4,43.9,44.4,44.1,44.4C44.1,44.4,44.1,44.4,44.1,44.4z M51.9,50.3
			c0.1,0.2,0.2,0.4,0.3,0.6c0.1,0.2,0.3,0.5,0.4,0.7c0.2,0.3,0.4,0.4,0.7,0.4c1.3,0,2.7,0,4,0h0c0.3,0,0.5-0.1,0.7-0.4
			c0.2-0.4,0.5-0.8,0.7-1.3c0.3-0.5,0.5-1,0.8-1.4c0.1-0.1,0.1-0.2,0.2-0.3c0.1-0.2,0.3-0.5,0.4-0.7c0,0,0-0.1,0-0.1
			c0,0,0-0.1,0-0.1c-0.3-0.6-0.6-1.2-1-1.8c-0.2-0.3-0.3-0.5-0.5-0.8l-0.2-0.3c-0.2-0.3-0.3-0.6-0.5-0.9c-0.2-0.3-0.4-0.4-0.7-0.4h0
			c-1.3,0-2.7,0-4,0c-0.3,0-0.5,0.1-0.7,0.4c-0.4,0.7-0.7,1.3-1.1,1.9c-0.1,0.2-0.3,0.5-0.4,0.7l-0.5,0.8c-0.2,0.3-0.2,0.5,0,0.8
			c0.2,0.4,0.4,0.8,0.7,1.2C51.5,49.6,51.7,49.9,51.9,50.3z M50.9,47.5l0.5-0.8c0.1-0.2,0.3-0.5,0.4-0.7c0.4-0.6,0.8-1.3,1.1-2
			c0.1-0.2,0.2-0.2,0.4-0.2c1.3,0,2.7,0,4,0c0.2,0,0.3,0,0.4,0.2c0.2,0.3,0.3,0.6,0.5,0.9l0.2,0.3c0.2,0.3,0.3,0.5,0.5,0.8
			c0.3,0.6,0.7,1.1,0.9,1.7c-0.1,0.2-0.2,0.4-0.4,0.7c-0.1,0.1-0.1,0.2-0.2,0.3c-0.3,0.5-0.5,1-0.8,1.4c-0.2,0.4-0.5,0.8-0.7,1.3
			c-0.1,0.2-0.2,0.2-0.4,0.2c-0.7,0-1.3,0-2,0c-0.7,0-1.3,0-2,0c-0.2,0-0.3,0-0.4-0.2c-0.1-0.2-0.3-0.5-0.4-0.7
			c-0.1-0.2-0.2-0.4-0.3-0.6c-0.2-0.4-0.4-0.7-0.6-1.1c-0.2-0.4-0.4-0.8-0.7-1.2C50.8,47.7,50.8,47.6,50.9,47.5z M28.8,63.7
			c0.1,0,0.1,0,0.2,0c0.6,0,0.8-0.5,0.9-0.7c0,0,0-0.1,0-0.1c0,0,0,0,0,0c0-0.1-0.1-0.2-0.1-0.3c0,0,0,0,0-0.1
			c-0.2-0.6-0.6-0.5-0.9-0.5l-0.1,0c-0.3,0-0.4,0.3-0.5,0.5c0,0.1,0,0.1-0.1,0.2c0,0.1-0.1,0.2,0,0.4C28.2,63.3,28.5,63.7,28.8,63.7
			z M28.5,62.7c0.1-0.2,0.1-0.2,0.2-0.3l0.1,0c0.1,0,0.2,0,0.3,0c0.2,0,0.3,0.1,0.3,0.3c0,0.1,0,0.1,0.1,0.2c0,0,0,0.1,0,0.1
			c0,0,0,0,0,0c-0.1,0.4-0.3,0.5-0.7,0.5c-0.1,0-0.4-0.4-0.4-0.5C28.4,62.8,28.5,62.8,28.5,62.7z M46.5,69.4c-0.2-0.3-0.4-0.7-0.6-1
			c-0.3-0.5-0.6-1-0.8-1.5c-0.4-0.8-1-0.8-1.6-0.8c-0.9,0.1-1.8,0.1-2.8,0c-0.2,0-0.5,0-0.7,0l-0.2,0c-0.2,0-0.3,0.1-0.3,0.2l0,0
			c-0.3,0.5-0.6,0.9-0.8,1.4c-0.2,0.4-0.5,0.8-0.7,1.2c-0.1,0.1-0.1,0.2-0.2,0.4c-0.1,0.2-0.2,0.3-0.3,0.5c-0.2,0.3-0.2,0.6,0,1
			c0.4,0.7,0.9,1.4,1.3,2.2l0.2,0.3c0.2,0.3,0.4,0.7,0.6,1c0.2,0.3,0.4,0.4,0.6,0.4c1.2,0,2.6,0,4,0c0,0,0,0,0,0
			c0.4,0,0.6-0.1,0.8-0.5c0.4-0.8,0.9-1.6,1.4-2.4l0,0c0.1-0.1,0.1-0.2,0.2-0.3c0.2-0.3,0.3-0.6,0.5-0.9c0,0,0-0.1,0-0.1
			c0,0,0,0,0,0c0-0.3-0.2-0.6-0.3-0.8C46.6,69.6,46.5,69.5,46.5,69.4z M46.2,71.3c-0.1,0.1-0.1,0.2-0.2,0.3l0,0
			c-0.5,0.8-0.9,1.6-1.4,2.4c-0.1,0.2-0.3,0.3-0.5,0.3c-0.6,0-1.3,0-1.9,0c-0.7,0-1.4,0-2.1,0c-0.2,0-0.3,0-0.3-0.2
			c-0.2-0.4-0.4-0.7-0.6-1L39,72.9c-0.4-0.7-0.8-1.5-1.3-2.2c-0.1-0.2-0.1-0.4,0-0.6c0.1-0.2,0.2-0.3,0.3-0.5
			c0.1-0.1,0.1-0.2,0.2-0.4c0.3-0.4,0.5-0.8,0.7-1.2c0.3-0.5,0.5-0.9,0.8-1.4l0,0c0,0,0-0.1,0-0.1l0.2,0c0.2,0,0.4,0,0.7,0
			c1,0.1,1.9,0.1,2.8,0c0.5,0,1,0,1.2,0.6c0.2,0.5,0.6,1.1,0.9,1.6c0.2,0.3,0.4,0.6,0.6,1c0.1,0.1,0.1,0.2,0.2,0.3
			c0.1,0.2,0.3,0.4,0.3,0.6C46.5,70.8,46.4,71,46.2,71.3z M41.8,69.7c-0.3,0.1-0.4,0.4-0.5,0.7l0,0c-0.1,0.3,0.3,0.8,0.6,0.9
			c0.1,0,0.2,0,0.2,0c0.3,0,0.6-0.2,0.8-0.4c0,0,0-0.1,0.1-0.1c0.1-0.1,0.1-0.2,0.2-0.4c0,0,0,0,0,0c0-0.1-0.1-0.2-0.1-0.3
			C42.7,69.7,42.3,69.5,41.8,69.7z M42.7,70.5c0,0.1-0.1,0.1-0.1,0.2c0,0,0,0.1-0.1,0.1c-0.1,0.2-0.4,0.3-0.6,0.2
			c-0.1,0-0.3-0.4-0.3-0.5l0,0c0.1-0.2,0.1-0.4,0.3-0.4c0.1,0,0.2,0,0.2,0c0.2,0,0.4,0.1,0.5,0.4C42.7,70.4,42.7,70.4,42.7,70.5
			C42.7,70.4,42.7,70.5,42.7,70.5z M55,48.5c0.1,0,0.2,0.1,0.3,0.1c0.3,0,0.6-0.1,0.7-0.4c0.1-0.1,0.1-0.2,0.1-0.2l0.1-0.1
			c0,0,0-0.1,0-0.1c0,0,0,0,0-0.1c0-0.2-0.1-0.3-0.2-0.4l0-0.1c-0.2-0.3-0.7-0.4-1-0.3c-0.3,0.1-0.5,0.5-0.5,0.8
			C54.5,47.9,54.7,48.3,55,48.5z M55.1,47.2c0,0,0.1,0,0.1,0c0.2,0,0.4,0.1,0.4,0.2l0,0.1c0.1,0.1,0.1,0.2,0.1,0.3l0,0.1
			c0,0.1-0.1,0.1-0.1,0.2c-0.1,0.2-0.4,0.3-0.6,0.2c-0.2-0.1-0.3-0.3-0.3-0.5C54.8,47.5,54.9,47.3,55.1,47.2z M68.5,54.4
			c-0.2,0-0.4,0.1-0.6,0.3c-0.2,0.2-0.3,0.4-0.3,0.6c0,0.4,0.4,0.7,0.8,0.8c0.1,0,0.1,0,0.2,0c0.5,0,0.7-0.4,0.8-0.7
			c0,0,0-0.1,0-0.1c0,0,0-0.1,0-0.1C69.2,54.6,69,54.4,68.5,54.4z M68.5,55.7c-0.2,0-0.5-0.2-0.5-0.5c0-0.1,0.1-0.2,0.2-0.3
			c0.1-0.1,0.2-0.2,0.3-0.2c0,0,0.1,0,0.1,0c0.3,0,0.3,0,0.5,0.5C68.9,55.7,68.8,55.8,68.5,55.7z M65.8,28.7
			c0.2,0.4,0.6,0.5,0.9,0.5c0.1,0,0.1,0,0.2,0c0.8,0,1.7,0,2.5,0c0.2,0,0.3,0,0.5,0c0.3,0,0.6,0,0.9,0c0.1,0,0.3-0.1,0.4-0.3
			c0.6-0.9,1.1-1.9,1.5-2.7c0.1-0.1,0.2-0.3,0.2-0.4c0.2-0.3,0.4-0.6,0.5-0.9c0,0,0,0,0-0.1c0,0,0-0.1,0-0.1c-0.3-0.6-0.6-1.2-1-1.7
			c-0.2-0.3-0.4-0.7-0.6-1c-0.1-0.2-0.2-0.3-0.3-0.5c-0.1-0.2-0.2-0.4-0.3-0.6c-0.2-0.3-0.4-0.4-0.6-0.4c-0.9,0-2.1,0-3.3,0
			l-0.3,0.3c1.3,0,2.6,0,3.7,0c0.2,0,0.3,0,0.3,0.2c0.1,0.2,0.2,0.4,0.3,0.6c0.1,0.2,0.2,0.3,0.3,0.5c0.2,0.4,0.4,0.7,0.6,1
			c0.3,0.5,0.7,1.1,0.9,1.7c-0.1,0.3-0.2,0.5-0.4,0.8c-0.1,0.1-0.2,0.3-0.2,0.4c-0.4,0.8-1,1.7-1.5,2.7c0,0.1-0.1,0.1-0.2,0.1
			c-0.3,0-0.5,0-0.8,0c-0.2,0-0.3,0-0.5,0c0,0,0,0-0.1,0c-0.8,0-1.7,0-2.5,0c-0.4,0-0.6,0-0.7-0.3c-0.6-1.1-1.2-2.2-2-3.4
			c-0.1-0.2-0.1-0.3,0-0.5c0.2-0.2,0.3-0.5,0.4-0.7c0.1-0.1,0.1-0.2,0.2-0.3l0.4-0.7c0.1-0.2,0.2-0.3,0.3-0.5l-0.9,0.9l0,0.1
			c-0.1,0.1-0.1,0.2-0.2,0.3c-0.1,0.2-0.3,0.5-0.4,0.7c-0.2,0.3-0.2,0.5,0,0.8C64.5,26.5,65.2,27.6,65.8,28.7z M26.2,66.6
			c0.2,0.4,0.5,0.5,0.9,0.5c0,0,0,0,0.1,0c0.7,0,1.4,0,2.3,0c0.4,0,0.9,0,1.4,0c0.4,0,0.6-0.1,0.8-0.4c0.4-0.8,0.9-1.6,1.3-2.3
			l0.7-1.2c0,0,0-0.1,0.1-0.2l0-0.1c0,0,0-0.1,0-0.1c0,0,0,0,0,0c0-0.3-0.2-0.4-0.3-0.6c-0.1-0.1-0.1-0.2-0.1-0.2
			c-0.2-0.4-0.5-0.9-0.7-1.3c-0.3-0.5-0.7-1.1-0.9-1.7c-0.2-0.3-0.5-0.5-0.9-0.5c-0.5,0-1.1,0-1.6,0l-0.3,0.3c0.6,0,1.3,0,1.9,0
			c0.3,0,0.4,0.1,0.6,0.3c0.3,0.6,0.6,1.2,1,1.7c0.2,0.4,0.5,0.8,0.7,1.3c0,0.1,0.1,0.2,0.2,0.3c0.1,0.2,0.2,0.3,0.2,0.5l0,0
			c0,0,0,0.1,0,0.1l-0.7,1.2c-0.5,0.8-0.9,1.6-1.3,2.4c-0.1,0.2-0.3,0.3-0.5,0.3c-0.6,0-1,0-1.4,0c-0.9,0-1.7,0-2.4,0
			c-0.3,0-0.5-0.1-0.6-0.4c-0.5-1-1.1-2-1.7-2.9l-0.2-0.3l-0.3,0.3l0.1,0.2C25.1,64.7,25.6,65.7,26.2,66.6z M17.7,74.8
			C17.7,74.8,17.7,74.8,17.7,74.8c0.4,0,0.7-0.1,0.8-0.5c0.4-0.8,0.9-1.6,1.4-2.4l0-0.1c0.1-0.1,0.1-0.2,0.2-0.3
			c0.2-0.3,0.3-0.6,0.5-0.9c0,0,0-0.1,0-0.1c0,0,0,0,0,0c0-0.3-0.2-0.6-0.3-0.8c-0.1-0.1-0.1-0.2-0.2-0.3c-0.2-0.3-0.4-0.7-0.6-1
			c0,0,0-0.1-0.1-0.1l-0.3,0.3c0,0,0,0,0,0c0.2,0.3,0.4,0.6,0.6,1c0.1,0.1,0.1,0.2,0.2,0.3c0.1,0.2,0.3,0.4,0.3,0.6
			c-0.1,0.3-0.3,0.6-0.5,0.8c-0.1,0.1-0.1,0.2-0.2,0.3l0,0.1c-0.5,0.8-0.9,1.6-1.4,2.4c-0.1,0.2-0.3,0.3-0.5,0.3c-0.6,0-1.3,0-1.9,0
			c-0.7,0-1.4,0-2.1,0c-0.1,0-0.2,0-0.2,0l-0.2,0.2c0.2,0.1,0.3,0.1,0.5,0.1C14.9,74.7,16.3,74.7,17.7,74.8z M71.5,36.5
			c-0.4-0.8-1-0.8-1.6-0.8c-0.9,0.1-1.8,0.1-2.8,0c-0.2,0-0.5,0-0.7,0l-0.2,0c-0.2,0-0.3,0.1-0.3,0.2l0,0c-0.3,0.5-0.6,0.9-0.8,1.4
			c-0.2,0.4-0.5,0.8-0.7,1.2c-0.1,0.1-0.1,0.2-0.2,0.4c-0.1,0.2-0.2,0.3-0.3,0.5c-0.2,0.3-0.2,0.6,0,1c0.4,0.7,0.9,1.4,1.3,2.2
			l0.2,0.3c0.2,0.3,0.4,0.7,0.6,1c0.2,0.3,0.4,0.4,0.6,0.4c1.4,0,2.7,0,4,0c0,0,0,0,0,0c0.4,0,0.6-0.1,0.8-0.5
			c0.4-0.8,0.9-1.6,1.4-2.4l0-0.1c0.1-0.1,0.1-0.2,0.2-0.3c0.2-0.3,0.3-0.6,0.5-0.9c0,0,0-0.1,0-0.1c0,0,0,0,0,0
			c0-0.3-0.2-0.6-0.3-0.8c-0.1-0.1-0.1-0.2-0.2-0.3c-0.2-0.3-0.4-0.7-0.6-1C72,37.6,71.7,37,71.5,36.5z M72.8,39.5
			c0.1,0.2,0.3,0.4,0.3,0.6c-0.1,0.3-0.3,0.6-0.5,0.8c-0.1,0.1-0.1,0.2-0.2,0.3l0,0.1c-0.5,0.8-0.9,1.6-1.4,2.4
			C70.9,44,70.7,44,70.5,44c-0.6,0-1.2,0-1.9,0c-0.7,0-1.4,0-2.1,0c-0.2,0-0.3,0-0.3-0.2c-0.2-0.4-0.4-0.7-0.6-1l-0.2-0.3
			c-0.4-0.7-0.8-1.5-1.3-2.2c-0.1-0.2-0.1-0.4,0-0.6c0.1-0.2,0.2-0.3,0.3-0.5c0.1-0.1,0.1-0.2,0.2-0.4c0.3-0.4,0.5-0.8,0.7-1.2
			c0.3-0.5,0.5-0.9,0.8-1.4l0,0c0,0,0-0.1,0-0.1l0.2,0c0.2,0,0.4,0,0.7,0c1,0.1,1.9,0.1,2.8,0c0.5,0,1,0,1.2,0.6
			c0.2,0.5,0.6,1.1,0.9,1.6c0.2,0.3,0.4,0.6,0.6,1C72.6,39.3,72.7,39.4,72.8,39.5z M77.4,24.6c-1.2-2-2.3-3.9-3.4-5.9l-0.8-1.4
			c0.2-0.2,0.3-0.5,0.4-0.7c0.1-0.1,0.1-0.2,0.2-0.3c0.4-0.6,0.7-1.3,1.1-1.9c0.6-1.1,1.2-2.2,1.9-3.2l-1,1
			c-0.4,0.7-0.8,1.4-1.2,2.1c-0.4,0.6-0.7,1.3-1.1,1.9c-0.1,0.1-0.1,0.2-0.2,0.3c-0.1,0.2-0.3,0.5-0.4,0.7c-0.6,0-1.1,0-1.7,0
			c-0.1,0-0.3,0-0.4,0l-0.3,0.3c0.3,0,0.5,0,0.8,0c0.5,0,1.1,0,1.7,0l0.8,1.4c1.1,2,2.3,4,3.4,5.9c0.1,0.1,0.1,0.2,0,0.3
			c-0.8,1.3-1.6,2.7-2.4,4c-0.3,0.6-0.7,1.2-1.1,1.8c-0.2,0.3-0.4,0.7-0.6,1l-0.2,0.4h-8.6L64,31.9c-0.2-0.3-0.4-0.7-0.6-1
			c-0.4-0.6-0.7-1.2-1-1.8c-0.4-0.7-0.9-1.5-1.3-2.3l-0.3,0.3c0.4,0.7,0.8,1.5,1.3,2.2c0.3,0.6,0.7,1.2,1.1,1.8
			c0.2,0.3,0.4,0.7,0.6,1l0.2,0.4L63.1,34c-0.9,1.5-1.7,3.1-2.6,4.6c-0.1,0.1-0.1,0.3-0.2,0.4c-0.2,0.3-0.3,0.5-0.5,0.8
			c0,0-0.1,0.1-0.1,0.2c-2.9,0-5.7,0-8.6,0c0-0.1-0.1-0.1-0.1-0.2c-0.2-0.2-0.3-0.5-0.5-0.8c-0.1-0.1-0.1-0.3-0.2-0.4
			c-0.1-0.2-0.2-0.4-0.4-0.6l-0.3,0.3c0.1,0.2,0.2,0.4,0.3,0.5c0.1,0.1,0.1,0.2,0.2,0.4c0.2,0.3,0.3,0.6,0.5,0.8
			c0.1,0.1,0.1,0.1,0,0.3c-1.2,2.1-2.6,4.4-4.1,7.1c-0.1,0.2-0.2,0.2-0.4,0.2c-1.9,0-3.9,0-5.8,0L40,47.8c2.1,0,4.1,0,6.2,0
			c0.1,0,0.2,0,0.3,0l0.8,1.4c1.1,2,2.3,4,3.4,5.9c0.1,0.1,0.1,0.2,0,0.3c-0.8,1.3-1.6,2.7-2.4,4c-0.4,0.6-0.7,1.2-1.1,1.8
			c-0.2,0.4-0.4,0.7-0.6,1.1l-0.2,0.3h-8.6l-0.6-1c-0.3-0.5-0.6-1.1-0.9-1.6c-0.8-1.4-1.7-2.9-2.6-4.4c-0.2-0.4-0.2-0.6,0-0.9
			c0.3-0.6,0.7-1.2,1-1.8l-0.9,0.9c-0.1,0.2-0.3,0.5-0.4,0.7c-0.1,0.2-0.2,0.3-0.2,0.5c0,0,0,0,0,0c-0.2,0-0.4,0-0.6,0l-0.3,0.3
			c0.3,0,0.6,0,0.9,0h0c0,0,0,0,0,0c0,0.1,0.1,0.3,0.2,0.4c0.9,1.4,1.7,2.9,2.5,4.4c0.3,0.5,0.6,1.1,0.9,1.6l0.6,1l-0.9,1.5
			c-0.9,1.5-1.7,3.1-2.6,4.6c-0.1,0.1-0.1,0.3-0.2,0.4c-0.2,0.3-0.3,0.5-0.5,0.8c0,0-0.1,0.1-0.1,0.2c-2.9,0-5.7,0-8.6,0
			c0-0.1-0.1-0.1-0.1-0.2c-0.2-0.2-0.3-0.5-0.5-0.8C24,69.2,24,69.1,23.9,69c-0.6-1-1.2-2.1-1.8-3.2L21.8,66c0.6,1,1.2,2.1,1.8,3.1
			c0.1,0.1,0.1,0.2,0.2,0.4c0.2,0.3,0.3,0.6,0.5,0.8c0.1,0.1,0.1,0.1,0,0.3c-1.2,2.1-2.5,4.3-4.1,7.1c-0.1,0.2-0.2,0.2-0.4,0.2h0
			c-2.7,0-5.3,0-8,0h0c-0.1,0-0.2,0-0.3,0l-0.1-0.1c-0.1-0.1-0.2-0.3-0.2-0.4l-0.3-0.5l-0.3,0.3l0.2,0.4c0.1,0.1,0.2,0.3,0.2,0.4
			l0.1,0.1c-0.1,0.1-0.1,0.1-0.2,0.2c-0.1,0.2-0.3,0.5-0.4,0.7H11c0.1-0.2,0.2-0.4,0.3-0.6c0.1-0.2,0.2-0.3,0.5-0.3h0
			c2.7,0,5.3,0,8,0h0c0.1,0,0.2,0,0.3,0l0.5,0.9H21L20.4,78c0.1-0.1,0.1-0.1,0.1-0.2c1.6-2.7,2.9-5,4.1-7.1c0-0.1,0-0.1,0.1-0.1
			c1.4,0,2.9,0,4.3,0c1.4,0,2.9,0,4.3,0c0,0,0,0.1,0.1,0.1c1.1,1.9,2.2,3.7,3.2,5.6l0.7,1.2c0.1,0.1,0.2,0.3,0.2,0.4l0.1,0.1
			c-0.1,0.1-0.1,0.1-0.2,0.2c-0.1,0.2-0.3,0.5-0.4,0.7h0.4c0.1-0.2,0.2-0.4,0.3-0.6c0.1-0.2,0.2-0.3,0.5-0.3h0c2.7,0,5.3,0,8,0h0
			c0.1,0,0.2,0,0.3,0l0.5,0.9h0.4L46.7,78c0.1-0.1,0.1-0.1,0.1-0.2c1.6-2.7,2.9-5,4.1-7.1c0-0.1,0-0.1,0.1-0.1c1.4,0,2.9,0,4.3,0
			c1.4,0,2.9,0,4.3,0c0,0,0,0.1,0.1,0.1c1.1,1.8,2.1,3.7,3.2,5.5l0.7,1.3c0.1,0.1,0.2,0.3,0.2,0.4l0.1,0.1c-0.1,0.1-0.1,0.1-0.2,0.2
			c-0.1,0.2-0.3,0.5-0.4,0.7h0.4c0.1-0.2,0.2-0.4,0.3-0.6c0.1-0.2,0.2-0.3,0.5-0.3h0c2.7,0,5.3,0,8,0h0c0.1,0,0.2,0,0.3,0l0.5,0.9
			h0.4L73.1,78c0.1-0.1,0.1-0.1,0.1-0.2c1.6-2.7,2.9-5,4.1-7.1c0-0.1,0-0.1,0.1-0.1c0.8,0,1.5,0,2.3,0v-0.3c-0.8,0-1.5,0-2.3,0
			c0-0.1-0.1-0.1-0.1-0.2c-0.2-0.2-0.3-0.5-0.5-0.8c-0.1-0.1-0.1-0.3-0.2-0.4c-0.9-1.5-1.8-3.1-2.6-4.6l-0.9-1.5l0.2-0.4
			c0.2-0.3,0.4-0.7,0.6-1c0.4-0.6,0.7-1.2,1.1-1.8c0.8-1.3,1.5-2.7,2.3-4c0,0,0-0.1,0.1-0.1c0.8,0,1.5,0,2.3,0v-0.3
			c-0.8,0-1.5,0-2.3,0c0,0,0-0.1-0.1-0.1c-1.2-2-2.3-4-3.4-6l-0.8-1.4c0.1,0,0.1-0.1,0.1-0.2c1.6-2.7,2.9-5,4.1-7.1
			c0-0.1,0-0.1,0.1-0.1c0.8,0,1.5,0,2.3,0v-0.3c-0.8,0-1.5,0-2.3,0c0-0.1-0.1-0.1-0.1-0.2c-0.2-0.2-0.3-0.5-0.5-0.8
			c-0.1-0.1-0.1-0.3-0.2-0.4C75.8,37,74.9,35.5,74,34l-0.9-1.5l0.2-0.4c0.2-0.3,0.4-0.7,0.6-1c0.4-0.6,0.7-1.2,1.1-1.8
			c0.8-1.3,1.5-2.7,2.4-4c0,0,0-0.1,0.1-0.1c0.8,0,1.5,0,2.3,0v-0.3c-0.8,0-1.5,0-2.3,0C77.4,24.7,77.4,24.6,77.4,24.6z M47.5,49
			l-0.8-1.4c0.1-0.1,0.1-0.1,0.1-0.2c1.5-2.6,2.9-5,4.1-7.1c0-0.1,0-0.1,0.1-0.1c1.4,0,2.9,0,4.3,0c1.4,0,2.9,0,4.3,0
			c0,0,0,0.1,0.1,0.1c1.1,1.9,2.2,3.7,3.2,5.6l0.7,1.2c0.1,0.1,0.1,0.3,0.2,0.4l0.1,0.1c-0.1,0.1-0.1,0.1-0.2,0.2
			c-1.5,2.7-2.7,4.7-3.8,6.6c-0.1,0.2-0.2,0.3-0.2,0.5c0,0,0,0,0,0c-2.9,0-5.8,0-8.7,0c0,0,0-0.1-0.1-0.1C49.8,53,48.7,51,47.5,49z
			 M50.7,70.6c-1.2,2.1-2.5,4.4-4.1,7.1c-0.1,0.2-0.2,0.2-0.4,0.2h0c-2.7,0-5.3,0-8,0h0c-0.1,0-0.2,0-0.3,0l-0.1-0.1
			c-0.1-0.1-0.2-0.3-0.2-0.4l-0.7-1.2c-1.1-1.9-2.2-3.7-3.2-5.6c-0.1-0.1-0.1-0.2,0-0.3c0.2-0.3,0.4-0.6,0.5-0.8
			c0.1-0.1,0.1-0.2,0.2-0.4c0.9-1.5,1.8-3.1,2.6-4.6l0.9-1.5h8.6l0.9,1.5c0.9,1.5,1.7,3.1,2.6,4.6c0.1,0.1,0.1,0.2,0.2,0.4
			c0.2,0.3,0.3,0.6,0.5,0.8C50.7,70.4,50.8,70.5,50.7,70.6z M59.6,70.3c-2.9,0-5.7,0-8.6,0c0-0.1-0.1-0.1-0.1-0.2
			c-0.2-0.2-0.3-0.5-0.5-0.8c-0.1-0.1-0.1-0.3-0.2-0.4c-0.9-1.5-1.8-3.1-2.6-4.6l-0.9-1.5l0.2-0.3c0.2-0.3,0.4-0.7,0.6-1.1
			c0.4-0.6,0.7-1.2,1.1-1.8c0.8-1.3,1.5-2.7,2.3-4c0,0,0-0.1,0.1-0.1c2.9,0,5.8,0,8.7,0h0c0,0,0,0,0,0c0,0.1,0.1,0.3,0.2,0.4
			c0.9,1.4,1.7,2.9,2.5,4.4c0.3,0.5,0.6,1.1,0.9,1.6l0.6,1l-0.9,1.5c-0.9,1.5-1.7,3.1-2.6,4.6c-0.1,0.1-0.1,0.3-0.2,0.4
			c-0.2,0.3-0.3,0.5-0.5,0.8C59.7,70.2,59.7,70.2,59.6,70.3z M73.7,64.5c0.9,1.5,1.8,3.1,2.7,4.6c0.1,0.1,0.1,0.2,0.2,0.4
			c0.2,0.3,0.3,0.6,0.5,0.8c0,0.1,0.1,0.1,0,0.3c-1.2,2.1-2.5,4.3-4.1,7.1c-0.1,0.2-0.2,0.2-0.4,0.2h0c-2.7,0-5.3,0-8,0h0
			c-0.1,0-0.2,0-0.3,0l-0.1-0.1c-0.1-0.1-0.2-0.3-0.2-0.4l-0.7-1.3c-1.1-1.8-2.1-3.7-3.2-5.5c-0.1-0.1-0.1-0.2,0-0.3
			c0.2-0.3,0.4-0.6,0.5-0.8c0.1-0.1,0.1-0.2,0.2-0.4c0.9-1.5,1.8-3.1,2.6-4.6l0.9-1.5h8.6L73.7,64.5z M73.6,49.2c1.1,2,2.3,4,3.4,6
			c0.1,0.1,0.1,0.2,0,0.3c-0.8,1.3-1.6,2.7-2.4,4c-0.4,0.6-0.7,1.2-1.1,1.8c-0.2,0.3-0.4,0.7-0.6,1l-0.2,0.4h-8.6l-0.6-1
			c-0.3-0.5-0.6-1.1-0.9-1.6c-0.8-1.4-1.7-2.9-2.6-4.4c-0.2-0.4-0.2-0.6,0-0.9c1.1-1.9,2.3-4,3.8-6.6c0.1-0.2,0.2-0.3,0.5-0.3h0
			c2.7,0,5.3,0,8,0h0c0.1,0,0.2,0,0.3,0L73.6,49.2z M73.7,34.1c0.9,1.5,1.8,3.1,2.7,4.6c0.1,0.1,0.1,0.2,0.2,0.4
			c0.2,0.3,0.3,0.6,0.5,0.8c0.1,0.1,0.1,0.1,0,0.3c-1.2,2.1-2.5,4.4-4.1,7.1c-0.1,0.2-0.2,0.2-0.4,0.2h0c-2.7,0-5.3,0-8,0h0
			c-0.1,0-0.2,0-0.3,0l-0.1-0.1c-0.1-0.1-0.1-0.3-0.2-0.4l-0.7-1.2c-1.1-1.9-2.1-3.7-3.2-5.6c-0.1-0.1-0.1-0.2,0-0.3
			c0.2-0.3,0.4-0.6,0.5-0.8c0.1-0.1,0.1-0.2,0.2-0.4c0.9-1.5,1.8-3.1,2.6-4.6l0.9-1.5h8.6L73.7,34.1z M53.4,36.8
			C53.4,36.8,53.5,36.8,53.4,36.8c0.7,0,1.5,0,2.4,0c0.4,0,0.9,0,1.4,0c0.4,0,0.6-0.1,0.8-0.4c0.4-0.8,0.9-1.6,1.3-2.3l0.7-1.2
			c0,0,0-0.1,0.1-0.2l0-0.1c0,0,0-0.1,0-0.1c0,0,0,0,0,0c0-0.3-0.2-0.4-0.3-0.6c-0.1-0.1-0.1-0.2-0.1-0.2c-0.2-0.4-0.5-0.9-0.7-1.3
			c-0.2-0.3-0.4-0.6-0.6-1l-0.3,0.3c0.2,0.3,0.3,0.6,0.5,0.9c0.2,0.4,0.5,0.8,0.7,1.3c0,0.1,0.1,0.2,0.2,0.3
			c0.1,0.2,0.2,0.3,0.2,0.5l0,0c0,0,0,0.1,0,0.1l-0.7,1.2c-0.4,0.8-0.9,1.6-1.3,2.3c-0.1,0.2-0.2,0.3-0.5,0.3c-0.6,0-1,0-1.4,0
			c-0.9,0-1.7,0-2.4,0c-0.3,0-0.5-0.1-0.6-0.4c-0.1-0.2-0.3-0.5-0.4-0.7l-0.3,0.3c0.1,0.2,0.2,0.4,0.3,0.6
			C52.8,36.6,53,36.8,53.4,36.8z M68.6,25.7c0.5,0,0.7-0.4,0.8-0.7c0,0,0-0.1,0-0.1c0,0,0-0.1,0-0.1c-0.2-0.7-0.4-0.8-1-0.8
			c-0.2,0-0.4,0.1-0.6,0.3c-0.2,0.2-0.3,0.4-0.3,0.6c0,0.4,0.4,0.7,0.8,0.8C68.5,25.7,68.5,25.7,68.6,25.7z M68,24.9
			c0-0.1,0.1-0.2,0.2-0.3c0.1-0.1,0.2-0.2,0.3-0.2c0,0,0.1,0,0.1,0c0.3,0,0.3,0,0.5,0.5c-0.2,0.4-0.3,0.5-0.6,0.4
			C68.3,25.3,68,25.1,68,24.9z M37.6,55.9c0.1,0.1,0.1,0.2,0.1,0.2c0.2,0.4,0.5,0.8,0.7,1.2c0.3,0.6,0.7,1.1,1,1.7
			c0.2,0.4,0.6,0.5,0.9,0.5c0.1,0,0.1,0,0.2,0c0.6,0,1.2,0,1.8,0c0.3,0,0.6,0,0.8,0c0.1,0,0.3,0,0.4,0c0.3,0,0.6,0,0.9,0
			c0.1,0,0.3-0.1,0.4-0.3c0.3-0.4,0.5-0.9,0.8-1.3c0.2-0.4,0.5-0.9,0.8-1.3c0.1-0.1,0.1-0.2,0.2-0.4c0.1-0.2,0.2-0.3,0.3-0.5
			c0.2-0.3,0.2-0.6,0-1c-0.4-0.7-0.8-1.4-1.3-2.2l-0.2-0.3c-0.2-0.3-0.4-0.7-0.6-1C44.7,51,44.4,51,44.2,51c-1.2,0-2.6,0-4,0
			c-0.4,0-0.7,0.1-0.8,0.5c-0.3,0.6-0.6,1.1-0.9,1.6L38,53.9c-0.1,0.1-0.1,0.2-0.2,0.4c-0.2,0.3-0.4,0.6-0.5,0.9c0,0,0,0.1,0,0.1
			c0,0,0,0,0,0C37.3,55.6,37.4,55.8,37.6,55.9z M38.1,54.4c0.1-0.1,0.1-0.2,0.2-0.4l0.5-0.8c0.3-0.5,0.6-1.1,0.9-1.7
			c0.1-0.2,0.3-0.3,0.5-0.3c1.4,0,2.8,0,4,0c0.2,0,0.3,0,0.3,0.2c0.2,0.4,0.4,0.7,0.6,1l0.2,0.3c0.4,0.7,0.8,1.4,1.3,2.2
			c0.1,0.2,0.1,0.4,0,0.6c-0.1,0.2-0.2,0.3-0.3,0.5c-0.1,0.1-0.1,0.2-0.2,0.4c-0.3,0.4-0.5,0.9-0.8,1.3c-0.2,0.4-0.5,0.9-0.8,1.3
			c-0.1,0.1-0.1,0.1-0.2,0.1c-0.3,0-0.5,0-0.8,0c-0.2,0-0.3,0-0.5,0c-0.3,0-0.6,0-0.8,0c-0.6,0-1.2,0-1.8,0c-0.4,0-0.6,0-0.7-0.3
			c-0.3-0.6-0.6-1.2-1-1.7c-0.2-0.4-0.5-0.8-0.7-1.2c0-0.1-0.1-0.2-0.2-0.3c-0.1-0.2-0.2-0.3-0.2-0.5C37.7,55,37.9,54.7,38.1,54.4z
			 M71.5,66.9c-0.4-0.8-1-0.8-1.6-0.8c-0.9,0.1-1.8,0.1-2.8,0c-0.2,0-0.5,0-0.7,0l-0.2,0c-0.2,0-0.3,0.1-0.3,0.2l0,0
			c-0.3,0.5-0.6,0.9-0.8,1.4c-0.2,0.4-0.5,0.8-0.7,1.2c-0.1,0.1-0.1,0.3-0.2,0.4c-0.1,0.2-0.2,0.3-0.3,0.5c-0.2,0.3-0.3,0.6,0,1
			c0.4,0.7,0.8,1.4,1.3,2.2l0.2,0.3c0.2,0.3,0.4,0.7,0.6,1c0.2,0.3,0.4,0.4,0.6,0.4c1.2,0,2.6,0,4,0c0,0,0,0,0,0
			c0.4,0,0.6-0.1,0.8-0.5c0.4-0.8,0.9-1.6,1.4-2.4l0-0.1c0.1-0.1,0.1-0.2,0.2-0.3c0.2-0.3,0.3-0.6,0.5-0.9c0,0,0-0.1,0-0.1
			c0,0,0,0,0,0c0-0.3-0.2-0.6-0.3-0.8c-0.1-0.1-0.1-0.2-0.2-0.3c-0.2-0.3-0.4-0.7-0.6-1C72,68,71.7,67.4,71.5,66.9z M72.8,69.9
			c0.1,0.2,0.3,0.4,0.3,0.6c-0.1,0.3-0.3,0.6-0.5,0.8c-0.1,0.1-0.1,0.2-0.2,0.3l0,0.1c-0.5,0.8-0.9,1.6-1.4,2.4
			c-0.1,0.2-0.3,0.3-0.5,0.3c-0.6,0-1.3,0-1.9,0c-0.7,0-1.4,0-2.1,0c-0.2,0-0.3,0-0.3-0.2c-0.2-0.4-0.4-0.7-0.6-1l-0.2-0.3
			c-0.4-0.7-0.8-1.4-1.3-2.2c-0.1-0.2-0.1-0.4,0-0.6c0.1-0.2,0.2-0.3,0.3-0.5c0.1-0.1,0.1-0.2,0.2-0.4c0.3-0.4,0.5-0.8,0.7-1.2
			c0.3-0.5,0.5-0.9,0.8-1.4l0,0c0,0,0-0.1,0-0.1l0.2,0c0.2,0,0.4,0,0.7,0c1,0.1,1.9,0.1,2.8,0c0.5,0,1,0,1.2,0.6
			c0.2,0.5,0.6,1.1,0.9,1.6c0.2,0.3,0.4,0.6,0.6,1C72.6,69.7,72.7,69.8,72.8,69.9z M79,74.2c-0.4,0.7-0.7,1.3-1.1,1.9
			c-0.1,0.2-0.3,0.5-0.4,0.7L77,77.7c-0.2,0.3-0.2,0.5,0,0.8c0.1,0.2,0.2,0.4,0.4,0.6h0.4c-0.2-0.3-0.3-0.5-0.5-0.8
			c-0.1-0.1-0.1-0.3,0-0.4l0.5-0.8c0.1-0.2,0.3-0.5,0.4-0.7c0.4-0.6,0.8-1.3,1.1-1.9c0.1-0.2,0.2-0.2,0.4-0.2c0,0,0,0,0,0v-0.3
			c0,0,0,0,0,0C79.4,73.8,79.2,73.9,79,74.2z M42,56.1c0.1,0,0.1,0,0.2,0c0.5,0,0.7-0.4,0.8-0.7c0,0,0-0.1,0-0.1c0,0,0-0.1,0-0.1
			c-0.2-0.7-0.4-0.8-1-0.8c-0.2,0-0.4,0.1-0.6,0.3c-0.2,0.2-0.3,0.4-0.3,0.6C41.3,55.7,41.7,56,42,56.1z M41.8,55
			c0.1-0.1,0.2-0.2,0.3-0.2c0,0,0.1,0,0.1,0c0.3,0,0.3,0,0.5,0.5c-0.2,0.4-0.3,0.5-0.6,0.4c-0.2,0-0.5-0.2-0.5-0.5
			C41.6,55.2,41.7,55.1,41.8,55z M68.2,39.3c-0.3,0.1-0.4,0.4-0.5,0.7l0,0c-0.1,0.3,0.3,0.8,0.6,0.9c0.1,0,0.2,0,0.2,0
			c0.3,0,0.6-0.2,0.8-0.4c0,0,0-0.1,0.1-0.1c0.1-0.1,0.1-0.2,0.2-0.4c0,0,0,0,0,0c0-0.1-0.1-0.2-0.1-0.3
			C69.1,39.3,68.7,39.1,68.2,39.3z M69.1,40.1c0,0.1-0.1,0.1-0.1,0.2c0,0,0,0.1-0.1,0.1c-0.1,0.2-0.4,0.3-0.6,0.2
			c-0.1,0-0.3-0.4-0.3-0.5l0,0c0.1-0.2,0.1-0.4,0.3-0.4c0.1,0,0.2,0,0.2,0c0.2,0,0.4,0.1,0.5,0.4C69,40,69.1,40,69.1,40.1
			C69.1,40,69.1,40.1,69.1,40.1z M78.9,28.7c-0.5,1-1.1,2-1.7,2.9L77,32c-0.2,0.3-0.2,0.6,0,0.9l0.2,0.4c0.6,0.9,1.1,1.9,1.7,2.9
			c0.2,0.4,0.4,0.5,0.8,0.5v-0.3c-0.2,0-0.4-0.1-0.5-0.4c-0.5-1-1.1-2-1.7-2.9l-0.2-0.4c-0.1-0.2-0.1-0.4,0-0.6l0.2-0.4
			c0.6-0.9,1.2-1.9,1.7-2.9c0.1-0.3,0.3-0.3,0.5-0.4v-0.3C79.4,28.2,79.1,28.3,78.9,28.7z M79,13.5c-0.7,1.3-1.3,2.4-2,3.4
			c-0.2,0.2-0.2,0.5,0,0.8c0.2,0.4,0.4,0.8,0.7,1.2c0.2,0.4,0.4,0.7,0.6,1.1c0.1,0.2,0.2,0.4,0.3,0.6c0.1,0.2,0.3,0.5,0.4,0.7
			c0.2,0.3,0.4,0.4,0.7,0.4c0,0,0,0,0,0v-0.3c0,0,0,0,0,0c-0.2,0-0.3,0-0.4-0.2c-0.1-0.2-0.3-0.5-0.4-0.7c-0.1-0.2-0.2-0.4-0.3-0.6
			c-0.2-0.4-0.4-0.7-0.6-1.1c-0.2-0.4-0.4-0.8-0.7-1.2c-0.1-0.1-0.1-0.3,0-0.4c0.7-1,1.3-2.2,2-3.4c0.1-0.2,0.2-0.3,0.5-0.3V13
			C79.4,13,79.1,13.2,79,13.5z M32.8,76.2c-0.2-0.3-0.3-0.5-0.5-0.8l-0.2-0.3c-0.2-0.3-0.3-0.6-0.5-0.9c-0.2-0.3-0.4-0.4-0.7-0.4
			c-1.3,0-2.7,0-4,0c-0.3,0-0.5,0.1-0.7,0.4c-0.4,0.7-0.7,1.3-1.1,1.9c-0.1,0.2-0.3,0.5-0.4,0.7l-0.5,0.8c-0.2,0.3-0.2,0.5,0,0.8
			c0.1,0.2,0.2,0.4,0.4,0.6H25c-0.2-0.3-0.3-0.5-0.5-0.8c-0.1-0.1-0.1-0.3,0-0.4L25,77c0.1-0.2,0.3-0.5,0.4-0.7
			c0.4-0.6,0.8-1.3,1.1-1.9c0.1-0.2,0.2-0.2,0.4-0.2c1.3,0,2.7,0,4,0c0.2,0,0.3,0,0.4,0.2c0.2,0.3,0.3,0.6,0.5,0.9l0.2,0.3
			c0.2,0.3,0.3,0.5,0.5,0.8c0.3,0.6,0.7,1.1,0.9,1.7c-0.1,0.2-0.2,0.4-0.4,0.7C33,78.9,33,79,32.9,79.1c0,0,0,0,0,0h0.4
			c0-0.1,0.1-0.1,0.1-0.2c0.1-0.2,0.3-0.5,0.4-0.7c0,0,0-0.1,0-0.1c0,0,0-0.1,0-0.1C33.5,77.4,33.2,76.8,32.8,76.2z M59.2,76.2
			c-0.2-0.3-0.3-0.5-0.5-0.8l-0.2-0.3c-0.2-0.3-0.3-0.6-0.5-0.9c-0.2-0.3-0.4-0.4-0.7-0.4h0c-1.3,0-2.7,0-4,0
			c-0.3,0-0.5,0.1-0.7,0.4c-0.4,0.7-0.7,1.3-1.1,1.9c-0.1,0.2-0.3,0.5-0.4,0.7l-0.5,0.8c-0.2,0.3-0.2,0.5,0,0.8
			c0.1,0.2,0.2,0.4,0.4,0.6h0.4c-0.2-0.3-0.3-0.5-0.5-0.8c-0.1-0.1-0.1-0.3,0-0.4l0.5-0.8c0.1-0.2,0.3-0.5,0.4-0.7
			c0.4-0.6,0.8-1.3,1.1-1.9c0.1-0.2,0.2-0.2,0.4-0.2c1.3,0,2.7,0,4,0c0.2,0,0.3,0,0.4,0.2c0.2,0.3,0.3,0.6,0.5,0.9l0.2,0.3
			c0.2,0.3,0.3,0.5,0.5,0.8c0.3,0.6,0.7,1.1,0.9,1.7c-0.1,0.2-0.2,0.4-0.4,0.7c-0.1,0.1-0.1,0.2-0.2,0.3c0,0,0,0,0,0h0.4
			c0-0.1,0.1-0.1,0.1-0.2c0.1-0.2,0.3-0.5,0.4-0.7c0,0,0-0.1,0-0.1c0,0,0-0.1,0-0.1C59.9,77.4,59.5,76.8,59.2,76.2z M71.8,52.4
			c-0.2-0.3-0.4-0.7-0.6-1C71.1,51,70.8,51,70.6,51c-1.2,0-2.6,0-4,0c-0.4,0-0.7,0.1-0.8,0.5c-0.3,0.6-0.6,1.1-0.9,1.6l-0.5,0.8
			c-0.1,0.1-0.1,0.2-0.2,0.4c-0.2,0.3-0.4,0.6-0.5,0.9c0,0,0,0.1,0,0.1c0,0,0,0,0,0c0,0.3,0.2,0.4,0.3,0.6c0.1,0.1,0.1,0.2,0.1,0.2
			c0.2,0.4,0.5,0.8,0.7,1.2c0.3,0.6,0.7,1.1,1,1.7c0.2,0.4,0.6,0.5,0.9,0.5c0.1,0,0.1,0,0.2,0c0.6,0,1.2,0,1.8,0c0.3,0,0.5,0,0.8,0
			c0.1,0,0.3,0,0.4,0c0.3,0,0.6,0,0.9,0c0.1,0,0.3-0.1,0.4-0.3c0.3-0.4,0.5-0.9,0.8-1.3c0.2-0.4,0.5-0.9,0.8-1.3
			c0.1-0.1,0.1-0.3,0.2-0.4c0.1-0.2,0.2-0.3,0.3-0.5c0.2-0.3,0.2-0.6,0-1c-0.4-0.7-0.8-1.4-1.3-2.2L71.8,52.4z M72.9,55.6
			c-0.1,0.2-0.2,0.3-0.3,0.5c-0.1,0.1-0.1,0.2-0.2,0.4c-0.3,0.4-0.5,0.9-0.8,1.3c-0.2,0.4-0.5,0.9-0.8,1.3c-0.1,0.1-0.1,0.1-0.2,0.1
			c-0.2,0-0.5,0-0.8,0c-0.2,0-0.3,0-0.5,0c-0.3,0-0.5,0-0.8,0c-0.6,0-1.2,0-1.9,0c-0.4,0-0.6,0-0.7-0.3c-0.3-0.6-0.6-1.2-1-1.7
			c-0.2-0.4-0.5-0.8-0.7-1.2c0-0.1-0.1-0.2-0.2-0.3c-0.1-0.2-0.2-0.3-0.2-0.5c0.1-0.3,0.3-0.6,0.4-0.8c0.1-0.1,0.1-0.2,0.2-0.4
			l0.5-0.8c0.3-0.5,0.6-1.1,0.9-1.7c0.1-0.2,0.3-0.3,0.5-0.3c1.4,0,2.8,0,4,0c0.2,0,0.3,0,0.3,0.2c0.2,0.4,0.4,0.7,0.6,1l0.2,0.3
			c0.4,0.7,0.8,1.4,1.3,2.2C73.1,55.2,73.1,55.4,72.9,55.6z"/>
	</g>
</g>
</svg>
