<?xml version="1.0" encoding="utf-8"?>
<!-- Generator: Adobe Illustrator 22.0.1, SVG Export Plug-In . SVG Version: 6.00 Build 0)  -->
<svg version="1.1" id="Layer_1" xmlns="http://www.w3.org/2000/svg" xmlns:xlink="http://www.w3.org/1999/xlink" x="0px" y="0px"
	 viewBox="0 0 268.6 288" style="enable-background:new 0 0 268.6 288;" xml:space="preserve">
<style type="text/css">
	.st0{fill:#FFFFFF;}
	.st1{fill:#1C1F2C;}
	.st2{fill:#8A8A8A;}
	.st3{opacity:0.2;}
	.st4{fill:#ABABAB;}
	.st5{fill:#636363;}
</style>
<g>
	<g>
		<polygon class="st0" points="229.4,35.3 229.4,103.1 224.6,107.9 211.2,121.3 205.6,126.9 192.2,140.3 186.7,145.8 173.3,159.2 
			167.7,164.8 163.8,168.7 158.2,174.3 144.9,187.7 139.3,193.2 125.9,206.6 120.3,212.2 106.9,225.6 102.1,230.4 102.1,162.6 
			106.9,157.8 120.3,144.4 125.9,138.8 139.3,125.4 144.9,119.8 158.2,106.5 163.8,100.9 167.7,97 173.3,91.4 186.7,78 192.2,72.5 
			205.6,59.1 211.2,53.5 224.6,40.1 		"/>
		<polygon class="st0" points="164.8,139.4 164.8,186.4 161.4,189.8 152.1,199.1 148.3,203 139,212.2 135.1,216.1 125.8,225.4 
			122,229.3 119.3,232 115.4,235.8 106.1,245.1 102.3,249 93,258.3 89.1,262.1 79.8,271.4 76.5,274.8 76.5,227.7 79.8,224.4 
			89.1,215.1 93,211.2 102.3,201.9 106.1,198.1 115.4,188.8 119.3,184.9 122,182.2 125.8,178.4 135.1,169.1 139,165.2 148.3,155.9 
			152.1,152.1 161.4,142.8 		"/>
		<polygon class="st0" points="106.2,73.6 106.2,129.9 102.2,133.9 91.1,145 86.4,149.6 75.3,160.7 70.7,165.3 59.6,176.4 55,181.1 
			51.8,184.3 47.1,188.9 36,200 31.4,204.6 20.3,215.7 15.7,220.4 4.6,231.5 0.6,235.5 0.6,179.2 4.6,175.2 15.7,164.1 20.3,159.5 
			31.4,148.4 36,143.8 47.1,132.7 51.8,128.1 55,124.8 59.6,120.2 70.7,109.1 75.3,104.5 86.4,93.4 91.1,88.7 102.2,77.7 		"/>
		<polygon class="st1" points="59.5,196.9 59.5,214.4 92.3,181.5 92.3,164.1 		"/>
		<g>
			<polygon class="st2" points="61.1,87.5 117.3,87.5 61.1,143.7 			"/>
			<g>
				<path class="st1" d="M61.1,135.4c0.5,0,1,0,1.6,0c-0.1,2.3-0.2,4.6-0.2,7l0.9-0.9c0-0.3,0-0.6,0-1c0-1.5-0.1-3-0.1-4.5
					c0-0.2,0-0.4,0-0.6c0.6,0,1.3,0,2,0c-0.1,1.5-0.1,2.9-0.1,4.4l0.8-0.8c0-1-0.1-1.9-0.1-2.9c0-0.2,0-0.4,0-0.6
					c0.3-0.1,1.4-0.1,1.9,0c0,0.6,0,1.2,0,1.7l0.7-0.7c0-0.3,0-0.7,0-1c0.1,0,0.6-0.1,1.1-0.1l0.6-0.6c-3,0.1-6,0.1-9,0.2V135.4z"/>
				<path class="st1" d="M61.1,88.1c3.3,0.1,6.5,0.2,9.8,0.1c0,0.5,0,1.1,0,1.6c-3.3,0.1-6.5,0.1-9.8,0.2v0.7
					c3.3,0.1,6.5,0.1,9.8,0.2c0,0.2,0,0.5,0,0.7c0,0.3,0,0.5,0,0.8c-3.3,0.1-6.5,0.1-9.8,0.2V93c0.5,0,1,0,1.6,0
					c-0.1,3.5-0.2,7-0.2,10.5c-0.5,0-1,0-1.4,0v0.6c3.3,0.1,6.5,0.1,9.8,0.2c0,0.5,0,1,0,1.5c-3.3,0.1-6.5,0.1-9.8,0.2v0.7
					c3.3,0.1,6.5,0.2,9.8,0.1c0,0.5,0,1.1,0,1.6c-0.1,0-0.2,0-0.3,0c-2.5,0-4.9,0-7.4,0.1c-0.7,0-1.4,0-2.1,0.1v0.6
					c3.3,0.1,6.5,0.2,9.8,0.1c0,0.5,0,1.1,0,1.6c-3.3,0.1-6.5,0.1-9.8,0.2v0.7c3.3,0.1,6.5,0.1,9.8,0.2c0,0.5,0,1,0,1.5
					c-3.3,0.1-6.5,0.1-9.8,0.2v0.4c0.5,0,1.3,0,1.6,0c-0.1,3.5-0.2,7-0.2,10.5c-0.5,0-0.9,0-1.4,0v0.6c3.3,0.1,6.5,0.1,9.8,0.2
					c0,0.5,0,1,0,1.5c-3.3,0.1-6.5,0.1-9.8,0.2v0.7c3.3,0.1,6.5,0.2,9.8,0.1c0,0.6,0,1.1,0,1.6c-3.3,0.1-6.5,0.1-9.8,0.2v0.7
					c3.3,0.1,6.5,0.2,9.8,0.1c0,0.3,0,0.5,0,0.8c0,0.3,0,0.5,0,0.8c-3.3,0.1-6.5,0.1-9.8,0.2v0.7c1.5,0,3,0.1,4.5,0.1
					c1.7,0,3.5,0,5.3,0c0,0.3,0,0.5,0,0.8l0.7-0.7c0-2.8,0.1-5.7,0.1-8.5c0.5,0,1,0,1.5,0c0,0.1,0,0.2,0,0.3c0,2.2,0,4.3,0.1,6.5
					l0.8-0.8c0-2,0.1-3.9,0.1-5.9c0.5,0,1,0,1.5,0c0,1.4,0,2.8,0.1,4.2l0.9-0.9c0-1.1,0-2.2,0.1-3.3c0.5,0,1,0,1.6,0
					c0,0.1,0,0.3,0,0.4c0,0.4,0,0.8,0,1.3l1-1c0-0.2,0-0.5,0-0.7c0.2,0,0.5,0,0.7,0l0.6-0.6c-3.2-0.1-6.5-0.2-9.7-0.1
					c0-0.6,0-1.1,0-1.6c3.5-0.1,7-0.1,10.6-0.2c0,0.3,0,0.7,0,1.1l0.6-0.6c0-2.9-0.1-5.7-0.1-8.6c0.6,0,1.3,0,1.9,0
					c-0.1,2.3-0.2,4.6-0.2,7l0.9-0.9c0-0.3,0-0.6,0-0.9c0-1.5-0.1-3.1-0.1-4.6c0-0.2,0-0.4,0-0.6c0.7,0,1.3,0,2,0
					c-0.1,1.5-0.1,2.9-0.1,4.4l0.8-0.8c0-1-0.1-1.9-0.1-2.9c0-0.2,0-0.4,0-0.6c0.7,0,1.3,0,1.9,0c0,0.6,0,1.2,0,1.7l0.7-0.7
					c0-0.2,0-0.3,0-0.5c0-0.2,0-0.4,0-0.6c0.4,0,0.7,0,1.1,0l0.6-0.6c-3.2,0.1-6.5,0.1-9.7,0.2c0-0.6,0-1.3,0-1.9
					c3.5,0.1,7,0.1,10.5,0.2c0,0.2,0,0.5,0,0.7l0.7-0.7c0-2.8,0.1-5.7,0.1-8.5c0.5,0,1,0,1.5,0c0,2.2,0.1,4.5,0.1,6.7l0.8-0.8
					c0-2,0.1-3.9,0.1-5.9c0.5,0,1,0,1.5,0c0,0.1,0,0.2,0,0.3c0,1.3,0,2.6,0,3.9l0.9-0.9c0-1.1,0-2.2,0.1-3.3c0.5,0,1,0,1.5,0
					c0,0.6,0,1.1,0,1.7l1-1c0-0.2,0-0.5,0-0.7c0.2,0,0.5,0,0.7,0l0.6-0.6c-3.2-0.1-6.5-0.1-9.8-0.2c0-0.5,0-1,0-1.5
					c3.5-0.1,7-0.1,10.6-0.2c0,0.3,0,0.7,0,1.1l0.6-0.6c0-2.9-0.1-5.7-0.1-8.6c0.6,0,1.3,0,1.9,0c-0.1,2.3-0.2,4.6-0.2,7l0.9-0.9
					c0-0.3,0-0.6,0-1c0-1.5-0.1-3-0.1-4.5c0-0.2,0-0.4,0-0.6c0.7,0,1.3,0,2,0c-0.1,1.5-0.1,2.9-0.1,4.4l0.8-0.8c0-1-0.1-1.9-0.1-2.9
					c0-0.2,0-0.4,0-0.6c0.6,0,1.3,0,1.9,0c0,0.6,0,1.2,0,1.7l0.7-0.7c0-0.2,0-0.3,0-0.5c0-0.2,0-0.3,0-0.5c0.2,0,0.6-0.1,1.1-0.1
					l0.6-0.6c-3.2,0.1-6.5,0.1-9.7,0.2c0-0.6,0-1.3,0-1.9c3.5,0.1,7,0.1,10.5,0.2c0,0.2,0,0.5,0,0.7l0.7-0.7c0-1.1,0-2.3,0.1-3.4
					h-11.8c0,0.8,0,1.7,0,2.5c0,0.8,0.1,1.6,0.1,2.4c0,0.2,0,0.3,0,0.5c-0.7,0-1.3,0-2,0c0-1.2,0.1-2.3,0.1-3.5c0-0.7,0-1.3,0-2
					h-0.9c0,0.9,0,1.7,0,2.6c0,0.8,0.1,1.6,0.1,2.4c0,0.1,0,0.3,0,0.5c-0.7,0-1.3,0-1.9,0c0-1.8,0.1-3.6,0.1-5.5H97
					c0,1.8,0.1,3.6,0.1,5.4c-0.2,0.1-1.5,0.1-1.9,0c0-1.8,0.1-3.6,0.1-5.4h-0.9c0,0.9,0,1.8,0,2.7c0,0.8,0.1,1.6,0.1,2.4
					c0,0.1,0,0.3,0,0.4c-0.7,0-1.3,0-1.9,0c0-1.8,0.1-3.6,0.1-5.5H81c0,1,0,2.1,0,3.1c0,0.7,0.1,1.3,0.1,2c0,0.1,0,0.3,0,0.4
					c-0.7,0-1.3,0-2,0c0-1.2,0.1-2.3,0.1-3.5c0-0.7,0-1.3,0-2h-0.9c0,0.9,0,1.7,0,2.6c0,0.8,0.1,1.6,0.1,2.4c0,0.1,0,0.3,0,0.5
					c-0.7,0-1.3,0-1.9,0c0-1.8,0.1-3.6,0.1-5.5h-0.9c0,1.8,0.1,3.6,0.1,5.5c-0.6,0-1.3,0-1.9,0c0-1.8,0.1-3.6,0.1-5.5h-0.9
					c0,1.8,0.1,3.6,0.1,5.4c-0.3,0.1-1.5,0.1-1.9,0c0-1.8,0.1-3.6,0.1-5.4H61.1V88.1z M65.1,103.6c-0.3,0-0.5,0-0.8,0
					c-0.3,0-0.5,0-0.8,0c0-0.2,0-0.3,0-0.5c0-1.7,0-3.4,0-5c0-1.5-0.1-3-0.1-4.5c0-0.2,0-0.4,0-0.6c0.7,0,1.3,0,2,0
					C65.1,96.5,65,100,65.1,103.6z M67.6,103.6c-0.5,0-1,0-1.5,0c-0.1-3.5-0.1-7-0.2-10.5c0.3-0.1,1.5-0.1,1.9,0
					C67.7,96.5,67.6,100,67.6,103.6z M70.2,103.6c-0.5,0-1,0-1.6,0c0-0.1,0-0.3,0-0.4c0-1.8,0-3.6,0-5.4c0-1.4-0.1-2.8-0.1-4.2
					c0-0.2,0-0.3,0-0.6c0.7,0,1.3,0,1.9,0C70.3,96.5,70.2,100,70.2,103.6z M65.1,124.7c-0.6,0-1.1,0-1.6,0c0-0.2,0-0.3,0-0.4
					c0-1.7,0-3.3,0-5c0-1.5-0.1-3-0.1-4.5c0-0.2,0-0.4,0-0.6c0.7,0,1.3,0,2,0C65.1,117.7,65,121.2,65.1,124.7z M67.6,124.7
					c-0.2,0-0.5,0-0.7,0c-0.3,0-0.5,0-0.8,0c0-0.1,0-0.3,0-0.4c0-1.7,0-3.5,0-5.2c0-1.4-0.1-2.9-0.1-4.3c0-0.2,0-0.4,0-0.6
					c0.7,0,1.3,0,1.9,0C67.7,117.7,67.6,121.2,67.6,124.7z M70.2,124.7c-0.5,0-1,0-1.6,0c0-0.1,0-0.3,0-0.4c0-1.8,0-3.6,0-5.3
					c0-1.4-0.1-2.8-0.1-4.3c0-0.2,0-0.3,0-0.6c0.7,0,1.3,0,1.9,0C70.3,117.7,70.2,121.2,70.2,124.7z M102.7,88.1
					c3.5,0.1,7,0.2,10.5,0.2c0,0.1,0,0.2,0,0.3c0,0.4,0,0.9,0,1.3c-3.5,0.1-7,0.1-10.6,0.2C102.7,89.4,102.7,88.8,102.7,88.1z
					 M102.7,97.9c-3.5-0.1-7-0.1-10.6-0.2c0-0.5,0-1,0-1.5c3.5-0.1,7-0.1,10.6-0.2C102.7,96.6,102.7,97.2,102.7,97.9z M92.1,93.6
					c0.1,0,0.2,0,0.3,0c2.3,0,4.6,0,6.8-0.1c1,0,2-0.1,2.9-0.1c0.2,0,0.3,0,0.5,0c0,0.7,0,1.3,0,1.9c-3.5-0.1-7-0.1-10.6-0.2
					C92.1,94.6,92.1,94.1,92.1,93.6z M92.1,98.7c3.5-0.1,7-0.1,10.5-0.2c0,0.6,0,1.3,0,1.9c-3.5-0.1-7-0.1-10.5-0.2
					C92.1,99.7,92.1,99.2,92.1,98.7z M70.9,102.9c0-0.5,0-1.1,0-1.6c0.1,0,0.2,0,0.3,0c2.5,0,5,0,7.4-0.1c0.8,0,1.6-0.1,2.3-0.1
					c0.2,0,0.3,0,0.5,0c0,0.7,0,1.3,0,2C78,102.9,74.5,102.8,70.9,102.9z M81.1,114.1c-0.7,0-1.3,0-1.9,0c0.1-3.5,0.1-7,0.2-10.5
					c0.5,0,1,0,1.6,0c0,0.1,0,0.2,0,0.4c0,2.3,0,4.5,0,6.8c0,1,0.1,1.9,0.1,2.9C81.1,113.8,81.1,114,81.1,114.1z M76.8,103.6
					c0.6,0,1.1,0,1.6,0c0.1,3.5,0.1,7,0.2,10.5c-0.2,0.1-1.2,0.1-1.9,0c0-1.2,0.1-2.3,0.1-3.5c0-1.2,0-2.4,0.1-3.5
					C76.8,106,76.8,104.8,76.8,103.6z M76,114.1c-0.2,0.1-1.5,0.1-1.9,0c0.1-3.5,0.1-7,0.2-10.5c0.5,0,1,0,1.5,0
					C75.8,107.1,75.9,110.6,76,114.1z M73.4,114.1c-0.7,0-1.3,0-1.9,0c0.1-3.5,0.1-7,0.2-10.6c0.2,0,0.5,0,0.7,0c0.3,0,0.5,0,0.8,0
					c0,0.1,0,0.2,0,0.3c0,2.5,0,5,0.1,7.5c0,0.8,0.1,1.6,0.1,2.4C73.4,113.8,73.4,114,73.4,114.1z M81.5,114.6c0,0.3,0,0.6,0,0.9
					c0,0.3,0,0.6,0,1c-1.8-0.1-3.5-0.1-5.3-0.1c-1.8,0-3.5,0-5.3,0c0-0.6,0-1.1,0-1.6C74.4,114.7,77.9,114.6,81.5,114.6z
					 M81.5,117.2c0,0.6,0,1.3,0,1.9c-3.5-0.1-7-0.1-10.6-0.2c0-0.5,0-1,0-1.5C74.4,117.3,78,117.2,81.5,117.2z M92.1,111
					c-3.5,0.1-7,0.1-10.5,0.2c0-0.6,0-1.3,0-1.9c3.5,0.1,7,0.2,10.5,0.2C92.1,110,92.1,110.5,92.1,111z M92.1,105.9
					c-3.5,0.1-7,0.1-10.5,0.2c0-0.6,0-1.3,0-1.9c3.5,0.1,7,0.1,10.5,0.2C92.1,104.9,92.1,105.4,92.1,105.9z M81.5,92.6
					c0-0.6,0-1.2,0-1.9c3.5,0.1,7,0.2,10.5,0.2c0,0.6,0,1.1,0,1.6C88.5,92.5,85,92.5,81.5,92.6z M91.5,93c-0.1,3.5-0.1,7-0.2,10.6
					c-0.2,0-0.5,0-0.7,0c-0.3,0-0.5,0-0.8,0c0-0.1,0-0.3,0-0.4c0-1.8,0-3.6,0-5.3c0-1.4-0.1-2.8-0.1-4.3c0-0.2,0-0.3,0-0.6
					C90.2,93,90.9,93,91.5,93z M88.9,93c-0.1,3.5-0.1,7-0.2,10.6c-0.2,0-0.5,0-0.7,0c-0.3,0-0.5,0-0.8,0c0-0.1,0-0.3,0-0.4
					c0-1.7,0-3.5,0-5.2c0-1.4-0.1-2.9-0.1-4.3c0-0.2,0-0.4,0-0.6C87.7,93,88.3,93,88.9,93z M86.2,103.6c-0.6,0-1.1,0-1.6,0
					c0-0.2,0-0.3,0-0.4c0-1.7,0-3.3,0-5c0-1.5-0.1-3-0.1-4.5c0-0.2,0-0.4,0-0.6c0.7,0,1.3,0,2,0C86.3,96.5,86.2,100,86.2,103.6z
					 M83.7,103.6c-0.3,0-0.5,0-0.8,0c-0.3,0-0.5,0-0.8,0c0-0.1,0-0.3,0-0.4c0-1.1,0-2.3,0-3.4c0-1.6-0.1-3.3-0.1-4.9
					c0-0.5,0-1.1-0.1-1.6c0-0.1,0-0.2,0-0.3c0.7,0,1.3,0,1.9,0C83.7,96.5,83.6,100,83.7,103.6z M81.5,88.1c3.5,0.1,7,0.2,10.5,0.2
					c0,0.1,0,0.2,0,0.3c0,0.4,0,0.8,0,1.2c-3.5,0.1-7,0.1-10.6,0.2C81.5,89.4,81.5,88.8,81.5,88.1z M81.5,106.7
					c3.5,0.1,7,0.2,10.5,0.2c0,0.6,0,1.1,0,1.6c-3.5,0.1-7,0.1-10.5,0.2C81.5,108,81.5,107.4,81.5,106.7z M81.5,121.6
					c-3.5-0.1-7-0.1-10.5-0.2c0-0.5,0-1,0-1.5c3.5-0.1,7-0.1,10.5-0.2C81.5,120,81.5,121.3,81.5,121.6z M70.9,93.6
					c0.1,0,0.2,0,0.3,0c2.3,0,4.6,0,6.8-0.1c1,0,2-0.1,2.9-0.1c0.1,0,0.3,0,0.5,0c0,0.3,0,0.6,0,1c0,0.3,0,0.6,0,1
					c-1.2,0-2.4-0.1-3.5-0.1c-1.2,0-2.3,0-3.5-0.1c-1.2,0-2.4,0-3.5,0C70.9,94.6,70.9,94.1,70.9,93.6z M81.5,95.9c0,0.7,0,1.3,0,1.9
					c-3.5-0.1-7-0.1-10.6-0.2c0-0.5,0-1,0-1.5c0.1,0,0.2,0,0.3,0c2.4,0,4.8,0,7.3-0.1c0.8,0,1.7-0.1,2.5-0.1
					C81.1,95.9,81.3,95.9,81.5,95.9z M70.9,98.7c0.1,0,0.2,0,0.3,0c2.5,0,4.9,0,7.4-0.1c0.8,0,1.6-0.1,2.4-0.1c0.1,0,0.3,0,0.5,0
					c0,0.7,0,1.3,0,1.9c-3.5-0.1-7-0.1-10.6-0.2C70.9,99.7,70.9,99.2,70.9,98.7z"/>
				<path class="st1" d="M116.5,88.3c0-0.3,0-0.5,0-0.8h-0.9c0,0.5,0,1.1,0,1.6L116.5,88.3z"/>
			</g>
		</g>
		<g class="st3">
			<circle cx="172.3" cy="145.7" r="0.9"/>
			<path d="M167.6,151.2c0.5,0,0.9-0.4,0.9-0.9c0-0.5-0.4-0.9-0.9-0.9c-0.5,0-0.9,0.4-0.9,0.9C166.7,150.8,167.1,151.2,167.6,151.2z
				"/>
			<path d="M172.3,151.2c0.5,0,0.9-0.4,0.9-0.9c0-0.5-0.4-0.9-0.9-0.9c-0.5,0-0.9,0.4-0.9,0.9C171.4,150.8,171.8,151.2,172.3,151.2z
				"/>
			<path d="M163,155.8c0.5,0,0.9-0.4,0.9-0.9c0-0.5-0.4-0.9-0.9-0.9s-0.9,0.4-0.9,0.9C162.1,155.4,162.5,155.8,163,155.8z"/>
			<path d="M167.6,155.8c0.5,0,0.9-0.4,0.9-0.9c0-0.5-0.4-0.9-0.9-0.9c-0.5,0-0.9,0.4-0.9,0.9C166.7,155.4,167.1,155.8,167.6,155.8z
				"/>
			<path d="M172.3,155.8c0.5,0,0.9-0.4,0.9-0.9c0-0.5-0.4-0.9-0.9-0.9c-0.5,0-0.9,0.4-0.9,0.9C171.4,155.4,171.8,155.8,172.3,155.8z
				"/>
			<path d="M158.3,160.5c0.5,0,0.9-0.4,0.9-0.9c0-0.5-0.4-0.9-0.9-0.9c-0.5,0-0.9,0.4-0.9,0.9C157.5,160.1,157.9,160.5,158.3,160.5z
				"/>
			<circle cx="163" cy="159.6" r="0.9"/>
			<path d="M167.6,160.5c0.5,0,0.9-0.4,0.9-0.9c0-0.5-0.4-0.9-0.9-0.9c-0.5,0-0.9,0.4-0.9,0.9C166.7,160.1,167.1,160.5,167.6,160.5z
				"/>
			<circle cx="172.3" cy="159.6" r="0.9"/>
			<path d="M153.7,165.1c0.5,0,0.9-0.4,0.9-0.9c0-0.5-0.4-0.9-0.9-0.9c-0.5,0-0.9,0.4-0.9,0.9C152.8,164.7,153.2,165.1,153.7,165.1z
				"/>
			<path d="M158.3,165.1c0.5,0,0.9-0.4,0.9-0.9c0-0.5-0.4-0.9-0.9-0.9c-0.5,0-0.9,0.4-0.9,0.9C157.5,164.7,157.9,165.1,158.3,165.1z
				"/>
			<path d="M163,165.1c0.5,0,0.9-0.4,0.9-0.9c0-0.5-0.4-0.9-0.9-0.9s-0.9,0.4-0.9,0.9C162.1,164.7,162.5,165.1,163,165.1z"/>
			<path d="M167.6,165.1c0.5,0,0.9-0.4,0.9-0.9c0-0.5-0.4-0.9-0.9-0.9c-0.5,0-0.9,0.4-0.9,0.9C166.7,164.7,167.1,165.1,167.6,165.1z
				"/>
			<path d="M172.3,165.1c0.5,0,0.9-0.4,0.9-0.9c0-0.5-0.4-0.9-0.9-0.9c-0.5,0-0.9,0.4-0.9,0.9C171.4,164.7,171.8,165.1,172.3,165.1z
				"/>
			<circle cx="149.1" cy="168.9" r="0.9"/>
			<path d="M153.7,169.7c0.5,0,0.9-0.4,0.9-0.9c0-0.5-0.4-0.9-0.9-0.9c-0.5,0-0.9,0.4-0.9,0.9C152.8,169.4,153.2,169.7,153.7,169.7z
				"/>
			<path d="M158.3,169.7c0.5,0,0.9-0.4,0.9-0.9c0-0.5-0.4-0.9-0.9-0.9c-0.5,0-0.9,0.4-0.9,0.9C157.5,169.4,157.9,169.7,158.3,169.7z
				"/>
			<circle cx="163" cy="168.9" r="0.9"/>
			<path d="M167.6,169.7c0.5,0,0.9-0.4,0.9-0.9c0-0.5-0.4-0.9-0.9-0.9c-0.5,0-0.9,0.4-0.9,0.9C166.7,169.4,167.1,169.7,167.6,169.7z
				"/>
			<circle cx="172.3" cy="168.9" r="0.9"/>
			<path d="M144.4,174.4c0.5,0,0.9-0.4,0.9-0.9c0-0.5-0.4-0.9-0.9-0.9c-0.5,0-0.9,0.4-0.9,0.9C143.5,174,143.9,174.4,144.4,174.4z"
				/>
			<path d="M149.1,174.4c0.5,0,0.9-0.4,0.9-0.9c0-0.5-0.4-0.9-0.9-0.9c-0.5,0-0.9,0.4-0.9,0.9C148.2,174,148.6,174.4,149.1,174.4z"
				/>
			<path d="M153.7,174.4c0.5,0,0.9-0.4,0.9-0.9c0-0.5-0.4-0.9-0.9-0.9c-0.5,0-0.9,0.4-0.9,0.9C152.8,174,153.2,174.4,153.7,174.4z"
				/>
			<path d="M158.3,174.4c0.5,0,0.9-0.4,0.9-0.9c0-0.5-0.4-0.9-0.9-0.9c-0.5,0-0.9,0.4-0.9,0.9C157.5,174,157.9,174.4,158.3,174.4z"
				/>
			<path d="M163,174.4c0.5,0,0.9-0.4,0.9-0.9c0-0.5-0.4-0.9-0.9-0.9s-0.9,0.4-0.9,0.9C162.1,174,162.5,174.4,163,174.4z"/>
			<path d="M167.6,174.4c0.5,0,0.9-0.4,0.9-0.9c0-0.5-0.4-0.9-0.9-0.9c-0.5,0-0.9,0.4-0.9,0.9C166.7,174,167.1,174.4,167.6,174.4z"
				/>
			<path d="M172.3,174.4c0.5,0,0.9-0.4,0.9-0.9c0-0.5-0.4-0.9-0.9-0.9c-0.5,0-0.9,0.4-0.9,0.9C171.4,174,171.8,174.4,172.3,174.4z"
				/>
			<path d="M139.8,179c0.5,0,0.9-0.4,0.9-0.9c0-0.5-0.4-0.9-0.9-0.9c-0.5,0-0.9,0.4-0.9,0.9C138.9,178.6,139.3,179,139.8,179z"/>
			<path d="M144.4,179c0.5,0,0.9-0.4,0.9-0.9c0-0.5-0.4-0.9-0.9-0.9c-0.5,0-0.9,0.4-0.9,0.9C143.5,178.6,143.9,179,144.4,179z"/>
			<path d="M149.1,179c0.5,0,0.9-0.4,0.9-0.9c0-0.5-0.4-0.9-0.9-0.9c-0.5,0-0.9,0.4-0.9,0.9C148.2,178.6,148.6,179,149.1,179z"/>
			<path d="M153.7,179c0.5,0,0.9-0.4,0.9-0.9c0-0.5-0.4-0.9-0.9-0.9c-0.5,0-0.9,0.4-0.9,0.9C152.8,178.6,153.2,179,153.7,179z"/>
			<path d="M158.3,179c0.5,0,0.9-0.4,0.9-0.9c0-0.5-0.4-0.9-0.9-0.9c-0.5,0-0.9,0.4-0.9,0.9C157.5,178.6,157.9,179,158.3,179z"/>
			<path d="M163,179c0.5,0,0.9-0.4,0.9-0.9c0-0.5-0.4-0.9-0.9-0.9s-0.9,0.4-0.9,0.9C162.1,178.6,162.5,179,163,179z"/>
			<path d="M167.6,179c0.5,0,0.9-0.4,0.9-0.9c0-0.5-0.4-0.9-0.9-0.9c-0.5,0-0.9,0.4-0.9,0.9C166.7,178.6,167.1,179,167.6,179z"/>
			<path d="M172.3,179c0.5,0,0.9-0.4,0.9-0.9c0-0.5-0.4-0.9-0.9-0.9c-0.5,0-0.9,0.4-0.9,0.9C171.4,178.6,171.8,179,172.3,179z"/>
			<path d="M135.1,183.7c0.5,0,0.9-0.4,0.9-0.9c0-0.5-0.4-0.9-0.9-0.9c-0.5,0-0.9,0.4-0.9,0.9C134.3,183.3,134.6,183.7,135.1,183.7z
				"/>
			<circle cx="139.8" cy="182.8" r="0.9"/>
			<path d="M144.4,183.7c0.5,0,0.9-0.4,0.9-0.9c0-0.5-0.4-0.9-0.9-0.9c-0.5,0-0.9,0.4-0.9,0.9C143.5,183.3,143.9,183.7,144.4,183.7z
				"/>
			<circle cx="149.1" cy="182.8" r="0.9"/>
			<path d="M153.7,183.7c0.5,0,0.9-0.4,0.9-0.9c0-0.5-0.4-0.9-0.9-0.9c-0.5,0-0.9,0.4-0.9,0.9C152.8,183.3,153.2,183.7,153.7,183.7z
				"/>
			<path d="M158.3,183.7c0.5,0,0.9-0.4,0.9-0.9c0-0.5-0.4-0.9-0.9-0.9c-0.5,0-0.9,0.4-0.9,0.9C157.5,183.3,157.9,183.7,158.3,183.7z
				"/>
			<circle cx="163" cy="182.8" r="0.9"/>
			<path d="M167.6,183.7c0.5,0,0.9-0.4,0.9-0.9c0-0.5-0.4-0.9-0.9-0.9c-0.5,0-0.9,0.4-0.9,0.9C166.7,183.3,167.1,183.7,167.6,183.7z
				"/>
			<circle cx="172.3" cy="182.8" r="0.9"/>
			<path d="M130.5,188.3c0.5,0,0.9-0.4,0.9-0.9c0-0.5-0.4-0.9-0.9-0.9c-0.5,0-0.9,0.4-0.9,0.9C129.6,187.9,130,188.3,130.5,188.3z"
				/>
			<path d="M135.1,188.3c0.5,0,0.9-0.4,0.9-0.9c0-0.5-0.4-0.9-0.9-0.9c-0.5,0-0.9,0.4-0.9,0.9C134.3,187.9,134.6,188.3,135.1,188.3z
				"/>
			<path d="M139.8,188.3c0.5,0,0.9-0.4,0.9-0.9c0-0.5-0.4-0.9-0.9-0.9c-0.5,0-0.9,0.4-0.9,0.9C138.9,187.9,139.3,188.3,139.8,188.3z
				"/>
			<path d="M144.4,188.3c0.5,0,0.9-0.4,0.9-0.9c0-0.5-0.4-0.9-0.9-0.9c-0.5,0-0.9,0.4-0.9,0.9C143.5,187.9,143.9,188.3,144.4,188.3z
				"/>
			<path d="M149.1,188.3c0.5,0,0.9-0.4,0.9-0.9c0-0.5-0.4-0.9-0.9-0.9c-0.5,0-0.9,0.4-0.9,0.9C148.2,187.9,148.6,188.3,149.1,188.3z
				"/>
			<path d="M153.7,188.3c0.5,0,0.9-0.4,0.9-0.9c0-0.5-0.4-0.9-0.9-0.9c-0.5,0-0.9,0.4-0.9,0.9C152.8,187.9,153.2,188.3,153.7,188.3z
				"/>
			<path d="M158.3,188.3c0.5,0,0.9-0.4,0.9-0.9c0-0.5-0.4-0.9-0.9-0.9c-0.5,0-0.9,0.4-0.9,0.9C157.5,187.9,157.9,188.3,158.3,188.3z
				"/>
			<path d="M163,188.3c0.5,0,0.9-0.4,0.9-0.9c0-0.5-0.4-0.9-0.9-0.9s-0.9,0.4-0.9,0.9C162.1,187.9,162.5,188.3,163,188.3z"/>
			<path d="M167.6,188.3c0.5,0,0.9-0.4,0.9-0.9c0-0.5-0.4-0.9-0.9-0.9c-0.5,0-0.9,0.4-0.9,0.9C166.7,187.9,167.1,188.3,167.6,188.3z
				"/>
			<path d="M172.3,188.3c0.5,0,0.9-0.4,0.9-0.9c0-0.5-0.4-0.9-0.9-0.9c-0.5,0-0.9,0.4-0.9,0.9C171.4,187.9,171.8,188.3,172.3,188.3z
				"/>
			<circle cx="125.8" cy="192.1" r="0.9"/>
			<path d="M130.5,193c0.5,0,0.9-0.4,0.9-0.9c0-0.5-0.4-0.9-0.9-0.9c-0.5,0-0.9,0.4-0.9,0.9C129.6,192.6,130,193,130.5,193z"/>
			<path d="M135.1,193c0.5,0,0.9-0.4,0.9-0.9c0-0.5-0.4-0.9-0.9-0.9c-0.5,0-0.9,0.4-0.9,0.9C134.3,192.6,134.6,193,135.1,193z"/>
			<circle cx="139.8" cy="192.1" r="0.9"/>
			<path d="M144.4,193c0.5,0,0.9-0.4,0.9-0.9c0-0.5-0.4-0.9-0.9-0.9c-0.5,0-0.9,0.4-0.9,0.9C143.5,192.6,143.9,193,144.4,193z"/>
			<circle cx="149.1" cy="192.1" r="0.9"/>
			<path d="M153.7,193c0.5,0,0.9-0.4,0.9-0.9c0-0.5-0.4-0.9-0.9-0.9c-0.5,0-0.9,0.4-0.9,0.9C152.8,192.6,153.2,193,153.7,193z"/>
			<path d="M158.3,193c0.5,0,0.9-0.4,0.9-0.9c0-0.5-0.4-0.9-0.9-0.9c-0.5,0-0.9,0.4-0.9,0.9C157.5,192.6,157.9,193,158.3,193z"/>
			<circle cx="163" cy="192.1" r="0.9"/>
			<path d="M167.6,193c0.5,0,0.9-0.4,0.9-0.9c0-0.5-0.4-0.9-0.9-0.9c-0.5,0-0.9,0.4-0.9,0.9C166.7,192.6,167.1,193,167.6,193z"/>
			<circle cx="172.3" cy="192.1" r="0.9"/>
			<path d="M121.2,197.6c0.5,0,0.9-0.4,0.9-0.9c0-0.5-0.4-0.9-0.9-0.9c-0.5,0-0.9,0.4-0.9,0.9C120.3,197.2,120.7,197.6,121.2,197.6z
				"/>
			<circle cx="125.8" cy="196.7" r="0.9"/>
			<path d="M130.5,197.6c0.5,0,0.9-0.4,0.9-0.9c0-0.5-0.4-0.9-0.9-0.9c-0.5,0-0.9,0.4-0.9,0.9C129.6,197.2,130,197.6,130.5,197.6z"
				/>
			<path d="M135.1,197.6c0.5,0,0.9-0.4,0.9-0.9c0-0.5-0.4-0.9-0.9-0.9c-0.5,0-0.9,0.4-0.9,0.9C134.3,197.2,134.6,197.6,135.1,197.6z
				"/>
			<circle cx="139.8" cy="196.7" r="0.9"/>
			<path d="M144.4,197.6c0.5,0,0.9-0.4,0.9-0.9c0-0.5-0.4-0.9-0.9-0.9c-0.5,0-0.9,0.4-0.9,0.9C143.5,197.2,143.9,197.6,144.4,197.6z
				"/>
			<circle cx="149.1" cy="196.7" r="0.9"/>
			<path d="M153.7,197.6c0.5,0,0.9-0.4,0.9-0.9c0-0.5-0.4-0.9-0.9-0.9c-0.5,0-0.9,0.4-0.9,0.9C152.8,197.2,153.2,197.6,153.7,197.6z
				"/>
			<path d="M158.3,197.6c0.5,0,0.9-0.4,0.9-0.9c0-0.5-0.4-0.9-0.9-0.9c-0.5,0-0.9,0.4-0.9,0.9C157.5,197.2,157.9,197.6,158.3,197.6z
				"/>
			<circle cx="163" cy="196.7" r="0.9"/>
			<path d="M167.6,197.6c0.5,0,0.9-0.4,0.9-0.9c0-0.5-0.4-0.9-0.9-0.9c-0.5,0-0.9,0.4-0.9,0.9C166.7,197.2,167.1,197.6,167.6,197.6z
				"/>
			<circle cx="172.3" cy="196.7" r="0.9"/>
			<path d="M116.6,202.2c0.5,0,0.9-0.4,0.9-0.9c0-0.5-0.4-0.9-0.9-0.9c-0.5,0-0.9,0.4-0.9,0.9C115.7,201.9,116.1,202.2,116.6,202.2z
				"/>
			<path d="M121.2,202.2c0.5,0,0.9-0.4,0.9-0.9c0-0.5-0.4-0.9-0.9-0.9c-0.5,0-0.9,0.4-0.9,0.9C120.3,201.9,120.7,202.2,121.2,202.2z
				"/>
			<path d="M125.8,202.2c0.5,0,0.9-0.4,0.9-0.9c0-0.5-0.4-0.9-0.9-0.9c-0.5,0-0.9,0.4-0.9,0.9C125,201.9,125.4,202.2,125.8,202.2z"
				/>
			<path d="M130.5,202.2c0.5,0,0.9-0.4,0.9-0.9c0-0.5-0.4-0.9-0.9-0.9c-0.5,0-0.9,0.4-0.9,0.9C129.6,201.9,130,202.2,130.5,202.2z"
				/>
			<path d="M135.1,202.2c0.5,0,0.9-0.4,0.9-0.9c0-0.5-0.4-0.9-0.9-0.9c-0.5,0-0.9,0.4-0.9,0.9C134.3,201.9,134.6,202.2,135.1,202.2z
				"/>
			<path d="M139.8,202.2c0.5,0,0.9-0.4,0.9-0.9c0-0.5-0.4-0.9-0.9-0.9c-0.5,0-0.9,0.4-0.9,0.9C138.9,201.9,139.3,202.2,139.8,202.2z
				"/>
			<path d="M144.4,202.2c0.5,0,0.9-0.4,0.9-0.9c0-0.5-0.4-0.9-0.9-0.9c-0.5,0-0.9,0.4-0.9,0.9C143.5,201.9,143.9,202.2,144.4,202.2z
				"/>
			<path d="M149.1,202.2c0.5,0,0.9-0.4,0.9-0.9c0-0.5-0.4-0.9-0.9-0.9c-0.5,0-0.9,0.4-0.9,0.9C148.2,201.9,148.6,202.2,149.1,202.2z
				"/>
			<path d="M153.7,202.2c0.5,0,0.9-0.4,0.9-0.9c0-0.5-0.4-0.9-0.9-0.9c-0.5,0-0.9,0.4-0.9,0.9C152.8,201.9,153.2,202.2,153.7,202.2z
				"/>
			<path d="M158.3,202.2c0.5,0,0.9-0.4,0.9-0.9c0-0.5-0.4-0.9-0.9-0.9c-0.5,0-0.9,0.4-0.9,0.9C157.5,201.9,157.9,202.2,158.3,202.2z
				"/>
			<path d="M163,202.2c0.5,0,0.9-0.4,0.9-0.9c0-0.5-0.4-0.9-0.9-0.9s-0.9,0.4-0.9,0.9C162.1,201.9,162.5,202.2,163,202.2z"/>
			<path d="M167.6,202.2c0.5,0,0.9-0.4,0.9-0.9c0-0.5-0.4-0.9-0.9-0.9c-0.5,0-0.9,0.4-0.9,0.9C166.7,201.9,167.1,202.2,167.6,202.2z
				"/>
			<path d="M172.3,202.2c0.5,0,0.9-0.4,0.9-0.9c0-0.5-0.4-0.9-0.9-0.9c-0.5,0-0.9,0.4-0.9,0.9C171.4,201.9,171.8,202.2,172.3,202.2z
				"/>
			<path d="M111.9,206.9c0.5,0,0.9-0.4,0.9-0.9c0-0.5-0.4-0.9-0.9-0.9c-0.5,0-0.9,0.4-0.9,0.9C111,206.5,111.4,206.9,111.9,206.9z"
				/>
			<circle cx="116.6" cy="206" r="0.9"/>
			<path d="M121.2,206.9c0.5,0,0.9-0.4,0.9-0.9c0-0.5-0.4-0.9-0.9-0.9c-0.5,0-0.9,0.4-0.9,0.9C120.3,206.5,120.7,206.9,121.2,206.9z
				"/>
			<circle cx="125.8" cy="206" r="0.9"/>
			<path d="M130.5,206.9c0.5,0,0.9-0.4,0.9-0.9c0-0.5-0.4-0.9-0.9-0.9c-0.5,0-0.9,0.4-0.9,0.9C129.6,206.5,130,206.9,130.5,206.9z"
				/>
			<path d="M135.1,206.9c0.5,0,0.9-0.4,0.9-0.9c0-0.5-0.4-0.9-0.9-0.9c-0.5,0-0.9,0.4-0.9,0.9C134.3,206.5,134.6,206.9,135.1,206.9z
				"/>
			<circle cx="139.8" cy="206" r="0.9"/>
			<path d="M144.4,206.9c0.5,0,0.9-0.4,0.9-0.9c0-0.5-0.4-0.9-0.9-0.9c-0.5,0-0.9,0.4-0.9,0.9C143.5,206.5,143.9,206.9,144.4,206.9z
				"/>
			<circle cx="149.1" cy="206" r="0.9"/>
			<path d="M153.7,206.9c0.5,0,0.9-0.4,0.9-0.9c0-0.5-0.4-0.9-0.9-0.9c-0.5,0-0.9,0.4-0.9,0.9C152.8,206.5,153.2,206.9,153.7,206.9z
				"/>
			<path d="M158.3,206.9c0.5,0,0.9-0.4,0.9-0.9c0-0.5-0.4-0.9-0.9-0.9c-0.5,0-0.9,0.4-0.9,0.9C157.5,206.5,157.9,206.9,158.3,206.9z
				"/>
			<circle cx="163" cy="206" r="0.9"/>
			<path d="M167.6,206.9c0.5,0,0.9-0.4,0.9-0.9c0-0.5-0.4-0.9-0.9-0.9c-0.5,0-0.9,0.4-0.9,0.9C166.7,206.5,167.1,206.9,167.6,206.9z
				"/>
			<circle cx="172.3" cy="206" r="0.9"/>
			<path d="M107.3,211.5c0.5,0,0.9-0.4,0.9-0.9c0-0.5-0.4-0.9-0.9-0.9c-0.5,0-0.9,0.4-0.9,0.9C106.4,211.1,106.8,211.5,107.3,211.5z
				"/>
			<path d="M111.9,211.5c0.5,0,0.9-0.4,0.9-0.9c0-0.5-0.4-0.9-0.9-0.9c-0.5,0-0.9,0.4-0.9,0.9C111,211.1,111.4,211.5,111.9,211.5z"
				/>
			<path d="M116.6,211.5c0.5,0,0.9-0.4,0.9-0.9c0-0.5-0.4-0.9-0.9-0.9c-0.5,0-0.9,0.4-0.9,0.9C115.7,211.1,116.1,211.5,116.6,211.5z
				"/>
			<path d="M121.2,211.5c0.5,0,0.9-0.4,0.9-0.9c0-0.5-0.4-0.9-0.9-0.9c-0.5,0-0.9,0.4-0.9,0.9C120.3,211.1,120.7,211.5,121.2,211.5z
				"/>
			<path d="M125.8,211.5c0.5,0,0.9-0.4,0.9-0.9c0-0.5-0.4-0.9-0.9-0.9c-0.5,0-0.9,0.4-0.9,0.9C125,211.1,125.4,211.5,125.8,211.5z"
				/>
			<path d="M130.5,211.5c0.5,0,0.9-0.4,0.9-0.9c0-0.5-0.4-0.9-0.9-0.9c-0.5,0-0.9,0.4-0.9,0.9C129.6,211.1,130,211.5,130.5,211.5z"
				/>
			<path d="M135.1,211.5c0.5,0,0.9-0.4,0.9-0.9c0-0.5-0.4-0.9-0.9-0.9c-0.5,0-0.9,0.4-0.9,0.9C134.3,211.1,134.6,211.5,135.1,211.5z
				"/>
			<path d="M139.8,211.5c0.5,0,0.9-0.4,0.9-0.9c0-0.5-0.4-0.9-0.9-0.9c-0.5,0-0.9,0.4-0.9,0.9C138.9,211.1,139.3,211.5,139.8,211.5z
				"/>
			<path d="M144.4,211.5c0.5,0,0.9-0.4,0.9-0.9c0-0.5-0.4-0.9-0.9-0.9c-0.5,0-0.9,0.4-0.9,0.9C143.5,211.1,143.9,211.5,144.4,211.5z
				"/>
			<path d="M149.1,211.5c0.5,0,0.9-0.4,0.9-0.9c0-0.5-0.4-0.9-0.9-0.9c-0.5,0-0.9,0.4-0.9,0.9C148.2,211.1,148.6,211.5,149.1,211.5z
				"/>
			<path d="M153.7,211.5c0.5,0,0.9-0.4,0.9-0.9c0-0.5-0.4-0.9-0.9-0.9c-0.5,0-0.9,0.4-0.9,0.9C152.8,211.1,153.2,211.5,153.7,211.5z
				"/>
			<path d="M158.3,211.5c0.5,0,0.9-0.4,0.9-0.9c0-0.5-0.4-0.9-0.9-0.9c-0.5,0-0.9,0.4-0.9,0.9C157.5,211.1,157.9,211.5,158.3,211.5z
				"/>
			<path d="M163,211.5c0.5,0,0.9-0.4,0.9-0.9c0-0.5-0.4-0.9-0.9-0.9s-0.9,0.4-0.9,0.9C162.1,211.1,162.5,211.5,163,211.5z"/>
			<path d="M167.6,211.5c0.5,0,0.9-0.4,0.9-0.9c0-0.5-0.4-0.9-0.9-0.9c-0.5,0-0.9,0.4-0.9,0.9C166.7,211.1,167.1,211.5,167.6,211.5z
				"/>
			<path d="M172.3,211.5c0.5,0,0.9-0.4,0.9-0.9c0-0.5-0.4-0.9-0.9-0.9c-0.5,0-0.9,0.4-0.9,0.9C171.4,211.1,171.8,211.5,172.3,211.5z
				"/>
			<path d="M102.6,216.2c0.5,0,0.9-0.4,0.9-0.9c0-0.5-0.4-0.9-0.9-0.9c-0.5,0-0.9,0.4-0.9,0.9C101.8,215.8,102.1,216.2,102.6,216.2z
				"/>
			<path d="M107.3,216.2c0.5,0,0.9-0.4,0.9-0.9c0-0.5-0.4-0.9-0.9-0.9c-0.5,0-0.9,0.4-0.9,0.9C106.4,215.8,106.8,216.2,107.3,216.2z
				"/>
			<path d="M111.9,216.2c0.5,0,0.9-0.4,0.9-0.9c0-0.5-0.4-0.9-0.9-0.9c-0.5,0-0.9,0.4-0.9,0.9C111,215.8,111.4,216.2,111.9,216.2z"
				/>
			<path d="M116.6,216.2c0.5,0,0.9-0.4,0.9-0.9c0-0.5-0.4-0.9-0.9-0.9c-0.5,0-0.9,0.4-0.9,0.9C115.7,215.8,116.1,216.2,116.6,216.2z
				"/>
			<path d="M121.2,216.2c0.5,0,0.9-0.4,0.9-0.9c0-0.5-0.4-0.9-0.9-0.9c-0.5,0-0.9,0.4-0.9,0.9C120.3,215.8,120.7,216.2,121.2,216.2z
				"/>
			<path d="M125.8,216.2c0.5,0,0.9-0.4,0.9-0.9c0-0.5-0.4-0.9-0.9-0.9c-0.5,0-0.9,0.4-0.9,0.9C125,215.8,125.4,216.2,125.8,216.2z"
				/>
			<path d="M130.5,216.2c0.5,0,0.9-0.4,0.9-0.9c0-0.5-0.4-0.9-0.9-0.9c-0.5,0-0.9,0.4-0.9,0.9C129.6,215.8,130,216.2,130.5,216.2z"
				/>
			<path d="M135.1,216.2c0.5,0,0.9-0.4,0.9-0.9c0-0.5-0.4-0.9-0.9-0.9c-0.5,0-0.9,0.4-0.9,0.9C134.3,215.8,134.6,216.2,135.1,216.2z
				"/>
			<path d="M139.8,216.2c0.5,0,0.9-0.4,0.9-0.9c0-0.5-0.4-0.9-0.9-0.9c-0.5,0-0.9,0.4-0.9,0.9C138.9,215.8,139.3,216.2,139.8,216.2z
				"/>
			<path d="M144.4,216.2c0.5,0,0.9-0.4,0.9-0.9c0-0.5-0.4-0.9-0.9-0.9c-0.5,0-0.9,0.4-0.9,0.9C143.5,215.8,143.9,216.2,144.4,216.2z
				"/>
			<path d="M149.1,216.2c0.5,0,0.9-0.4,0.9-0.9c0-0.5-0.4-0.9-0.9-0.9c-0.5,0-0.9,0.4-0.9,0.9C148.2,215.8,148.6,216.2,149.1,216.2z
				"/>
			<path d="M153.7,216.2c0.5,0,0.9-0.4,0.9-0.9c0-0.5-0.4-0.9-0.9-0.9c-0.5,0-0.9,0.4-0.9,0.9C152.8,215.8,153.2,216.2,153.7,216.2z
				"/>
			<path d="M158.3,216.2c0.5,0,0.9-0.4,0.9-0.9c0-0.5-0.4-0.9-0.9-0.9c-0.5,0-0.9,0.4-0.9,0.9C157.5,215.8,157.9,216.2,158.3,216.2z
				"/>
			<path d="M163,216.2c0.5,0,0.9-0.4,0.9-0.9c0-0.5-0.4-0.9-0.9-0.9s-0.9,0.4-0.9,0.9C162.1,215.8,162.5,216.2,163,216.2z"/>
			<path d="M167.6,216.2c0.5,0,0.9-0.4,0.9-0.9c0-0.5-0.4-0.9-0.9-0.9c-0.5,0-0.9,0.4-0.9,0.9C166.7,215.8,167.1,216.2,167.6,216.2z
				"/>
			<path d="M172.3,216.2c0.5,0,0.9-0.4,0.9-0.9c0-0.5-0.4-0.9-0.9-0.9c-0.5,0-0.9,0.4-0.9,0.9C171.4,215.8,171.8,216.2,172.3,216.2z
				"/>
			<path d="M98,220.8c0.5,0,0.9-0.4,0.9-0.9c0-0.5-0.4-0.9-0.9-0.9c-0.5,0-0.9,0.4-0.9,0.9C97.1,220.4,97.5,220.8,98,220.8z"/>
			<circle cx="102.6" cy="219.9" r="0.9"/>
			<path d="M107.3,220.8c0.5,0,0.9-0.4,0.9-0.9c0-0.5-0.4-0.9-0.9-0.9c-0.5,0-0.9,0.4-0.9,0.9C106.4,220.4,106.8,220.8,107.3,220.8z
				"/>
			<path d="M111.9,220.8c0.5,0,0.9-0.4,0.9-0.9c0-0.5-0.4-0.9-0.9-0.9c-0.5,0-0.9,0.4-0.9,0.9C111,220.4,111.4,220.8,111.9,220.8z"
				/>
			<circle cx="116.6" cy="219.9" r="0.9"/>
			<path d="M121.2,220.8c0.5,0,0.9-0.4,0.9-0.9c0-0.5-0.4-0.9-0.9-0.9c-0.5,0-0.9,0.4-0.9,0.9C120.3,220.4,120.7,220.8,121.2,220.8z
				"/>
			<circle cx="125.8" cy="219.9" r="0.9"/>
			<path d="M130.5,220.8c0.5,0,0.9-0.4,0.9-0.9c0-0.5-0.4-0.9-0.9-0.9c-0.5,0-0.9,0.4-0.9,0.9C129.6,220.4,130,220.8,130.5,220.8z"
				/>
			<path d="M135.1,220.8c0.5,0,0.9-0.4,0.9-0.9c0-0.5-0.4-0.9-0.9-0.9c-0.5,0-0.9,0.4-0.9,0.9C134.3,220.4,134.6,220.8,135.1,220.8z
				"/>
			<circle cx="139.8" cy="219.9" r="0.9"/>
			<path d="M144.4,220.8c0.5,0,0.9-0.4,0.9-0.9c0-0.5-0.4-0.9-0.9-0.9c-0.5,0-0.9,0.4-0.9,0.9C143.5,220.4,143.9,220.8,144.4,220.8z
				"/>
			<circle cx="149.1" cy="219.9" r="0.9"/>
			<path d="M153.7,220.8c0.5,0,0.9-0.4,0.9-0.9c0-0.5-0.4-0.9-0.9-0.9c-0.5,0-0.9,0.4-0.9,0.9C152.8,220.4,153.2,220.8,153.7,220.8z
				"/>
			<path d="M158.3,220.8c0.5,0,0.9-0.4,0.9-0.9c0-0.5-0.4-0.9-0.9-0.9c-0.5,0-0.9,0.4-0.9,0.9C157.5,220.4,157.9,220.8,158.3,220.8z
				"/>
			<circle cx="163" cy="219.9" r="0.9"/>
			<path d="M167.6,220.8c0.5,0,0.9-0.4,0.9-0.9c0-0.5-0.4-0.9-0.9-0.9c-0.5,0-0.9,0.4-0.9,0.9C166.7,220.4,167.1,220.8,167.6,220.8z
				"/>
			<circle cx="172.3" cy="219.9" r="0.9"/>
			<path d="M93.3,225.5c0.5,0,0.9-0.4,0.9-0.9c0-0.5-0.4-0.9-0.9-0.9c-0.5,0-0.9,0.4-0.9,0.9C92.5,225.1,92.9,225.5,93.3,225.5z"/>
			<path d="M98,225.5c0.5,0,0.9-0.4,0.9-0.9c0-0.5-0.4-0.9-0.9-0.9c-0.5,0-0.9,0.4-0.9,0.9C97.1,225.1,97.5,225.5,98,225.5z"/>
			<path d="M102.6,225.5c0.5,0,0.9-0.4,0.9-0.9c0-0.5-0.4-0.9-0.9-0.9c-0.5,0-0.9,0.4-0.9,0.9C101.8,225.1,102.1,225.5,102.6,225.5z
				"/>
			<path d="M107.3,225.5c0.5,0,0.9-0.4,0.9-0.9c0-0.5-0.4-0.9-0.9-0.9c-0.5,0-0.9,0.4-0.9,0.9C106.4,225.1,106.8,225.5,107.3,225.5z
				"/>
			<path d="M111.9,225.5c0.5,0,0.9-0.4,0.9-0.9c0-0.5-0.4-0.9-0.9-0.9c-0.5,0-0.9,0.4-0.9,0.9C111,225.1,111.4,225.5,111.9,225.5z"
				/>
			<path d="M116.6,225.5c0.5,0,0.9-0.4,0.9-0.9c0-0.5-0.4-0.9-0.9-0.9c-0.5,0-0.9,0.4-0.9,0.9C115.7,225.1,116.1,225.5,116.6,225.5z
				"/>
			<path d="M121.2,225.5c0.5,0,0.9-0.4,0.9-0.9c0-0.5-0.4-0.9-0.9-0.9c-0.5,0-0.9,0.4-0.9,0.9C120.3,225.1,120.7,225.5,121.2,225.5z
				"/>
			<path d="M125.8,225.5c0.5,0,0.9-0.4,0.9-0.9c0-0.5-0.4-0.9-0.9-0.9c-0.5,0-0.9,0.4-0.9,0.9C125,225.1,125.4,225.5,125.8,225.5z"
				/>
			<path d="M130.5,225.5c0.5,0,0.9-0.4,0.9-0.9c0-0.5-0.4-0.9-0.9-0.9c-0.5,0-0.9,0.4-0.9,0.9C129.6,225.1,130,225.5,130.5,225.5z"
				/>
			<path d="M135.1,225.5c0.5,0,0.9-0.4,0.9-0.9c0-0.5-0.4-0.9-0.9-0.9c-0.5,0-0.9,0.4-0.9,0.9C134.3,225.1,134.6,225.5,135.1,225.5z
				"/>
			<path d="M139.8,225.5c0.5,0,0.9-0.4,0.9-0.9c0-0.5-0.4-0.9-0.9-0.9c-0.5,0-0.9,0.4-0.9,0.9C138.9,225.1,139.3,225.5,139.8,225.5z
				"/>
			<path d="M144.4,225.5c0.5,0,0.9-0.4,0.9-0.9c0-0.5-0.4-0.9-0.9-0.9c-0.5,0-0.9,0.4-0.9,0.9C143.5,225.1,143.9,225.5,144.4,225.5z
				"/>
			<path d="M149.1,225.5c0.5,0,0.9-0.4,0.9-0.9c0-0.5-0.4-0.9-0.9-0.9c-0.5,0-0.9,0.4-0.9,0.9C148.2,225.1,148.6,225.5,149.1,225.5z
				"/>
			<path d="M153.7,225.5c0.5,0,0.9-0.4,0.9-0.9c0-0.5-0.4-0.9-0.9-0.9c-0.5,0-0.9,0.4-0.9,0.9C152.8,225.1,153.2,225.5,153.7,225.5z
				"/>
			<path d="M158.3,225.5c0.5,0,0.9-0.4,0.9-0.9c0-0.5-0.4-0.9-0.9-0.9c-0.5,0-0.9,0.4-0.9,0.9C157.5,225.1,157.9,225.5,158.3,225.5z
				"/>
			<path d="M163,225.5c0.5,0,0.9-0.4,0.9-0.9c0-0.5-0.4-0.9-0.9-0.9s-0.9,0.4-0.9,0.9C162.1,225.1,162.5,225.5,163,225.5z"/>
			<path d="M167.6,225.5c0.5,0,0.9-0.4,0.9-0.9c0-0.5-0.4-0.9-0.9-0.9c-0.5,0-0.9,0.4-0.9,0.9C166.7,225.1,167.1,225.5,167.6,225.5z
				"/>
			<path d="M172.3,225.5c0.5,0,0.9-0.4,0.9-0.9c0-0.5-0.4-0.9-0.9-0.9c-0.5,0-0.9,0.4-0.9,0.9C171.4,225.1,171.8,225.5,172.3,225.5z
				"/>
			<path d="M88.7,230.1c0.5,0,0.9-0.4,0.9-0.9c0-0.5-0.4-0.9-0.9-0.9c-0.5,0-0.9,0.4-0.9,0.9C87.8,229.7,88.2,230.1,88.7,230.1z"/>
			<circle cx="93.3" cy="229.2" r="0.9"/>
			<path d="M98,230.1c0.5,0,0.9-0.4,0.9-0.9c0-0.5-0.4-0.9-0.9-0.9c-0.5,0-0.9,0.4-0.9,0.9C97.1,229.7,97.5,230.1,98,230.1z"/>
			<circle cx="102.6" cy="229.2" r="0.9"/>
			<path d="M107.3,230.1c0.5,0,0.9-0.4,0.9-0.9c0-0.5-0.4-0.9-0.9-0.9c-0.5,0-0.9,0.4-0.9,0.9C106.4,229.7,106.8,230.1,107.3,230.1z
				"/>
			<path d="M111.9,230.1c0.5,0,0.9-0.4,0.9-0.9c0-0.5-0.4-0.9-0.9-0.9c-0.5,0-0.9,0.4-0.9,0.9C111,229.7,111.4,230.1,111.9,230.1z"
				/>
			<circle cx="116.6" cy="229.2" r="0.9"/>
			<path d="M121.2,230.1c0.5,0,0.9-0.4,0.9-0.9c0-0.5-0.4-0.9-0.9-0.9c-0.5,0-0.9,0.4-0.9,0.9C120.3,229.7,120.7,230.1,121.2,230.1z
				"/>
			<circle cx="125.8" cy="229.2" r="0.9"/>
			<path d="M130.5,230.1c0.5,0,0.9-0.4,0.9-0.9c0-0.5-0.4-0.9-0.9-0.9c-0.5,0-0.9,0.4-0.9,0.9C129.6,229.7,130,230.1,130.5,230.1z"
				/>
			<path d="M135.1,230.1c0.5,0,0.9-0.4,0.9-0.9c0-0.5-0.4-0.9-0.9-0.9c-0.5,0-0.9,0.4-0.9,0.9C134.3,229.7,134.6,230.1,135.1,230.1z
				"/>
			<circle cx="139.8" cy="229.2" r="0.9"/>
			<path d="M144.4,230.1c0.5,0,0.9-0.4,0.9-0.9c0-0.5-0.4-0.9-0.9-0.9c-0.5,0-0.9,0.4-0.9,0.9C143.5,229.7,143.9,230.1,144.4,230.1z
				"/>
			<circle cx="149.1" cy="229.2" r="0.9"/>
			<path d="M153.7,230.1c0.5,0,0.9-0.4,0.9-0.9c0-0.5-0.4-0.9-0.9-0.9c-0.5,0-0.9,0.4-0.9,0.9C152.8,229.7,153.2,230.1,153.7,230.1z
				"/>
			<path d="M158.3,230.1c0.5,0,0.9-0.4,0.9-0.9c0-0.5-0.4-0.9-0.9-0.9c-0.5,0-0.9,0.4-0.9,0.9C157.5,229.7,157.9,230.1,158.3,230.1z
				"/>
			<circle cx="163" cy="229.2" r="0.9"/>
			<path d="M167.6,230.1c0.5,0,0.9-0.4,0.9-0.9c0-0.5-0.4-0.9-0.9-0.9c-0.5,0-0.9,0.4-0.9,0.9C166.7,229.7,167.1,230.1,167.6,230.1z
				"/>
			<circle cx="172.3" cy="229.2" r="0.9"/>
			<path d="M84.1,234.7c0.5,0,0.9-0.4,0.9-0.9c0-0.5-0.4-0.9-0.9-0.9c-0.5,0-0.9,0.4-0.9,0.9C83.2,234.3,83.6,234.7,84.1,234.7z"/>
			<path d="M88.7,234.7c0.5,0,0.9-0.4,0.9-0.9c0-0.5-0.4-0.9-0.9-0.9c-0.5,0-0.9,0.4-0.9,0.9C87.8,234.3,88.2,234.7,88.7,234.7z"/>
			<path d="M93.3,234.7c0.5,0,0.9-0.4,0.9-0.9c0-0.5-0.4-0.9-0.9-0.9c-0.5,0-0.9,0.4-0.9,0.9C92.5,234.3,92.9,234.7,93.3,234.7z"/>
			<path d="M98,234.7c0.5,0,0.9-0.4,0.9-0.9c0-0.5-0.4-0.9-0.9-0.9c-0.5,0-0.9,0.4-0.9,0.9C97.1,234.3,97.5,234.7,98,234.7z"/>
			<path d="M102.6,234.7c0.5,0,0.9-0.4,0.9-0.9c0-0.5-0.4-0.9-0.9-0.9c-0.5,0-0.9,0.4-0.9,0.9C101.8,234.3,102.1,234.7,102.6,234.7z
				"/>
			<path d="M107.3,234.7c0.5,0,0.9-0.4,0.9-0.9c0-0.5-0.4-0.9-0.9-0.9c-0.5,0-0.9,0.4-0.9,0.9C106.4,234.3,106.8,234.7,107.3,234.7z
				"/>
			<path d="M111.9,234.7c0.5,0,0.9-0.4,0.9-0.9c0-0.5-0.4-0.9-0.9-0.9c-0.5,0-0.9,0.4-0.9,0.9C111,234.3,111.4,234.7,111.9,234.7z"
				/>
			<path d="M116.6,234.7c0.5,0,0.9-0.4,0.9-0.9c0-0.5-0.4-0.9-0.9-0.9c-0.5,0-0.9,0.4-0.9,0.9C115.7,234.3,116.1,234.7,116.6,234.7z
				"/>
			<path d="M121.2,234.7c0.5,0,0.9-0.4,0.9-0.9c0-0.5-0.4-0.9-0.9-0.9c-0.5,0-0.9,0.4-0.9,0.9C120.3,234.3,120.7,234.7,121.2,234.7z
				"/>
			<path d="M125.8,234.7c0.5,0,0.9-0.4,0.9-0.9c0-0.5-0.4-0.9-0.9-0.9c-0.5,0-0.9,0.4-0.9,0.9C125,234.3,125.4,234.7,125.8,234.7z"
				/>
			<path d="M130.5,234.7c0.5,0,0.9-0.4,0.9-0.9c0-0.5-0.4-0.9-0.9-0.9c-0.5,0-0.9,0.4-0.9,0.9C129.6,234.3,130,234.7,130.5,234.7z"
				/>
			<path d="M135.1,234.7c0.5,0,0.9-0.4,0.9-0.9c0-0.5-0.4-0.9-0.9-0.9c-0.5,0-0.9,0.4-0.9,0.9C134.3,234.3,134.6,234.7,135.1,234.7z
				"/>
			<path d="M139.8,234.7c0.5,0,0.9-0.4,0.9-0.9c0-0.5-0.4-0.9-0.9-0.9c-0.5,0-0.9,0.4-0.9,0.9C138.9,234.3,139.3,234.7,139.8,234.7z
				"/>
			<path d="M144.4,234.7c0.5,0,0.9-0.4,0.9-0.9c0-0.5-0.4-0.9-0.9-0.9c-0.5,0-0.9,0.4-0.9,0.9C143.5,234.3,143.9,234.7,144.4,234.7z
				"/>
			<path d="M149.1,234.7c0.5,0,0.9-0.4,0.9-0.9c0-0.5-0.4-0.9-0.9-0.9c-0.5,0-0.9,0.4-0.9,0.9C148.2,234.3,148.6,234.7,149.1,234.7z
				"/>
			<path d="M153.7,234.7c0.5,0,0.9-0.4,0.9-0.9c0-0.5-0.4-0.9-0.9-0.9c-0.5,0-0.9,0.4-0.9,0.9C152.8,234.3,153.2,234.7,153.7,234.7z
				"/>
			<path d="M158.3,234.7c0.5,0,0.9-0.4,0.9-0.9c0-0.5-0.4-0.9-0.9-0.9c-0.5,0-0.9,0.4-0.9,0.9C157.5,234.3,157.9,234.7,158.3,234.7z
				"/>
			<path d="M163,234.7c0.5,0,0.9-0.4,0.9-0.9c0-0.5-0.4-0.9-0.9-0.9s-0.9,0.4-0.9,0.9C162.1,234.3,162.5,234.7,163,234.7z"/>
			<path d="M167.6,234.7c0.5,0,0.9-0.4,0.9-0.9c0-0.5-0.4-0.9-0.9-0.9c-0.5,0-0.9,0.4-0.9,0.9C166.7,234.3,167.1,234.7,167.6,234.7z
				"/>
			<path d="M172.3,234.7c0.5,0,0.9-0.4,0.9-0.9c0-0.5-0.4-0.9-0.9-0.9c-0.5,0-0.9,0.4-0.9,0.9C171.4,234.3,171.8,234.7,172.3,234.7z
				"/>
		</g>
		<g>
			<g>
				<polygon class="st4" points="158.2,100.7 158.2,132.1 156.4,133.9 156.4,102.5 				"/>
			</g>
			<g>
				<polygon class="st4" points="153.8,105.1 153.8,136.5 152,138.3 152,106.9 				"/>
			</g>
			<g>
				<polygon class="st4" points="149.4,109.5 149.4,140.9 147.6,142.7 147.6,111.3 				"/>
			</g>
			<g>
				<polygon class="st4" points="145,113.9 145,145.3 143.2,147.1 143.2,115.7 				"/>
			</g>
			<g>
				<polygon class="st4" points="140.6,118.3 140.6,149.7 138.8,151.5 138.8,120.1 				"/>
			</g>
			<g>
				<polygon class="st4" points="136.2,122.7 136.2,154.1 134.4,155.9 134.4,124.5 				"/>
			</g>
			<g>
				<polygon class="st4" points="131.8,127.1 131.8,158.5 130,160.3 130,128.9 				"/>
			</g>
			<g>
				<polygon class="st4" points="127.4,131.5 127.4,162.9 125.6,164.7 125.6,133.3 				"/>
			</g>
			<g>
				<polygon class="st4" points="123,135.8 123,167.3 121.2,169.1 121.2,137.7 				"/>
			</g>
			<g>
				<polygon class="st4" points="118.6,140.2 118.6,171.7 116.8,173.5 116.8,142.1 				"/>
			</g>
			<g>
				<polygon class="st4" points="114.3,144.6 114.3,176.1 112.4,177.9 112.4,146.5 				"/>
			</g>
			<g>
				<polygon class="st4" points="109.9,149 109.9,180.5 108.1,182.3 108.1,150.8 				"/>
			</g>
			<g>
				<polygon class="st4" points="105.5,153.4 105.5,184.9 103.7,186.7 103.7,155.2 				"/>
			</g>
		</g>
		<g>
			<polygon class="st1" points="232.6,63.5 232.6,2.7 171.8,63.5 			"/>
			<path class="st5" d="M191.7,62.7c0.2,0.3,0.3,0.5,0.5,0.8h1.4c-0.3-0.5-0.5-0.9-0.8-1.4c-3.1-5.6-3.7-12-1.6-17.9l-1.8,1.8
				C188,51.5,188.8,57.5,191.7,62.7z M200.5,62.7c0.2,0.3,0.3,0.5,0.5,0.8h1.4c-0.3-0.5-0.5-0.9-0.8-1.4c-3.8-6.7-3.8-14.8,0-21.5
				c1-1.8,2.1-3.6,3.2-5.3c2.1-3.5,4.2-6.8,5.5-10.2l-2.3,2.3c-1.2,2.4-2.7,4.8-4.2,7.2c-1.1,1.8-2.2,3.6-3.2,5.4
				C196.6,47.1,196.6,55.6,200.5,62.7z M205,62.7c0.2,0.3,0.3,0.5,0.5,0.8h1.4c-0.3-0.5-0.5-0.9-0.8-1.4c-3.8-6.7-3.8-14.8,0-21.5
				c1-1.8,2.1-3.6,3.2-5.3c3.3-5.4,6.5-10.4,6.8-15.9l-1.3,1.3c-0.7,4.6-3.5,9.2-6.4,13.9c-1.1,1.8-2.2,3.6-3.2,5.4
				C201,47.1,201,55.6,205,62.7z M196.1,62.7c0.2,0.3,0.3,0.5,0.5,0.8h1.4c-0.3-0.5-0.5-0.9-0.8-1.4c-3.8-6.7-3.8-14.8,0-21.5
				c1-1.8,2.1-3.6,3.2-5.3c0.2-0.2,0.3-0.5,0.5-0.7l-3.6,3.6c-0.4,0.6-0.7,1.3-1.1,1.9C192.1,47.1,192.2,55.6,196.1,62.7z
				 M231.4,62.7c0.2,0.3,0.3,0.5,0.5,0.8h0.8v-1c-0.1-0.1-0.1-0.2-0.2-0.3c-3.8-6.7-3.8-14.8,0-21.5c0.1-0.1,0.2-0.3,0.2-0.4v-2.4
				c-0.4,0.7-0.9,1.5-1.3,2.2C227.4,47.1,227.4,55.6,231.4,62.7z M227,62.7c0.2,0.3,0.3,0.5,0.5,0.8h1.4c-0.3-0.5-0.5-0.9-0.8-1.4
				c-3.8-6.7-3.8-14.8,0-21.5c1-1.8,2.1-3.6,3.2-5.3c0.5-0.8,1-1.6,1.5-2.4v-2.3c-0.8,1.3-1.6,2.7-2.5,4.1c-1.1,1.8-2.2,3.6-3.2,5.4
				C223,47.1,223,55.6,227,62.7z M187.3,62.7c0.2,0.3,0.3,0.5,0.5,0.8h1.4c-0.3-0.5-0.5-0.9-0.8-1.4c-2.2-3.9-3.1-8.1-2.8-12.4
				l-1.2,1.2C184.3,55,185.3,59,187.3,62.7z M222.6,62.7c0.1,0.3,0.3,0.5,0.5,0.8h1.4c-0.3-0.5-0.5-0.9-0.8-1.4
				c-3.8-6.7-3.8-14.8,0-21.5c1-1.8,2.1-3.6,3.2-5.3c2.4-3.8,4.6-7.5,5.9-11.2v-11c-0.8-2.4-2-4.7-3.4-7l-0.9,0.9
				c2.2,3.8,3.9,7.5,4,11.4c0.1,5.5-3.2,10.8-6.6,16.4c-1.1,1.8-2.2,3.6-3.2,5.4C218.6,47.1,218.6,55.6,222.6,62.7z M174.5,63.5h1.4
				c-0.3-0.5-0.5-0.9-0.8-1.4c-0.2-0.4-0.4-0.8-0.7-1.3l-0.9,0.9c0.2,0.3,0.3,0.6,0.5,1C174.2,63,174.4,63.2,174.5,63.5z
				 M178.5,62.7c0.2,0.3,0.3,0.5,0.5,0.8h1.4c-0.3-0.5-0.5-0.9-0.8-1.4c-0.8-1.4-1.4-2.9-1.9-4.4l-1,1
				C177.2,60,177.8,61.4,178.5,62.7z M231.2,4.2c0.5,0.8,1,1.6,1.5,2.5V4.3c-0.2-0.3-0.4-0.7-0.6-1L231.2,4.2z M213.8,62.7
				c0.2,0.3,0.3,0.5,0.5,0.8h1.4c-0.3-0.5-0.5-0.9-0.8-1.4c-3.8-6.7-3.8-14.8,0-21.5c1-1.8,2.1-3.6,3.2-5.3c3.5-5.6,6.8-11,6.8-16.7
				c0-0.1,0-0.2,0-0.3c-0.1-2.2-0.6-4.3-1.4-6.3l-0.9,0.9c0.6,1.8,1.1,3.6,1.1,5.4c0.1,5.5-3.2,10.8-6.6,16.4
				c-1.1,1.8-2.2,3.6-3.2,5.4C209.8,47.1,209.8,55.6,213.8,62.7z M209.4,62.7c0.2,0.3,0.3,0.5,0.5,0.8h1.4c-0.3-0.5-0.5-0.9-0.8-1.4
				c-3.8-6.7-3.8-14.8,0-21.5c1-1.8,2.1-3.6,3.2-5.3c3.5-5.6,6.8-11,6.8-16.7c0-0.1,0-0.2,0-0.3c0-1-0.1-2-0.3-2.9l-1,1
				c0.1,0.6,0.2,1.3,0.2,1.9c0.1,5.5-3.2,10.8-6.6,16.4c-1.1,1.8-2.2,3.6-3.2,5.4C205.4,47.1,205.4,55.6,209.4,62.7z M182.9,62.7
				c0.2,0.3,0.3,0.5,0.5,0.8h1.4c-0.3-0.5-0.5-0.9-0.8-1.4c-1.4-2.6-2.3-5.3-2.7-8.1l-1,1C180.7,57.7,181.6,60.3,182.9,62.7z
				 M218.2,62.7c0.2,0.3,0.3,0.5,0.5,0.8h1.4c-0.3-0.5-0.5-0.9-0.8-1.4c-3.8-6.7-3.8-14.8,0-21.5c1-1.8,2.1-3.6,3.2-5.3
				c3.5-5.6,6.8-11,6.8-16.7c0-0.1,0-0.2,0-0.3c-0.1-3.2-1.2-6.3-2.7-9.4l-0.9,0.9c1.4,2.8,2.4,5.6,2.4,8.5
				c0.1,5.5-3.2,10.8-6.6,16.4c-1.1,1.8-2.2,3.6-3.2,5.4C214.2,47.1,214.2,55.6,218.2,62.7z"/>
		</g>
		<polygon class="st1" points="24.5,234.7 24.5,259.5 49.4,234.7 		"/>
		<g>
			<path class="st1" d="M101.9,283.2c-0.1,0-0.3,0-0.4-0.1c-0.2-0.2-0.2-0.5,0-0.7l93.7-93.7c0.2-0.2,0.5-0.2,0.7,0
				c0.2,0.2,0.2,0.5,0,0.7L102.3,283C102.2,283.1,102.1,283.2,101.9,283.2z"/>
		</g>
		<g>
			<path class="st1" d="M5.3,101.2c-0.1,0-0.3,0-0.4-0.1c-0.2-0.2-0.2-0.5,0-0.7L88,17.3c0.2-0.2,0.5-0.2,0.7,0
				c0.2,0.2,0.2,0.5,0,0.7L5.6,101.1C5.5,101.2,5.4,101.2,5.3,101.2z"/>
		</g>
		<g>
			<path class="st1" d="M39.6,222.5c-0.1,0-0.3,0-0.4-0.1c-0.2-0.2-0.2-0.5,0-0.7l8.9-8.9c0.2-0.2,0.5-0.2,0.7,0
				c0.2,0.2,0.2,0.5,0,0.7l-8.9,8.9C39.8,222.5,39.7,222.5,39.6,222.5z"/>
		</g>
		<g>
			<path class="st1" d="M90.6,152.9c-0.1,0-0.3,0-0.4-0.1c-0.2-0.2-0.2-0.5,0-0.7l29.2-29.2c0.2-0.2,0.5-0.2,0.7,0
				c0.2,0.2,0.2,0.5,0,0.7L91,152.8C90.9,152.9,90.8,152.9,90.6,152.9z"/>
		</g>
		<g>
			<path class="st1" d="M182.6,116.1c-0.1,0-0.3,0-0.4-0.1c-0.2-0.2-0.2-0.5,0-0.7L231.4,66c0.2-0.2,0.5-0.2,0.7,0s0.2,0.5,0,0.7
				l-49.2,49.2C182.8,116,182.7,116.1,182.6,116.1z"/>
		</g>
		<g>
			<path class="st1" d="M95.9,119.8c-0.1,0-0.3,0-0.4-0.1c-0.2-0.2-0.2-0.5,0-0.7l35.6-35.6c0.2-0.2,0.5-0.2,0.7,0
				c0.2,0.2,0.2,0.5,0,0.7l-35.6,35.6C96.2,119.7,96.1,119.8,95.9,119.8z"/>
		</g>
		<g>
			<path class="st1" d="M44.1,261.3c-0.1,0-0.3,0-0.4-0.1c-0.2-0.2-0.2-0.5,0-0.7l106-106c0.2-0.2,0.5-0.2,0.7,0
				c0.2,0.2,0.2,0.5,0,0.7l-106,106C44.4,261.3,44.3,261.3,44.1,261.3z"/>
		</g>
		<g>
			<path class="st4" d="M124.2,46.4l1.6-1.6V33.8l-1.6,1.6V46.4z M112.9,57.7l1.6-1.6V45.1l-1.6,1.6V57.7z M131.7,38.9l1.6-1.6V26.3
				l-1.6,1.6V38.9z M109.1,61.5l1.6-1.6V48.9l-1.6,1.6V61.5z M116.6,54l1.6-1.6V41.4l-1.6,1.6V54z M127.9,42.7l1.6-1.6V30l-1.6,1.6
				V42.7z M120.4,50.2l1.6-1.6V37.6l-1.6,1.6V50.2z"/>
		</g>
		<g>
			<path class="st4" d="M203.4,208.9l1.9-1.9v-13.8l-1.9,1.9V208.9z M189.3,223l1.9-1.9v-13.8l-1.9,1.9V223z M212.7,199.6l1.9-1.9
				v-13.8l-1.9,1.9V199.6z M184.6,227.7l1.9-1.9V212l-1.9,1.9V227.7z M194,218.3l1.9-1.9v-13.8l-1.9,1.9V218.3z M208.1,204.3
				l1.9-1.9v-13.8l-1.9,1.9V204.3z M198.7,213.6l1.9-1.9V198l-1.9,1.9V213.6z"/>
		</g>
		<g>
			<polygon class="st1" points="94.3,255.5 97.8,252 97.8,227.1 94.3,230.6 			"/>
			<polygon class="st1" points="85.8,263.9 89.3,260.5 89.3,235.6 85.8,239.1 			"/>
			<polygon class="st1" points="119.7,205.2 119.7,230 123.2,226.5 123.2,201.7 			"/>
			<polygon class="st1" points="102.8,247 106.3,243.5 106.3,218.6 102.8,222.1 			"/>
			<polygon class="st1" points="77.3,272.4 80.8,268.9 80.8,244.1 77.3,247.6 			"/>
			<polygon class="st1" points="111.3,238.5 114.8,235 114.8,210.1 111.3,213.6 			"/>
		</g>
		<g>
			<polygon class="st1" points="181.5,108.6 183.2,106.9 183.2,94.2 181.5,95.9 			"/>
			<polygon class="st1" points="177.1,113 178.9,111.2 178.9,98.5 177.1,100.3 			"/>
			<polygon class="st1" points="194.5,82.9 194.5,95.6 196.2,93.9 196.2,81.2 			"/>
			<polygon class="st1" points="185.8,104.3 187.6,102.5 187.6,89.8 185.8,91.6 			"/>
			<polygon class="st1" points="172.8,117.3 174.6,115.5 174.6,102.8 172.8,104.6 			"/>
			<polygon class="st1" points="190.1,100 191.9,98.2 191.9,85.5 190.1,87.3 			"/>
		</g>
		<g>
			<polygon class="st1" points="4.1,179.7 66,179.7 4.1,241.6 			"/>
			<path class="st5" d="M24.8,181L24.8,181c0.2,0.3,0.6,0.4,0.9,0.3c0.3-0.1,0.5-0.4,0.5-0.7c0-0.2-0.2-0.6-0.5-0.7
				c-0.1,0-0.1,0-0.2,0c-0.2,0-0.5,0.1-0.7,0.3c0,0.1-0.1,0.1-0.1,0.2l0,0.1c0,0,0,0.1,0,0.1c0,0,0,0,0,0
				C24.6,180.7,24.7,180.9,24.8,181z M24.9,180.5c0-0.1,0.1-0.1,0.1-0.2c0.1-0.1,0.4-0.2,0.5-0.2c0.2,0.1,0.3,0.3,0.3,0.4
				c0,0.1-0.1,0.3-0.3,0.4c0,0-0.1,0-0.1,0c-0.1,0-0.3-0.1-0.4-0.2l0-0.1C25,180.7,24.9,180.6,24.9,180.5L24.9,180.5z M5.3,240.3
				l0.3-0.3c-0.5,0-1,0-1.6,0v0.3C4.5,240.3,4.9,240.3,5.3,240.3z M24.7,194.1c0.1,0.5,0.6,0.5,0.8,0.4l0.1,0c0.3,0,0.4-0.3,0.4-0.4
				c0,0,0-0.1,0.1-0.1c0-0.1,0.1-0.2,0-0.3c-0.1-0.2-0.4-0.5-0.6-0.5c-0.1,0-0.1,0-0.1,0c-0.5,0-0.7,0.5-0.8,0.6c0,0,0,0,0,0.1
				c0,0,0,0,0,0C24.6,193.9,24.6,194,24.7,194.1C24.7,194.1,24.7,194.1,24.7,194.1z M24.9,193.8c0.1-0.3,0.3-0.5,0.6-0.4
				c0.1,0,0.4,0.3,0.4,0.4c0,0.1-0.1,0.1-0.1,0.2c-0.1,0.2-0.1,0.2-0.2,0.2l-0.1,0c-0.1,0-0.2,0-0.2,0c-0.1,0-0.2-0.1-0.3-0.2
				C25,194,24.9,193.9,24.9,193.8C24.9,193.9,24.9,193.8,24.9,193.8C24.9,193.8,24.9,193.8,24.9,193.8z M21.1,193.8
				c0,0.2,0.1,0.4,0.3,0.5c0,0.1,0.1,0.1,0.1,0.2c0.2,0.4,0.4,0.7,0.6,1.1c0.3,0.5,0.6,1,0.8,1.5c0.1,0.3,0.4,0.4,0.8,0.4
				c0.6,0,1.3,0,1.9,0c0.5,0,0.9,0,1.4,0c0.4,0,0.6-0.1,0.8-0.5c0.5-0.9,1-1.7,1.5-2.5l0.2-0.3c0.2-0.3,0.2-0.5,0-0.8l-0.2-0.3
				c-0.5-0.8-1-1.7-1.5-2.5c-0.2-0.3-0.4-0.5-0.8-0.5c0,0,0,0-0.1,0c-0.6,0-1.2,0-2,0c-0.4,0-0.7,0-1.2,0c-0.3,0-0.6,0.1-0.7,0.4
				c-0.4,0.7-0.8,1.4-1.2,2.1l-0.6,1c0,0,0,0.1-0.1,0.1l0,0C21.1,193.8,21.1,193.8,21.1,193.8C21.1,193.8,21.1,193.8,21.1,193.8z
				 M21.4,193.8C21.4,193.8,21.5,193.7,21.4,193.8l0.6-1.1c0.4-0.7,0.8-1.4,1.2-2.1c0.1-0.2,0.2-0.2,0.4-0.2c0.5,0,0.9,0,1.3,0
				c0.8,0,1.5,0,2.1,0c0.3,0,0.4,0.1,0.5,0.3c0.5,0.9,1,1.7,1.5,2.5l0.2,0.3c0.1,0.2,0.1,0.3,0,0.5l-0.2,0.3c-0.5,0.8-1,1.7-1.5,2.5
				c-0.1,0.2-0.2,0.3-0.5,0.3c0,0,0,0-0.1,0c-0.5,0-0.9,0-1.4,0c-0.6,0-1.2,0-1.9,0c-0.3,0-0.4-0.1-0.5-0.3c-0.3-0.5-0.5-1-0.8-1.5
				c-0.2-0.4-0.4-0.7-0.6-1.1c0-0.1-0.1-0.2-0.1-0.2C21.5,194.1,21.4,194,21.4,193.8L21.4,193.8z M14.2,187.9
				c0.3-0.1,0.4-0.4,0.4-0.6l0,0c0.1-0.2-0.3-0.7-0.5-0.8c-0.1,0-0.1,0-0.2,0c-0.3,0-0.5,0.1-0.7,0.3c0,0,0,0,0,0.1
				c-0.1,0.1-0.1,0.2-0.1,0.3c0,0,0,0,0,0c0,0.1,0,0.2,0.1,0.3C13.4,187.9,13.7,188,14.2,187.9z M13.4,187.2c0-0.1,0.1-0.1,0.1-0.2
				c0,0,0-0.1,0.1-0.1c0.1-0.1,0.4-0.2,0.5-0.2c0.1,0,0.3,0.3,0.3,0.4l0,0c-0.1,0.2-0.1,0.4-0.2,0.4c-0.1,0-0.1,0-0.2,0
				c-0.2,0-0.3-0.1-0.4-0.3C13.4,187.3,13.4,187.3,13.4,187.2C13.4,187.2,13.4,187.2,13.4,187.2z M4.8,197.1c0.5-0.9,1-1.7,1.5-2.5
				l0.2-0.3c0.2-0.3,0.2-0.5,0-0.8l-0.2-0.4c-0.5-0.8-1-1.7-1.5-2.5c-0.2-0.3-0.4-0.4-0.7-0.5v0.3c0.2,0,0.3,0.1,0.4,0.3
				c0.5,0.9,1,1.7,1.5,2.5l0.2,0.4c0.1,0.2,0.1,0.3,0,0.5L6,194.4c-0.5,0.8-1,1.7-1.5,2.5c-0.1,0.2-0.2,0.3-0.4,0.3v0.3
				C4.4,197.6,4.6,197.4,4.8,197.1z M4.7,210.5c0.3-0.6,0.6-1.1,1-1.7c0.1-0.2,0.2-0.4,0.4-0.6l0.4-0.7c0.1-0.2,0.1-0.5,0-0.7
				c-0.2-0.3-0.4-0.7-0.6-1c-0.2-0.3-0.4-0.6-0.5-0.9c-0.1-0.2-0.2-0.3-0.3-0.5c-0.1-0.2-0.2-0.4-0.4-0.6c-0.2-0.3-0.4-0.3-0.6-0.3
				c0,0,0,0,0,0v0.3c0,0,0,0,0,0c0.2,0,0.2,0,0.3,0.2c0.1,0.2,0.2,0.4,0.4,0.6c0.1,0.2,0.2,0.3,0.3,0.5c0.2,0.3,0.4,0.6,0.5,0.9
				c0.2,0.3,0.4,0.7,0.6,1c0.1,0.1,0.1,0.2,0,0.4L5.8,208c-0.1,0.2-0.2,0.4-0.4,0.6c-0.3,0.6-0.7,1.1-1,1.7
				c-0.1,0.2-0.2,0.2-0.3,0.2c0,0,0,0,0,0v0.3c0,0,0,0,0,0C4.4,210.8,4.6,210.7,4.7,210.5z M47.8,181L47.8,181
				c0.2,0.3,0.6,0.4,0.9,0.3c0.3-0.1,0.5-0.4,0.5-0.7c0-0.2-0.2-0.6-0.5-0.7c-0.1,0-0.1,0-0.2,0c-0.2,0-0.5,0.1-0.7,0.3
				c0,0.1-0.1,0.1-0.1,0.2l0,0.1c0,0,0,0.1,0,0.1c0,0,0,0,0,0C47.6,180.7,47.7,180.9,47.8,181z M47.9,180.5c0-0.1,0.1-0.1,0.1-0.2
				c0.1-0.1,0.4-0.2,0.5-0.2c0.2,0.1,0.3,0.3,0.3,0.4c0,0.1-0.1,0.3-0.3,0.4c0,0-0.1,0-0.1,0c-0.1,0-0.3-0.1-0.4-0.2l0-0.1
				C48,180.7,47.9,180.6,47.9,180.5L47.9,180.5z M25.4,219.6c-0.5,0-0.7,0.5-0.8,0.6c0,0,0,0,0,0.1c0,0,0,0,0,0c0,0.1,0,0.2,0.1,0.2
				c0,0,0,0,0,0c0,0.1,0.1,0.2,0.1,0.2l0.2-0.2c0,0,0-0.1,0-0.1c0-0.1,0-0.1-0.1-0.1c0,0,0,0,0-0.1c0,0,0,0,0,0
				c0.1-0.3,0.3-0.5,0.6-0.4c0,0,0.1,0.1,0.2,0.1l0.2-0.2c-0.1-0.1-0.2-0.2-0.3-0.2C25.5,219.6,25.4,219.6,25.4,219.6z M35.2,210
				c-0.3,0-0.5,0.1-0.7,0.4c-0.4,0.6-0.7,1.3-1.1,1.9l0.8-0.8c0.2-0.3,0.4-0.7,0.6-1c0.1-0.2,0.2-0.3,0.5-0.3c0.1,0,0.1,0,0.2,0
				l0.3-0.3C35.5,210,35.4,210,35.2,210C35.2,210,35.2,210,35.2,210z M28.4,204.8c-0.1-0.2-0.2-0.3-0.3-0.5
				c-0.1-0.2-0.2-0.4-0.4-0.6c-0.2-0.3-0.4-0.3-0.6-0.3c-1.2,0-2.3,0-3.5,0h0c-0.2,0-0.4,0.1-0.6,0.3c-0.2,0.4-0.4,0.7-0.6,1.1
				c-0.2,0.4-0.5,0.8-0.7,1.2c-0.1,0.1-0.1,0.2-0.2,0.3c-0.1,0.2-0.3,0.4-0.4,0.6c0,0,0,0.1,0,0.1c0,0,0,0.1,0,0.1
				c0.3,0.5,0.6,1.1,0.9,1.6c0.1,0.2,0.3,0.5,0.4,0.7l0.2,0.3c0.1,0.3,0.3,0.5,0.4,0.8c0.2,0.3,0.3,0.3,0.6,0.3h0c1.2,0,2.3,0,3.5,0
				c0.3,0,0.4-0.1,0.6-0.3c0.3-0.6,0.6-1.1,1-1.7c0.1-0.2,0.2-0.4,0.4-0.6l0.4-0.7c0.1-0.2,0.1-0.5,0-0.7c-0.2-0.3-0.4-0.7-0.6-1
				C28.7,205.4,28.6,205.1,28.4,204.8z M29.2,207.3l-0.4,0.7c-0.1,0.2-0.2,0.4-0.4,0.6c-0.3,0.6-0.7,1.1-1,1.7
				c-0.1,0.2-0.2,0.2-0.3,0.2c-1.2,0-2.3,0-3.5,0c-0.2,0-0.3,0-0.3-0.2c-0.2-0.3-0.3-0.5-0.4-0.8l-0.2-0.3c-0.1-0.2-0.3-0.5-0.4-0.7
				c-0.3-0.5-0.6-1-0.8-1.5c0.1-0.2,0.2-0.4,0.3-0.6c0.1-0.1,0.1-0.2,0.2-0.3c0.2-0.4,0.5-0.8,0.7-1.2c0.2-0.4,0.4-0.7,0.6-1.1
				c0.1-0.2,0.2-0.2,0.3-0.2c0.6,0,1.2,0,1.8,0c0.6,0,1.2,0,1.8,0c0.2,0,0.2,0,0.3,0.2c0.1,0.2,0.2,0.4,0.4,0.6
				c0.1,0.2,0.2,0.3,0.3,0.5c0.2,0.3,0.4,0.6,0.5,0.9c0.2,0.3,0.4,0.7,0.6,1C29.3,207,29.3,207.1,29.2,207.3z M48.5,193.1
				c-0.1,0-0.1,0-0.1,0c-0.5,0-0.7,0.5-0.8,0.6c0,0,0,0,0,0.1c0,0,0,0,0,0c0,0.1,0,0.2,0.1,0.2c0,0,0,0,0,0c0.1,0.5,0.6,0.5,0.8,0.4
				l0.1,0c0.3,0,0.4-0.3,0.4-0.4c0,0,0-0.1,0.1-0.1c0-0.1,0.1-0.2,0-0.3C49,193.4,48.7,193.1,48.5,193.1z M48.8,194
				c-0.1,0.2-0.1,0.2-0.2,0.2l-0.1,0c-0.1,0-0.2,0-0.2,0c-0.1,0-0.2-0.1-0.3-0.2c0-0.1,0-0.1-0.1-0.1c0,0,0,0,0-0.1c0,0,0,0,0,0
				c0.1-0.3,0.3-0.5,0.6-0.4c0.1,0,0.4,0.3,0.4,0.4C48.8,193.9,48.8,193.9,48.8,194z M33.1,188.1c0.2,0.3,0.3,0.6,0.5,0.9
				c0.3,0.4,0.5,0.9,0.7,1.3c0.3,0.7,0.8,0.7,1.4,0.7c0.8,0,1.6,0,2.4,0c0.2,0,0.4,0,0.6,0l0.2,0c0.2,0,0.2-0.1,0.3-0.2l0,0
				c0.3-0.4,0.5-0.8,0.7-1.2c0.2-0.4,0.4-0.7,0.6-1.1c0.1-0.1,0.1-0.2,0.2-0.3c0.1-0.1,0.2-0.3,0.2-0.4c0.2-0.3,0.2-0.6,0-0.9
				c-0.4-0.6-0.7-1.3-1.1-1.9l-0.1-0.3c-0.2-0.3-0.3-0.6-0.5-0.9c-0.1-0.3-0.4-0.3-0.6-0.3c-1.1,0-2.3,0-3.5,0c0,0,0,0,0,0
				c-0.3,0-0.5,0.1-0.7,0.4c-0.4,0.7-0.8,1.4-1.2,2.1l0,0c-0.1,0.1-0.1,0.2-0.2,0.3c-0.1,0.2-0.3,0.5-0.4,0.8c0,0,0,0.1,0,0.1
				c0,0,0,0,0,0c0,0.3,0.2,0.5,0.3,0.7C33,187.9,33,188,33.1,188.1z M33.3,186.5c0.1-0.1,0.1-0.2,0.2-0.3l0,0
				c0.4-0.7,0.8-1.4,1.2-2.1c0.1-0.2,0.2-0.3,0.5-0.3c0.5,0,1.1,0,1.6,0c0.6,0,1.3,0,1.8,0c0.2,0,0.2,0,0.3,0.2
				c0.2,0.3,0.3,0.6,0.5,0.9l0.1,0.3c0.4,0.6,0.7,1.3,1.1,1.9c0.1,0.2,0.1,0.3,0,0.5c-0.1,0.1-0.2,0.3-0.3,0.5
				c-0.1,0.1-0.1,0.2-0.2,0.3c-0.2,0.4-0.4,0.7-0.6,1.1c-0.2,0.4-0.5,0.8-0.7,1.2l0,0c0,0,0,0,0,0.1l-0.2,0c-0.2,0-0.4,0-0.6,0
				c-0.8,0-1.7,0-2.5,0c-0.5,0-0.8,0-1.1-0.5c-0.2-0.5-0.5-0.9-0.7-1.4c-0.2-0.3-0.3-0.6-0.5-0.8c0-0.1-0.1-0.2-0.2-0.3
				c-0.1-0.2-0.2-0.3-0.2-0.5C33,186.9,33.2,186.7,33.3,186.5z M37.2,187.9c0.3-0.1,0.4-0.4,0.4-0.6l0,0c0.1-0.2-0.3-0.7-0.5-0.8
				c-0.1,0-0.1,0-0.2,0c-0.3,0-0.5,0.1-0.7,0.3c0,0,0,0,0,0.1c-0.1,0.1-0.1,0.2-0.1,0.3c0,0,0,0,0,0c0,0.1,0,0.2,0.1,0.3
				C36.4,187.9,36.7,188,37.2,187.9z M36.4,187.2c0-0.1,0.1-0.1,0.1-0.2c0,0,0-0.1,0.1-0.1c0.1-0.1,0.4-0.2,0.5-0.2
				c0.1,0,0.3,0.3,0.3,0.4l0,0c-0.1,0.2-0.1,0.4-0.2,0.4c-0.1,0-0.1,0-0.2,0c-0.2,0-0.3-0.1-0.4-0.3
				C36.4,187.3,36.4,187.3,36.4,187.2C36.4,187.2,36.4,187.2,36.4,187.2z M25.7,206.4c-0.1,0-0.1,0-0.2,0c-0.2,0-0.5,0.1-0.7,0.3
				c0,0.1-0.1,0.1-0.1,0.2l0,0.1c0,0,0,0.1,0,0.1c0,0,0,0,0,0c0,0.1,0.1,0.3,0.2,0.4l0,0.1c0.2,0.2,0.6,0.4,0.8,0.2
				c0.3-0.1,0.5-0.4,0.5-0.7C26.1,206.8,26,206.5,25.7,206.4z M25.5,207.5C25.5,207.5,25.5,207.5,25.5,207.5c-0.2,0-0.4-0.1-0.5-0.1
				l0-0.1c-0.1-0.1-0.1-0.1-0.1-0.2l0-0.1c0-0.1,0.1-0.1,0.1-0.2c0.1-0.1,0.4-0.2,0.5-0.2c0.2,0.1,0.3,0.3,0.3,0.4
				C25.8,207.2,25.7,207.4,25.5,207.5z M13.9,201.2c0.2,0,0.3-0.1,0.5-0.3c0.1-0.2,0.2-0.3,0.2-0.5c0-0.3-0.4-0.6-0.7-0.7
				c-0.1,0-0.1,0-0.2,0c-0.4,0-0.6,0.3-0.7,0.6c0,0,0,0.1,0,0.1c0,0,0,0,0,0.1C13.3,201.1,13.4,201.2,13.9,201.2z M13.9,200
				c0.2,0,0.4,0.2,0.4,0.4c0,0.1-0.1,0.2-0.1,0.3c-0.1,0.1-0.2,0.2-0.3,0.2c0,0-0.1,0-0.1,0c-0.2,0-0.3,0-0.4-0.5
				C13.5,200.1,13.6,200,13.9,200z M16.3,223.6c-0.2-0.4-0.5-0.4-0.8-0.4c-0.1,0-0.1,0-0.2,0c-0.7,0-1.5,0-2.2,0c-0.1,0-0.3,0-0.4,0
				c-0.3,0-0.5,0-0.8,0c-0.1,0-0.2,0-0.4,0.2c-0.5,0.8-1,1.6-1.3,2.3c-0.1,0.1-0.1,0.2-0.2,0.3c-0.2,0.2-0.3,0.5-0.4,0.8
				c0,0,0,0,0,0.1c0,0,0,0.1,0,0.1c0.2,0.5,0.5,1,0.8,1.5c0.2,0.3,0.4,0.6,0.5,0.9c0.1,0.1,0.2,0.3,0.2,0.4c0.1,0.2,0.2,0.3,0.3,0.5
				c0.1,0.3,0.4,0.3,0.6,0.3c0.8,0,1.8,0,2.9,0l0.3-0.3c-1.2,0-2.3,0-3.2,0c-0.2,0-0.2,0-0.3-0.2c-0.1-0.2-0.2-0.3-0.3-0.5
				c-0.1-0.1-0.2-0.3-0.2-0.4c-0.2-0.3-0.4-0.6-0.5-0.9c-0.3-0.5-0.6-1-0.8-1.5c0.1-0.2,0.2-0.5,0.4-0.7c0.1-0.1,0.2-0.2,0.2-0.4
				c0.4-0.7,0.8-1.5,1.3-2.3c0-0.1,0.1-0.1,0.2-0.1c0.2,0,0.5,0,0.7,0c0.1,0,0.3,0,0.4,0c0,0,0,0,0,0c0.7,0,1.5,0,2.2,0
				c0.3,0,0.5,0,0.6,0.2c0.5,1,1.1,2,1.7,3c0.1,0.2,0.1,0.3,0,0.4c-0.1,0.2-0.3,0.4-0.4,0.6c0,0.1-0.1,0.2-0.1,0.3l-0.3,0.6
				c-0.1,0.1-0.2,0.3-0.2,0.4l0.8-0.8l0-0.1c0-0.1,0.1-0.2,0.1-0.3c0.1-0.2,0.2-0.4,0.3-0.6c0.2-0.2,0.2-0.5,0-0.7
				C17.4,225.6,16.8,224.6,16.3,223.6z M50.8,190.5c-0.2-0.3-0.4-0.5-0.8-0.5c0,0,0,0-0.1,0c-0.6,0-1.2,0-2,0c-0.4,0-0.7,0-1.2,0
				c-0.3,0-0.6,0.1-0.7,0.4c-0.4,0.7-0.8,1.4-1.2,2l-0.6,1.1c0,0,0,0.1-0.1,0.1l0,0c0,0,0,0,0,0.1c0,0,0,0,0,0
				c0,0.2,0.1,0.4,0.3,0.5c0,0.1,0.1,0.1,0.1,0.2c0.2,0.4,0.4,0.7,0.6,1.1c0.3,0.5,0.6,1,0.8,1.5c0.1,0.3,0.4,0.4,0.8,0.4
				c0.5,0,0.9,0,1.4,0l0.3-0.3c-0.5,0-1.1,0-1.7,0c-0.2,0-0.4-0.1-0.5-0.3c-0.3-0.5-0.5-1-0.8-1.5c-0.2-0.4-0.4-0.7-0.6-1.1
				c0-0.1-0.1-0.2-0.1-0.2c-0.1-0.1-0.2-0.3-0.2-0.4l0,0c0,0,0-0.1,0-0.1l0.6-1.1c0.4-0.7,0.8-1.4,1.2-2.1c0.1-0.2,0.2-0.2,0.4-0.2
				c0.5,0,0.9,0,1.3,0c0.8,0,1.5,0,2.1,0c0.3,0,0.4,0.1,0.5,0.3c0.5,0.9,1,1.7,1.5,2.5l0.2,0.3l0.2-0.2l-0.1-0.2
				C51.8,192.2,51.3,191.4,50.8,190.5z M58.2,183.5C58.2,183.5,58.2,183.5,58.2,183.5c-0.4,0-0.6,0.1-0.7,0.4
				c-0.4,0.7-0.8,1.4-1.2,2.1l0,0.1c-0.1,0.1-0.1,0.2-0.2,0.3c-0.1,0.2-0.3,0.5-0.4,0.8c0,0,0,0.1,0,0.1c0,0,0,0,0,0
				c0,0.3,0.2,0.5,0.3,0.7c0.1,0.1,0.1,0.2,0.2,0.2c0.2,0.3,0.3,0.6,0.5,0.9c0,0,0,0.1,0,0.1l0.2-0.2c0,0,0,0,0,0
				c-0.2-0.3-0.3-0.6-0.5-0.8c0-0.1-0.1-0.2-0.2-0.3c-0.1-0.2-0.2-0.3-0.2-0.5c0.1-0.2,0.3-0.5,0.4-0.7c0.1-0.1,0.1-0.2,0.2-0.3
				l0-0.1c0.4-0.7,0.8-1.4,1.2-2.1c0.1-0.2,0.2-0.3,0.5-0.3c0.5,0,1.1,0,1.6,0c0.6,0,1.3,0,1.8,0c0.1,0,0.2,0,0.2,0l0.2-0.2
				c-0.1-0.1-0.3-0.1-0.4-0.1C60.6,183.5,59.4,183.5,58.2,183.5z M11.3,216.8c0.3,0.7,0.8,0.7,1.4,0.7c0.8,0,1.6,0,2.4,0
				c0.2,0,0.4,0,0.6,0l0.2,0c0.2,0,0.2-0.1,0.3-0.2l0,0c0.3-0.4,0.5-0.8,0.7-1.2c0.2-0.4,0.4-0.7,0.6-1.1c0.1-0.1,0.1-0.2,0.2-0.3
				c0.1-0.1,0.2-0.3,0.2-0.4c0.2-0.3,0.2-0.6,0-0.9c-0.4-0.6-0.7-1.3-1.1-1.9l-0.1-0.3c-0.2-0.3-0.3-0.6-0.5-0.9
				c-0.1-0.3-0.4-0.3-0.6-0.3c-1.2,0-2.3,0-3.5,0c0,0,0,0,0,0c-0.3,0-0.5,0.1-0.7,0.4c-0.4,0.7-0.8,1.4-1.2,2.1l0,0.1
				c-0.1,0.1-0.1,0.2-0.2,0.3c-0.1,0.2-0.3,0.5-0.4,0.8c0,0,0,0.1,0,0.1c0,0,0,0,0,0c0,0.3,0.2,0.5,0.3,0.7c0.1,0.1,0.1,0.2,0.2,0.2
				c0.2,0.3,0.3,0.6,0.5,0.9C10.8,215.9,11.1,216.3,11.3,216.8z M10.2,214.2c-0.1-0.2-0.2-0.3-0.2-0.5c0.1-0.2,0.3-0.5,0.4-0.7
				c0.1-0.1,0.1-0.2,0.2-0.3l0-0.1c0.4-0.7,0.8-1.4,1.2-2.1c0.1-0.2,0.2-0.3,0.5-0.3c0.5,0,1.1,0,1.6,0c0.6,0,1.2,0,1.8,0
				c0.2,0,0.2,0,0.3,0.2c0.2,0.3,0.3,0.6,0.5,0.9l0.1,0.3c0.4,0.6,0.7,1.3,1.1,1.9c0.1,0.2,0.1,0.3,0,0.5c-0.1,0.1-0.2,0.3-0.3,0.5
				c-0.1,0.1-0.1,0.2-0.2,0.3c-0.2,0.4-0.4,0.7-0.6,1.1c-0.2,0.4-0.5,0.8-0.7,1.2l0,0c0,0,0,0,0,0.1l-0.2,0c-0.2,0-0.4,0-0.6,0
				c-0.8,0-1.7,0-2.5,0c-0.5,0-0.8,0-1.1-0.5c-0.2-0.5-0.5-0.9-0.7-1.4c-0.2-0.3-0.3-0.6-0.5-0.8C10.3,214.4,10.2,214.3,10.2,214.2z
				 M6.2,227.2c1,1.7,2,3.4,3,5.2l0.7,1.2c-0.1,0.2-0.3,0.4-0.4,0.6c0,0.1-0.1,0.2-0.1,0.3c-0.3,0.5-0.6,1.1-0.9,1.6
				c-0.5,0.9-1.1,1.9-1.6,2.8l0.8-0.8c0.4-0.6,0.7-1.2,1.1-1.8c0.3-0.5,0.6-1.1,0.9-1.6c0.1-0.1,0.1-0.2,0.1-0.3
				c0.1-0.2,0.2-0.4,0.4-0.6c0.5,0,1,0,1.5,0c0.1,0,0.2,0,0.4,0l0.3-0.3c-0.2,0-0.4,0-0.7,0c-0.5,0-1,0-1.5,0l-0.7-1.2
				c-1-1.7-2-3.5-3-5.2c-0.1-0.1,0-0.2,0-0.2c0.7-1.2,1.4-2.4,2.1-3.5c0.3-0.5,0.6-1.1,0.9-1.6c0.2-0.3,0.3-0.6,0.5-0.9l0.2-0.3h7.5
				l0.2,0.4c0.2,0.3,0.3,0.6,0.5,0.9c0.3,0.5,0.6,1.1,0.9,1.6c0.4,0.7,0.8,1.3,1.1,2l0.2-0.2c-0.4-0.6-0.7-1.3-1.1-1.9
				c-0.3-0.5-0.6-1.1-0.9-1.6c-0.2-0.3-0.3-0.6-0.5-0.9l-0.2-0.3l0.8-1.3c0.7-1.3,1.5-2.7,2.3-4c0.1-0.1,0.1-0.2,0.2-0.3
				c0.1-0.2,0.3-0.5,0.4-0.7c0,0,0.1-0.1,0.1-0.1c2.5,0,5,0,7.5,0c0,0.1,0,0.1,0.1,0.1c0.2,0.2,0.3,0.4,0.4,0.7
				c0.1,0.1,0.1,0.2,0.2,0.3c0.1,0.2,0.2,0.4,0.3,0.5l0.2-0.2c-0.1-0.2-0.2-0.3-0.3-0.5c-0.1-0.1-0.1-0.2-0.2-0.3
				c-0.1-0.2-0.3-0.5-0.5-0.7c0-0.1-0.1-0.1,0-0.2c1.1-1.8,2.2-3.9,3.6-6.2c0.1-0.1,0.2-0.2,0.4-0.2c1.7,0,3.4,0,5.1,0l0.3-0.3
				c-1.8,0-3.6,0-5.4,0c-0.1,0-0.2,0-0.2,0l-0.7-1.2c-1-1.7-2-3.5-3-5.2c-0.1-0.1,0-0.2,0-0.2c0.7-1.2,1.4-2.4,2.1-3.5
				c0.3-0.5,0.6-1.1,0.9-1.6c0.2-0.3,0.4-0.6,0.5-0.9l0.2-0.3h7.5l0.5,0.9c0.3,0.5,0.5,0.9,0.8,1.4c0.7,1.3,1.5,2.6,2.2,3.8
				c0.2,0.3,0.1,0.5,0,0.8c-0.3,0.5-0.6,1-0.9,1.6l0.8-0.8c0.1-0.2,0.2-0.4,0.3-0.6c0.1-0.2,0.2-0.3,0.2-0.5c0,0,0,0,0,0
				c0.2,0,0.3,0,0.5,0l0.3-0.3c-0.3,0-0.5,0-0.8,0h0c0,0,0,0,0,0c0-0.1-0.1-0.2-0.1-0.4c-0.8-1.3-1.5-2.6-2.2-3.8
				c-0.3-0.5-0.5-0.9-0.8-1.4l-0.5-0.9l0.8-1.3c0.8-1.3,1.5-2.7,2.3-4c0.1-0.1,0.1-0.2,0.2-0.3c0.1-0.2,0.3-0.5,0.4-0.7
				c0,0,0.1-0.1,0.1-0.1c2.5,0,5,0,7.5,0c0,0.1,0,0.1,0.1,0.1c0.2,0.2,0.3,0.4,0.4,0.7c0.1,0.1,0.1,0.2,0.2,0.3
				c0.5,0.9,1.1,1.8,1.6,2.8l0.2-0.2c-0.5-0.9-1-1.8-1.6-2.7c-0.1-0.1-0.1-0.2-0.2-0.3c-0.1-0.2-0.3-0.5-0.5-0.7
				c0-0.1-0.1-0.1,0-0.2c1.1-1.8,2.2-3.8,3.6-6.2c0.1-0.1,0.2-0.2,0.4-0.2h0c2.3,0,4.6,0,7,0h0c0.1,0,0.2,0,0.3,0l0.1,0.1
				c0.1,0.1,0.1,0.2,0.2,0.4l0.2,0.4l0.2-0.2l-0.2-0.3c-0.1-0.1-0.1-0.2-0.2-0.4l-0.1-0.1c0.1-0.1,0.1-0.1,0.2-0.2
				c0.1-0.2,0.2-0.4,0.4-0.6h-0.3c-0.1,0.2-0.2,0.3-0.3,0.5c-0.1,0.2-0.2,0.3-0.4,0.3h0c-2.3,0-4.6,0-7,0h0c-0.1,0-0.2,0-0.2,0
				l-0.4-0.8h-0.3l0.5,0.9c0,0-0.1,0.1-0.1,0.2c-1.4,2.4-2.5,4.4-3.6,6.2c0,0,0,0.1-0.1,0.1c-1.2,0-2.5,0-3.7,0c-1.3,0-2.5,0-3.7,0
				c0,0,0-0.1-0.1-0.1c-0.9-1.6-1.9-3.3-2.8-4.9l-0.6-1.1c-0.1-0.1-0.1-0.2-0.2-0.4l-0.1-0.1c0.1-0.1,0.1-0.1,0.2-0.2
				c0.1-0.2,0.2-0.4,0.4-0.6h-0.3c-0.1,0.2-0.2,0.3-0.3,0.5c-0.1,0.2-0.2,0.3-0.4,0.3h0c-2.3,0-4.6,0-7,0h0c-0.1,0-0.2,0-0.2,0
				l-0.4-0.8h-0.3l0.5,0.9c0,0-0.1,0.1-0.1,0.2c-1.4,2.4-2.5,4.3-3.6,6.2c0,0,0,0.1-0.1,0.1c-1.2,0-2.5,0-3.7,0c-1.3,0-2.5,0-3.7,0
				c0,0,0-0.1-0.1-0.1c-0.9-1.6-1.9-3.2-2.8-4.8l-0.6-1.1c-0.1-0.1-0.1-0.2-0.2-0.4l-0.1-0.1c0.1-0.1,0.1-0.1,0.2-0.2
				c0.1-0.2,0.2-0.4,0.4-0.6h-0.3c-0.1,0.2-0.2,0.3-0.3,0.5c-0.1,0.2-0.2,0.3-0.4,0.3h0c-2.3,0-4.6,0-7,0h0c-0.1,0-0.2,0-0.2,0
				l-0.4-0.8H9.3l0.5,0.9c0,0-0.1,0.1-0.1,0.2c-1.4,2.4-2.5,4.4-3.6,6.2c0,0,0,0.1-0.1,0.1c-0.7,0-1.3,0-2,0v0.3c0.7,0,1.4,0,2,0
				c0,0.1,0,0.1,0.1,0.1c0.2,0.2,0.3,0.4,0.4,0.7c0.1,0.1,0.1,0.2,0.2,0.3c0.8,1.3,1.6,2.7,2.3,4l0.8,1.3l-0.2,0.3
				c-0.2,0.3-0.4,0.6-0.5,0.9c-0.3,0.5-0.6,1.1-0.9,1.6c-0.7,1.2-1.3,2.4-2,3.5c0,0,0,0.1-0.1,0.1c-0.7,0-1.3,0-2,0v0.3
				c0.7,0,1.4,0,2,0c0,0,0,0.1,0.1,0.1c1,1.7,2,3.5,3,5.2l0.7,1.2c0,0-0.1,0.1-0.1,0.2c-1.4,2.4-2.5,4.3-3.6,6.2c0,0,0,0.1-0.1,0.1
				c-0.7,0-1.3,0-2,0v0.3c0.7,0,1.4,0,2,0c0,0.1,0,0.1,0.1,0.1c0.2,0.2,0.3,0.4,0.4,0.7c0.1,0.1,0.1,0.2,0.2,0.3
				c0.8,1.3,1.6,2.7,2.3,4l0.7,1.3l-0.2,0.3c-0.2,0.3-0.3,0.6-0.5,0.9c-0.3,0.5-0.6,1.1-0.9,1.6c-0.7,1.2-1.3,2.4-2.1,3.5
				c0,0,0,0.1-0.1,0.1c-0.7,0-1.3,0-2,0v0.3c0.7,0,1.4,0,2,0C6.1,227.1,6.1,227.2,6.2,227.2z M32.2,205.9l0.7,1.2
				c0,0-0.1,0.1-0.1,0.2c-1.3,2.3-2.5,4.3-3.6,6.2c0,0,0,0.1-0.1,0.1c-1.2,0-2.5,0-3.7,0c-1.3,0-2.5,0-3.7,0c0,0,0-0.1-0.1-0.1
				c-0.9-1.6-1.9-3.2-2.8-4.9l-0.6-1.1c-0.1-0.1-0.1-0.2-0.2-0.3l-0.1-0.1c0.1-0.1,0.1-0.1,0.2-0.2c1.3-2.3,2.4-4.1,3.3-5.8
				c0.1-0.2,0.2-0.3,0.2-0.5c0,0,0,0,0,0c2.5,0,5,0,7.6,0c0,0,0,0.1,0.1,0.1C30.2,202.4,31.2,204.2,32.2,205.9z M29.4,187.1
				c1.1-1.8,2.2-3.8,3.6-6.2c0.1-0.1,0.2-0.2,0.4-0.2h0c2.3,0,4.6,0,7,0h0c0.1,0,0.2,0,0.3,0l0,0.1c0.1,0.1,0.1,0.2,0.2,0.4l0.6,1.1
				c0.9,1.6,1.9,3.3,2.8,4.9c0.1,0.1,0,0.2,0,0.2c-0.2,0.2-0.3,0.5-0.5,0.7c-0.1,0.1-0.1,0.2-0.2,0.3c-0.8,1.3-1.6,2.7-2.3,4
				l-0.8,1.3h-7.5l-0.8-1.3c-0.7-1.3-1.5-2.7-2.3-4c-0.1-0.1-0.1-0.2-0.2-0.3c-0.1-0.2-0.3-0.5-0.5-0.7
				C29.4,187.3,29.4,187.2,29.4,187.1z M21.6,187.4c2.5,0,5,0,7.5,0c0,0.1,0,0.1,0.1,0.1c0.2,0.2,0.3,0.4,0.4,0.7
				c0.1,0.1,0.1,0.2,0.2,0.3c0.8,1.3,1.5,2.7,2.3,4l0.8,1.3l-0.2,0.3c-0.2,0.3-0.4,0.6-0.5,0.9c-0.3,0.5-0.6,1.1-0.9,1.6
				c-0.7,1.2-1.3,2.4-2,3.5c0,0,0,0.1-0.1,0.1c-2.5,0-5,0-7.5,0h0c0,0,0,0,0,0c0-0.1-0.1-0.2-0.1-0.4c-0.8-1.3-1.5-2.6-2.2-3.8
				c-0.3-0.5-0.5-0.9-0.8-1.4l-0.5-0.9l0.8-1.3c0.8-1.3,1.5-2.7,2.3-4c0.1-0.1,0.1-0.2,0.2-0.3c0.1-0.2,0.3-0.5,0.4-0.7
				C21.6,187.5,21.6,187.4,21.6,187.4z M9.4,192.4c-0.8-1.3-1.5-2.7-2.3-4c-0.1-0.1-0.1-0.2-0.2-0.3c-0.1-0.2-0.3-0.5-0.5-0.7
				c0,0-0.1-0.1,0-0.2c1.1-1.8,2.2-3.8,3.6-6.2c0.1-0.1,0.2-0.2,0.4-0.2h0c2.3,0,4.6,0,7,0h0c0.1,0,0.2,0,0.3,0l0.1,0.1
				c0.1,0.1,0.1,0.2,0.2,0.4l0.6,1.1c0.9,1.6,1.9,3.2,2.8,4.8c0.1,0.1,0,0.2,0,0.2c-0.2,0.2-0.3,0.5-0.5,0.7
				c-0.1,0.1-0.1,0.2-0.2,0.3c-0.8,1.3-1.6,2.7-2.3,4l-0.8,1.3h-7.5L9.4,192.4z M9.4,205.8c-1-1.7-2-3.5-3-5.2c-0.1-0.1,0-0.2,0-0.2
				c0.7-1.2,1.4-2.4,2.1-3.5c0.3-0.5,0.6-1.1,0.9-1.6c0.2-0.3,0.4-0.6,0.5-0.9l0.2-0.3h7.5l0.5,0.9c0.3,0.5,0.5,0.9,0.8,1.4
				c0.7,1.3,1.5,2.6,2.2,3.8c0.2,0.3,0.1,0.5,0,0.8c-1,1.7-2,3.5-3.3,5.8c-0.1,0.2-0.2,0.3-0.4,0.3h0c-2.3,0-4.7,0-7,0h0
				c-0.1,0-0.2,0-0.2,0L9.4,205.8z M9.4,218.9c-0.8-1.3-1.5-2.7-2.3-4c-0.1-0.1-0.1-0.2-0.2-0.3c-0.1-0.2-0.3-0.5-0.5-0.7
				c0-0.1-0.1-0.1,0-0.2c1.1-1.9,2.2-3.8,3.6-6.2c0.1-0.1,0.2-0.2,0.4-0.2h0c2.3,0,4.6,0,7,0h0c0.1,0,0.2,0,0.3,0l0.1,0.1
				c0.1,0.1,0.1,0.2,0.2,0.3l0.6,1.1c0.9,1.6,1.9,3.2,2.8,4.9c0.1,0.1,0,0.2,0,0.2c-0.2,0.2-0.3,0.5-0.5,0.7
				c-0.1,0.1-0.1,0.2-0.2,0.3c-0.8,1.3-1.6,2.7-2.3,4l-0.8,1.3h-7.5L9.4,218.9z M27,216.6C27,216.6,27,216.6,27,216.6
				c-0.6,0-1.3,0-2.1,0c-0.4,0-0.7,0-1.2,0c-0.3,0-0.5,0.1-0.7,0.4c-0.4,0.7-0.8,1.4-1.2,2l-0.6,1.1c0,0,0,0.1-0.1,0.1l0,0
				c0,0,0,0,0,0.1c0,0,0,0,0,0c0,0.2,0.1,0.4,0.3,0.5c0,0.1,0.1,0.1,0.1,0.2c0.2,0.4,0.4,0.7,0.6,1.1c0.2,0.3,0.3,0.6,0.5,0.8
				l0.2-0.2c-0.1-0.3-0.3-0.5-0.4-0.8c-0.2-0.4-0.4-0.7-0.6-1.1c0-0.1-0.1-0.2-0.1-0.2c-0.1-0.1-0.2-0.3-0.2-0.4l0,0
				c0,0,0-0.1,0-0.1l0.6-1.1c0.4-0.7,0.8-1.4,1.2-2c0.1-0.2,0.2-0.2,0.4-0.2c0.5,0,0.9,0,1.3,0c0.8,0,1.5,0,2.1,0
				c0.3,0,0.4,0.1,0.5,0.3c0.1,0.2,0.2,0.4,0.3,0.6l0.2-0.2c-0.1-0.2-0.2-0.3-0.3-0.5C27.6,216.7,27.4,216.6,27,216.6z M13.8,226.2
				c-0.4,0-0.6,0.3-0.7,0.6c0,0,0,0.1,0,0.1c0,0,0,0,0,0.1c0.2,0.6,0.3,0.7,0.8,0.7c0.2,0,0.3-0.1,0.5-0.3c0.1-0.2,0.2-0.3,0.2-0.5
				c0-0.3-0.4-0.6-0.7-0.7C13.9,226.3,13.9,226.2,13.8,226.2z M14.3,227c0,0.1-0.1,0.2-0.1,0.3c-0.1,0.1-0.2,0.2-0.3,0.2
				c0,0-0.1,0-0.1,0c-0.2,0-0.3,0-0.4-0.5c0.1-0.3,0.2-0.4,0.5-0.4C14.1,226.6,14.3,226.8,14.3,227z M40.9,199.9
				c0-0.1-0.1-0.1-0.1-0.2c-0.2-0.4-0.4-0.7-0.6-1.1c-0.3-0.5-0.6-1-0.8-1.5c-0.2-0.4-0.5-0.4-0.7-0.4c-0.1,0-0.1,0-0.2,0
				c-0.5,0-1,0-1.5,0c-0.2,0-0.5,0-0.7,0c-0.1,0-0.3,0-0.4,0c-0.2,0-0.5,0-0.8,0c-0.1,0-0.2,0-0.4,0.2c-0.2,0.4-0.5,0.8-0.7,1.2
				c-0.2,0.4-0.4,0.8-0.7,1.1c-0.1,0.1-0.1,0.2-0.2,0.3c-0.1,0.1-0.2,0.3-0.2,0.4c-0.2,0.3-0.2,0.6,0,0.9c0.4,0.6,0.7,1.3,1.1,1.9
				L34,203c0.2,0.3,0.3,0.6,0.5,0.9c0.1,0.3,0.4,0.3,0.6,0.3c1.1,0,2.3,0,3.5,0c0.3,0,0.6-0.1,0.7-0.4c0.3-0.5,0.5-1,0.8-1.4
				l0.4-0.7c0.1-0.1,0.1-0.2,0.2-0.3c0.2-0.3,0.3-0.5,0.4-0.8c0,0,0,0,0-0.1c0,0,0,0,0,0C41.1,200.2,41,200,40.9,199.9z M40.4,201.2
				c-0.1,0.1-0.1,0.2-0.2,0.3l-0.4,0.7c-0.3,0.5-0.5,1-0.8,1.4c-0.1,0.2-0.2,0.3-0.5,0.3c-1.2,0-2.4,0-3.5,0c-0.2,0-0.2,0-0.3-0.2
				c-0.2-0.3-0.3-0.6-0.5-0.9l-0.2-0.3c-0.4-0.6-0.7-1.3-1.1-1.9c-0.1-0.2-0.1-0.3,0-0.5c0.1-0.1,0.2-0.3,0.3-0.5
				c0.1-0.1,0.1-0.2,0.2-0.3c0.2-0.4,0.5-0.8,0.7-1.1c0.2-0.4,0.4-0.8,0.7-1.1c0-0.1,0.1-0.1,0.2-0.1c0.2,0,0.4,0,0.7,0
				c0.1,0,0.3,0,0.4,0c0.2,0,0.5,0,0.7,0c0.5,0,1,0,1.6,0c0.3,0,0.5,0,0.6,0.2c0.3,0.5,0.6,1,0.8,1.5c0.2,0.3,0.4,0.7,0.6,1.1
				c0,0.1,0.1,0.2,0.1,0.2c0.1,0.1,0.2,0.3,0.2,0.4C40.7,200.7,40.6,200.9,40.4,201.2z M11.3,190.3c0.3,0.7,0.8,0.7,1.4,0.7
				c0.8,0,1.6,0,2.4,0c0.2,0,0.4,0,0.6,0l0.2,0c0.2,0,0.2-0.1,0.3-0.2l0,0c0.3-0.4,0.5-0.8,0.7-1.2c0.2-0.4,0.4-0.7,0.6-1.1
				c0.1-0.1,0.1-0.2,0.2-0.3c0.1-0.1,0.2-0.3,0.2-0.4c0.2-0.3,0.2-0.6,0-0.9c-0.4-0.6-0.7-1.3-1.1-1.9l-0.2-0.3
				c-0.2-0.3-0.3-0.6-0.5-0.9c-0.1-0.3-0.4-0.3-0.6-0.3c-1.1,0-2.3,0-3.5,0c0,0,0,0,0,0c-0.3,0-0.5,0.1-0.7,0.4
				c-0.4,0.7-0.8,1.4-1.2,2.1l0,0.1c-0.1,0.1-0.1,0.2-0.2,0.3c-0.1,0.2-0.3,0.5-0.4,0.8c0,0,0,0.1,0,0.1c0,0,0,0,0,0
				c0,0.3,0.2,0.5,0.3,0.7c0.1,0.1,0.1,0.2,0.2,0.2c0.2,0.3,0.3,0.6,0.5,0.9C10.8,189.4,11.1,189.8,11.3,190.3z M10.2,187.7
				c-0.1-0.2-0.2-0.3-0.2-0.5c0.1-0.2,0.3-0.5,0.4-0.7c0.1-0.1,0.1-0.2,0.2-0.3l0-0.1c0.4-0.7,0.8-1.4,1.2-2.1
				c0.1-0.2,0.2-0.3,0.5-0.3c0.5,0,1.1,0,1.6,0c0.6,0,1.3,0,1.8,0c0.2,0,0.2,0,0.3,0.2c0.2,0.3,0.3,0.6,0.5,0.9l0.2,0.3
				c0.4,0.6,0.7,1.3,1.1,1.9c0.1,0.2,0.1,0.3,0,0.5c-0.1,0.1-0.2,0.3-0.3,0.5c-0.1,0.1-0.1,0.2-0.2,0.3c-0.2,0.4-0.4,0.7-0.6,1.1
				c-0.2,0.4-0.5,0.8-0.7,1.2l0,0c0,0,0,0,0,0.1l-0.2,0c-0.2,0-0.4,0-0.6,0c-0.8,0-1.7,0-2.5,0c-0.5,0-0.8,0-1.1-0.5
				c-0.2-0.5-0.5-0.9-0.7-1.4c-0.2-0.3-0.3-0.6-0.5-0.8C10.3,187.9,10.2,187.8,10.2,187.7z M4.7,184c0.3-0.6,0.6-1.1,1-1.7
				c0.1-0.2,0.2-0.4,0.4-0.6l0.4-0.7c0.1-0.2,0.1-0.5,0-0.7c-0.1-0.2-0.2-0.4-0.3-0.5H5.8c0.1,0.2,0.3,0.5,0.4,0.7
				c0.1,0.1,0.1,0.2,0,0.4l-0.4,0.7c-0.1,0.2-0.2,0.4-0.4,0.6c-0.3,0.6-0.7,1.1-1,1.7C4.4,184,4.3,184,4.1,184c0,0,0,0,0,0v0.3
				c0,0,0,0,0,0C4.4,184.3,4.6,184.2,4.7,184z M37,199.8c-0.1,0-0.1,0-0.2,0c-0.4,0-0.6,0.3-0.7,0.6c0,0,0,0.1,0,0.1c0,0,0,0,0,0.1
				c0.2,0.6,0.3,0.7,0.8,0.7c0.2,0,0.3-0.1,0.5-0.3c0.1-0.2,0.2-0.3,0.2-0.5C37.6,200.1,37.3,199.8,37,199.8z M37.2,200.7
				c-0.1,0.1-0.2,0.2-0.3,0.2c0,0-0.1,0-0.1,0c-0.2,0-0.3,0-0.4-0.5c0.1-0.3,0.2-0.4,0.5-0.4c0.2,0,0.4,0.2,0.4,0.4
				C37.4,200.5,37.3,200.6,37.2,200.7z M14.2,214.4c0.3-0.1,0.4-0.4,0.4-0.6l0,0c0.1-0.2-0.3-0.7-0.5-0.8c-0.1,0-0.1,0-0.2,0
				c-0.3,0-0.5,0.1-0.7,0.3c0,0,0,0,0,0.1c-0.1,0.1-0.1,0.2-0.1,0.3c0,0,0,0,0,0c0,0.1,0,0.2,0.1,0.3
				C13.4,214.4,13.7,214.5,14.2,214.4z M13.4,213.7c0-0.1,0.1-0.1,0.1-0.2c0,0,0-0.1,0.1-0.1c0.1-0.1,0.4-0.2,0.5-0.2
				c0.1,0,0.3,0.3,0.3,0.4l0,0c-0.1,0.2-0.1,0.4-0.2,0.4c-0.1,0-0.1,0-0.2,0c-0.2,0-0.3-0.1-0.4-0.3
				C13.4,213.8,13.4,213.8,13.4,213.7C13.4,213.7,13.4,213.7,13.4,213.7z M4.8,223.6c0.5-0.9,1-1.7,1.5-2.5l0.2-0.3
				c0.2-0.3,0.2-0.5,0-0.8l-0.2-0.3c-0.5-0.8-1-1.7-1.5-2.5c-0.2-0.3-0.4-0.4-0.7-0.5v0.3c0.2,0,0.3,0.1,0.4,0.3
				c0.5,0.9,1,1.7,1.5,2.5l0.2,0.4c0.1,0.2,0.1,0.3,0,0.5L6,220.9c-0.5,0.8-1,1.7-1.5,2.5c-0.1,0.2-0.2,0.3-0.4,0.3v0.3
				C4.4,224.1,4.6,223.9,4.8,223.6z M4.8,236.9c0.6-1.1,1.1-2.1,1.7-3c0.1-0.2,0.1-0.5,0-0.7c-0.2-0.3-0.4-0.7-0.6-1
				c-0.2-0.3-0.4-0.6-0.5-0.9c-0.1-0.2-0.2-0.3-0.3-0.5c-0.1-0.2-0.2-0.4-0.4-0.6c-0.2-0.3-0.3-0.3-0.6-0.3c0,0,0,0,0,0v0.3
				c0,0,0,0,0,0c0.2,0,0.2,0,0.3,0.2c0.1,0.2,0.2,0.4,0.4,0.6c0.1,0.2,0.2,0.3,0.3,0.5c0.2,0.3,0.4,0.6,0.5,0.9
				c0.2,0.3,0.4,0.7,0.6,1c0.1,0.1,0.1,0.3,0,0.4c-0.6,0.9-1.1,1.9-1.7,3c-0.1,0.2-0.2,0.2-0.4,0.3v0.3
				C4.4,237.3,4.6,237.2,4.8,236.9z M45,182.2c0.1,0.2,0.3,0.5,0.4,0.7l0.2,0.3c0.1,0.3,0.3,0.5,0.4,0.8c0.2,0.3,0.4,0.3,0.6,0.3
				c1.2,0,2.3,0,3.5,0c0.3,0,0.4-0.1,0.6-0.3c0.3-0.6,0.6-1.1,1-1.7c0.1-0.2,0.2-0.4,0.4-0.6l0.4-0.7c0.1-0.2,0.1-0.5,0-0.7
				c-0.1-0.2-0.2-0.4-0.3-0.5h-0.3c0.1,0.2,0.3,0.5,0.4,0.7c0.1,0.1,0.1,0.2,0,0.4l-0.4,0.7c-0.1,0.2-0.2,0.4-0.4,0.6
				c-0.3,0.6-0.7,1.1-1,1.7c-0.1,0.2-0.2,0.2-0.3,0.2c-1.2,0-2.3,0-3.5,0c-0.2,0-0.3,0-0.3-0.2c-0.2-0.3-0.3-0.5-0.4-0.8l-0.2-0.3
				c-0.1-0.2-0.3-0.5-0.4-0.7c-0.3-0.5-0.6-1-0.8-1.5c0.1-0.2,0.2-0.4,0.3-0.6c0.1-0.1,0.1-0.2,0.2-0.3c0,0,0,0,0,0h-0.3
				c0,0-0.1,0.1-0.1,0.1c-0.1,0.2-0.3,0.4-0.4,0.6c0,0,0,0.1,0,0.1c0,0,0,0.1,0,0.1C44.4,181.2,44.7,181.7,45,182.2z M22,182.2
				c0.1,0.2,0.3,0.5,0.4,0.7l0.2,0.3c0.1,0.3,0.3,0.5,0.4,0.8c0.2,0.3,0.3,0.3,0.6,0.3h0c1.2,0,2.3,0,3.5,0c0.3,0,0.4-0.1,0.6-0.3
				c0.3-0.6,0.6-1.1,1-1.7c0.1-0.2,0.2-0.4,0.4-0.6l0.4-0.7c0.1-0.2,0.1-0.5,0-0.7c-0.1-0.2-0.2-0.4-0.3-0.5h-0.3
				c0.1,0.2,0.3,0.5,0.4,0.7c0.1,0.1,0.1,0.2,0,0.4l-0.4,0.7c-0.1,0.2-0.2,0.4-0.4,0.6c-0.3,0.6-0.7,1.1-1,1.7
				c-0.1,0.2-0.2,0.2-0.3,0.2c-1.2,0-2.3,0-3.5,0c-0.2,0-0.3,0-0.3-0.2c-0.2-0.3-0.3-0.5-0.4-0.8l-0.2-0.3c-0.1-0.2-0.3-0.5-0.4-0.7
				c-0.3-0.5-0.6-1-0.8-1.5c0.1-0.2,0.2-0.4,0.3-0.6c0.1-0.1,0.1-0.2,0.2-0.3c0,0,0,0,0,0h-0.3c0,0-0.1,0.1-0.1,0.1
				c-0.1,0.2-0.3,0.4-0.4,0.6c0,0,0,0.1,0,0.1c0,0,0,0.1,0,0.1C21.4,181.2,21.7,181.7,22,182.2z M11,203c0.2,0.3,0.3,0.6,0.5,0.9
				c0.1,0.3,0.4,0.3,0.6,0.3c1.1,0,2.3,0,3.5,0c0.3,0,0.6-0.1,0.7-0.4c0.3-0.5,0.5-1,0.8-1.4l0.4-0.7c0.1-0.1,0.1-0.2,0.2-0.3
				c0.2-0.3,0.3-0.5,0.4-0.8c0,0,0,0,0-0.1c0,0,0,0,0,0c0-0.2-0.1-0.4-0.3-0.5c0-0.1-0.1-0.1-0.1-0.2c-0.2-0.4-0.4-0.7-0.6-1.1
				c-0.3-0.5-0.6-1-0.8-1.5c-0.2-0.4-0.5-0.4-0.7-0.4c-0.1,0-0.1,0-0.2,0c-0.5,0-1.1,0-1.6,0c-0.2,0-0.5,0-0.7,0c-0.1,0-0.3,0-0.4,0
				c-0.2,0-0.5,0-0.8,0c-0.1,0-0.2,0-0.4,0.2c-0.2,0.4-0.5,0.8-0.7,1.2c-0.2,0.4-0.4,0.8-0.7,1.1c-0.1,0.1-0.1,0.2-0.2,0.3
				c-0.1,0.1-0.2,0.3-0.2,0.4c-0.2,0.3-0.2,0.6,0,0.9c0.4,0.6,0.7,1.2,1.1,1.9L11,203z M10.1,200.2c0.1-0.1,0.2-0.3,0.3-0.5
				c0.1-0.1,0.1-0.2,0.2-0.3c0.2-0.4,0.5-0.8,0.7-1.1c0.2-0.4,0.4-0.8,0.7-1.1c0-0.1,0.1-0.1,0.2-0.1c0.2,0,0.4,0,0.7,0
				c0.1,0,0.3,0,0.4,0c0.2,0,0.5,0,0.7,0c0.5,0,1.1,0,1.6,0c0.3,0,0.5,0,0.6,0.2c0.3,0.5,0.6,1,0.8,1.5c0.2,0.3,0.4,0.7,0.6,1.1
				c0,0.1,0.1,0.2,0.1,0.2c0.1,0.1,0.2,0.3,0.2,0.4c-0.1,0.3-0.2,0.5-0.4,0.7c-0.1,0.1-0.1,0.2-0.2,0.3l-0.4,0.7
				c-0.3,0.5-0.5,1-0.8,1.4c-0.1,0.2-0.2,0.3-0.5,0.3c-1.2,0-2.4,0-3.5,0c-0.2,0-0.2,0-0.3-0.2c-0.2-0.3-0.3-0.6-0.5-0.9l-0.2-0.3
				c-0.4-0.6-0.7-1.3-1.1-1.9C9.9,200.5,9.9,200.4,10.1,200.2z"/>
		</g>
		<g>
			<path class="st1" d="M130.1,62.3c-0.1,0-0.2,0-0.2-0.1c-0.1-0.1-0.1-0.3,0-0.5l59.8-60c0.1-0.1,0.3-0.1,0.5,0
				c0.1,0.1,0.1,0.3,0,0.5l-59.8,60C130.3,62.2,130.2,62.3,130.1,62.3z"/>
		</g>
		<g>
			<path class="st1" d="M234.7,87.8c-0.1,0-0.3,0-0.4-0.1c-0.2-0.2-0.2-0.5,0-0.7l28.4-28.4c0.2-0.2,0.5-0.2,0.7,0
				c0.2,0.2,0.2,0.5,0,0.7L235,87.7C234.9,87.8,234.8,87.8,234.7,87.8z"/>
		</g>
		<g>
			<path class="st1" d="M121.8,116.6c-0.1,0-0.3,0-0.4-0.1c-0.2-0.2-0.2-0.5,0-0.7l10.3-10.3c0.2-0.2,0.5-0.2,0.7,0
				c0.2,0.2,0.2,0.5,0,0.7l-10.3,10.3C122.1,116.6,121.9,116.6,121.8,116.6z"/>
		</g>
		<g>
			<path class="st1" d="M18.1,163.8c-0.1,0-0.3,0-0.4-0.1c-0.2-0.2-0.2-0.5,0-0.7l14.1-14.1c0.2-0.2,0.5-0.2,0.7,0
				c0.2,0.2,0.2,0.5,0,0.7l-14.1,14.1C18.3,163.7,18.2,163.8,18.1,163.8z"/>
		</g>
	</g>
</g>
</svg>
