<?xml version="1.0" encoding="utf-8"?>
<!-- Generator: Adobe Illustrator 22.0.1, SVG Export Plug-In . SVG Version: 6.00 Build 0)  -->
<svg version="1.1" id="Layer_1" xmlns="http://www.w3.org/2000/svg" xmlns:xlink="http://www.w3.org/1999/xlink" x="0px" y="0px"
	 viewBox="0 0 86.4 85.6" style="enable-background:new 0 0 86.4 85.6;" xml:space="preserve">
<style type="text/css">
	.st0{display:none;}
	.st1{display:inline;fill:#020203;}
	.st2{fill:#1C1F2C;}
	.st3{display:inline;fill:#1C1F2C;}
	.st4{display:inline;fill:#636363;}
</style>
<g>
	<g class="st0">
		<path class="st1" d="M129.7,73.1c-0.3,0-0.5,0.2-0.5,0.5c0,0.3,0.2,0.5,0.5,0.5c0.3,0,0.5-0.2,0.5-0.5
			C130.2,73.3,130,73.1,129.7,73.1z"/>
		<circle class="st1" cx="132.6" cy="70.7" r="0.5"/>
		<path class="st1" d="M129.7,70.2c-0.3,0-0.5,0.2-0.5,0.5s0.2,0.5,0.5,0.5c0.3,0,0.5-0.2,0.5-0.5S130,70.2,129.7,70.2z"/>
		<path class="st1" d="M135.5,67.3c-0.3,0-0.5,0.2-0.5,0.5c0,0.3,0.2,0.5,0.5,0.5c0.3,0,0.5-0.2,0.5-0.5
			C136,67.5,135.8,67.3,135.5,67.3z"/>
		<path class="st1" d="M132.6,67.3c-0.3,0-0.5,0.2-0.5,0.5c0,0.3,0.2,0.5,0.5,0.5s0.5-0.2,0.5-0.5C133.1,67.5,132.9,67.3,132.6,67.3
			z"/>
		<path class="st1" d="M129.7,67.3c-0.3,0-0.5,0.2-0.5,0.5c0,0.3,0.2,0.5,0.5,0.5c0.3,0,0.5-0.2,0.5-0.5
			C130.2,67.5,130,67.3,129.7,67.3z"/>
		<circle class="st1" cx="138.4" cy="64.9" r="0.5"/>
		<path class="st1" d="M135.5,64.4c-0.3,0-0.5,0.2-0.5,0.5c0,0.3,0.2,0.5,0.5,0.5c0.3,0,0.5-0.2,0.5-0.5
			C136,64.6,135.8,64.4,135.5,64.4z"/>
		<circle class="st1" cx="132.6" cy="64.9" r="0.5"/>
		<path class="st1" d="M129.7,64.4c-0.3,0-0.5,0.2-0.5,0.5c0,0.3,0.2,0.5,0.5,0.5c0.3,0,0.5-0.2,0.5-0.5
			C130.2,64.6,130,64.4,129.7,64.4z"/>
		<path class="st1" d="M141.2,61.5c-0.3,0-0.5,0.2-0.5,0.5c0,0.3,0.2,0.5,0.5,0.5c0.3,0,0.5-0.2,0.5-0.5
			C141.8,61.7,141.5,61.5,141.2,61.5z"/>
		<path class="st1" d="M138.4,61.5c-0.3,0-0.5,0.2-0.5,0.5c0,0.3,0.2,0.5,0.5,0.5c0.3,0,0.5-0.2,0.5-0.5
			C138.9,61.7,138.7,61.5,138.4,61.5z"/>
		<path class="st1" d="M135.5,61.5c-0.3,0-0.5,0.2-0.5,0.5c0,0.3,0.2,0.5,0.5,0.5c0.3,0,0.5-0.2,0.5-0.5
			C136,61.7,135.8,61.5,135.5,61.5z"/>
		<path class="st1" d="M132.6,61.5c-0.3,0-0.5,0.2-0.5,0.5c0,0.3,0.2,0.5,0.5,0.5s0.5-0.2,0.5-0.5C133.1,61.7,132.9,61.5,132.6,61.5
			z"/>
		<path class="st1" d="M129.7,61.5c-0.3,0-0.5,0.2-0.5,0.5c0,0.3,0.2,0.5,0.5,0.5c0.3,0,0.5-0.2,0.5-0.5
			C130.2,61.7,130,61.5,129.7,61.5z"/>
		<path class="st1" d="M144.1,58.6c-0.3,0-0.5,0.2-0.5,0.5c0,0.3,0.2,0.5,0.5,0.5c0.3,0,0.5-0.2,0.5-0.5
			C144.7,58.8,144.4,58.6,144.1,58.6z"/>
		<path class="st1" d="M141.2,58.6c-0.3,0-0.5,0.2-0.5,0.5c0,0.3,0.2,0.5,0.5,0.5c0.3,0,0.5-0.2,0.5-0.5
			C141.8,58.8,141.5,58.6,141.2,58.6z"/>
		<path class="st1" d="M138.4,58.6c-0.3,0-0.5,0.2-0.5,0.5c0,0.3,0.2,0.5,0.5,0.5c0.3,0,0.5-0.2,0.5-0.5
			C138.9,58.8,138.7,58.6,138.4,58.6z"/>
		<path class="st1" d="M135.5,58.6c-0.3,0-0.5,0.2-0.5,0.5c0,0.3,0.2,0.5,0.5,0.5c0.3,0,0.5-0.2,0.5-0.5
			C136,58.8,135.8,58.6,135.5,58.6z"/>
		<path class="st1" d="M132.6,58.6c-0.3,0-0.5,0.2-0.5,0.5c0,0.3,0.2,0.5,0.5,0.5s0.5-0.2,0.5-0.5C133.1,58.8,132.9,58.6,132.6,58.6
			z"/>
		<path class="st1" d="M129.7,58.6c-0.3,0-0.5,0.2-0.5,0.5c0,0.3,0.2,0.5,0.5,0.5c0.3,0,0.5-0.2,0.5-0.5
			C130.2,58.8,130,58.6,129.7,58.6z"/>
		<path class="st1" d="M147,55.7c-0.3,0-0.5,0.2-0.5,0.5c0,0.3,0.2,0.5,0.5,0.5c0.3,0,0.5-0.2,0.5-0.5
			C147.6,55.9,147.3,55.7,147,55.7z"/>
		<path class="st1" d="M144.1,55.7c-0.3,0-0.5,0.2-0.5,0.5c0,0.3,0.2,0.5,0.5,0.5c0.3,0,0.5-0.2,0.5-0.5
			C144.7,55.9,144.4,55.7,144.1,55.7z"/>
		<path class="st1" d="M141.2,55.7c-0.3,0-0.5,0.2-0.5,0.5c0,0.3,0.2,0.5,0.5,0.5c0.3,0,0.5-0.2,0.5-0.5
			C141.8,55.9,141.5,55.7,141.2,55.7z"/>
		<path class="st1" d="M138.4,55.7c-0.3,0-0.5,0.2-0.5,0.5c0,0.3,0.2,0.5,0.5,0.5c0.3,0,0.5-0.2,0.5-0.5
			C138.9,55.9,138.7,55.7,138.4,55.7z"/>
		<path class="st1" d="M135.5,55.7c-0.3,0-0.5,0.2-0.5,0.5c0,0.3,0.2,0.5,0.5,0.5c0.3,0,0.5-0.2,0.5-0.5
			C136,55.9,135.8,55.7,135.5,55.7z"/>
		<path class="st1" d="M132.6,55.7c-0.3,0-0.5,0.2-0.5,0.5c0,0.3,0.2,0.5,0.5,0.5s0.5-0.2,0.5-0.5C133.1,55.9,132.9,55.7,132.6,55.7
			z"/>
		<path class="st1" d="M129.7,55.7c-0.3,0-0.5,0.2-0.5,0.5c0,0.3,0.2,0.5,0.5,0.5c0.3,0,0.5-0.2,0.5-0.5
			C130.2,55.9,130,55.7,129.7,55.7z"/>
		<path class="st1" d="M149.9,52.8c-0.3,0-0.5,0.2-0.5,0.5c0,0.3,0.2,0.5,0.5,0.5c0.3,0,0.5-0.2,0.5-0.5
			C150.5,53,150.2,52.8,149.9,52.8z"/>
		<path class="st1" d="M147,52.8c-0.3,0-0.5,0.2-0.5,0.5c0,0.3,0.2,0.5,0.5,0.5c0.3,0,0.5-0.2,0.5-0.5C147.6,53,147.3,52.8,147,52.8
			z"/>
		<path class="st1" d="M144.1,52.8c-0.3,0-0.5,0.2-0.5,0.5c0,0.3,0.2,0.5,0.5,0.5c0.3,0,0.5-0.2,0.5-0.5
			C144.7,53,144.4,52.8,144.1,52.8z"/>
		<path class="st1" d="M141.2,52.8c-0.3,0-0.5,0.2-0.5,0.5c0,0.3,0.2,0.5,0.5,0.5c0.3,0,0.5-0.2,0.5-0.5
			C141.8,53,141.5,52.8,141.2,52.8z"/>
		<path class="st1" d="M138.4,52.8c-0.3,0-0.5,0.2-0.5,0.5c0,0.3,0.2,0.5,0.5,0.5c0.3,0,0.5-0.2,0.5-0.5
			C138.9,53,138.7,52.8,138.4,52.8z"/>
		<path class="st1" d="M135.5,52.8c-0.3,0-0.5,0.2-0.5,0.5c0,0.3,0.2,0.5,0.5,0.5c0.3,0,0.5-0.2,0.5-0.5
			C136,53,135.8,52.8,135.5,52.8z"/>
		<path class="st1" d="M132.6,52.8c-0.3,0-0.5,0.2-0.5,0.5c0,0.3,0.2,0.5,0.5,0.5s0.5-0.2,0.5-0.5C133.1,53,132.9,52.8,132.6,52.8z"
			/>
		<path class="st1" d="M129.7,52.8c-0.3,0-0.5,0.2-0.5,0.5c0,0.3,0.2,0.5,0.5,0.5c0.3,0,0.5-0.2,0.5-0.5
			C130.2,53,130,52.8,129.7,52.8z"/>
		<path class="st1" d="M152.8,49.9c-0.3,0-0.5,0.2-0.5,0.5c0,0.3,0.2,0.5,0.5,0.5c0.3,0,0.5-0.2,0.5-0.5
			C153.4,50.2,153.1,49.9,152.8,49.9z"/>
		<path class="st1" d="M149.9,49.9c-0.3,0-0.5,0.2-0.5,0.5c0,0.3,0.2,0.5,0.5,0.5c0.3,0,0.5-0.2,0.5-0.5
			C150.5,50.2,150.2,49.9,149.9,49.9z"/>
		<path class="st1" d="M147,49.9c-0.3,0-0.5,0.2-0.5,0.5c0,0.3,0.2,0.5,0.5,0.5c0.3,0,0.5-0.2,0.5-0.5
			C147.6,50.2,147.3,49.9,147,49.9z"/>
		<path class="st1" d="M144.1,49.9c-0.3,0-0.5,0.2-0.5,0.5c0,0.3,0.2,0.5,0.5,0.5c0.3,0,0.5-0.2,0.5-0.5
			C144.7,50.2,144.4,49.9,144.1,49.9z"/>
		<path class="st1" d="M141.2,49.9c-0.3,0-0.5,0.2-0.5,0.5c0,0.3,0.2,0.5,0.5,0.5c0.3,0,0.5-0.2,0.5-0.5
			C141.8,50.2,141.5,49.9,141.2,49.9z"/>
		<path class="st1" d="M138.4,49.9c-0.3,0-0.5,0.2-0.5,0.5c0,0.3,0.2,0.5,0.5,0.5c0.3,0,0.5-0.2,0.5-0.5
			C138.9,50.2,138.7,49.9,138.4,49.9z"/>
		<path class="st1" d="M135.5,49.9c-0.3,0-0.5,0.2-0.5,0.5c0,0.3,0.2,0.5,0.5,0.5c0.3,0,0.5-0.2,0.5-0.5
			C136,50.2,135.8,49.9,135.5,49.9z"/>
		<path class="st1" d="M132.6,49.9c-0.3,0-0.5,0.2-0.5,0.5c0,0.3,0.2,0.5,0.5,0.5s0.5-0.2,0.5-0.5C133.1,50.2,132.9,49.9,132.6,49.9
			z"/>
		<path class="st1" d="M129.7,49.9c-0.3,0-0.5,0.2-0.5,0.5c0,0.3,0.2,0.5,0.5,0.5c0.3,0,0.5-0.2,0.5-0.5
			C130.2,50.2,130,49.9,129.7,49.9z"/>
		<path class="st1" d="M155.7,47c-0.3,0-0.5,0.2-0.5,0.5s0.2,0.5,0.5,0.5c0.3,0,0.5-0.2,0.5-0.5S156,47,155.7,47z"/>
		<path class="st1" d="M152.8,47c-0.3,0-0.5,0.2-0.5,0.5s0.2,0.5,0.5,0.5c0.3,0,0.5-0.2,0.5-0.5S153.1,47,152.8,47z"/>
		<path class="st1" d="M149.9,47c-0.3,0-0.5,0.2-0.5,0.5s0.2,0.5,0.5,0.5c0.3,0,0.5-0.2,0.5-0.5S150.2,47,149.9,47z"/>
		<path class="st1" d="M147,47c-0.3,0-0.5,0.2-0.5,0.5s0.2,0.5,0.5,0.5c0.3,0,0.5-0.2,0.5-0.5S147.3,47,147,47z"/>
		<path class="st1" d="M144.1,47c-0.3,0-0.5,0.2-0.5,0.5s0.2,0.5,0.5,0.5c0.3,0,0.5-0.2,0.5-0.5S144.4,47,144.1,47z"/>
		<path class="st1" d="M141.2,47c-0.3,0-0.5,0.2-0.5,0.5s0.2,0.5,0.5,0.5c0.3,0,0.5-0.2,0.5-0.5S141.5,47,141.2,47z"/>
		<path class="st1" d="M138.4,47c-0.3,0-0.5,0.2-0.5,0.5s0.2,0.5,0.5,0.5c0.3,0,0.5-0.2,0.5-0.5S138.7,47,138.4,47z"/>
		<path class="st1" d="M135.5,47c-0.3,0-0.5,0.2-0.5,0.5s0.2,0.5,0.5,0.5c0.3,0,0.5-0.2,0.5-0.5S135.8,47,135.5,47z"/>
		<path class="st1" d="M132.6,47c-0.3,0-0.5,0.2-0.5,0.5s0.2,0.5,0.5,0.5s0.5-0.2,0.5-0.5S132.9,47,132.6,47z"/>
		<path class="st1" d="M129.7,47c-0.3,0-0.5,0.2-0.5,0.5s0.2,0.5,0.5,0.5c0.3,0,0.5-0.2,0.5-0.5S130,47,129.7,47z"/>
		<path class="st1" d="M158.6,44.1c-0.3,0-0.5,0.2-0.5,0.5c0,0.3,0.2,0.5,0.5,0.5c0.3,0,0.5-0.2,0.5-0.5
			C159.2,44.4,158.9,44.1,158.6,44.1z"/>
		<path class="st1" d="M155.7,44.1c-0.3,0-0.5,0.2-0.5,0.5c0,0.3,0.2,0.5,0.5,0.5c0.3,0,0.5-0.2,0.5-0.5
			C156.3,44.4,156,44.1,155.7,44.1z"/>
		<path class="st1" d="M152.8,44.1c-0.3,0-0.5,0.2-0.5,0.5c0,0.3,0.2,0.5,0.5,0.5c0.3,0,0.5-0.2,0.5-0.5
			C153.4,44.4,153.1,44.1,152.8,44.1z"/>
		<path class="st1" d="M149.9,44.1c-0.3,0-0.5,0.2-0.5,0.5c0,0.3,0.2,0.5,0.5,0.5c0.3,0,0.5-0.2,0.5-0.5
			C150.5,44.4,150.2,44.1,149.9,44.1z"/>
		<path class="st1" d="M147,44.1c-0.3,0-0.5,0.2-0.5,0.5c0,0.3,0.2,0.5,0.5,0.5c0.3,0,0.5-0.2,0.5-0.5
			C147.6,44.4,147.3,44.1,147,44.1z"/>
		<path class="st1" d="M144.1,44.1c-0.3,0-0.5,0.2-0.5,0.5c0,0.3,0.2,0.5,0.5,0.5c0.3,0,0.5-0.2,0.5-0.5
			C144.7,44.4,144.4,44.1,144.1,44.1z"/>
		<path class="st1" d="M141.2,44.1c-0.3,0-0.5,0.2-0.5,0.5c0,0.3,0.2,0.5,0.5,0.5c0.3,0,0.5-0.2,0.5-0.5
			C141.8,44.4,141.5,44.1,141.2,44.1z"/>
		<path class="st1" d="M138.4,44.1c-0.3,0-0.5,0.2-0.5,0.5c0,0.3,0.2,0.5,0.5,0.5c0.3,0,0.5-0.2,0.5-0.5
			C138.9,44.4,138.7,44.1,138.4,44.1z"/>
		<path class="st1" d="M135.5,44.1c-0.3,0-0.5,0.2-0.5,0.5c0,0.3,0.2,0.5,0.5,0.5c0.3,0,0.5-0.2,0.5-0.5
			C136,44.4,135.8,44.1,135.5,44.1z"/>
		<path class="st1" d="M132.6,44.1c-0.3,0-0.5,0.2-0.5,0.5c0,0.3,0.2,0.5,0.5,0.5s0.5-0.2,0.5-0.5C133.1,44.4,132.9,44.1,132.6,44.1
			z"/>
		<path class="st1" d="M129.7,44.1c-0.3,0-0.5,0.2-0.5,0.5c0,0.3,0.2,0.5,0.5,0.5c0.3,0,0.5-0.2,0.5-0.5
			C130.2,44.4,130,44.1,129.7,44.1z"/>
		<circle class="st1" cx="161.5" cy="41.8" r="0.5"/>
		<path class="st1" d="M158.6,41.2c-0.3,0-0.5,0.2-0.5,0.5c0,0.3,0.2,0.5,0.5,0.5c0.3,0,0.5-0.2,0.5-0.5
			C159.2,41.5,158.9,41.2,158.6,41.2z"/>
		<circle class="st1" cx="155.7" cy="41.8" r="0.5"/>
		<path class="st1" d="M152.8,41.2c-0.3,0-0.5,0.2-0.5,0.5c0,0.3,0.2,0.5,0.5,0.5c0.3,0,0.5-0.2,0.5-0.5
			C153.4,41.5,153.1,41.2,152.8,41.2z"/>
		<circle class="st1" cx="149.9" cy="41.8" r="0.5"/>
		<path class="st1" d="M147,41.2c-0.3,0-0.5,0.2-0.5,0.5c0,0.3,0.2,0.5,0.5,0.5c0.3,0,0.5-0.2,0.5-0.5
			C147.6,41.5,147.3,41.2,147,41.2z"/>
		<circle class="st1" cx="144.1" cy="41.8" r="0.5"/>
		<path class="st1" d="M141.2,41.2c-0.3,0-0.5,0.2-0.5,0.5c0,0.3,0.2,0.5,0.5,0.5c0.3,0,0.5-0.2,0.5-0.5
			C141.8,41.5,141.5,41.2,141.2,41.2z"/>
		<circle class="st1" cx="138.4" cy="41.8" r="0.5"/>
		<path class="st1" d="M135.5,41.2c-0.3,0-0.5,0.2-0.5,0.5c0,0.3,0.2,0.5,0.5,0.5c0.3,0,0.5-0.2,0.5-0.5
			C136,41.5,135.8,41.2,135.5,41.2z"/>
		<circle class="st1" cx="132.6" cy="41.8" r="0.5"/>
		<path class="st1" d="M129.7,41.2c-0.3,0-0.5,0.2-0.5,0.5c0,0.3,0.2,0.5,0.5,0.5c0.3,0,0.5-0.2,0.5-0.5
			C130.2,41.5,130,41.2,129.7,41.2z"/>
		<path class="st1" d="M164.4,38.3c-0.3,0-0.5,0.2-0.5,0.5c0,0.3,0.2,0.5,0.5,0.5c0.3,0,0.5-0.2,0.5-0.5
			C164.9,38.6,164.7,38.3,164.4,38.3z"/>
		<path class="st1" d="M161.5,38.3c-0.3,0-0.5,0.2-0.5,0.5c0,0.3,0.2,0.5,0.5,0.5c0.3,0,0.5-0.2,0.5-0.5
			C162,38.6,161.8,38.3,161.5,38.3z"/>
		<path class="st1" d="M158.6,38.3c-0.3,0-0.5,0.2-0.5,0.5c0,0.3,0.2,0.5,0.5,0.5c0.3,0,0.5-0.2,0.5-0.5
			C159.2,38.6,158.9,38.3,158.6,38.3z"/>
		<path class="st1" d="M155.7,38.3c-0.3,0-0.5,0.2-0.5,0.5c0,0.3,0.2,0.5,0.5,0.5c0.3,0,0.5-0.2,0.5-0.5
			C156.3,38.6,156,38.3,155.7,38.3z"/>
		<path class="st1" d="M152.8,38.3c-0.3,0-0.5,0.2-0.5,0.5c0,0.3,0.2,0.5,0.5,0.5c0.3,0,0.5-0.2,0.5-0.5
			C153.4,38.6,153.1,38.3,152.8,38.3z"/>
		<path class="st1" d="M149.9,38.3c-0.3,0-0.5,0.2-0.5,0.5c0,0.3,0.2,0.5,0.5,0.5c0.3,0,0.5-0.2,0.5-0.5
			C150.5,38.6,150.2,38.3,149.9,38.3z"/>
		<path class="st1" d="M147,38.3c-0.3,0-0.5,0.2-0.5,0.5c0,0.3,0.2,0.5,0.5,0.5c0.3,0,0.5-0.2,0.5-0.5
			C147.6,38.6,147.3,38.3,147,38.3z"/>
		<path class="st1" d="M144.1,38.3c-0.3,0-0.5,0.2-0.5,0.5c0,0.3,0.2,0.5,0.5,0.5c0.3,0,0.5-0.2,0.5-0.5
			C144.7,38.6,144.4,38.3,144.1,38.3z"/>
		<path class="st1" d="M141.2,38.3c-0.3,0-0.5,0.2-0.5,0.5c0,0.3,0.2,0.5,0.5,0.5c0.3,0,0.5-0.2,0.5-0.5
			C141.8,38.6,141.5,38.3,141.2,38.3z"/>
		<path class="st1" d="M138.4,38.3c-0.3,0-0.5,0.2-0.5,0.5c0,0.3,0.2,0.5,0.5,0.5c0.3,0,0.5-0.2,0.5-0.5
			C138.9,38.6,138.7,38.3,138.4,38.3z"/>
		<path class="st1" d="M135.5,38.3c-0.3,0-0.5,0.2-0.5,0.5c0,0.3,0.2,0.5,0.5,0.5c0.3,0,0.5-0.2,0.5-0.5
			C136,38.6,135.8,38.3,135.5,38.3z"/>
		<path class="st1" d="M132.6,38.3c-0.3,0-0.5,0.2-0.5,0.5c0,0.3,0.2,0.5,0.5,0.5s0.5-0.2,0.5-0.5C133.1,38.6,132.9,38.3,132.6,38.3
			z"/>
		<path class="st1" d="M129.7,38.3c-0.3,0-0.5,0.2-0.5,0.5c0,0.3,0.2,0.5,0.5,0.5c0.3,0,0.5-0.2,0.5-0.5
			C130.2,38.6,130,38.3,129.7,38.3z"/>
		<circle class="st1" cx="167.3" cy="36" r="0.5"/>
		<path class="st1" d="M164.4,35.4c-0.3,0-0.5,0.2-0.5,0.5c0,0.3,0.2,0.5,0.5,0.5c0.3,0,0.5-0.2,0.5-0.5
			C164.9,35.7,164.7,35.4,164.4,35.4z"/>
		<circle class="st1" cx="161.5" cy="36" r="0.5"/>
		<path class="st1" d="M158.6,35.4c-0.3,0-0.5,0.2-0.5,0.5c0,0.3,0.2,0.5,0.5,0.5c0.3,0,0.5-0.2,0.5-0.5
			C159.2,35.7,158.9,35.4,158.6,35.4z"/>
		<circle class="st1" cx="155.7" cy="36" r="0.5"/>
		<path class="st1" d="M152.8,35.4c-0.3,0-0.5,0.2-0.5,0.5c0,0.3,0.2,0.5,0.5,0.5c0.3,0,0.5-0.2,0.5-0.5
			C153.4,35.7,153.1,35.4,152.8,35.4z"/>
		<circle class="st1" cx="149.9" cy="36" r="0.5"/>
		<path class="st1" d="M147,35.4c-0.3,0-0.5,0.2-0.5,0.5c0,0.3,0.2,0.5,0.5,0.5c0.3,0,0.5-0.2,0.5-0.5
			C147.6,35.7,147.3,35.4,147,35.4z"/>
		<circle class="st1" cx="144.1" cy="36" r="0.5"/>
		<path class="st1" d="M141.2,35.4c-0.3,0-0.5,0.2-0.5,0.5c0,0.3,0.2,0.5,0.5,0.5c0.3,0,0.5-0.2,0.5-0.5
			C141.8,35.7,141.5,35.4,141.2,35.4z"/>
		<circle class="st1" cx="138.4" cy="36" r="0.5"/>
		<path class="st1" d="M135.5,35.4c-0.3,0-0.5,0.2-0.5,0.5c0,0.3,0.2,0.5,0.5,0.5c0.3,0,0.5-0.2,0.5-0.5
			C136,35.7,135.8,35.4,135.5,35.4z"/>
		<circle class="st1" cx="132.6" cy="36" r="0.5"/>
		<path class="st1" d="M129.7,35.4c-0.3,0-0.5,0.2-0.5,0.5c0,0.3,0.2,0.5,0.5,0.5c0.3,0,0.5-0.2,0.5-0.5
			C130.2,35.7,130,35.4,129.7,35.4z"/>
		<path class="st1" d="M170.2,32.5c-0.3,0-0.5,0.2-0.5,0.5c0,0.3,0.2,0.5,0.5,0.5c0.3,0,0.5-0.2,0.5-0.5
			C170.7,32.8,170.5,32.5,170.2,32.5z"/>
		<path class="st1" d="M167.3,32.5c-0.3,0-0.5,0.2-0.5,0.5c0,0.3,0.2,0.5,0.5,0.5c0.3,0,0.5-0.2,0.5-0.5
			C167.8,32.8,167.6,32.5,167.3,32.5z"/>
		<path class="st1" d="M164.4,32.5c-0.3,0-0.5,0.2-0.5,0.5c0,0.3,0.2,0.5,0.5,0.5c0.3,0,0.5-0.2,0.5-0.5
			C164.9,32.8,164.7,32.5,164.4,32.5z"/>
		<path class="st1" d="M161.5,32.5c-0.3,0-0.5,0.2-0.5,0.5c0,0.3,0.2,0.5,0.5,0.5c0.3,0,0.5-0.2,0.5-0.5
			C162,32.8,161.8,32.5,161.5,32.5z"/>
		<path class="st1" d="M158.6,32.5c-0.3,0-0.5,0.2-0.5,0.5c0,0.3,0.2,0.5,0.5,0.5c0.3,0,0.5-0.2,0.5-0.5
			C159.2,32.8,158.9,32.5,158.6,32.5z"/>
		<path class="st1" d="M155.7,32.5c-0.3,0-0.5,0.2-0.5,0.5c0,0.3,0.2,0.5,0.5,0.5c0.3,0,0.5-0.2,0.5-0.5
			C156.3,32.8,156,32.5,155.7,32.5z"/>
		<path class="st1" d="M152.8,32.5c-0.3,0-0.5,0.2-0.5,0.5c0,0.3,0.2,0.5,0.5,0.5c0.3,0,0.5-0.2,0.5-0.5
			C153.4,32.8,153.1,32.5,152.8,32.5z"/>
		<path class="st1" d="M149.9,32.5c-0.3,0-0.5,0.2-0.5,0.5c0,0.3,0.2,0.5,0.5,0.5c0.3,0,0.5-0.2,0.5-0.5
			C150.5,32.8,150.2,32.5,149.9,32.5z"/>
		<path class="st1" d="M147,32.5c-0.3,0-0.5,0.2-0.5,0.5c0,0.3,0.2,0.5,0.5,0.5c0.3,0,0.5-0.2,0.5-0.5
			C147.6,32.8,147.3,32.5,147,32.5z"/>
		<path class="st1" d="M144.1,32.5c-0.3,0-0.5,0.2-0.5,0.5c0,0.3,0.2,0.5,0.5,0.5c0.3,0,0.5-0.2,0.5-0.5
			C144.7,32.8,144.4,32.5,144.1,32.5z"/>
		<path class="st1" d="M141.2,32.5c-0.3,0-0.5,0.2-0.5,0.5c0,0.3,0.2,0.5,0.5,0.5c0.3,0,0.5-0.2,0.5-0.5
			C141.8,32.8,141.5,32.5,141.2,32.5z"/>
		<path class="st1" d="M138.4,32.5c-0.3,0-0.5,0.2-0.5,0.5c0,0.3,0.2,0.5,0.5,0.5c0.3,0,0.5-0.2,0.5-0.5
			C138.9,32.8,138.7,32.5,138.4,32.5z"/>
		<path class="st1" d="M135.5,32.5c-0.3,0-0.5,0.2-0.5,0.5c0,0.3,0.2,0.5,0.5,0.5c0.3,0,0.5-0.2,0.5-0.5
			C136,32.8,135.8,32.5,135.5,32.5z"/>
		<path class="st1" d="M132.6,32.5c-0.3,0-0.5,0.2-0.5,0.5c0,0.3,0.2,0.5,0.5,0.5s0.5-0.2,0.5-0.5C133.1,32.8,132.9,32.5,132.6,32.5
			z"/>
		<path class="st1" d="M129.7,32.5c-0.3,0-0.5,0.2-0.5,0.5c0,0.3,0.2,0.5,0.5,0.5c0.3,0,0.5-0.2,0.5-0.5
			C130.2,32.8,130,32.5,129.7,32.5z"/>
		<circle class="st1" cx="173.1" cy="30.2" r="0.5"/>
		<path class="st1" d="M170.2,29.7c-0.3,0-0.5,0.2-0.5,0.5c0,0.3,0.2,0.5,0.5,0.5c0.3,0,0.5-0.2,0.5-0.5
			C170.7,29.9,170.5,29.7,170.2,29.7z"/>
		<circle class="st1" cx="167.3" cy="30.2" r="0.5"/>
		<path class="st1" d="M164.4,29.7c-0.3,0-0.5,0.2-0.5,0.5c0,0.3,0.2,0.5,0.5,0.5c0.3,0,0.5-0.2,0.5-0.5
			C164.9,29.9,164.7,29.7,164.4,29.7z"/>
		<circle class="st1" cx="161.5" cy="30.2" r="0.5"/>
		<path class="st1" d="M158.6,29.7c-0.3,0-0.5,0.2-0.5,0.5c0,0.3,0.2,0.5,0.5,0.5c0.3,0,0.5-0.2,0.5-0.5
			C159.2,29.9,158.9,29.7,158.6,29.7z"/>
		<circle class="st1" cx="155.7" cy="30.2" r="0.5"/>
		<path class="st1" d="M152.8,29.7c-0.3,0-0.5,0.2-0.5,0.5c0,0.3,0.2,0.5,0.5,0.5c0.3,0,0.5-0.2,0.5-0.5
			C153.4,29.9,153.1,29.7,152.8,29.7z"/>
		<circle class="st1" cx="149.9" cy="30.2" r="0.5"/>
		<path class="st1" d="M147,29.7c-0.3,0-0.5,0.2-0.5,0.5c0,0.3,0.2,0.5,0.5,0.5c0.3,0,0.5-0.2,0.5-0.5
			C147.6,29.9,147.3,29.7,147,29.7z"/>
		<circle class="st1" cx="144.1" cy="30.2" r="0.5"/>
		<path class="st1" d="M141.2,29.7c-0.3,0-0.5,0.2-0.5,0.5c0,0.3,0.2,0.5,0.5,0.5c0.3,0,0.5-0.2,0.5-0.5
			C141.8,29.9,141.5,29.7,141.2,29.7z"/>
		<circle class="st1" cx="138.4" cy="30.2" r="0.5"/>
		<path class="st1" d="M135.5,29.7c-0.3,0-0.5,0.2-0.5,0.5c0,0.3,0.2,0.5,0.5,0.5c0.3,0,0.5-0.2,0.5-0.5
			C136,29.9,135.8,29.7,135.5,29.7z"/>
		<circle class="st1" cx="132.6" cy="30.2" r="0.5"/>
		<path class="st1" d="M129.7,29.7c-0.3,0-0.5,0.2-0.5,0.5c0,0.3,0.2,0.5,0.5,0.5c0.3,0,0.5-0.2,0.5-0.5
			C130.2,29.9,130,29.7,129.7,29.7z"/>
		<path class="st1" d="M176,26.8c-0.3,0-0.5,0.2-0.5,0.5c0,0.3,0.2,0.5,0.5,0.5c0.3,0,0.5-0.2,0.5-0.5C176.5,27,176.3,26.8,176,26.8
			z"/>
		<path class="st1" d="M173.1,26.8c-0.3,0-0.5,0.2-0.5,0.5c0,0.3,0.2,0.5,0.5,0.5c0.3,0,0.5-0.2,0.5-0.5
			C173.6,27,173.4,26.8,173.1,26.8z"/>
		<path class="st1" d="M170.2,26.8c-0.3,0-0.5,0.2-0.5,0.5c0,0.3,0.2,0.5,0.5,0.5c0.3,0,0.5-0.2,0.5-0.5
			C170.7,27,170.5,26.8,170.2,26.8z"/>
		<path class="st1" d="M167.3,26.8c-0.3,0-0.5,0.2-0.5,0.5c0,0.3,0.2,0.5,0.5,0.5c0.3,0,0.5-0.2,0.5-0.5
			C167.8,27,167.6,26.8,167.3,26.8z"/>
		<path class="st1" d="M164.4,26.8c-0.3,0-0.5,0.2-0.5,0.5c0,0.3,0.2,0.5,0.5,0.5c0.3,0,0.5-0.2,0.5-0.5
			C164.9,27,164.7,26.8,164.4,26.8z"/>
		<path class="st1" d="M161.5,26.8c-0.3,0-0.5,0.2-0.5,0.5c0,0.3,0.2,0.5,0.5,0.5c0.3,0,0.5-0.2,0.5-0.5
			C162,27,161.8,26.8,161.5,26.8z"/>
		<path class="st1" d="M158.6,26.8c-0.3,0-0.5,0.2-0.5,0.5c0,0.3,0.2,0.5,0.5,0.5c0.3,0,0.5-0.2,0.5-0.5
			C159.2,27,158.9,26.8,158.6,26.8z"/>
		<path class="st1" d="M155.7,26.8c-0.3,0-0.5,0.2-0.5,0.5c0,0.3,0.2,0.5,0.5,0.5c0.3,0,0.5-0.2,0.5-0.5
			C156.3,27,156,26.8,155.7,26.8z"/>
		<path class="st1" d="M152.8,26.8c-0.3,0-0.5,0.2-0.5,0.5c0,0.3,0.2,0.5,0.5,0.5c0.3,0,0.5-0.2,0.5-0.5
			C153.4,27,153.1,26.8,152.8,26.8z"/>
		<path class="st1" d="M149.9,26.8c-0.3,0-0.5,0.2-0.5,0.5c0,0.3,0.2,0.5,0.5,0.5c0.3,0,0.5-0.2,0.5-0.5
			C150.5,27,150.2,26.8,149.9,26.8z"/>
		<path class="st1" d="M147,26.8c-0.3,0-0.5,0.2-0.5,0.5c0,0.3,0.2,0.5,0.5,0.5c0.3,0,0.5-0.2,0.5-0.5C147.6,27,147.3,26.8,147,26.8
			z"/>
		<path class="st1" d="M144.1,26.8c-0.3,0-0.5,0.2-0.5,0.5c0,0.3,0.2,0.5,0.5,0.5c0.3,0,0.5-0.2,0.5-0.5
			C144.7,27,144.4,26.8,144.1,26.8z"/>
		<path class="st1" d="M141.2,26.8c-0.3,0-0.5,0.2-0.5,0.5c0,0.3,0.2,0.5,0.5,0.5c0.3,0,0.5-0.2,0.5-0.5
			C141.8,27,141.5,26.8,141.2,26.8z"/>
		<path class="st1" d="M138.4,26.8c-0.3,0-0.5,0.2-0.5,0.5c0,0.3,0.2,0.5,0.5,0.5c0.3,0,0.5-0.2,0.5-0.5
			C138.9,27,138.7,26.8,138.4,26.8z"/>
		<path class="st1" d="M135.5,26.8c-0.3,0-0.5,0.2-0.5,0.5c0,0.3,0.2,0.5,0.5,0.5c0.3,0,0.5-0.2,0.5-0.5
			C136,27,135.8,26.8,135.5,26.8z"/>
		<path class="st1" d="M132.6,26.8c-0.3,0-0.5,0.2-0.5,0.5c0,0.3,0.2,0.5,0.5,0.5s0.5-0.2,0.5-0.5C133.1,27,132.9,26.8,132.6,26.8z"
			/>
		<path class="st1" d="M129.7,26.8c-0.3,0-0.5,0.2-0.5,0.5c0,0.3,0.2,0.5,0.5,0.5c0.3,0,0.5-0.2,0.5-0.5
			C130.2,27,130,26.8,129.7,26.8z"/>
		<path class="st1" d="M178.9,23.9c-0.3,0-0.5,0.2-0.5,0.5c0,0.3,0.2,0.5,0.5,0.5c0.3,0,0.5-0.2,0.5-0.5
			C179.4,24.1,179.2,23.9,178.9,23.9z"/>
		<path class="st1" d="M176,23.9c-0.3,0-0.5,0.2-0.5,0.5c0,0.3,0.2,0.5,0.5,0.5c0.3,0,0.5-0.2,0.5-0.5
			C176.5,24.1,176.3,23.9,176,23.9z"/>
		<path class="st1" d="M173.1,23.9c-0.3,0-0.5,0.2-0.5,0.5c0,0.3,0.2,0.5,0.5,0.5c0.3,0,0.5-0.2,0.5-0.5
			C173.6,24.1,173.4,23.9,173.1,23.9z"/>
		<path class="st1" d="M170.2,23.9c-0.3,0-0.5,0.2-0.5,0.5c0,0.3,0.2,0.5,0.5,0.5c0.3,0,0.5-0.2,0.5-0.5
			C170.7,24.1,170.5,23.9,170.2,23.9z"/>
		<path class="st1" d="M167.3,23.9c-0.3,0-0.5,0.2-0.5,0.5c0,0.3,0.2,0.5,0.5,0.5c0.3,0,0.5-0.2,0.5-0.5
			C167.8,24.1,167.6,23.9,167.3,23.9z"/>
		<path class="st1" d="M164.4,23.9c-0.3,0-0.5,0.2-0.5,0.5c0,0.3,0.2,0.5,0.5,0.5c0.3,0,0.5-0.2,0.5-0.5
			C164.9,24.1,164.7,23.9,164.4,23.9z"/>
		<path class="st1" d="M161.5,23.9c-0.3,0-0.5,0.2-0.5,0.5c0,0.3,0.2,0.5,0.5,0.5c0.3,0,0.5-0.2,0.5-0.5
			C162,24.1,161.8,23.9,161.5,23.9z"/>
		<path class="st1" d="M158.6,23.9c-0.3,0-0.5,0.2-0.5,0.5c0,0.3,0.2,0.5,0.5,0.5c0.3,0,0.5-0.2,0.5-0.5
			C159.2,24.1,158.9,23.9,158.6,23.9z"/>
		<path class="st1" d="M155.7,23.9c-0.3,0-0.5,0.2-0.5,0.5c0,0.3,0.2,0.5,0.5,0.5c0.3,0,0.5-0.2,0.5-0.5
			C156.3,24.1,156,23.9,155.7,23.9z"/>
		<path class="st1" d="M152.8,23.9c-0.3,0-0.5,0.2-0.5,0.5c0,0.3,0.2,0.5,0.5,0.5c0.3,0,0.5-0.2,0.5-0.5
			C153.4,24.1,153.1,23.9,152.8,23.9z"/>
		<path class="st1" d="M149.9,23.9c-0.3,0-0.5,0.2-0.5,0.5c0,0.3,0.2,0.5,0.5,0.5c0.3,0,0.5-0.2,0.5-0.5
			C150.5,24.1,150.2,23.9,149.9,23.9z"/>
		<path class="st1" d="M147,23.9c-0.3,0-0.5,0.2-0.5,0.5c0,0.3,0.2,0.5,0.5,0.5c0.3,0,0.5-0.2,0.5-0.5
			C147.6,24.1,147.3,23.9,147,23.9z"/>
		<path class="st1" d="M144.1,23.9c-0.3,0-0.5,0.2-0.5,0.5c0,0.3,0.2,0.5,0.5,0.5c0.3,0,0.5-0.2,0.5-0.5
			C144.7,24.1,144.4,23.9,144.1,23.9z"/>
		<path class="st1" d="M141.2,23.9c-0.3,0-0.5,0.2-0.5,0.5c0,0.3,0.2,0.5,0.5,0.5c0.3,0,0.5-0.2,0.5-0.5
			C141.8,24.1,141.5,23.9,141.2,23.9z"/>
		<path class="st1" d="M138.4,23.9c-0.3,0-0.5,0.2-0.5,0.5c0,0.3,0.2,0.5,0.5,0.5c0.3,0,0.5-0.2,0.5-0.5
			C138.9,24.1,138.7,23.9,138.4,23.9z"/>
		<path class="st1" d="M135.5,23.9c-0.3,0-0.5,0.2-0.5,0.5c0,0.3,0.2,0.5,0.5,0.5c0.3,0,0.5-0.2,0.5-0.5
			C136,24.1,135.8,23.9,135.5,23.9z"/>
		<path class="st1" d="M132.6,23.9c-0.3,0-0.5,0.2-0.5,0.5c0,0.3,0.2,0.5,0.5,0.5s0.5-0.2,0.5-0.5C133.1,24.1,132.9,23.9,132.6,23.9
			z"/>
		<path class="st1" d="M129.7,23.9c-0.3,0-0.5,0.2-0.5,0.5c0,0.3,0.2,0.5,0.5,0.5c0.3,0,0.5-0.2,0.5-0.5
			C130.2,24.1,130,23.9,129.7,23.9z"/>
		<path class="st1" d="M181.8,21c-0.3,0-0.5,0.2-0.5,0.5c0,0.3,0.2,0.5,0.5,0.5c0.3,0,0.5-0.2,0.5-0.5C182.3,21.2,182.1,21,181.8,21
			z"/>
		<path class="st1" d="M178.9,21c-0.3,0-0.5,0.2-0.5,0.5c0,0.3,0.2,0.5,0.5,0.5c0.3,0,0.5-0.2,0.5-0.5C179.4,21.2,179.2,21,178.9,21
			z"/>
		<path class="st1" d="M176,21c-0.3,0-0.5,0.2-0.5,0.5c0,0.3,0.2,0.5,0.5,0.5c0.3,0,0.5-0.2,0.5-0.5C176.5,21.2,176.3,21,176,21z"/>
		<path class="st1" d="M173.1,21c-0.3,0-0.5,0.2-0.5,0.5c0,0.3,0.2,0.5,0.5,0.5c0.3,0,0.5-0.2,0.5-0.5C173.6,21.2,173.4,21,173.1,21
			z"/>
		<path class="st1" d="M170.2,21c-0.3,0-0.5,0.2-0.5,0.5c0,0.3,0.2,0.5,0.5,0.5c0.3,0,0.5-0.2,0.5-0.5C170.7,21.2,170.5,21,170.2,21
			z"/>
		<path class="st1" d="M167.3,21c-0.3,0-0.5,0.2-0.5,0.5c0,0.3,0.2,0.5,0.5,0.5c0.3,0,0.5-0.2,0.5-0.5C167.8,21.2,167.6,21,167.3,21
			z"/>
		<path class="st1" d="M164.4,21c-0.3,0-0.5,0.2-0.5,0.5c0,0.3,0.2,0.5,0.5,0.5c0.3,0,0.5-0.2,0.5-0.5C164.9,21.2,164.7,21,164.4,21
			z"/>
		<path class="st1" d="M161.5,21c-0.3,0-0.5,0.2-0.5,0.5c0,0.3,0.2,0.5,0.5,0.5c0.3,0,0.5-0.2,0.5-0.5C162,21.2,161.8,21,161.5,21z"
			/>
		<path class="st1" d="M158.6,21c-0.3,0-0.5,0.2-0.5,0.5c0,0.3,0.2,0.5,0.5,0.5c0.3,0,0.5-0.2,0.5-0.5C159.2,21.2,158.9,21,158.6,21
			z"/>
		<path class="st1" d="M155.7,21c-0.3,0-0.5,0.2-0.5,0.5c0,0.3,0.2,0.5,0.5,0.5c0.3,0,0.5-0.2,0.5-0.5C156.3,21.2,156,21,155.7,21z"
			/>
		<path class="st1" d="M152.8,21c-0.3,0-0.5,0.2-0.5,0.5c0,0.3,0.2,0.5,0.5,0.5c0.3,0,0.5-0.2,0.5-0.5C153.4,21.2,153.1,21,152.8,21
			z"/>
		<path class="st1" d="M149.9,21c-0.3,0-0.5,0.2-0.5,0.5c0,0.3,0.2,0.5,0.5,0.5c0.3,0,0.5-0.2,0.5-0.5C150.5,21.2,150.2,21,149.9,21
			z"/>
		<path class="st1" d="M147,21c-0.3,0-0.5,0.2-0.5,0.5c0,0.3,0.2,0.5,0.5,0.5c0.3,0,0.5-0.2,0.5-0.5C147.6,21.2,147.3,21,147,21z"/>
		<path class="st1" d="M144.1,21c-0.3,0-0.5,0.2-0.5,0.5c0,0.3,0.2,0.5,0.5,0.5c0.3,0,0.5-0.2,0.5-0.5C144.7,21.2,144.4,21,144.1,21
			z"/>
		<path class="st1" d="M141.2,21c-0.3,0-0.5,0.2-0.5,0.5c0,0.3,0.2,0.5,0.5,0.5c0.3,0,0.5-0.2,0.5-0.5C141.8,21.2,141.5,21,141.2,21
			z"/>
		<path class="st1" d="M138.4,21c-0.3,0-0.5,0.2-0.5,0.5c0,0.3,0.2,0.5,0.5,0.5c0.3,0,0.5-0.2,0.5-0.5C138.9,21.2,138.7,21,138.4,21
			z"/>
		<path class="st1" d="M135.5,21c-0.3,0-0.5,0.2-0.5,0.5c0,0.3,0.2,0.5,0.5,0.5c0.3,0,0.5-0.2,0.5-0.5C136,21.2,135.8,21,135.5,21z"
			/>
		<path class="st1" d="M132.6,21c-0.3,0-0.5,0.2-0.5,0.5c0,0.3,0.2,0.5,0.5,0.5s0.5-0.2,0.5-0.5C133.1,21.2,132.9,21,132.6,21z"/>
		<path class="st1" d="M129.7,21c-0.3,0-0.5,0.2-0.5,0.5c0,0.3,0.2,0.5,0.5,0.5c0.3,0,0.5-0.2,0.5-0.5C130.2,21.2,130,21,129.7,21z"
			/>
		<path class="st1" d="M184.7,18.1c-0.3,0-0.5,0.2-0.5,0.5c0,0.3,0.2,0.5,0.5,0.5c0.3,0,0.5-0.2,0.5-0.5
			C185.2,18.3,185,18.1,184.7,18.1z"/>
		<path class="st1" d="M181.8,18.1c-0.3,0-0.5,0.2-0.5,0.5c0,0.3,0.2,0.5,0.5,0.5c0.3,0,0.5-0.2,0.5-0.5
			C182.3,18.3,182.1,18.1,181.8,18.1z"/>
		<path class="st1" d="M178.9,18.1c-0.3,0-0.5,0.2-0.5,0.5c0,0.3,0.2,0.5,0.5,0.5c0.3,0,0.5-0.2,0.5-0.5
			C179.4,18.3,179.2,18.1,178.9,18.1z"/>
		<path class="st1" d="M176,18.1c-0.3,0-0.5,0.2-0.5,0.5c0,0.3,0.2,0.5,0.5,0.5c0.3,0,0.5-0.2,0.5-0.5
			C176.5,18.3,176.3,18.1,176,18.1z"/>
		<path class="st1" d="M173.1,18.1c-0.3,0-0.5,0.2-0.5,0.5c0,0.3,0.2,0.5,0.5,0.5c0.3,0,0.5-0.2,0.5-0.5
			C173.6,18.3,173.4,18.1,173.1,18.1z"/>
		<path class="st1" d="M170.2,18.1c-0.3,0-0.5,0.2-0.5,0.5c0,0.3,0.2,0.5,0.5,0.5c0.3,0,0.5-0.2,0.5-0.5
			C170.7,18.3,170.5,18.1,170.2,18.1z"/>
		<path class="st1" d="M167.3,18.1c-0.3,0-0.5,0.2-0.5,0.5c0,0.3,0.2,0.5,0.5,0.5c0.3,0,0.5-0.2,0.5-0.5
			C167.8,18.3,167.6,18.1,167.3,18.1z"/>
		<path class="st1" d="M164.4,18.1c-0.3,0-0.5,0.2-0.5,0.5c0,0.3,0.2,0.5,0.5,0.5c0.3,0,0.5-0.2,0.5-0.5
			C164.9,18.3,164.7,18.1,164.4,18.1z"/>
		<path class="st1" d="M161.5,18.1c-0.3,0-0.5,0.2-0.5,0.5c0,0.3,0.2,0.5,0.5,0.5c0.3,0,0.5-0.2,0.5-0.5
			C162,18.3,161.8,18.1,161.5,18.1z"/>
		<path class="st1" d="M158.6,18.1c-0.3,0-0.5,0.2-0.5,0.5c0,0.3,0.2,0.5,0.5,0.5c0.3,0,0.5-0.2,0.5-0.5
			C159.2,18.3,158.9,18.1,158.6,18.1z"/>
		<path class="st1" d="M155.7,18.1c-0.3,0-0.5,0.2-0.5,0.5c0,0.3,0.2,0.5,0.5,0.5c0.3,0,0.5-0.2,0.5-0.5
			C156.3,18.3,156,18.1,155.7,18.1z"/>
		<path class="st1" d="M152.8,18.1c-0.3,0-0.5,0.2-0.5,0.5c0,0.3,0.2,0.5,0.5,0.5c0.3,0,0.5-0.2,0.5-0.5
			C153.4,18.3,153.1,18.1,152.8,18.1z"/>
		<path class="st1" d="M149.9,18.1c-0.3,0-0.5,0.2-0.5,0.5c0,0.3,0.2,0.5,0.5,0.5c0.3,0,0.5-0.2,0.5-0.5
			C150.5,18.3,150.2,18.1,149.9,18.1z"/>
		<path class="st1" d="M147,18.1c-0.3,0-0.5,0.2-0.5,0.5c0,0.3,0.2,0.5,0.5,0.5c0.3,0,0.5-0.2,0.5-0.5
			C147.6,18.3,147.3,18.1,147,18.1z"/>
		<path class="st1" d="M144.1,18.1c-0.3,0-0.5,0.2-0.5,0.5c0,0.3,0.2,0.5,0.5,0.5c0.3,0,0.5-0.2,0.5-0.5
			C144.7,18.3,144.4,18.1,144.1,18.1z"/>
		<path class="st1" d="M141.2,18.1c-0.3,0-0.5,0.2-0.5,0.5c0,0.3,0.2,0.5,0.5,0.5c0.3,0,0.5-0.2,0.5-0.5
			C141.8,18.3,141.5,18.1,141.2,18.1z"/>
		<path class="st1" d="M138.4,18.1c-0.3,0-0.5,0.2-0.5,0.5c0,0.3,0.2,0.5,0.5,0.5c0.3,0,0.5-0.2,0.5-0.5
			C138.9,18.3,138.7,18.1,138.4,18.1z"/>
		<path class="st1" d="M135.5,18.1c-0.3,0-0.5,0.2-0.5,0.5c0,0.3,0.2,0.5,0.5,0.5c0.3,0,0.5-0.2,0.5-0.5
			C136,18.3,135.8,18.1,135.5,18.1z"/>
		<path class="st1" d="M132.6,18.1c-0.3,0-0.5,0.2-0.5,0.5c0,0.3,0.2,0.5,0.5,0.5s0.5-0.2,0.5-0.5C133.1,18.3,132.9,18.1,132.6,18.1
			z"/>
		<path class="st1" d="M129.7,18.1c-0.3,0-0.5,0.2-0.5,0.5c0,0.3,0.2,0.5,0.5,0.5c0.3,0,0.5-0.2,0.5-0.5
			C130.2,18.3,130,18.1,129.7,18.1z"/>
	</g>
	<g>
		<g>
			<polygon class="st2" points="71.1,0 71.1,30.6 69.3,32.3 69.3,1.8 			"/>
		</g>
		<g>
			<polygon class="st2" points="66.8,4.3 66.8,34.8 65.1,36.6 65.1,6 			"/>
		</g>
		<g>
			<polygon class="st2" points="62.5,8.5 62.5,39.1 60.8,40.8 60.8,10.3 			"/>
		</g>
		<g>
			<polygon class="st2" points="58.3,12.8 58.3,43.4 56.5,45.1 56.5,14.6 			"/>
		</g>
		<g>
			<polygon class="st2" points="54,17.1 54,47.6 52.2,49.4 52.2,18.8 			"/>
		</g>
		<g>
			<polygon class="st2" points="49.7,21.3 49.7,51.9 48,53.7 48,23.1 			"/>
		</g>
		<g>
			<polygon class="st2" points="45.5,25.6 45.5,56.2 43.7,57.9 43.7,27.4 			"/>
		</g>
		<g>
			<polygon class="st2" points="41.2,29.9 41.2,60.4 39.4,62.2 39.4,31.7 			"/>
		</g>
		<g>
			<polygon class="st2" points="36.9,34.2 36.9,64.7 35.2,66.5 35.2,35.9 			"/>
		</g>
		<g>
			<polygon class="st2" points="32.6,38.4 32.6,69 30.9,70.7 30.9,40.2 			"/>
		</g>
		<g>
			<polygon class="st2" points="28.4,42.7 28.4,73.3 26.6,75 26.6,44.5 			"/>
		</g>
		<g>
			<polygon class="st2" points="24.1,47 24.1,77.5 22.4,79.3 22.4,48.7 			"/>
		</g>
		<g>
			<polygon class="st2" points="19.8,51.2 19.8,81.8 18.1,83.6 18.1,53 			"/>
		</g>
	</g>
	<g class="st0">
		<polygon class="st3" points="232.9,132.5 162,132.5 232.9,61.5 		"/>
		<path class="st4" d="M209.2,131.1L209.2,131.1c-0.2-0.3-0.7-0.5-1-0.3c-0.3,0.1-0.5,0.5-0.5,0.8c0,0.3,0.2,0.6,0.5,0.8
			c0.1,0,0.2,0.1,0.3,0.1c0.3,0,0.6-0.1,0.7-0.4c0.1-0.1,0.1-0.2,0.1-0.2l0.1-0.1c0,0,0-0.1,0-0.1c0,0,0,0,0-0.1
			C209.4,131.3,209.3,131.2,209.2,131.1z M209.1,131.6c0,0.1-0.1,0.1-0.1,0.2c-0.1,0.2-0.4,0.3-0.6,0.2c-0.2-0.1-0.3-0.3-0.3-0.5
			c0-0.2,0.1-0.4,0.3-0.5c0,0,0.1,0,0.1,0c0.2,0,0.4,0.1,0.4,0.2l0,0.1C209,131.3,209.1,131.4,209.1,131.6L209.1,131.6z M231.5,63
			l-0.3,0.3c0.6,0,1.2,0,1.8,0V63C232.5,63,232,63,231.5,63z M209.3,116c-0.2-0.6-0.6-0.5-0.9-0.5l-0.1,0c-0.3,0-0.4,0.3-0.5,0.5
			c0,0.1,0,0.1-0.1,0.2c0,0.1-0.1,0.2,0,0.4c0.1,0.3,0.4,0.6,0.7,0.6c0.1,0,0.1,0,0.2,0c0.6,0,0.8-0.5,0.9-0.7c0,0,0-0.1,0-0.1
			c0,0,0,0,0,0C209.4,116.2,209.4,116.1,209.3,116C209.3,116,209.3,116,209.3,116z M209.1,116.3c-0.1,0.4-0.3,0.5-0.7,0.5
			c-0.1,0-0.4-0.4-0.4-0.5c0-0.1,0.1-0.1,0.1-0.2c0.1-0.2,0.1-0.2,0.2-0.3l0.1,0c0.1,0,0.2,0,0.3,0c0.2,0,0.3,0.1,0.3,0.3
			C209,116.1,209,116.2,209.1,116.3C209.1,116.3,209.1,116.3,209.1,116.3C209.1,116.3,209.1,116.3,209.1,116.3z M213.4,116.3
			c0-0.3-0.2-0.4-0.3-0.6c-0.1-0.1-0.1-0.2-0.1-0.2c-0.2-0.4-0.5-0.9-0.7-1.3c-0.3-0.5-0.7-1.1-0.9-1.7c-0.2-0.3-0.5-0.5-0.9-0.5
			c-0.7,0-1.5,0-2.2,0c-0.5,0-1.1,0-1.6,0c-0.4,0-0.7,0.1-0.9,0.5c-0.5,1-1.1,2-1.7,2.9l-0.2,0.4c-0.2,0.3-0.2,0.6,0,0.9l0.2,0.4
			c0.6,0.9,1.2,1.9,1.7,2.9c0.2,0.4,0.5,0.5,0.9,0.5c0,0,0,0,0.1,0c0.7,0,1.4,0,2.3,0c0.4,0,0.9,0,1.4,0c0.4,0,0.6-0.1,0.8-0.4
			c0.4-0.8,0.9-1.6,1.4-2.4l0.7-1.2c0,0,0-0.1,0.1-0.2l0-0.1C213.4,116.4,213.4,116.3,213.4,116.3
			C213.4,116.3,213.4,116.3,213.4,116.3z M213.1,116.3C213,116.4,213,116.4,213.1,116.3l-0.7,1.3c-0.5,0.8-0.9,1.6-1.4,2.4
			c-0.1,0.2-0.2,0.3-0.5,0.3c-0.6,0-1,0-1.4,0c-0.9,0-1.7,0-2.4,0c-0.3,0-0.5-0.1-0.6-0.4c-0.5-1-1.1-2-1.7-2.9l-0.2-0.4
			c-0.1-0.2-0.1-0.4,0-0.6l0.2-0.4c0.6-0.9,1.2-1.9,1.7-2.9c0.1-0.3,0.3-0.4,0.5-0.4c0,0,0,0,0.1,0c0.5,0,1.1,0,1.6,0
			c0.7,0,1.4,0,2.2,0c0.3,0,0.4,0.1,0.6,0.3c0.3,0.6,0.6,1.2,1,1.7c0.2,0.4,0.5,0.8,0.7,1.3c0,0.1,0.1,0.2,0.2,0.3
			C212.9,116,213,116.1,213.1,116.3L213.1,116.3z M221.4,123.1c-0.3,0.1-0.4,0.4-0.5,0.7l0,0c-0.1,0.3,0.3,0.8,0.6,0.9
			c0.1,0,0.2,0,0.2,0c0.3,0,0.6-0.2,0.8-0.4c0,0,0-0.1,0.1-0.1c0.1-0.1,0.1-0.2,0.2-0.4c0,0,0,0,0,0c0-0.1-0.1-0.2-0.1-0.3
			C222.3,123.1,221.9,123,221.4,123.1z M222.3,123.9c0,0.1-0.1,0.1-0.1,0.2c0,0,0,0.1-0.1,0.1c-0.1,0.2-0.4,0.3-0.6,0.2
			c-0.1,0-0.3-0.4-0.3-0.5l0,0c0.1-0.2,0.1-0.4,0.3-0.4c0.1,0,0.2,0,0.2,0c0.2,0,0.4,0.1,0.5,0.4
			C222.2,123.8,222.3,123.8,222.3,123.9C222.3,123.9,222.3,123.9,222.3,123.9z M232.1,112.5c-0.5,1-1.1,2-1.7,2.9l-0.2,0.4
			c-0.2,0.3-0.2,0.6,0,0.9l0.2,0.4c0.6,0.9,1.1,1.9,1.7,2.9c0.2,0.4,0.4,0.5,0.8,0.5v-0.3c-0.2,0-0.4-0.1-0.5-0.4
			c-0.5-1-1.1-2-1.7-2.9l-0.2-0.4c-0.1-0.2-0.1-0.4,0-0.6l0.2-0.4c0.6-0.9,1.2-1.9,1.7-2.9c0.1-0.3,0.3-0.3,0.5-0.4V112
			C232.6,112,232.3,112.2,232.1,112.5z M232.2,97.2c-0.4,0.7-0.7,1.3-1.1,1.9c-0.1,0.2-0.3,0.5-0.4,0.7l-0.5,0.8
			c-0.2,0.3-0.2,0.5,0,0.8c0.2,0.4,0.4,0.8,0.7,1.2c0.2,0.4,0.4,0.7,0.6,1.1c0.1,0.2,0.2,0.4,0.3,0.6c0.1,0.2,0.3,0.5,0.4,0.7
			c0.2,0.3,0.4,0.4,0.7,0.4c0,0,0,0,0,0V105c0,0,0,0,0,0c-0.2,0-0.3,0-0.4-0.2c-0.1-0.2-0.3-0.5-0.4-0.7c-0.1-0.2-0.2-0.4-0.3-0.6
			c-0.2-0.4-0.4-0.7-0.6-1.1c-0.2-0.4-0.4-0.8-0.7-1.2c-0.1-0.1-0.1-0.3,0-0.4l0.5-0.8c0.1-0.2,0.3-0.5,0.4-0.7
			c0.4-0.6,0.8-1.3,1.1-2c0.1-0.2,0.2-0.2,0.4-0.2c0,0,0,0,0,0v-0.3c0,0,0,0,0,0C232.6,96.8,232.4,96.9,232.2,97.2z M182.8,131.1
			L182.8,131.1c-0.2-0.3-0.7-0.5-1-0.3c-0.3,0.1-0.5,0.5-0.5,0.8c0,0.3,0.2,0.6,0.5,0.8c0.1,0,0.2,0.1,0.3,0.1
			c0.3,0,0.6-0.1,0.7-0.4c0.1-0.1,0.1-0.2,0.1-0.2l0.1-0.1c0,0,0-0.1,0-0.1c0,0,0,0,0-0.1C183,131.3,182.9,131.2,182.8,131.1z
			 M182.7,131.6c0,0.1-0.1,0.2-0.1,0.2c-0.1,0.2-0.4,0.3-0.6,0.2c-0.2-0.1-0.3-0.3-0.3-0.5c0-0.2,0.1-0.4,0.3-0.5c0,0,0.1,0,0.1,0
			c0.2,0,0.4,0.1,0.4,0.2l0,0.1C182.6,131.3,182.7,131.4,182.7,131.6L182.7,131.6z M208.5,86.7c0.6,0,0.8-0.5,0.9-0.7
			c0,0,0-0.1,0-0.1c0,0,0,0,0,0c0-0.1-0.1-0.2-0.1-0.3c0,0,0,0,0-0.1c0-0.1-0.1-0.2-0.1-0.3l-0.2,0.2c0,0,0,0.1,0.1,0.1
			c0,0.1,0,0.1,0.1,0.2c0,0,0,0.1,0,0.1c0,0,0,0,0,0c-0.1,0.4-0.3,0.5-0.7,0.5c0,0-0.1-0.1-0.2-0.1l-0.2,0.2
			c0.1,0.1,0.3,0.2,0.4,0.2C208.4,86.7,208.5,86.7,208.5,86.7z M197.3,97.8c0.4,0,0.6-0.1,0.8-0.5c0.4-0.7,0.8-1.5,1.3-2.2l-0.9,0.9
			c-0.2,0.4-0.4,0.7-0.6,1.1c-0.1,0.2-0.3,0.3-0.5,0.3c-0.1,0-0.2,0-0.3,0l-0.3,0.3C196.9,97.8,197.1,97.8,197.3,97.8
			C197.3,97.8,197.3,97.8,197.3,97.8z M205.1,103.7c0.1,0.2,0.2,0.4,0.3,0.6c0.1,0.2,0.3,0.5,0.4,0.7c0.2,0.3,0.4,0.4,0.7,0.4
			c1.3,0,2.7,0,4,0h0c0.3,0,0.5-0.1,0.7-0.4c0.2-0.4,0.5-0.8,0.7-1.3c0.3-0.5,0.5-1,0.8-1.4c0.1-0.1,0.1-0.2,0.2-0.3
			c0.1-0.2,0.3-0.5,0.4-0.7c0,0,0-0.1,0-0.1c0,0,0-0.1,0-0.1c-0.3-0.6-0.6-1.2-1-1.8c-0.2-0.3-0.3-0.5-0.5-0.8l-0.2-0.3
			c-0.2-0.3-0.3-0.6-0.5-0.9c-0.2-0.3-0.4-0.4-0.7-0.4h0c-1.3,0-2.7,0-4,0c-0.3,0-0.5,0.1-0.7,0.4c-0.4,0.7-0.7,1.3-1.1,1.9
			c-0.1,0.2-0.3,0.5-0.4,0.7l-0.5,0.8c-0.2,0.3-0.2,0.5,0,0.8c0.2,0.4,0.4,0.8,0.7,1.2C204.7,103,204.9,103.4,205.1,103.7z
			 M204.1,100.9l0.5-0.8c0.1-0.2,0.3-0.5,0.4-0.7c0.4-0.6,0.8-1.3,1.1-2c0.1-0.2,0.2-0.2,0.4-0.2c1.3,0,2.7,0,4,0
			c0.2,0,0.3,0,0.4,0.2c0.2,0.3,0.3,0.6,0.5,0.9l0.2,0.3c0.2,0.3,0.3,0.5,0.5,0.8c0.3,0.6,0.7,1.1,0.9,1.7c-0.1,0.2-0.2,0.4-0.4,0.7
			c-0.1,0.1-0.1,0.2-0.2,0.3c-0.3,0.5-0.5,1-0.8,1.4c-0.2,0.4-0.5,0.8-0.7,1.3c-0.1,0.2-0.2,0.2-0.4,0.2c-0.7,0-1.3,0-2,0
			c-0.7,0-1.3,0-2,0c-0.2,0-0.3,0-0.4-0.2c-0.1-0.2-0.3-0.5-0.4-0.7c-0.1-0.2-0.2-0.4-0.3-0.6c-0.2-0.4-0.4-0.7-0.6-1.1
			c-0.2-0.4-0.4-0.8-0.7-1.2C204,101.2,204,101,204.1,100.9z M182,117.1c0.1,0,0.1,0,0.2,0c0.6,0,0.8-0.5,0.9-0.7c0,0,0-0.1,0-0.1
			c0,0,0,0,0,0c0-0.1-0.1-0.2-0.1-0.3c0,0,0,0,0-0.1c-0.2-0.6-0.6-0.5-0.9-0.5l-0.1,0c-0.3,0-0.4,0.3-0.5,0.5c0,0.1,0,0.1-0.1,0.2
			c0,0.1-0.1,0.2,0,0.4C181.4,116.8,181.7,117.1,182,117.1z M181.7,116.1c0.1-0.2,0.1-0.2,0.2-0.3l0.1,0c0.1,0,0.2,0,0.3,0
			c0.2,0,0.3,0.1,0.3,0.3c0,0.1,0,0.1,0.1,0.2c0,0,0,0.1,0,0.1c0,0,0,0,0,0c-0.1,0.4-0.3,0.5-0.7,0.5c-0.1,0-0.4-0.4-0.4-0.5
			C181.6,116.3,181.7,116.2,181.7,116.1z M199.7,122.9c-0.2-0.3-0.4-0.7-0.6-1c-0.3-0.5-0.6-1-0.8-1.5c-0.4-0.8-1-0.8-1.6-0.8
			c-0.9,0.1-1.8,0.1-2.8,0c-0.2,0-0.5,0-0.7,0l-0.2,0c-0.2,0-0.3,0.1-0.3,0.2l0,0c-0.3,0.5-0.6,0.9-0.8,1.4
			c-0.2,0.4-0.5,0.8-0.7,1.2c-0.1,0.1-0.1,0.2-0.2,0.4c-0.1,0.2-0.2,0.3-0.3,0.5c-0.2,0.3-0.2,0.6,0,1c0.4,0.7,0.9,1.4,1.3,2.2
			l0.2,0.3c0.2,0.3,0.4,0.7,0.6,1c0.2,0.3,0.4,0.4,0.6,0.4c1.2,0,2.6,0,4,0c0,0,0,0,0,0c0.4,0,0.6-0.1,0.8-0.5
			c0.4-0.8,0.9-1.6,1.4-2.4l0,0c0.1-0.1,0.1-0.2,0.2-0.3c0.2-0.3,0.3-0.6,0.5-0.9c0,0,0-0.1,0-0.1c0,0,0,0,0,0
			c0-0.3-0.2-0.6-0.3-0.8C199.8,123,199.8,123,199.7,122.9z M199.4,124.7c-0.1,0.1-0.1,0.2-0.2,0.3l0,0c-0.5,0.8-0.9,1.6-1.4,2.4
			c-0.1,0.2-0.3,0.3-0.5,0.3c-0.6,0-1.3,0-1.9,0c-0.7,0-1.4,0-2.1,0c-0.2,0-0.3,0-0.3-0.2c-0.2-0.4-0.4-0.7-0.6-1l-0.2-0.3
			c-0.4-0.7-0.8-1.5-1.3-2.2c-0.1-0.2-0.1-0.4,0-0.6c0.1-0.2,0.2-0.3,0.3-0.5c0.1-0.1,0.1-0.2,0.2-0.4c0.3-0.4,0.5-0.8,0.7-1.2
			c0.3-0.5,0.5-0.9,0.8-1.4l0,0c0,0,0-0.1,0-0.1l0.2,0c0.2,0,0.4,0,0.7,0c1,0.1,1.9,0.1,2.8,0c0.5,0,1,0,1.2,0.6
			c0.2,0.5,0.6,1.1,0.9,1.6c0.2,0.3,0.4,0.6,0.6,1c0.1,0.1,0.1,0.2,0.2,0.3c0.1,0.2,0.3,0.4,0.3,0.6
			C199.7,124.2,199.6,124.5,199.4,124.7z M195,123.1c-0.3,0.1-0.4,0.4-0.5,0.7l0,0c-0.1,0.3,0.3,0.8,0.6,0.9c0.1,0,0.2,0,0.2,0
			c0.3,0,0.6-0.2,0.8-0.4c0,0,0-0.1,0.1-0.1c0.1-0.1,0.1-0.2,0.2-0.4c0,0,0,0,0,0c0-0.1-0.1-0.2-0.1-0.3
			C195.9,123.1,195.5,123,195,123.1z M195.9,123.9c0,0.1-0.1,0.1-0.1,0.2c0,0,0,0.1-0.1,0.1c-0.1,0.2-0.4,0.3-0.6,0.2
			c-0.1,0-0.3-0.4-0.3-0.5l0,0c0.1-0.2,0.1-0.4,0.3-0.4c0.1,0,0.2,0,0.2,0c0.2,0,0.4,0.1,0.5,0.4
			C195.9,123.8,195.9,123.8,195.9,123.9C195.9,123.9,195.9,123.9,195.9,123.9z M208.2,101.9c0.1,0,0.2,0.1,0.3,0.1
			c0.3,0,0.6-0.1,0.7-0.4c0.1-0.1,0.1-0.2,0.1-0.2l0.1-0.1c0,0,0-0.1,0-0.1c0,0,0,0,0-0.1c0-0.2-0.1-0.3-0.2-0.4l0-0.1
			c-0.2-0.3-0.7-0.4-1-0.3c-0.3,0.1-0.5,0.5-0.5,0.8C207.7,101.4,207.9,101.7,208.2,101.9z M208.4,100.6c0,0,0.1,0,0.1,0
			c0.2,0,0.4,0.1,0.4,0.2l0,0.1c0.1,0.1,0.1,0.2,0.1,0.3l0,0.1c0,0.1-0.1,0.1-0.1,0.2c-0.1,0.2-0.4,0.3-0.6,0.2
			c-0.2-0.1-0.3-0.3-0.3-0.5C208,100.9,208.1,100.7,208.4,100.6z M221.7,107.9c-0.2,0-0.4,0.1-0.6,0.3c-0.2,0.2-0.3,0.4-0.3,0.6
			c0,0.4,0.4,0.7,0.8,0.8c0.1,0,0.1,0,0.2,0c0.5,0,0.7-0.4,0.8-0.7c0,0,0-0.1,0-0.1c0,0,0-0.1,0-0.1
			C222.4,108,222.3,107.9,221.7,107.9z M221.7,109.2c-0.2,0-0.5-0.2-0.5-0.5c0-0.1,0.1-0.2,0.2-0.3c0.1-0.1,0.2-0.2,0.3-0.2
			c0,0,0.1,0,0.1,0c0.3,0,0.3,0,0.5,0.5C222.1,109.1,222,109.2,221.7,109.2z M219,82.2c0.2,0.4,0.6,0.5,0.9,0.5c0.1,0,0.1,0,0.2,0
			c0.8,0,1.7,0,2.5,0c0.2,0,0.3,0,0.5,0c0.3,0,0.6,0,0.9,0c0.1,0,0.3-0.1,0.4-0.3c0.6-0.9,1.1-1.9,1.5-2.7c0.1-0.1,0.2-0.3,0.2-0.4
			c0.2-0.3,0.4-0.6,0.5-0.9c0,0,0,0,0-0.1c0,0,0-0.1,0-0.1c-0.3-0.6-0.6-1.2-1-1.7c-0.2-0.3-0.4-0.7-0.6-1c-0.1-0.2-0.2-0.3-0.3-0.5
			c-0.1-0.2-0.2-0.4-0.3-0.6c-0.2-0.3-0.4-0.4-0.6-0.4c-0.9,0-2.1,0-3.3,0l-0.3,0.3c1.3,0,2.6,0,3.7,0c0.2,0,0.3,0,0.3,0.2
			c0.1,0.2,0.2,0.4,0.3,0.6c0.1,0.2,0.2,0.3,0.3,0.5c0.2,0.4,0.4,0.7,0.6,1c0.3,0.5,0.7,1.1,0.9,1.7c-0.1,0.3-0.2,0.5-0.4,0.8
			c-0.1,0.1-0.2,0.3-0.2,0.4c-0.4,0.8-1,1.7-1.5,2.7c0,0.1-0.1,0.1-0.2,0.1c-0.3,0-0.5,0-0.8,0c-0.2,0-0.3,0-0.5,0c0,0,0,0-0.1,0
			c-0.8,0-1.7,0-2.5,0c-0.4,0-0.6,0-0.7-0.3c-0.6-1.1-1.2-2.2-2-3.4c-0.1-0.2-0.1-0.3,0-0.5c0.2-0.2,0.3-0.5,0.4-0.7
			c0.1-0.1,0.1-0.2,0.2-0.3l0.4-0.7c0.1-0.2,0.2-0.3,0.3-0.5l-0.9,0.9l0,0.1c-0.1,0.1-0.1,0.2-0.2,0.3c-0.1,0.2-0.3,0.5-0.4,0.7
			c-0.2,0.3-0.2,0.5,0,0.8C217.7,79.9,218.4,81,219,82.2z M179.4,120.1c0.2,0.4,0.5,0.5,0.9,0.5c0,0,0,0,0.1,0c0.7,0,1.4,0,2.3,0
			c0.4,0,0.9,0,1.4,0c0.4,0,0.6-0.1,0.8-0.4c0.4-0.8,0.9-1.6,1.3-2.3l0.7-1.2c0,0,0-0.1,0.1-0.2l0-0.1c0,0,0-0.1,0-0.1c0,0,0,0,0,0
			c0-0.3-0.2-0.4-0.3-0.6c-0.1-0.1-0.1-0.2-0.1-0.2c-0.2-0.4-0.5-0.9-0.7-1.3c-0.3-0.5-0.7-1.1-0.9-1.7c-0.2-0.3-0.5-0.5-0.9-0.5
			c-0.5,0-1.1,0-1.6,0l-0.3,0.3c0.6,0,1.3,0,1.9,0c0.3,0,0.4,0.1,0.6,0.3c0.3,0.6,0.6,1.2,1,1.7c0.2,0.4,0.5,0.8,0.7,1.3
			c0,0.1,0.1,0.2,0.2,0.3c0.1,0.2,0.2,0.3,0.2,0.5l0,0c0,0,0,0.1,0,0.1l-0.7,1.2c-0.5,0.8-0.9,1.6-1.3,2.4c-0.1,0.2-0.3,0.3-0.5,0.3
			c-0.6,0-1,0-1.4,0c-0.9,0-1.7,0-2.4,0c-0.3,0-0.5-0.1-0.6-0.4c-0.5-1-1.1-2-1.7-2.9l-0.2-0.3l-0.3,0.3l0.1,0.2
			C178.3,118.1,178.8,119.1,179.4,120.1z M170.9,128.2C170.9,128.2,170.9,128.2,170.9,128.2c0.4,0,0.7-0.1,0.8-0.5
			c0.4-0.8,0.9-1.6,1.4-2.4l0-0.1c0.1-0.1,0.1-0.2,0.2-0.3c0.2-0.3,0.3-0.6,0.5-0.9c0,0,0-0.1,0-0.1c0,0,0,0,0,0
			c0-0.3-0.2-0.6-0.3-0.8c-0.1-0.1-0.1-0.2-0.2-0.3c-0.2-0.3-0.4-0.7-0.6-1c0,0,0-0.1-0.1-0.1l-0.3,0.3c0,0,0,0,0,0
			c0.2,0.3,0.4,0.6,0.6,1c0.1,0.1,0.1,0.2,0.2,0.3c0.1,0.2,0.3,0.4,0.3,0.6c-0.1,0.3-0.3,0.6-0.5,0.8c-0.1,0.1-0.1,0.2-0.2,0.3
			l0,0.1c-0.5,0.8-0.9,1.6-1.4,2.4c-0.1,0.2-0.3,0.3-0.5,0.3c-0.6,0-1.3,0-1.9,0c-0.7,0-1.4,0-2.1,0c-0.1,0-0.2,0-0.2,0l-0.2,0.2
			c0.2,0.1,0.3,0.1,0.5,0.1C168.2,128.2,169.5,128.2,170.9,128.2z M224.7,90c-0.4-0.8-1-0.8-1.6-0.8c-0.9,0.1-1.8,0.1-2.8,0
			c-0.2,0-0.5,0-0.7,0l-0.2,0c-0.2,0-0.3,0.1-0.3,0.2l0,0c-0.3,0.5-0.6,0.9-0.8,1.4c-0.2,0.4-0.5,0.8-0.7,1.2
			c-0.1,0.1-0.1,0.2-0.2,0.4c-0.1,0.2-0.2,0.3-0.3,0.5c-0.2,0.3-0.2,0.6,0,1c0.4,0.7,0.9,1.4,1.3,2.2l0.2,0.3c0.2,0.3,0.4,0.7,0.6,1
			c0.2,0.3,0.4,0.4,0.6,0.4c1.4,0,2.7,0,4,0c0,0,0,0,0,0c0.4,0,0.6-0.1,0.8-0.5c0.4-0.8,0.9-1.6,1.4-2.4l0-0.1
			c0.1-0.1,0.1-0.2,0.2-0.3c0.2-0.3,0.3-0.6,0.5-0.9c0,0,0-0.1,0-0.1c0,0,0,0,0,0c0-0.3-0.2-0.6-0.3-0.8c-0.1-0.1-0.1-0.2-0.2-0.3
			c-0.2-0.3-0.4-0.7-0.6-1C225.2,91,224.9,90.5,224.7,90z M226,92.9c0.1,0.2,0.3,0.4,0.3,0.6c-0.1,0.3-0.3,0.6-0.5,0.8
			c-0.1,0.1-0.1,0.2-0.2,0.3l0,0.1c-0.5,0.8-0.9,1.6-1.4,2.4c-0.1,0.2-0.3,0.3-0.5,0.3c-0.6,0-1.2,0-1.9,0c-0.7,0-1.4,0-2.1,0
			c-0.2,0-0.3,0-0.3-0.2c-0.2-0.4-0.4-0.7-0.6-1l-0.2-0.3c-0.4-0.7-0.8-1.5-1.3-2.2c-0.1-0.2-0.1-0.4,0-0.6c0.1-0.2,0.2-0.3,0.3-0.5
			c0.1-0.1,0.1-0.2,0.2-0.4c0.3-0.4,0.5-0.8,0.7-1.2c0.3-0.5,0.5-0.9,0.8-1.4l0,0c0,0,0-0.1,0-0.1l0.2,0c0.2,0,0.4,0,0.7,0
			c1,0.1,1.9,0.1,2.8,0c0.5,0,1,0,1.2,0.6c0.2,0.5,0.6,1.1,0.9,1.6c0.2,0.3,0.4,0.6,0.6,1C225.8,92.7,225.9,92.8,226,92.9z
			 M230.6,78c-1.2-2-2.3-3.9-3.4-5.9l-0.8-1.4c0.2-0.2,0.3-0.5,0.4-0.7c0.1-0.1,0.1-0.2,0.2-0.3c0.4-0.6,0.7-1.3,1.1-1.9
			c0.6-1.1,1.2-2.2,1.9-3.2l-1,1c-0.4,0.7-0.8,1.4-1.2,2.1c-0.4,0.6-0.7,1.3-1.1,1.9c-0.1,0.1-0.1,0.2-0.2,0.3
			c-0.1,0.2-0.3,0.5-0.4,0.7c-0.6,0-1.1,0-1.7,0c-0.1,0-0.3,0-0.4,0l-0.3,0.3c0.3,0,0.5,0,0.8,0c0.5,0,1.1,0,1.7,0l0.8,1.4
			c1.1,2,2.3,4,3.4,5.9c0.1,0.1,0.1,0.2,0,0.3c-0.8,1.3-1.6,2.7-2.4,4c-0.3,0.6-0.7,1.2-1.1,1.8c-0.2,0.3-0.4,0.7-0.6,1l-0.2,0.4
			h-8.6l-0.2-0.4c-0.2-0.3-0.4-0.7-0.6-1c-0.4-0.6-0.7-1.2-1-1.8c-0.4-0.7-0.9-1.5-1.3-2.3l-0.3,0.3c0.4,0.7,0.8,1.5,1.3,2.2
			c0.3,0.6,0.7,1.2,1.1,1.8c0.2,0.3,0.4,0.7,0.6,1l0.2,0.4l-0.9,1.5c-0.9,1.5-1.7,3.1-2.6,4.6c-0.1,0.1-0.1,0.3-0.2,0.4
			c-0.2,0.3-0.3,0.5-0.5,0.8c0,0-0.1,0.1-0.1,0.2c-2.9,0-5.7,0-8.6,0c0-0.1-0.1-0.1-0.1-0.2c-0.2-0.2-0.3-0.5-0.5-0.8
			c-0.1-0.1-0.1-0.3-0.2-0.4c-0.1-0.2-0.2-0.4-0.4-0.6l-0.3,0.3c0.1,0.2,0.2,0.4,0.3,0.5c0.1,0.1,0.1,0.2,0.2,0.4
			c0.2,0.3,0.3,0.6,0.5,0.8c0.1,0.1,0.1,0.1,0,0.3c-1.2,2.1-2.6,4.4-4.1,7.1c-0.1,0.2-0.2,0.2-0.4,0.2c-1.9,0-3.9,0-5.8,0l-0.3,0.3
			c2.1,0,4.1,0,6.2,0c0.1,0,0.2,0,0.3,0l0.8,1.4c1.1,2,2.3,4,3.4,5.9c0.1,0.1,0.1,0.2,0,0.3c-0.8,1.3-1.6,2.7-2.4,4
			c-0.4,0.6-0.7,1.2-1.1,1.8c-0.2,0.4-0.4,0.7-0.6,1.1l-0.2,0.3H191l-0.6-1c-0.3-0.5-0.6-1.1-0.9-1.6c-0.8-1.4-1.7-2.9-2.6-4.4
			c-0.2-0.4-0.2-0.6,0-0.9c0.3-0.6,0.7-1.2,1-1.8l-0.9,0.9c-0.1,0.2-0.3,0.5-0.4,0.7c-0.1,0.2-0.2,0.3-0.2,0.5c0,0,0,0,0,0
			c-0.2,0-0.4,0-0.6,0l-0.3,0.3c0.3,0,0.6,0,0.9,0h0c0,0,0,0,0,0c0,0.1,0.1,0.3,0.2,0.4c0.9,1.4,1.7,2.9,2.5,4.4
			c0.3,0.5,0.6,1.1,0.9,1.6l0.6,1l-0.9,1.5c-0.9,1.5-1.7,3.1-2.6,4.6c-0.1,0.1-0.1,0.3-0.2,0.4c-0.2,0.3-0.3,0.5-0.5,0.8
			c0,0-0.1,0.1-0.1,0.2c-2.9,0-5.7,0-8.6,0c0-0.1-0.1-0.1-0.1-0.2c-0.2-0.2-0.3-0.5-0.5-0.8c-0.1-0.1-0.1-0.3-0.2-0.4
			c-0.6-1-1.2-2.1-1.8-3.2l-0.3,0.3c0.6,1,1.2,2.1,1.8,3.1c0.1,0.1,0.1,0.2,0.2,0.4c0.2,0.3,0.3,0.6,0.5,0.8c0.1,0.1,0.1,0.1,0,0.3
			c-1.2,2.1-2.5,4.3-4.1,7.1c-0.1,0.2-0.2,0.2-0.4,0.2h0c-2.7,0-5.3,0-8,0h0c-0.1,0-0.2,0-0.3,0l-0.1-0.1c-0.1-0.1-0.2-0.3-0.2-0.4
			l-0.3-0.5l-0.3,0.3l0.2,0.4c0.1,0.1,0.2,0.3,0.2,0.4l0.1,0.1c-0.1,0.1-0.1,0.1-0.2,0.2c-0.1,0.2-0.3,0.5-0.4,0.7h0.4
			c0.1-0.2,0.2-0.4,0.3-0.6c0.1-0.2,0.2-0.3,0.5-0.3h0c2.7,0,5.3,0,8,0h0c0.1,0,0.2,0,0.3,0l0.5,0.9h0.4l-0.6-1.1
			c0.1-0.1,0.1-0.1,0.1-0.2c1.6-2.7,2.9-5,4.1-7.1c0-0.1,0-0.1,0.1-0.1c1.4,0,2.9,0,4.3,0c1.4,0,2.9,0,4.3,0c0,0,0,0.1,0.1,0.1
			c1.1,1.9,2.2,3.7,3.2,5.6l0.7,1.2c0.1,0.1,0.2,0.3,0.2,0.4l0.1,0.1c-0.1,0.1-0.1,0.1-0.2,0.2c-0.1,0.2-0.3,0.5-0.4,0.7h0.4
			c0.1-0.2,0.2-0.4,0.3-0.6c0.1-0.2,0.2-0.3,0.5-0.3h0c2.7,0,5.3,0,8,0h0c0.1,0,0.2,0,0.3,0l0.5,0.9h0.4l-0.6-1.1
			c0.1-0.1,0.1-0.1,0.1-0.2c1.6-2.7,2.9-5,4.1-7.1c0-0.1,0-0.1,0.1-0.1c1.4,0,2.9,0,4.3,0c1.4,0,2.9,0,4.3,0c0,0,0,0.1,0.1,0.1
			c1.1,1.8,2.1,3.7,3.2,5.5l0.7,1.3c0.1,0.1,0.2,0.3,0.2,0.4l0.1,0.1c-0.1,0.1-0.1,0.1-0.2,0.2c-0.1,0.2-0.3,0.5-0.4,0.7h0.4
			c0.1-0.2,0.2-0.4,0.3-0.6c0.1-0.2,0.2-0.3,0.5-0.3h0c2.7,0,5.3,0,8,0h0c0.1,0,0.2,0,0.3,0l0.5,0.9h0.4l-0.6-1.1
			c0.1-0.1,0.1-0.1,0.1-0.2c1.6-2.7,2.9-5,4.1-7.1c0-0.1,0-0.1,0.1-0.1c0.8,0,1.5,0,2.3,0v-0.3c-0.8,0-1.5,0-2.3,0
			c0-0.1-0.1-0.1-0.1-0.2c-0.2-0.2-0.3-0.5-0.5-0.8c-0.1-0.1-0.1-0.3-0.2-0.4c-0.9-1.5-1.8-3.1-2.6-4.6l-0.9-1.5l0.2-0.4
			c0.2-0.3,0.4-0.7,0.6-1c0.4-0.6,0.7-1.2,1.1-1.8c0.8-1.3,1.5-2.7,2.4-4c0,0,0-0.1,0.1-0.1c0.8,0,1.5,0,2.3,0v-0.3
			c-0.8,0-1.5,0-2.3,0c0,0,0-0.1-0.1-0.1c-1.2-2-2.3-4-3.4-6l-0.8-1.4c0.1,0,0.1-0.1,0.1-0.2c1.6-2.7,2.9-5,4.1-7.1
			c0-0.1,0-0.1,0.1-0.1c0.8,0,1.5,0,2.3,0v-0.3c-0.8,0-1.5,0-2.3,0c0-0.1-0.1-0.1-0.1-0.2c-0.2-0.2-0.3-0.5-0.5-0.8
			c-0.1-0.1-0.1-0.3-0.2-0.4c-0.9-1.5-1.8-3.1-2.7-4.6l-0.9-1.5l0.2-0.4c0.2-0.3,0.4-0.7,0.6-1c0.4-0.6,0.7-1.2,1.1-1.8
			c0.8-1.3,1.5-2.7,2.4-4c0,0,0-0.1,0.1-0.1c0.8,0,1.5,0,2.3,0v-0.3c-0.8,0-1.5,0-2.3,0C230.6,78.1,230.6,78.1,230.6,78z
			 M200.7,102.5l-0.8-1.4c0.1-0.1,0.1-0.1,0.1-0.2c1.5-2.6,2.9-5,4.1-7.1c0-0.1,0-0.1,0.1-0.1c1.4,0,2.9,0,4.3,0c1.4,0,2.9,0,4.3,0
			c0,0,0,0.1,0.1,0.1c1.1,1.9,2.2,3.7,3.2,5.6l0.7,1.2c0.1,0.1,0.1,0.3,0.2,0.4l0.1,0.1c-0.1,0.1-0.1,0.1-0.2,0.2
			c-1.5,2.7-2.7,4.7-3.8,6.6c-0.1,0.2-0.2,0.3-0.2,0.5c0,0,0,0,0,0c-2.9,0-5.8,0-8.7,0c0,0,0-0.1-0.1-0.1
			C203,106.4,201.9,104.4,200.7,102.5z M203.9,124c-1.2,2.1-2.5,4.4-4.1,7.1c-0.1,0.2-0.2,0.2-0.4,0.2h0c-2.7,0-5.3,0-8,0h0
			c-0.1,0-0.2,0-0.3,0l-0.1-0.1c-0.1-0.1-0.2-0.3-0.2-0.4l-0.7-1.2c-1.1-1.9-2.2-3.7-3.2-5.6c-0.1-0.1-0.1-0.2,0-0.3
			c0.2-0.3,0.4-0.6,0.5-0.8c0.1-0.1,0.1-0.2,0.2-0.4c0.9-1.5,1.8-3.1,2.6-4.6l0.9-1.5h8.6l0.9,1.5c0.9,1.5,1.7,3.1,2.6,4.6
			c0.1,0.1,0.1,0.2,0.2,0.4c0.2,0.3,0.3,0.6,0.5,0.8C203.9,123.8,204,123.9,203.9,124z M212.8,123.7c-2.9,0-5.7,0-8.6,0
			c0-0.1-0.1-0.1-0.1-0.2c-0.2-0.2-0.3-0.5-0.5-0.8c-0.1-0.1-0.1-0.3-0.2-0.4c-0.9-1.5-1.8-3.1-2.6-4.6l-0.9-1.5l0.2-0.3
			c0.2-0.3,0.4-0.7,0.6-1.1c0.4-0.6,0.7-1.2,1.1-1.8c0.8-1.3,1.5-2.7,2.3-4c0,0,0-0.1,0.1-0.1c2.9,0,5.8,0,8.7,0h0c0,0,0,0,0,0
			c0,0.1,0.1,0.3,0.2,0.4c0.9,1.4,1.7,2.9,2.5,4.4c0.3,0.5,0.6,1.1,0.9,1.6l0.6,1l-0.9,1.5c-0.9,1.5-1.7,3.1-2.6,4.6
			c-0.1,0.1-0.1,0.3-0.2,0.4c-0.2,0.3-0.3,0.5-0.5,0.8C212.9,123.6,212.9,123.7,212.8,123.7z M226.9,118c0.9,1.5,1.8,3.1,2.7,4.6
			c0.1,0.1,0.1,0.2,0.2,0.4c0.2,0.3,0.3,0.6,0.5,0.8c0,0.1,0.1,0.1,0,0.3c-1.2,2.1-2.5,4.3-4.1,7.1c-0.1,0.2-0.2,0.2-0.4,0.2h0
			c-2.7,0-5.3,0-8,0h0c-0.1,0-0.2,0-0.3,0l-0.1-0.1c-0.1-0.1-0.2-0.3-0.2-0.4l-0.7-1.3c-1.1-1.8-2.1-3.7-3.2-5.5
			c-0.1-0.1-0.1-0.2,0-0.3c0.2-0.3,0.4-0.6,0.5-0.8c0.1-0.1,0.1-0.2,0.2-0.4c0.9-1.5,1.8-3.1,2.6-4.6l0.9-1.5h8.6L226.9,118z
			 M226.8,102.6c1.1,2,2.3,4,3.4,6c0.1,0.1,0.1,0.2,0,0.3c-0.8,1.3-1.6,2.7-2.4,4c-0.4,0.6-0.7,1.2-1.1,1.8c-0.2,0.3-0.4,0.7-0.6,1
			l-0.2,0.4h-8.6l-0.6-1c-0.3-0.5-0.6-1.1-0.9-1.6c-0.8-1.4-1.7-2.9-2.6-4.4c-0.2-0.4-0.2-0.6,0-0.9c1.1-1.9,2.3-4,3.8-6.6
			c0.1-0.2,0.2-0.3,0.5-0.3h0c2.7,0,5.3,0,8,0h0c0.1,0,0.2,0,0.3,0L226.8,102.6z M226.9,87.6c0.9,1.5,1.8,3.1,2.7,4.6
			c0.1,0.1,0.1,0.2,0.2,0.4c0.2,0.3,0.3,0.6,0.5,0.8c0.1,0.1,0.1,0.1,0,0.3c-1.2,2.1-2.5,4.4-4.1,7.1c-0.1,0.2-0.2,0.2-0.4,0.2h0
			c-2.7,0-5.3,0-8,0h0c-0.1,0-0.2,0-0.3,0l-0.1-0.1c-0.1-0.1-0.1-0.3-0.2-0.4l-0.7-1.2c-1.1-1.9-2.1-3.7-3.2-5.6
			c-0.1-0.1-0.1-0.2,0-0.3c0.2-0.3,0.4-0.6,0.5-0.8c0.1-0.1,0.1-0.2,0.2-0.4c0.9-1.5,1.8-3.1,2.6-4.6l0.9-1.5h8.6L226.9,87.6z
			 M206.6,90.2C206.7,90.2,206.7,90.2,206.6,90.2c0.7,0,1.5,0,2.4,0c0.4,0,0.9,0,1.4,0c0.4,0,0.6-0.1,0.8-0.4
			c0.4-0.8,0.9-1.6,1.3-2.3l0.7-1.2c0,0,0-0.1,0.1-0.2l0-0.1c0,0,0-0.1,0-0.1c0,0,0,0,0,0c0-0.3-0.2-0.4-0.3-0.6
			c-0.1-0.1-0.1-0.2-0.1-0.2c-0.2-0.4-0.5-0.9-0.7-1.3c-0.2-0.3-0.4-0.6-0.6-1l-0.3,0.3c0.2,0.3,0.3,0.6,0.5,0.9
			c0.2,0.4,0.5,0.8,0.7,1.3c0,0.1,0.1,0.2,0.2,0.3c0.1,0.2,0.2,0.3,0.2,0.5l0,0c0,0,0,0.1,0,0.1l-0.7,1.2c-0.4,0.8-0.9,1.6-1.3,2.3
			c-0.1,0.2-0.2,0.3-0.5,0.3c-0.6,0-1,0-1.4,0c-0.9,0-1.7,0-2.4,0c-0.3,0-0.5-0.1-0.6-0.4c-0.1-0.2-0.3-0.5-0.4-0.7l-0.3,0.3
			c0.1,0.2,0.2,0.4,0.3,0.6C206,90.1,206.2,90.2,206.6,90.2z M221.8,79.1c0.5,0,0.7-0.4,0.8-0.7c0,0,0-0.1,0-0.1c0,0,0-0.1,0-0.1
			c-0.2-0.7-0.4-0.8-1-0.8c-0.2,0-0.4,0.1-0.6,0.3c-0.2,0.2-0.3,0.4-0.3,0.6c0,0.4,0.4,0.7,0.8,0.8
			C221.7,79.1,221.8,79.1,221.8,79.1z M221.2,78.3c0-0.1,0.1-0.2,0.2-0.3c0.1-0.1,0.2-0.2,0.3-0.2c0,0,0.1,0,0.1,0
			c0.3,0,0.3,0,0.5,0.5c-0.2,0.4-0.3,0.5-0.6,0.4C221.5,78.7,221.2,78.5,221.2,78.3z M190.8,109.4c0.1,0.1,0.1,0.2,0.1,0.2
			c0.2,0.4,0.5,0.8,0.7,1.2c0.3,0.6,0.7,1.1,1,1.7c0.2,0.4,0.6,0.5,0.9,0.5c0.1,0,0.1,0,0.2,0c0.6,0,1.2,0,1.8,0c0.3,0,0.6,0,0.8,0
			c0.1,0,0.3,0,0.4,0c0.3,0,0.6,0,0.9,0c0.1,0,0.3-0.1,0.4-0.3c0.3-0.4,0.5-0.9,0.8-1.3c0.2-0.4,0.5-0.9,0.8-1.3
			c0.1-0.1,0.1-0.2,0.2-0.4c0.1-0.2,0.2-0.3,0.3-0.5c0.2-0.3,0.2-0.6,0-1c-0.4-0.7-0.8-1.4-1.3-2.2l-0.2-0.3c-0.2-0.3-0.4-0.7-0.6-1
			c-0.2-0.3-0.4-0.4-0.6-0.4c-1.2,0-2.6,0-4,0c-0.4,0-0.7,0.1-0.8,0.5c-0.3,0.6-0.6,1.1-0.9,1.6l-0.5,0.8c-0.1,0.1-0.1,0.2-0.2,0.4
			c-0.2,0.3-0.4,0.6-0.5,0.9c0,0,0,0.1,0,0.1c0,0,0,0,0,0C190.5,109,190.7,109.2,190.8,109.4z M191.3,107.9c0.1-0.1,0.1-0.2,0.2-0.4
			l0.5-0.8c0.3-0.5,0.6-1.1,0.9-1.7c0.1-0.2,0.3-0.3,0.5-0.3c1.4,0,2.8,0,4,0c0.2,0,0.3,0,0.3,0.2c0.2,0.4,0.4,0.7,0.6,1l0.2,0.3
			c0.4,0.7,0.8,1.4,1.3,2.2c0.1,0.2,0.1,0.4,0,0.6c-0.1,0.2-0.2,0.3-0.3,0.5c-0.1,0.1-0.1,0.2-0.2,0.4c-0.3,0.4-0.5,0.9-0.8,1.3
			c-0.2,0.4-0.5,0.9-0.8,1.3c-0.1,0.1-0.1,0.1-0.2,0.1c-0.3,0-0.5,0-0.8,0c-0.2,0-0.3,0-0.5,0c-0.3,0-0.6,0-0.8,0
			c-0.6,0-1.2,0-1.8,0c-0.4,0-0.6,0-0.7-0.3c-0.3-0.6-0.6-1.2-1-1.7c-0.2-0.4-0.5-0.8-0.7-1.2c0-0.1-0.1-0.2-0.2-0.3
			c-0.1-0.2-0.2-0.3-0.2-0.5C190.9,108.4,191.1,108.2,191.3,107.9z M224.7,120.4c-0.4-0.8-1-0.8-1.6-0.8c-0.9,0.1-1.8,0.1-2.8,0
			c-0.2,0-0.5,0-0.7,0l-0.2,0c-0.2,0-0.3,0.1-0.3,0.2l0,0c-0.3,0.5-0.6,0.9-0.8,1.4c-0.2,0.4-0.5,0.8-0.7,1.2
			c-0.1,0.1-0.1,0.3-0.2,0.4c-0.1,0.2-0.2,0.3-0.3,0.5c-0.2,0.3-0.3,0.6,0,1c0.4,0.7,0.8,1.4,1.3,2.2l0.2,0.3c0.2,0.3,0.4,0.7,0.6,1
			c0.2,0.3,0.4,0.4,0.6,0.4c1.2,0,2.6,0,4,0c0,0,0,0,0,0c0.4,0,0.6-0.1,0.8-0.5c0.4-0.8,0.9-1.6,1.4-2.4l0-0.1
			c0.1-0.1,0.1-0.2,0.2-0.3c0.2-0.3,0.3-0.6,0.5-0.9c0,0,0-0.1,0-0.1c0,0,0,0,0,0c0-0.3-0.2-0.6-0.3-0.8c-0.1-0.1-0.1-0.2-0.2-0.3
			c-0.2-0.3-0.4-0.7-0.6-1C225.2,121.4,224.9,120.9,224.7,120.4z M226,123.3c0.1,0.2,0.3,0.4,0.3,0.6c-0.1,0.3-0.3,0.6-0.5,0.8
			c-0.1,0.1-0.1,0.2-0.2,0.3l0,0.1c-0.5,0.8-0.9,1.6-1.4,2.4c-0.1,0.2-0.3,0.3-0.5,0.3c-0.6,0-1.3,0-1.9,0c-0.7,0-1.4,0-2.1,0
			c-0.2,0-0.3,0-0.3-0.2c-0.2-0.4-0.4-0.7-0.6-1l-0.2-0.3c-0.4-0.7-0.8-1.4-1.3-2.2c-0.1-0.2-0.1-0.4,0-0.6c0.1-0.2,0.2-0.3,0.3-0.5
			c0.1-0.1,0.1-0.2,0.2-0.4c0.3-0.4,0.5-0.8,0.7-1.2c0.3-0.5,0.5-0.9,0.8-1.4l0,0c0,0,0-0.1,0-0.1l0.2,0c0.2,0,0.4,0,0.7,0
			c1,0.1,1.9,0.1,2.8,0c0.5,0,1,0,1.2,0.6c0.2,0.5,0.6,1.1,0.9,1.6c0.2,0.3,0.4,0.6,0.6,1C225.8,123.1,225.9,123.2,226,123.3z
			 M232.2,127.6c-0.4,0.7-0.7,1.3-1.1,1.9c-0.1,0.2-0.3,0.5-0.4,0.7l-0.5,0.8c-0.2,0.3-0.2,0.5,0,0.8c0.1,0.2,0.2,0.4,0.4,0.6h0.4
			c-0.2-0.3-0.3-0.5-0.5-0.8c-0.1-0.1-0.1-0.3,0-0.4l0.5-0.8c0.1-0.2,0.3-0.5,0.4-0.7c0.4-0.6,0.8-1.3,1.1-1.9
			c0.1-0.2,0.2-0.2,0.4-0.2c0,0,0,0,0,0v-0.3c0,0,0,0,0,0C232.6,127.2,232.4,127.3,232.2,127.6z M195.2,109.5c0.1,0,0.1,0,0.2,0
			c0.5,0,0.7-0.4,0.8-0.7c0,0,0-0.1,0-0.1c0,0,0-0.1,0-0.1c-0.2-0.7-0.4-0.8-1-0.8c-0.2,0-0.4,0.1-0.6,0.3c-0.2,0.2-0.3,0.4-0.3,0.6
			C194.5,109.1,194.9,109.4,195.2,109.5z M195,108.4c0.1-0.1,0.2-0.2,0.3-0.2c0,0,0.1,0,0.1,0c0.3,0,0.3,0,0.5,0.5
			c-0.2,0.4-0.3,0.5-0.6,0.4c-0.2,0-0.5-0.2-0.5-0.5C194.8,108.6,194.9,108.5,195,108.4z M221.4,92.7c-0.3,0.1-0.4,0.4-0.5,0.7l0,0
			c-0.1,0.3,0.3,0.8,0.6,0.9c0.1,0,0.2,0,0.2,0c0.3,0,0.6-0.2,0.8-0.4c0,0,0-0.1,0.1-0.1c0.1-0.1,0.1-0.2,0.2-0.4c0,0,0,0,0,0
			c0-0.1-0.1-0.2-0.1-0.3C222.3,92.7,221.9,92.6,221.4,92.7z M222.3,93.5c0,0.1-0.1,0.1-0.1,0.2c0,0,0,0.1-0.1,0.1
			c-0.1,0.2-0.4,0.3-0.6,0.2c-0.1,0-0.3-0.4-0.3-0.5l0,0c0.1-0.2,0.1-0.4,0.3-0.4c0.1,0,0.2,0,0.2,0c0.2,0,0.4,0.1,0.5,0.4
			C222.2,93.4,222.3,93.4,222.3,93.5C222.3,93.5,222.3,93.5,222.3,93.5z M232.1,82.1c-0.5,1-1.1,2-1.7,2.9l-0.2,0.4
			c-0.2,0.3-0.2,0.6,0,0.9l0.2,0.4c0.6,0.9,1.1,1.9,1.7,2.9c0.2,0.4,0.4,0.5,0.8,0.5v-0.3c-0.2,0-0.4-0.1-0.5-0.4
			c-0.5-1-1.1-2-1.7-2.9l-0.2-0.4c-0.1-0.2-0.1-0.4,0-0.6l0.2-0.4c0.6-0.9,1.2-1.9,1.7-2.9c0.1-0.3,0.3-0.3,0.5-0.4v-0.3
			C232.6,81.6,232.3,81.8,232.1,82.1z M232.2,66.9c-0.7,1.3-1.3,2.4-2,3.4c-0.2,0.2-0.2,0.5,0,0.8c0.2,0.4,0.4,0.8,0.7,1.2
			c0.2,0.4,0.4,0.7,0.6,1.1c0.1,0.2,0.2,0.4,0.3,0.6c0.1,0.2,0.3,0.5,0.4,0.7c0.2,0.3,0.4,0.4,0.7,0.4c0,0,0,0,0,0v-0.3c0,0,0,0,0,0
			c-0.2,0-0.3,0-0.4-0.2c-0.1-0.2-0.3-0.5-0.4-0.7c-0.1-0.2-0.2-0.4-0.3-0.6c-0.2-0.4-0.4-0.7-0.6-1.1c-0.2-0.4-0.4-0.8-0.7-1.2
			c-0.1-0.1-0.1-0.3,0-0.4c0.7-1,1.3-2.2,2-3.4c0.1-0.2,0.2-0.3,0.5-0.3v-0.3C232.6,66.4,232.3,66.6,232.2,66.9z M186,129.6
			c-0.2-0.3-0.3-0.5-0.5-0.8l-0.2-0.3c-0.2-0.3-0.3-0.6-0.5-0.9c-0.2-0.3-0.4-0.4-0.7-0.4c-1.3,0-2.7,0-4,0c-0.3,0-0.5,0.1-0.7,0.4
			c-0.4,0.7-0.7,1.3-1.1,1.9c-0.1,0.2-0.3,0.5-0.4,0.7l-0.5,0.8c-0.2,0.3-0.2,0.5,0,0.8c0.1,0.2,0.2,0.4,0.4,0.6h0.4
			c-0.2-0.3-0.3-0.5-0.5-0.8c-0.1-0.1-0.1-0.3,0-0.4l0.5-0.8c0.1-0.2,0.3-0.5,0.4-0.7c0.4-0.6,0.8-1.3,1.1-1.9
			c0.1-0.2,0.2-0.2,0.4-0.2c1.3,0,2.7,0,4,0c0.2,0,0.3,0,0.4,0.2c0.2,0.3,0.3,0.6,0.5,0.9l0.2,0.3c0.2,0.3,0.3,0.5,0.5,0.8
			c0.3,0.6,0.7,1.1,0.9,1.7c-0.1,0.2-0.2,0.4-0.4,0.7c-0.1,0.1-0.1,0.2-0.2,0.3c0,0,0,0,0,0h0.4c0-0.1,0.1-0.1,0.1-0.2
			c0.1-0.2,0.3-0.5,0.4-0.7c0,0,0-0.1,0-0.1c0,0,0-0.1,0-0.1C186.7,130.8,186.4,130.2,186,129.6z M212.4,129.6
			c-0.2-0.3-0.3-0.5-0.5-0.8l-0.2-0.3c-0.2-0.3-0.3-0.6-0.5-0.9c-0.2-0.3-0.4-0.4-0.7-0.4h0c-1.3,0-2.7,0-4,0
			c-0.3,0-0.5,0.1-0.7,0.4c-0.4,0.7-0.7,1.3-1.1,1.9c-0.1,0.2-0.3,0.5-0.4,0.7l-0.5,0.8c-0.2,0.3-0.2,0.5,0,0.8
			c0.1,0.2,0.2,0.4,0.4,0.6h0.4c-0.2-0.3-0.3-0.5-0.5-0.8c-0.1-0.1-0.1-0.3,0-0.4l0.5-0.8c0.1-0.2,0.3-0.5,0.4-0.7
			c0.4-0.6,0.8-1.3,1.1-1.9c0.1-0.2,0.2-0.2,0.4-0.2c1.3,0,2.7,0,4,0c0.2,0,0.3,0,0.4,0.2c0.2,0.3,0.3,0.6,0.5,0.9l0.2,0.3
			c0.2,0.3,0.3,0.5,0.5,0.8c0.3,0.6,0.7,1.1,0.9,1.7c-0.1,0.2-0.2,0.4-0.4,0.7c-0.1,0.1-0.1,0.2-0.2,0.3c0,0,0,0,0,0h0.4
			c0-0.1,0.1-0.1,0.1-0.2c0.1-0.2,0.3-0.5,0.4-0.7c0,0,0-0.1,0-0.1c0,0,0-0.1,0-0.1C213.1,130.8,212.8,130.2,212.4,129.6z
			 M225,105.8c-0.2-0.3-0.4-0.7-0.6-1c-0.2-0.3-0.4-0.4-0.6-0.4c-1.2,0-2.6,0-4,0c-0.4,0-0.7,0.1-0.8,0.5c-0.3,0.6-0.6,1.1-0.9,1.6
			l-0.5,0.8c-0.1,0.1-0.1,0.2-0.2,0.4c-0.2,0.3-0.4,0.6-0.5,0.9c0,0,0,0.1,0,0.1c0,0,0,0,0,0c0,0.3,0.2,0.4,0.3,0.6
			c0.1,0.1,0.1,0.2,0.1,0.2c0.2,0.4,0.5,0.8,0.7,1.2c0.3,0.6,0.7,1.1,1,1.7c0.2,0.4,0.6,0.5,0.9,0.5c0.1,0,0.1,0,0.2,0
			c0.6,0,1.2,0,1.8,0c0.3,0,0.5,0,0.8,0c0.1,0,0.3,0,0.4,0c0.3,0,0.6,0,0.9,0c0.1,0,0.3-0.1,0.4-0.3c0.3-0.4,0.5-0.9,0.8-1.3
			c0.2-0.4,0.5-0.9,0.8-1.3c0.1-0.1,0.1-0.3,0.2-0.4c0.1-0.2,0.2-0.3,0.3-0.5c0.2-0.3,0.2-0.6,0-1c-0.4-0.7-0.8-1.4-1.3-2.2
			L225,105.8z M226.1,109c-0.1,0.2-0.2,0.3-0.3,0.5c-0.1,0.1-0.1,0.2-0.2,0.4c-0.3,0.4-0.5,0.9-0.8,1.3c-0.2,0.4-0.5,0.9-0.8,1.3
			c-0.1,0.1-0.1,0.1-0.2,0.1c-0.2,0-0.5,0-0.8,0c-0.2,0-0.3,0-0.5,0c-0.3,0-0.5,0-0.8,0c-0.6,0-1.2,0-1.9,0c-0.4,0-0.6,0-0.7-0.3
			c-0.3-0.6-0.6-1.2-1-1.7c-0.2-0.4-0.5-0.8-0.7-1.2c0-0.1-0.1-0.2-0.2-0.3c-0.1-0.2-0.2-0.3-0.2-0.5c0.1-0.3,0.3-0.6,0.4-0.8
			c0.1-0.1,0.1-0.2,0.2-0.4l0.5-0.8c0.3-0.5,0.6-1.1,0.9-1.7c0.1-0.2,0.3-0.3,0.5-0.3c1.4,0,2.8,0,4,0c0.2,0,0.3,0,0.3,0.2
			c0.2,0.4,0.4,0.7,0.6,1l0.2,0.3c0.4,0.7,0.8,1.4,1.3,2.2C226.3,108.7,226.3,108.8,226.1,109z"/>
	</g>
</g>
</svg>
