<?xml version="1.0" encoding="utf-8"?>
<!-- Generator: Adobe Illustrator 22.0.1, SVG Export Plug-In . SVG Version: 6.00 Build 0)  -->
<svg version="1.1" id="Layer_1" xmlns="http://www.w3.org/2000/svg" xmlns:xlink="http://www.w3.org/1999/xlink" x="0px" y="0px"
	 viewBox="0 0 72.1 68.9" style="enable-background:new 0 0 72.1 68.9;" xml:space="preserve">
<style type="text/css">
	.st0{fill:#020203;}
	.st1{display:none;}
	.st2{display:inline;}
	.st3{fill:#1C1F2C;}
	.st4{display:inline;fill:#1C1F2C;}
	.st5{display:inline;fill:#636363;}
</style>
<g>
	<g>
		<path class="st0" d="M9.2,61.9c-0.3,0-0.5,0.2-0.5,0.5c0,0.3,0.2,0.5,0.5,0.5c0.3,0,0.5-0.2,0.5-0.5C9.8,62.2,9.5,61.9,9.2,61.9z"
			/>
		<circle class="st0" cx="12.1" cy="59.6" r="0.5"/>
		<path class="st0" d="M9.2,59c-0.3,0-0.5,0.2-0.5,0.5s0.2,0.5,0.5,0.5c0.3,0,0.5-0.2,0.5-0.5S9.5,59,9.2,59z"/>
		<path class="st0" d="M15,56.1c-0.3,0-0.5,0.2-0.5,0.5c0,0.3,0.2,0.5,0.5,0.5c0.3,0,0.5-0.2,0.5-0.5C15.6,56.4,15.3,56.1,15,56.1z"
			/>
		<path class="st0" d="M12.1,56.1c-0.3,0-0.5,0.2-0.5,0.5c0,0.3,0.2,0.5,0.5,0.5c0.3,0,0.5-0.2,0.5-0.5
			C12.7,56.4,12.4,56.1,12.1,56.1z"/>
		<path class="st0" d="M9.2,56.1c-0.3,0-0.5,0.2-0.5,0.5c0,0.3,0.2,0.5,0.5,0.5c0.3,0,0.5-0.2,0.5-0.5C9.8,56.4,9.5,56.1,9.2,56.1z"
			/>
		<circle class="st0" cx="17.9" cy="53.8" r="0.5"/>
		<path class="st0" d="M15,53.2c-0.3,0-0.5,0.2-0.5,0.5c0,0.3,0.2,0.5,0.5,0.5c0.3,0,0.5-0.2,0.5-0.5C15.6,53.5,15.3,53.2,15,53.2z"
			/>
		<circle class="st0" cx="12.1" cy="53.8" r="0.5"/>
		<path class="st0" d="M9.2,53.2c-0.3,0-0.5,0.2-0.5,0.5c0,0.3,0.2,0.5,0.5,0.5c0.3,0,0.5-0.2,0.5-0.5C9.8,53.5,9.5,53.2,9.2,53.2z"
			/>
		<path class="st0" d="M20.8,50.3c-0.3,0-0.5,0.2-0.5,0.5c0,0.3,0.2,0.5,0.5,0.5c0.3,0,0.5-0.2,0.5-0.5
			C21.4,50.6,21.1,50.3,20.8,50.3z"/>
		<path class="st0" d="M17.9,50.3c-0.3,0-0.5,0.2-0.5,0.5c0,0.3,0.2,0.5,0.5,0.5s0.5-0.2,0.5-0.5C18.5,50.6,18.2,50.3,17.9,50.3z"/>
		<path class="st0" d="M15,50.3c-0.3,0-0.5,0.2-0.5,0.5c0,0.3,0.2,0.5,0.5,0.5c0.3,0,0.5-0.2,0.5-0.5C15.6,50.6,15.3,50.3,15,50.3z"
			/>
		<path class="st0" d="M12.1,50.3c-0.3,0-0.5,0.2-0.5,0.5c0,0.3,0.2,0.5,0.5,0.5c0.3,0,0.5-0.2,0.5-0.5
			C12.7,50.6,12.4,50.3,12.1,50.3z"/>
		<path class="st0" d="M9.2,50.3c-0.3,0-0.5,0.2-0.5,0.5c0,0.3,0.2,0.5,0.5,0.5c0.3,0,0.5-0.2,0.5-0.5C9.8,50.6,9.5,50.3,9.2,50.3z"
			/>
		<path class="st0" d="M23.7,47.5c-0.3,0-0.5,0.2-0.5,0.5s0.2,0.5,0.5,0.5c0.3,0,0.5-0.2,0.5-0.5S24,47.5,23.7,47.5z"/>
		<path class="st0" d="M20.8,47.5c-0.3,0-0.5,0.2-0.5,0.5s0.2,0.5,0.5,0.5c0.3,0,0.5-0.2,0.5-0.5S21.1,47.5,20.8,47.5z"/>
		<path class="st0" d="M17.9,47.5c-0.3,0-0.5,0.2-0.5,0.5s0.2,0.5,0.5,0.5s0.5-0.2,0.5-0.5S18.2,47.5,17.9,47.5z"/>
		<path class="st0" d="M15,47.5c-0.3,0-0.5,0.2-0.5,0.5s0.2,0.5,0.5,0.5c0.3,0,0.5-0.2,0.5-0.5S15.3,47.5,15,47.5z"/>
		<path class="st0" d="M12.1,47.5c-0.3,0-0.5,0.2-0.5,0.5s0.2,0.5,0.5,0.5c0.3,0,0.5-0.2,0.5-0.5S12.4,47.5,12.1,47.5z"/>
		<path class="st0" d="M9.2,47.5c-0.3,0-0.5,0.2-0.5,0.5s0.2,0.5,0.5,0.5c0.3,0,0.5-0.2,0.5-0.5S9.5,47.5,9.2,47.5z"/>
		<path class="st0" d="M26.6,44.6c-0.3,0-0.5,0.2-0.5,0.5c0,0.3,0.2,0.5,0.5,0.5c0.3,0,0.5-0.2,0.5-0.5
			C27.2,44.8,26.9,44.6,26.6,44.6z"/>
		<path class="st0" d="M23.7,44.6c-0.3,0-0.5,0.2-0.5,0.5c0,0.3,0.2,0.5,0.5,0.5c0.3,0,0.5-0.2,0.5-0.5C24.3,44.8,24,44.6,23.7,44.6
			z"/>
		<path class="st0" d="M20.8,44.6c-0.3,0-0.5,0.2-0.5,0.5c0,0.3,0.2,0.5,0.5,0.5c0.3,0,0.5-0.2,0.5-0.5
			C21.4,44.8,21.1,44.6,20.8,44.6z"/>
		<path class="st0" d="M17.9,44.6c-0.3,0-0.5,0.2-0.5,0.5c0,0.3,0.2,0.5,0.5,0.5s0.5-0.2,0.5-0.5C18.5,44.8,18.2,44.6,17.9,44.6z"/>
		<path class="st0" d="M15,44.6c-0.3,0-0.5,0.2-0.5,0.5c0,0.3,0.2,0.5,0.5,0.5c0.3,0,0.5-0.2,0.5-0.5C15.6,44.8,15.3,44.6,15,44.6z"
			/>
		<path class="st0" d="M12.1,44.6c-0.3,0-0.5,0.2-0.5,0.5c0,0.3,0.2,0.5,0.5,0.5c0.3,0,0.5-0.2,0.5-0.5
			C12.7,44.8,12.4,44.6,12.1,44.6z"/>
		<path class="st0" d="M9.2,44.6c-0.3,0-0.5,0.2-0.5,0.5c0,0.3,0.2,0.5,0.5,0.5c0.3,0,0.5-0.2,0.5-0.5C9.8,44.8,9.5,44.6,9.2,44.6z"
			/>
		<path class="st0" d="M29.5,41.7c-0.3,0-0.5,0.2-0.5,0.5c0,0.3,0.2,0.5,0.5,0.5c0.3,0,0.5-0.2,0.5-0.5C30,41.9,29.8,41.7,29.5,41.7
			z"/>
		<path class="st0" d="M26.6,41.7c-0.3,0-0.5,0.2-0.5,0.5c0,0.3,0.2,0.5,0.5,0.5c0.3,0,0.5-0.2,0.5-0.5
			C27.2,41.9,26.9,41.7,26.6,41.7z"/>
		<path class="st0" d="M23.7,41.7c-0.3,0-0.5,0.2-0.5,0.5c0,0.3,0.2,0.5,0.5,0.5c0.3,0,0.5-0.2,0.5-0.5C24.3,41.9,24,41.7,23.7,41.7
			z"/>
		<path class="st0" d="M20.8,41.7c-0.3,0-0.5,0.2-0.5,0.5c0,0.3,0.2,0.5,0.5,0.5c0.3,0,0.5-0.2,0.5-0.5
			C21.4,41.9,21.1,41.7,20.8,41.7z"/>
		<path class="st0" d="M17.9,41.7c-0.3,0-0.5,0.2-0.5,0.5c0,0.3,0.2,0.5,0.5,0.5s0.5-0.2,0.5-0.5C18.5,41.9,18.2,41.7,17.9,41.7z"/>
		<path class="st0" d="M15,41.7c-0.3,0-0.5,0.2-0.5,0.5c0,0.3,0.2,0.5,0.5,0.5c0.3,0,0.5-0.2,0.5-0.5C15.6,41.9,15.3,41.7,15,41.7z"
			/>
		<path class="st0" d="M12.1,41.7c-0.3,0-0.5,0.2-0.5,0.5c0,0.3,0.2,0.5,0.5,0.5c0.3,0,0.5-0.2,0.5-0.5
			C12.7,41.9,12.4,41.7,12.1,41.7z"/>
		<path class="st0" d="M9.2,41.7c-0.3,0-0.5,0.2-0.5,0.5c0,0.3,0.2,0.5,0.5,0.5c0.3,0,0.5-0.2,0.5-0.5C9.8,41.9,9.5,41.7,9.2,41.7z"
			/>
		<path class="st0" d="M32.4,38.8c-0.3,0-0.5,0.2-0.5,0.5c0,0.3,0.2,0.5,0.5,0.5c0.3,0,0.5-0.2,0.5-0.5C32.9,39,32.7,38.8,32.4,38.8
			z"/>
		<path class="st0" d="M29.5,38.8c-0.3,0-0.5,0.2-0.5,0.5c0,0.3,0.2,0.5,0.5,0.5c0.3,0,0.5-0.2,0.5-0.5C30,39,29.8,38.8,29.5,38.8z"
			/>
		<path class="st0" d="M26.6,38.8c-0.3,0-0.5,0.2-0.5,0.5c0,0.3,0.2,0.5,0.5,0.5c0.3,0,0.5-0.2,0.5-0.5C27.2,39,26.9,38.8,26.6,38.8
			z"/>
		<path class="st0" d="M23.7,38.8c-0.3,0-0.5,0.2-0.5,0.5c0,0.3,0.2,0.5,0.5,0.5c0.3,0,0.5-0.2,0.5-0.5C24.3,39,24,38.8,23.7,38.8z"
			/>
		<path class="st0" d="M20.8,38.8c-0.3,0-0.5,0.2-0.5,0.5c0,0.3,0.2,0.5,0.5,0.5c0.3,0,0.5-0.2,0.5-0.5C21.4,39,21.1,38.8,20.8,38.8
			z"/>
		<path class="st0" d="M17.9,38.8c-0.3,0-0.5,0.2-0.5,0.5c0,0.3,0.2,0.5,0.5,0.5s0.5-0.2,0.5-0.5C18.5,39,18.2,38.8,17.9,38.8z"/>
		<path class="st0" d="M15,38.8c-0.3,0-0.5,0.2-0.5,0.5c0,0.3,0.2,0.5,0.5,0.5c0.3,0,0.5-0.2,0.5-0.5C15.6,39,15.3,38.8,15,38.8z"/>
		<path class="st0" d="M12.1,38.8c-0.3,0-0.5,0.2-0.5,0.5c0,0.3,0.2,0.5,0.5,0.5c0.3,0,0.5-0.2,0.5-0.5C12.7,39,12.4,38.8,12.1,38.8
			z"/>
		<path class="st0" d="M9.2,38.8c-0.3,0-0.5,0.2-0.5,0.5c0,0.3,0.2,0.5,0.5,0.5c0.3,0,0.5-0.2,0.5-0.5C9.8,39,9.5,38.8,9.2,38.8z"/>
		<path class="st0" d="M35.3,35.9c-0.3,0-0.5,0.2-0.5,0.5c0,0.3,0.2,0.5,0.5,0.5s0.5-0.2,0.5-0.5C35.8,36.1,35.6,35.9,35.3,35.9z"/>
		<path class="st0" d="M32.4,35.9c-0.3,0-0.5,0.2-0.5,0.5c0,0.3,0.2,0.5,0.5,0.5c0.3,0,0.5-0.2,0.5-0.5
			C32.9,36.1,32.7,35.9,32.4,35.9z"/>
		<path class="st0" d="M29.5,35.9c-0.3,0-0.5,0.2-0.5,0.5c0,0.3,0.2,0.5,0.5,0.5c0.3,0,0.5-0.2,0.5-0.5C30,36.1,29.8,35.9,29.5,35.9
			z"/>
		<path class="st0" d="M26.6,35.9c-0.3,0-0.5,0.2-0.5,0.5c0,0.3,0.2,0.5,0.5,0.5c0.3,0,0.5-0.2,0.5-0.5
			C27.2,36.1,26.9,35.9,26.6,35.9z"/>
		<path class="st0" d="M23.7,35.9c-0.3,0-0.5,0.2-0.5,0.5c0,0.3,0.2,0.5,0.5,0.5c0.3,0,0.5-0.2,0.5-0.5C24.3,36.1,24,35.9,23.7,35.9
			z"/>
		<path class="st0" d="M20.8,35.9c-0.3,0-0.5,0.2-0.5,0.5c0,0.3,0.2,0.5,0.5,0.5c0.3,0,0.5-0.2,0.5-0.5
			C21.4,36.1,21.1,35.9,20.8,35.9z"/>
		<path class="st0" d="M17.9,35.9c-0.3,0-0.5,0.2-0.5,0.5c0,0.3,0.2,0.5,0.5,0.5s0.5-0.2,0.5-0.5C18.5,36.1,18.2,35.9,17.9,35.9z"/>
		<path class="st0" d="M15,35.9c-0.3,0-0.5,0.2-0.5,0.5c0,0.3,0.2,0.5,0.5,0.5c0.3,0,0.5-0.2,0.5-0.5C15.6,36.1,15.3,35.9,15,35.9z"
			/>
		<path class="st0" d="M12.1,35.9c-0.3,0-0.5,0.2-0.5,0.5c0,0.3,0.2,0.5,0.5,0.5c0.3,0,0.5-0.2,0.5-0.5
			C12.7,36.1,12.4,35.9,12.1,35.9z"/>
		<path class="st0" d="M9.2,35.9c-0.3,0-0.5,0.2-0.5,0.5c0,0.3,0.2,0.5,0.5,0.5c0.3,0,0.5-0.2,0.5-0.5C9.8,36.1,9.5,35.9,9.2,35.9z"
			/>
		<path class="st0" d="M38.2,33c-0.3,0-0.5,0.2-0.5,0.5c0,0.3,0.2,0.5,0.5,0.5c0.3,0,0.5-0.2,0.5-0.5C38.7,33.2,38.5,33,38.2,33z"/>
		<path class="st0" d="M35.3,33c-0.3,0-0.5,0.2-0.5,0.5c0,0.3,0.2,0.5,0.5,0.5s0.5-0.2,0.5-0.5C35.8,33.2,35.6,33,35.3,33z"/>
		<path class="st0" d="M32.4,33c-0.3,0-0.5,0.2-0.5,0.5c0,0.3,0.2,0.5,0.5,0.5c0.3,0,0.5-0.2,0.5-0.5C32.9,33.2,32.7,33,32.4,33z"/>
		<path class="st0" d="M29.5,33c-0.3,0-0.5,0.2-0.5,0.5c0,0.3,0.2,0.5,0.5,0.5c0.3,0,0.5-0.2,0.5-0.5C30,33.2,29.8,33,29.5,33z"/>
		<path class="st0" d="M26.6,33c-0.3,0-0.5,0.2-0.5,0.5c0,0.3,0.2,0.5,0.5,0.5c0.3,0,0.5-0.2,0.5-0.5C27.2,33.2,26.9,33,26.6,33z"/>
		<path class="st0" d="M23.7,33c-0.3,0-0.5,0.2-0.5,0.5c0,0.3,0.2,0.5,0.5,0.5c0.3,0,0.5-0.2,0.5-0.5C24.3,33.2,24,33,23.7,33z"/>
		<path class="st0" d="M20.8,33c-0.3,0-0.5,0.2-0.5,0.5c0,0.3,0.2,0.5,0.5,0.5c0.3,0,0.5-0.2,0.5-0.5C21.4,33.2,21.1,33,20.8,33z"/>
		<path class="st0" d="M17.9,33c-0.3,0-0.5,0.2-0.5,0.5c0,0.3,0.2,0.5,0.5,0.5s0.5-0.2,0.5-0.5C18.5,33.2,18.2,33,17.9,33z"/>
		<path class="st0" d="M15,33c-0.3,0-0.5,0.2-0.5,0.5c0,0.3,0.2,0.5,0.5,0.5c0.3,0,0.5-0.2,0.5-0.5C15.6,33.2,15.3,33,15,33z"/>
		<path class="st0" d="M12.1,33c-0.3,0-0.5,0.2-0.5,0.5c0,0.3,0.2,0.5,0.5,0.5c0.3,0,0.5-0.2,0.5-0.5C12.7,33.2,12.4,33,12.1,33z"/>
		<path class="st0" d="M9.2,33c-0.3,0-0.5,0.2-0.5,0.5c0,0.3,0.2,0.5,0.5,0.5c0.3,0,0.5-0.2,0.5-0.5C9.8,33.2,9.5,33,9.2,33z"/>
		<circle class="st0" cx="41.1" cy="30.6" r="0.5"/>
		<path class="st0" d="M38.2,30.1c-0.3,0-0.5,0.2-0.5,0.5c0,0.3,0.2,0.5,0.5,0.5c0.3,0,0.5-0.2,0.5-0.5
			C38.7,30.3,38.5,30.1,38.2,30.1z"/>
		<circle class="st0" cx="35.3" cy="30.6" r="0.5"/>
		<path class="st0" d="M32.4,30.1c-0.3,0-0.5,0.2-0.5,0.5c0,0.3,0.2,0.5,0.5,0.5c0.3,0,0.5-0.2,0.5-0.5
			C32.9,30.3,32.7,30.1,32.4,30.1z"/>
		<circle class="st0" cx="29.5" cy="30.6" r="0.5"/>
		<path class="st0" d="M26.6,30.1c-0.3,0-0.5,0.2-0.5,0.5c0,0.3,0.2,0.5,0.5,0.5c0.3,0,0.5-0.2,0.5-0.5
			C27.2,30.3,26.9,30.1,26.6,30.1z"/>
		<circle class="st0" cx="23.7" cy="30.6" r="0.5"/>
		<path class="st0" d="M20.8,30.1c-0.3,0-0.5,0.2-0.5,0.5c0,0.3,0.2,0.5,0.5,0.5c0.3,0,0.5-0.2,0.5-0.5
			C21.4,30.3,21.1,30.1,20.8,30.1z"/>
		<circle class="st0" cx="17.9" cy="30.6" r="0.5"/>
		<path class="st0" d="M15,30.1c-0.3,0-0.5,0.2-0.5,0.5c0,0.3,0.2,0.5,0.5,0.5c0.3,0,0.5-0.2,0.5-0.5C15.6,30.3,15.3,30.1,15,30.1z"
			/>
		<circle class="st0" cx="12.1" cy="30.6" r="0.5"/>
		<path class="st0" d="M9.2,30.1c-0.3,0-0.5,0.2-0.5,0.5c0,0.3,0.2,0.5,0.5,0.5c0.3,0,0.5-0.2,0.5-0.5C9.8,30.3,9.5,30.1,9.2,30.1z"
			/>
		<path class="st0" d="M44,27.2c-0.3,0-0.5,0.2-0.5,0.5c0,0.3,0.2,0.5,0.5,0.5c0.3,0,0.5-0.2,0.5-0.5C44.5,27.4,44.3,27.2,44,27.2z"
			/>
		<path class="st0" d="M41.1,27.2c-0.3,0-0.5,0.2-0.5,0.5c0,0.3,0.2,0.5,0.5,0.5s0.5-0.2,0.5-0.5C41.6,27.4,41.4,27.2,41.1,27.2z"/>
		<path class="st0" d="M38.2,27.2c-0.3,0-0.5,0.2-0.5,0.5c0,0.3,0.2,0.5,0.5,0.5c0.3,0,0.5-0.2,0.5-0.5
			C38.7,27.4,38.5,27.2,38.2,27.2z"/>
		<path class="st0" d="M35.3,27.2c-0.3,0-0.5,0.2-0.5,0.5c0,0.3,0.2,0.5,0.5,0.5s0.5-0.2,0.5-0.5C35.8,27.4,35.6,27.2,35.3,27.2z"/>
		<path class="st0" d="M32.4,27.2c-0.3,0-0.5,0.2-0.5,0.5c0,0.3,0.2,0.5,0.5,0.5c0.3,0,0.5-0.2,0.5-0.5
			C32.9,27.4,32.7,27.2,32.4,27.2z"/>
		<path class="st0" d="M29.5,27.2c-0.3,0-0.5,0.2-0.5,0.5c0,0.3,0.2,0.5,0.5,0.5c0.3,0,0.5-0.2,0.5-0.5C30,27.4,29.8,27.2,29.5,27.2
			z"/>
		<path class="st0" d="M26.6,27.2c-0.3,0-0.5,0.2-0.5,0.5c0,0.3,0.2,0.5,0.5,0.5c0.3,0,0.5-0.2,0.5-0.5
			C27.2,27.4,26.9,27.2,26.6,27.2z"/>
		<path class="st0" d="M23.7,27.2c-0.3,0-0.5,0.2-0.5,0.5c0,0.3,0.2,0.5,0.5,0.5c0.3,0,0.5-0.2,0.5-0.5C24.3,27.4,24,27.2,23.7,27.2
			z"/>
		<path class="st0" d="M20.8,27.2c-0.3,0-0.5,0.2-0.5,0.5c0,0.3,0.2,0.5,0.5,0.5c0.3,0,0.5-0.2,0.5-0.5
			C21.4,27.4,21.1,27.2,20.8,27.2z"/>
		<path class="st0" d="M17.9,27.2c-0.3,0-0.5,0.2-0.5,0.5c0,0.3,0.2,0.5,0.5,0.5s0.5-0.2,0.5-0.5C18.5,27.4,18.2,27.2,17.9,27.2z"/>
		<path class="st0" d="M15,27.2c-0.3,0-0.5,0.2-0.5,0.5c0,0.3,0.2,0.5,0.5,0.5c0.3,0,0.5-0.2,0.5-0.5C15.6,27.4,15.3,27.2,15,27.2z"
			/>
		<path class="st0" d="M12.1,27.2c-0.3,0-0.5,0.2-0.5,0.5c0,0.3,0.2,0.5,0.5,0.5c0.3,0,0.5-0.2,0.5-0.5
			C12.7,27.4,12.4,27.2,12.1,27.2z"/>
		<path class="st0" d="M9.2,27.2c-0.3,0-0.5,0.2-0.5,0.5c0,0.3,0.2,0.5,0.5,0.5c0.3,0,0.5-0.2,0.5-0.5C9.8,27.4,9.5,27.2,9.2,27.2z"
			/>
		<circle class="st0" cx="46.9" cy="24.8" r="0.5"/>
		<path class="st0" d="M44,24.3c-0.3,0-0.5,0.2-0.5,0.5c0,0.3,0.2,0.5,0.5,0.5c0.3,0,0.5-0.2,0.5-0.5C44.5,24.5,44.3,24.3,44,24.3z"
			/>
		<circle class="st0" cx="41.1" cy="24.8" r="0.5"/>
		<path class="st0" d="M38.2,24.3c-0.3,0-0.5,0.2-0.5,0.5c0,0.3,0.2,0.5,0.5,0.5c0.3,0,0.5-0.2,0.5-0.5
			C38.7,24.5,38.5,24.3,38.2,24.3z"/>
		<circle class="st0" cx="35.3" cy="24.8" r="0.5"/>
		<path class="st0" d="M32.4,24.3c-0.3,0-0.5,0.2-0.5,0.5c0,0.3,0.2,0.5,0.5,0.5c0.3,0,0.5-0.2,0.5-0.5
			C32.9,24.5,32.7,24.3,32.4,24.3z"/>
		<circle class="st0" cx="29.5" cy="24.8" r="0.5"/>
		<path class="st0" d="M26.6,24.3c-0.3,0-0.5,0.2-0.5,0.5c0,0.3,0.2,0.5,0.5,0.5c0.3,0,0.5-0.2,0.5-0.5
			C27.2,24.5,26.9,24.3,26.6,24.3z"/>
		<circle class="st0" cx="23.7" cy="24.8" r="0.5"/>
		<path class="st0" d="M20.8,24.3c-0.3,0-0.5,0.2-0.5,0.5c0,0.3,0.2,0.5,0.5,0.5c0.3,0,0.5-0.2,0.5-0.5
			C21.4,24.5,21.1,24.3,20.8,24.3z"/>
		<circle class="st0" cx="17.9" cy="24.8" r="0.5"/>
		<path class="st0" d="M15,24.3c-0.3,0-0.5,0.2-0.5,0.5c0,0.3,0.2,0.5,0.5,0.5c0.3,0,0.5-0.2,0.5-0.5C15.6,24.5,15.3,24.3,15,24.3z"
			/>
		<circle class="st0" cx="12.1" cy="24.8" r="0.5"/>
		<path class="st0" d="M9.2,24.3c-0.3,0-0.5,0.2-0.5,0.5c0,0.3,0.2,0.5,0.5,0.5c0.3,0,0.5-0.2,0.5-0.5C9.8,24.5,9.5,24.3,9.2,24.3z"
			/>
		<path class="st0" d="M49.8,21.4c-0.3,0-0.5,0.2-0.5,0.5c0,0.3,0.2,0.5,0.5,0.5c0.3,0,0.5-0.2,0.5-0.5
			C50.3,21.7,50.1,21.4,49.8,21.4z"/>
		<path class="st0" d="M46.9,21.4c-0.3,0-0.5,0.2-0.5,0.5c0,0.3,0.2,0.5,0.5,0.5c0.3,0,0.5-0.2,0.5-0.5
			C47.4,21.7,47.2,21.4,46.9,21.4z"/>
		<path class="st0" d="M44,21.4c-0.3,0-0.5,0.2-0.5,0.5c0,0.3,0.2,0.5,0.5,0.5c0.3,0,0.5-0.2,0.5-0.5C44.5,21.7,44.3,21.4,44,21.4z"
			/>
		<path class="st0" d="M41.1,21.4c-0.3,0-0.5,0.2-0.5,0.5c0,0.3,0.2,0.5,0.5,0.5s0.5-0.2,0.5-0.5C41.6,21.7,41.4,21.4,41.1,21.4z"/>
		<path class="st0" d="M38.2,21.4c-0.3,0-0.5,0.2-0.5,0.5c0,0.3,0.2,0.5,0.5,0.5c0.3,0,0.5-0.2,0.5-0.5
			C38.7,21.7,38.5,21.4,38.2,21.4z"/>
		<path class="st0" d="M35.3,21.4c-0.3,0-0.5,0.2-0.5,0.5c0,0.3,0.2,0.5,0.5,0.5s0.5-0.2,0.5-0.5C35.8,21.7,35.6,21.4,35.3,21.4z"/>
		<path class="st0" d="M32.4,21.4c-0.3,0-0.5,0.2-0.5,0.5c0,0.3,0.2,0.5,0.5,0.5c0.3,0,0.5-0.2,0.5-0.5
			C32.9,21.7,32.7,21.4,32.4,21.4z"/>
		<path class="st0" d="M29.5,21.4c-0.3,0-0.5,0.2-0.5,0.5c0,0.3,0.2,0.5,0.5,0.5c0.3,0,0.5-0.2,0.5-0.5C30,21.7,29.8,21.4,29.5,21.4
			z"/>
		<path class="st0" d="M26.6,21.4c-0.3,0-0.5,0.2-0.5,0.5c0,0.3,0.2,0.5,0.5,0.5c0.3,0,0.5-0.2,0.5-0.5
			C27.2,21.7,26.9,21.4,26.6,21.4z"/>
		<path class="st0" d="M23.7,21.4c-0.3,0-0.5,0.2-0.5,0.5c0,0.3,0.2,0.5,0.5,0.5c0.3,0,0.5-0.2,0.5-0.5C24.3,21.7,24,21.4,23.7,21.4
			z"/>
		<path class="st0" d="M20.8,21.4c-0.3,0-0.5,0.2-0.5,0.5c0,0.3,0.2,0.5,0.5,0.5c0.3,0,0.5-0.2,0.5-0.5
			C21.4,21.7,21.1,21.4,20.8,21.4z"/>
		<path class="st0" d="M17.9,21.4c-0.3,0-0.5,0.2-0.5,0.5c0,0.3,0.2,0.5,0.5,0.5s0.5-0.2,0.5-0.5C18.5,21.7,18.2,21.4,17.9,21.4z"/>
		<path class="st0" d="M15,21.4c-0.3,0-0.5,0.2-0.5,0.5c0,0.3,0.2,0.5,0.5,0.5c0.3,0,0.5-0.2,0.5-0.5C15.6,21.7,15.3,21.4,15,21.4z"
			/>
		<path class="st0" d="M12.1,21.4c-0.3,0-0.5,0.2-0.5,0.5c0,0.3,0.2,0.5,0.5,0.5c0.3,0,0.5-0.2,0.5-0.5
			C12.7,21.7,12.4,21.4,12.1,21.4z"/>
		<path class="st0" d="M9.2,21.4c-0.3,0-0.5,0.2-0.5,0.5c0,0.3,0.2,0.5,0.5,0.5c0.3,0,0.5-0.2,0.5-0.5C9.8,21.7,9.5,21.4,9.2,21.4z"
			/>
		<circle class="st0" cx="52.7" cy="19.1" r="0.5"/>
		<path class="st0" d="M49.8,18.5c-0.3,0-0.5,0.2-0.5,0.5c0,0.3,0.2,0.5,0.5,0.5c0.3,0,0.5-0.2,0.5-0.5
			C50.3,18.8,50.1,18.5,49.8,18.5z"/>
		<circle class="st0" cx="46.9" cy="19.1" r="0.5"/>
		<path class="st0" d="M44,18.5c-0.3,0-0.5,0.2-0.5,0.5c0,0.3,0.2,0.5,0.5,0.5c0.3,0,0.5-0.2,0.5-0.5C44.5,18.8,44.3,18.5,44,18.5z"
			/>
		<circle class="st0" cx="41.1" cy="19.1" r="0.5"/>
		<path class="st0" d="M38.2,18.5c-0.3,0-0.5,0.2-0.5,0.5c0,0.3,0.2,0.5,0.5,0.5c0.3,0,0.5-0.2,0.5-0.5
			C38.7,18.8,38.5,18.5,38.2,18.5z"/>
		<circle class="st0" cx="35.3" cy="19.1" r="0.5"/>
		<path class="st0" d="M32.4,18.5c-0.3,0-0.5,0.2-0.5,0.5c0,0.3,0.2,0.5,0.5,0.5c0.3,0,0.5-0.2,0.5-0.5
			C32.9,18.8,32.7,18.5,32.4,18.5z"/>
		<circle class="st0" cx="29.5" cy="19.1" r="0.5"/>
		<path class="st0" d="M26.6,18.5c-0.3,0-0.5,0.2-0.5,0.5c0,0.3,0.2,0.5,0.5,0.5c0.3,0,0.5-0.2,0.5-0.5
			C27.2,18.8,26.9,18.5,26.6,18.5z"/>
		<circle class="st0" cx="23.7" cy="19.1" r="0.5"/>
		<path class="st0" d="M20.8,18.5c-0.3,0-0.5,0.2-0.5,0.5c0,0.3,0.2,0.5,0.5,0.5c0.3,0,0.5-0.2,0.5-0.5
			C21.4,18.8,21.1,18.5,20.8,18.5z"/>
		<circle class="st0" cx="17.9" cy="19.1" r="0.5"/>
		<path class="st0" d="M15,18.5c-0.3,0-0.5,0.2-0.5,0.5c0,0.3,0.2,0.5,0.5,0.5c0.3,0,0.5-0.2,0.5-0.5C15.6,18.8,15.3,18.5,15,18.5z"
			/>
		<circle class="st0" cx="12.1" cy="19.1" r="0.5"/>
		<path class="st0" d="M9.2,18.5c-0.3,0-0.5,0.2-0.5,0.5c0,0.3,0.2,0.5,0.5,0.5c0.3,0,0.5-0.2,0.5-0.5C9.8,18.8,9.5,18.5,9.2,18.5z"
			/>
		<path class="st0" d="M55.5,15.6c-0.3,0-0.5,0.2-0.5,0.5c0,0.3,0.2,0.5,0.5,0.5c0.3,0,0.5-0.2,0.5-0.5
			C56.1,15.9,55.8,15.6,55.5,15.6z"/>
		<path class="st0" d="M52.7,15.6c-0.3,0-0.5,0.2-0.5,0.5c0,0.3,0.2,0.5,0.5,0.5c0.3,0,0.5-0.2,0.5-0.5C53.2,15.9,53,15.6,52.7,15.6
			z"/>
		<path class="st0" d="M49.8,15.6c-0.3,0-0.5,0.2-0.5,0.5c0,0.3,0.2,0.5,0.5,0.5c0.3,0,0.5-0.2,0.5-0.5
			C50.3,15.9,50.1,15.6,49.8,15.6z"/>
		<path class="st0" d="M46.9,15.6c-0.3,0-0.5,0.2-0.5,0.5c0,0.3,0.2,0.5,0.5,0.5c0.3,0,0.5-0.2,0.5-0.5
			C47.4,15.9,47.2,15.6,46.9,15.6z"/>
		<path class="st0" d="M44,15.6c-0.3,0-0.5,0.2-0.5,0.5c0,0.3,0.2,0.5,0.5,0.5c0.3,0,0.5-0.2,0.5-0.5C44.5,15.9,44.3,15.6,44,15.6z"
			/>
		<path class="st0" d="M41.1,15.6c-0.3,0-0.5,0.2-0.5,0.5c0,0.3,0.2,0.5,0.5,0.5s0.5-0.2,0.5-0.5C41.6,15.9,41.4,15.6,41.1,15.6z"/>
		<path class="st0" d="M38.2,15.6c-0.3,0-0.5,0.2-0.5,0.5c0,0.3,0.2,0.5,0.5,0.5c0.3,0,0.5-0.2,0.5-0.5
			C38.7,15.9,38.5,15.6,38.2,15.6z"/>
		<path class="st0" d="M35.3,15.6c-0.3,0-0.5,0.2-0.5,0.5c0,0.3,0.2,0.5,0.5,0.5s0.5-0.2,0.5-0.5C35.8,15.9,35.6,15.6,35.3,15.6z"/>
		<path class="st0" d="M32.4,15.6c-0.3,0-0.5,0.2-0.5,0.5c0,0.3,0.2,0.5,0.5,0.5c0.3,0,0.5-0.2,0.5-0.5
			C32.9,15.9,32.7,15.6,32.4,15.6z"/>
		<path class="st0" d="M29.5,15.6c-0.3,0-0.5,0.2-0.5,0.5c0,0.3,0.2,0.5,0.5,0.5c0.3,0,0.5-0.2,0.5-0.5C30,15.9,29.8,15.6,29.5,15.6
			z"/>
		<path class="st0" d="M26.6,15.6c-0.3,0-0.5,0.2-0.5,0.5c0,0.3,0.2,0.5,0.5,0.5c0.3,0,0.5-0.2,0.5-0.5
			C27.2,15.9,26.9,15.6,26.6,15.6z"/>
		<path class="st0" d="M23.7,15.6c-0.3,0-0.5,0.2-0.5,0.5c0,0.3,0.2,0.5,0.5,0.5c0.3,0,0.5-0.2,0.5-0.5C24.3,15.9,24,15.6,23.7,15.6
			z"/>
		<path class="st0" d="M20.8,15.6c-0.3,0-0.5,0.2-0.5,0.5c0,0.3,0.2,0.5,0.5,0.5c0.3,0,0.5-0.2,0.5-0.5
			C21.4,15.9,21.1,15.6,20.8,15.6z"/>
		<path class="st0" d="M17.9,15.6c-0.3,0-0.5,0.2-0.5,0.5c0,0.3,0.2,0.5,0.5,0.5s0.5-0.2,0.5-0.5C18.5,15.9,18.2,15.6,17.9,15.6z"/>
		<path class="st0" d="M15,15.6c-0.3,0-0.5,0.2-0.5,0.5c0,0.3,0.2,0.5,0.5,0.5c0.3,0,0.5-0.2,0.5-0.5C15.6,15.9,15.3,15.6,15,15.6z"
			/>
		<path class="st0" d="M12.1,15.6c-0.3,0-0.5,0.2-0.5,0.5c0,0.3,0.2,0.5,0.5,0.5c0.3,0,0.5-0.2,0.5-0.5
			C12.7,15.9,12.4,15.6,12.1,15.6z"/>
		<path class="st0" d="M9.2,15.6c-0.3,0-0.5,0.2-0.5,0.5c0,0.3,0.2,0.5,0.5,0.5c0.3,0,0.5-0.2,0.5-0.5C9.8,15.9,9.5,15.6,9.2,15.6z"
			/>
		<path class="st0" d="M58.4,12.7c-0.3,0-0.5,0.2-0.5,0.5c0,0.3,0.2,0.5,0.5,0.5s0.5-0.2,0.5-0.5C59,13,58.7,12.7,58.4,12.7z"/>
		<path class="st0" d="M55.5,12.7c-0.3,0-0.5,0.2-0.5,0.5c0,0.3,0.2,0.5,0.5,0.5c0.3,0,0.5-0.2,0.5-0.5C56.1,13,55.8,12.7,55.5,12.7
			z"/>
		<path class="st0" d="M52.7,12.7c-0.3,0-0.5,0.2-0.5,0.5c0,0.3,0.2,0.5,0.5,0.5c0.3,0,0.5-0.2,0.5-0.5C53.2,13,53,12.7,52.7,12.7z"
			/>
		<path class="st0" d="M49.8,12.7c-0.3,0-0.5,0.2-0.5,0.5c0,0.3,0.2,0.5,0.5,0.5c0.3,0,0.5-0.2,0.5-0.5C50.3,13,50.1,12.7,49.8,12.7
			z"/>
		<path class="st0" d="M46.9,12.7c-0.3,0-0.5,0.2-0.5,0.5c0,0.3,0.2,0.5,0.5,0.5c0.3,0,0.5-0.2,0.5-0.5C47.4,13,47.2,12.7,46.9,12.7
			z"/>
		<path class="st0" d="M44,12.7c-0.3,0-0.5,0.2-0.5,0.5c0,0.3,0.2,0.5,0.5,0.5c0.3,0,0.5-0.2,0.5-0.5C44.5,13,44.3,12.7,44,12.7z"/>
		<path class="st0" d="M41.1,12.7c-0.3,0-0.5,0.2-0.5,0.5c0,0.3,0.2,0.5,0.5,0.5s0.5-0.2,0.5-0.5C41.6,13,41.4,12.7,41.1,12.7z"/>
		<path class="st0" d="M38.2,12.7c-0.3,0-0.5,0.2-0.5,0.5c0,0.3,0.2,0.5,0.5,0.5c0.3,0,0.5-0.2,0.5-0.5C38.7,13,38.5,12.7,38.2,12.7
			z"/>
		<path class="st0" d="M35.3,12.7c-0.3,0-0.5,0.2-0.5,0.5c0,0.3,0.2,0.5,0.5,0.5s0.5-0.2,0.5-0.5C35.8,13,35.6,12.7,35.3,12.7z"/>
		<path class="st0" d="M32.4,12.7c-0.3,0-0.5,0.2-0.5,0.5c0,0.3,0.2,0.5,0.5,0.5c0.3,0,0.5-0.2,0.5-0.5C32.9,13,32.7,12.7,32.4,12.7
			z"/>
		<path class="st0" d="M29.5,12.7c-0.3,0-0.5,0.2-0.5,0.5c0,0.3,0.2,0.5,0.5,0.5c0.3,0,0.5-0.2,0.5-0.5C30,13,29.8,12.7,29.5,12.7z"
			/>
		<path class="st0" d="M26.6,12.7c-0.3,0-0.5,0.2-0.5,0.5c0,0.3,0.2,0.5,0.5,0.5c0.3,0,0.5-0.2,0.5-0.5C27.2,13,26.9,12.7,26.6,12.7
			z"/>
		<path class="st0" d="M23.7,12.7c-0.3,0-0.5,0.2-0.5,0.5c0,0.3,0.2,0.5,0.5,0.5c0.3,0,0.5-0.2,0.5-0.5C24.3,13,24,12.7,23.7,12.7z"
			/>
		<path class="st0" d="M20.8,12.7c-0.3,0-0.5,0.2-0.5,0.5c0,0.3,0.2,0.5,0.5,0.5c0.3,0,0.5-0.2,0.5-0.5C21.4,13,21.1,12.7,20.8,12.7
			z"/>
		<path class="st0" d="M17.9,12.7c-0.3,0-0.5,0.2-0.5,0.5c0,0.3,0.2,0.5,0.5,0.5s0.5-0.2,0.5-0.5C18.5,13,18.2,12.7,17.9,12.7z"/>
		<path class="st0" d="M15,12.7c-0.3,0-0.5,0.2-0.5,0.5c0,0.3,0.2,0.5,0.5,0.5c0.3,0,0.5-0.2,0.5-0.5C15.6,13,15.3,12.7,15,12.7z"/>
		<path class="st0" d="M12.1,12.7c-0.3,0-0.5,0.2-0.5,0.5c0,0.3,0.2,0.5,0.5,0.5c0.3,0,0.5-0.2,0.5-0.5C12.7,13,12.4,12.7,12.1,12.7
			z"/>
		<path class="st0" d="M9.2,12.7c-0.3,0-0.5,0.2-0.5,0.5c0,0.3,0.2,0.5,0.5,0.5c0.3,0,0.5-0.2,0.5-0.5C9.8,13,9.5,12.7,9.2,12.7z"/>
		<path class="st0" d="M61.3,9.8c-0.3,0-0.5,0.2-0.5,0.5c0,0.3,0.2,0.5,0.5,0.5c0.3,0,0.5-0.2,0.5-0.5C61.9,10.1,61.6,9.8,61.3,9.8z
			"/>
		<path class="st0" d="M58.4,9.8c-0.3,0-0.5,0.2-0.5,0.5c0,0.3,0.2,0.5,0.5,0.5s0.5-0.2,0.5-0.5C59,10.1,58.7,9.8,58.4,9.8z"/>
		<path class="st0" d="M55.5,9.8c-0.3,0-0.5,0.2-0.5,0.5c0,0.3,0.2,0.5,0.5,0.5c0.3,0,0.5-0.2,0.5-0.5C56.1,10.1,55.8,9.8,55.5,9.8z
			"/>
		<path class="st0" d="M52.7,9.8c-0.3,0-0.5,0.2-0.5,0.5c0,0.3,0.2,0.5,0.5,0.5c0.3,0,0.5-0.2,0.5-0.5C53.2,10.1,53,9.8,52.7,9.8z"
			/>
		<path class="st0" d="M49.8,9.8c-0.3,0-0.5,0.2-0.5,0.5c0,0.3,0.2,0.5,0.5,0.5c0.3,0,0.5-0.2,0.5-0.5C50.3,10.1,50.1,9.8,49.8,9.8z
			"/>
		<path class="st0" d="M46.9,9.8c-0.3,0-0.5,0.2-0.5,0.5c0,0.3,0.2,0.5,0.5,0.5c0.3,0,0.5-0.2,0.5-0.5C47.4,10.1,47.2,9.8,46.9,9.8z
			"/>
		<path class="st0" d="M44,9.8c-0.3,0-0.5,0.2-0.5,0.5c0,0.3,0.2,0.5,0.5,0.5c0.3,0,0.5-0.2,0.5-0.5C44.5,10.1,44.3,9.8,44,9.8z"/>
		<path class="st0" d="M41.1,9.8c-0.3,0-0.5,0.2-0.5,0.5c0,0.3,0.2,0.5,0.5,0.5s0.5-0.2,0.5-0.5C41.6,10.1,41.4,9.8,41.1,9.8z"/>
		<path class="st0" d="M38.2,9.8c-0.3,0-0.5,0.2-0.5,0.5c0,0.3,0.2,0.5,0.5,0.5c0.3,0,0.5-0.2,0.5-0.5C38.7,10.1,38.5,9.8,38.2,9.8z
			"/>
		<path class="st0" d="M35.3,9.8c-0.3,0-0.5,0.2-0.5,0.5c0,0.3,0.2,0.5,0.5,0.5s0.5-0.2,0.5-0.5C35.8,10.1,35.6,9.8,35.3,9.8z"/>
		<path class="st0" d="M32.4,9.8c-0.3,0-0.5,0.2-0.5,0.5c0,0.3,0.2,0.5,0.5,0.5c0.3,0,0.5-0.2,0.5-0.5C32.9,10.1,32.7,9.8,32.4,9.8z
			"/>
		<path class="st0" d="M29.5,9.8c-0.3,0-0.5,0.2-0.5,0.5c0,0.3,0.2,0.5,0.5,0.5c0.3,0,0.5-0.2,0.5-0.5C30,10.1,29.8,9.8,29.5,9.8z"
			/>
		<path class="st0" d="M26.6,9.8c-0.3,0-0.5,0.2-0.5,0.5c0,0.3,0.2,0.5,0.5,0.5c0.3,0,0.5-0.2,0.5-0.5C27.2,10.1,26.9,9.8,26.6,9.8z
			"/>
		<path class="st0" d="M23.7,9.8c-0.3,0-0.5,0.2-0.5,0.5c0,0.3,0.2,0.5,0.5,0.5c0.3,0,0.5-0.2,0.5-0.5C24.3,10.1,24,9.8,23.7,9.8z"
			/>
		<path class="st0" d="M20.8,9.8c-0.3,0-0.5,0.2-0.5,0.5c0,0.3,0.2,0.5,0.5,0.5c0.3,0,0.5-0.2,0.5-0.5C21.4,10.1,21.1,9.8,20.8,9.8z
			"/>
		<path class="st0" d="M17.9,9.8c-0.3,0-0.5,0.2-0.5,0.5c0,0.3,0.2,0.5,0.5,0.5s0.5-0.2,0.5-0.5C18.5,10.1,18.2,9.8,17.9,9.8z"/>
		<path class="st0" d="M15,9.8c-0.3,0-0.5,0.2-0.5,0.5c0,0.3,0.2,0.5,0.5,0.5c0.3,0,0.5-0.2,0.5-0.5C15.6,10.1,15.3,9.8,15,9.8z"/>
		<path class="st0" d="M12.1,9.8c-0.3,0-0.5,0.2-0.5,0.5c0,0.3,0.2,0.5,0.5,0.5c0.3,0,0.5-0.2,0.5-0.5C12.7,10.1,12.4,9.8,12.1,9.8z
			"/>
		<path class="st0" d="M9.2,9.8c-0.3,0-0.5,0.2-0.5,0.5c0,0.3,0.2,0.5,0.5,0.5c0.3,0,0.5-0.2,0.5-0.5C9.8,10.1,9.5,9.8,9.2,9.8z"/>
		<path class="st0" d="M64.2,6.9c-0.3,0-0.5,0.2-0.5,0.5c0,0.3,0.2,0.5,0.5,0.5s0.5-0.2,0.5-0.5C64.8,7.2,64.5,6.9,64.2,6.9z"/>
		<path class="st0" d="M61.3,6.9c-0.3,0-0.5,0.2-0.5,0.5C60.8,7.8,61,8,61.3,8c0.3,0,0.5-0.2,0.5-0.5C61.9,7.2,61.6,6.9,61.3,6.9z"
			/>
		<path class="st0" d="M58.4,6.9c-0.3,0-0.5,0.2-0.5,0.5c0,0.3,0.2,0.5,0.5,0.5S59,7.8,59,7.5C59,7.2,58.7,6.9,58.4,6.9z"/>
		<path class="st0" d="M55.5,6.9c-0.3,0-0.5,0.2-0.5,0.5C55,7.8,55.2,8,55.5,8c0.3,0,0.5-0.2,0.5-0.5C56.1,7.2,55.8,6.9,55.5,6.9z"
			/>
		<path class="st0" d="M52.7,6.9c-0.3,0-0.5,0.2-0.5,0.5c0,0.3,0.2,0.5,0.5,0.5c0.3,0,0.5-0.2,0.5-0.5C53.2,7.2,53,6.9,52.7,6.9z"/>
		<path class="st0" d="M49.8,6.9c-0.3,0-0.5,0.2-0.5,0.5c0,0.3,0.2,0.5,0.5,0.5c0.3,0,0.5-0.2,0.5-0.5C50.3,7.2,50.1,6.9,49.8,6.9z"
			/>
		<path class="st0" d="M46.9,6.9c-0.3,0-0.5,0.2-0.5,0.5c0,0.3,0.2,0.5,0.5,0.5c0.3,0,0.5-0.2,0.5-0.5C47.4,7.2,47.2,6.9,46.9,6.9z"
			/>
		<path class="st0" d="M44,6.9c-0.3,0-0.5,0.2-0.5,0.5C43.4,7.8,43.7,8,44,8c0.3,0,0.5-0.2,0.5-0.5C44.5,7.2,44.3,6.9,44,6.9z"/>
		<path class="st0" d="M41.1,6.9c-0.3,0-0.5,0.2-0.5,0.5c0,0.3,0.2,0.5,0.5,0.5s0.5-0.2,0.5-0.5C41.6,7.2,41.4,6.9,41.1,6.9z"/>
		<path class="st0" d="M38.2,6.9c-0.3,0-0.5,0.2-0.5,0.5c0,0.3,0.2,0.5,0.5,0.5c0.3,0,0.5-0.2,0.5-0.5C38.7,7.2,38.5,6.9,38.2,6.9z"
			/>
		<path class="st0" d="M35.3,6.9c-0.3,0-0.5,0.2-0.5,0.5C34.7,7.8,35,8,35.3,8s0.5-0.2,0.5-0.5C35.8,7.2,35.6,6.9,35.3,6.9z"/>
		<path class="st0" d="M32.4,6.9c-0.3,0-0.5,0.2-0.5,0.5c0,0.3,0.2,0.5,0.5,0.5c0.3,0,0.5-0.2,0.5-0.5C32.9,7.2,32.7,6.9,32.4,6.9z"
			/>
		<path class="st0" d="M29.5,6.9c-0.3,0-0.5,0.2-0.5,0.5C29,7.8,29.2,8,29.5,8C29.8,8,30,7.8,30,7.5C30,7.2,29.8,6.9,29.5,6.9z"/>
		<path class="st0" d="M26.6,6.9c-0.3,0-0.5,0.2-0.5,0.5c0,0.3,0.2,0.5,0.5,0.5c0.3,0,0.5-0.2,0.5-0.5C27.2,7.2,26.9,6.9,26.6,6.9z"
			/>
		<path class="st0" d="M23.7,6.9c-0.3,0-0.5,0.2-0.5,0.5c0,0.3,0.2,0.5,0.5,0.5c0.3,0,0.5-0.2,0.5-0.5C24.3,7.2,24,6.9,23.7,6.9z"/>
		<path class="st0" d="M20.8,6.9c-0.3,0-0.5,0.2-0.5,0.5c0,0.3,0.2,0.5,0.5,0.5c0.3,0,0.5-0.2,0.5-0.5C21.4,7.2,21.1,6.9,20.8,6.9z"
			/>
		<path class="st0" d="M17.9,6.9c-0.3,0-0.5,0.2-0.5,0.5c0,0.3,0.2,0.5,0.5,0.5s0.5-0.2,0.5-0.5C18.5,7.2,18.2,6.9,17.9,6.9z"/>
		<path class="st0" d="M15,6.9c-0.3,0-0.5,0.2-0.5,0.5C14.5,7.8,14.7,8,15,8c0.3,0,0.5-0.2,0.5-0.5C15.6,7.2,15.3,6.9,15,6.9z"/>
		<path class="st0" d="M12.1,6.9c-0.3,0-0.5,0.2-0.5,0.5c0,0.3,0.2,0.5,0.5,0.5c0.3,0,0.5-0.2,0.5-0.5C12.7,7.2,12.4,6.9,12.1,6.9z"
			/>
		<path class="st0" d="M9.2,6.9c-0.3,0-0.5,0.2-0.5,0.5C8.7,7.8,8.9,8,9.2,8c0.3,0,0.5-0.2,0.5-0.5C9.8,7.2,9.5,6.9,9.2,6.9z"/>
	</g>
	<g class="st1">
		<g class="st2">
			<polygon class="st3" points="-49.3,-11.1 -49.3,19.4 -51.1,21.2 -51.1,-9.4 			"/>
		</g>
		<g class="st2">
			<polygon class="st3" points="-53.6,-6.9 -53.6,23.7 -55.4,25.4 -55.4,-5.1 			"/>
		</g>
		<g class="st2">
			<polygon class="st3" points="-57.9,-2.6 -57.9,28 -59.6,29.7 -59.6,-0.8 			"/>
		</g>
		<g class="st2">
			<polygon class="st3" points="-62.2,1.7 -62.2,32.2 -63.9,34 -63.9,3.4 			"/>
		</g>
		<g class="st2">
			<polygon class="st3" points="-66.4,5.9 -66.4,36.5 -68.2,38.2 -68.2,7.7 			"/>
		</g>
		<g class="st2">
			<polygon class="st3" points="-70.7,10.2 -70.7,40.8 -72.5,42.5 -72.5,12 			"/>
		</g>
		<g class="st2">
			<polygon class="st3" points="-75,14.5 -75,45 -76.7,46.8 -76.7,16.2 			"/>
		</g>
		<g class="st2">
			<polygon class="st3" points="-79.2,18.8 -79.2,49.3 -81,51.1 -81,20.5 			"/>
		</g>
		<g class="st2">
			<polygon class="st3" points="-83.5,23 -83.5,53.6 -85.3,55.3 -85.3,24.8 			"/>
		</g>
		<g class="st2">
			<polygon class="st3" points="-87.8,27.3 -87.8,57.8 -89.5,59.6 -89.5,29.1 			"/>
		</g>
		<g class="st2">
			<polygon class="st3" points="-92.1,31.6 -92.1,62.1 -93.8,63.9 -93.8,33.3 			"/>
		</g>
		<g class="st2">
			<polygon class="st3" points="-96.3,35.8 -96.3,66.4 -98.1,68.1 -98.1,37.6 			"/>
		</g>
		<g class="st2">
			<polygon class="st3" points="-100.6,40.1 -100.6,70.7 -102.3,72.4 -102.3,41.9 			"/>
		</g>
	</g>
	<g class="st1">
		<polygon class="st4" points="112.5,121.4 41.5,121.4 112.5,50.4 		"/>
		<path class="st5" d="M88.8,119.9L88.8,119.9c-0.2-0.3-0.7-0.5-1-0.3c-0.3,0.1-0.5,0.5-0.5,0.8c0,0.3,0.2,0.6,0.5,0.8
			c0.1,0,0.2,0.1,0.3,0.1c0.3,0,0.6-0.1,0.7-0.4c0.1-0.1,0.1-0.2,0.1-0.2l0.1-0.1c0,0,0-0.1,0-0.1c0,0,0,0,0-0.1
			C89,120.2,88.9,120,88.8,119.9z M88.6,120.4c0,0.1-0.1,0.1-0.1,0.2c-0.1,0.2-0.4,0.3-0.6,0.2c-0.2-0.1-0.3-0.3-0.3-0.5
			c0-0.2,0.1-0.4,0.3-0.5c0,0,0.1,0,0.1,0c0.2,0,0.4,0.1,0.4,0.2l0,0.1C88.6,120.2,88.6,120.3,88.6,120.4L88.6,120.4z M111.1,51.8
			l-0.3,0.3c0.6,0,1.2,0,1.8,0v-0.3C112,51.8,111.6,51.8,111.1,51.8z M88.9,104.9c-0.2-0.6-0.6-0.5-0.9-0.5l-0.1,0
			c-0.3,0-0.4,0.3-0.5,0.5c0,0.1,0,0.1-0.1,0.2c0,0.1-0.1,0.2,0,0.4c0.1,0.3,0.4,0.6,0.7,0.6c0.1,0,0.1,0,0.2,0
			c0.6,0,0.8-0.5,0.9-0.7c0,0,0-0.1,0-0.1c0,0,0,0,0,0C89,105.1,89,105,88.9,104.9C88.9,104.9,88.9,104.9,88.9,104.9z M88.7,105.2
			c-0.1,0.4-0.3,0.5-0.7,0.5c-0.1,0-0.4-0.4-0.4-0.5c0-0.1,0.1-0.1,0.1-0.2c0.1-0.2,0.1-0.2,0.2-0.3l0.1,0c0.1,0,0.2,0,0.3,0
			c0.2,0,0.3,0.1,0.3,0.3C88.6,105,88.6,105.1,88.7,105.2C88.6,105.1,88.7,105.1,88.7,105.2C88.7,105.2,88.7,105.2,88.7,105.2z
			 M93,105.1c0-0.3-0.2-0.4-0.3-0.6c-0.1-0.1-0.1-0.2-0.1-0.2c-0.2-0.4-0.5-0.9-0.7-1.3c-0.3-0.5-0.7-1.1-0.9-1.7
			c-0.2-0.3-0.5-0.5-0.9-0.5c-0.7,0-1.5,0-2.2,0c-0.5,0-1.1,0-1.6,0c-0.4,0-0.7,0.1-0.9,0.5c-0.5,1-1.1,2-1.7,2.9l-0.2,0.4
			c-0.2,0.3-0.2,0.6,0,0.9l0.2,0.4c0.6,0.9,1.2,1.9,1.7,2.9c0.2,0.4,0.5,0.5,0.9,0.5c0,0,0,0,0.1,0c0.7,0,1.4,0,2.3,0
			c0.4,0,0.9,0,1.4,0c0.4,0,0.6-0.1,0.8-0.4c0.4-0.8,0.9-1.6,1.4-2.4l0.7-1.2c0,0,0-0.1,0.1-0.2l0-0.1C93,105.2,93,105.2,93,105.1
			C93,105.2,93,105.2,93,105.1z M92.6,105.2C92.6,105.2,92.6,105.3,92.6,105.2l-0.7,1.3c-0.5,0.8-0.9,1.6-1.4,2.4
			c-0.1,0.2-0.2,0.3-0.5,0.3c-0.6,0-1,0-1.4,0c-0.9,0-1.7,0-2.4,0c-0.3,0-0.5-0.1-0.6-0.4c-0.5-1-1.1-2-1.7-2.9l-0.2-0.4
			c-0.1-0.2-0.1-0.4,0-0.6l0.2-0.4c0.6-0.9,1.2-1.9,1.7-2.9c0.1-0.3,0.3-0.4,0.5-0.4c0,0,0,0,0.1,0c0.5,0,1.1,0,1.6,0
			c0.7,0,1.4,0,2.2,0c0.3,0,0.4,0.1,0.6,0.3c0.3,0.6,0.6,1.2,1,1.7c0.2,0.4,0.5,0.8,0.7,1.3c0,0.1,0.1,0.2,0.2,0.3
			C92.5,104.9,92.6,105,92.6,105.2L92.6,105.2z M101,112c-0.3,0.1-0.4,0.4-0.5,0.7l0,0c-0.1,0.3,0.3,0.8,0.6,0.9c0.1,0,0.2,0,0.2,0
			c0.3,0,0.6-0.2,0.8-0.4c0,0,0-0.1,0.1-0.1c0.1-0.1,0.1-0.2,0.2-0.4c0,0,0,0,0,0c0-0.1-0.1-0.2-0.1-0.3
			C101.8,112,101.5,111.8,101,112z M101.9,112.8c0,0.1-0.1,0.1-0.1,0.2c0,0,0,0.1-0.1,0.1c-0.1,0.2-0.4,0.3-0.6,0.2
			c-0.1,0-0.3-0.4-0.3-0.5l0,0c0.1-0.2,0.1-0.4,0.3-0.4c0.1,0,0.2,0,0.2,0c0.2,0,0.4,0.1,0.5,0.4
			C101.8,112.7,101.8,112.7,101.9,112.8C101.9,112.7,101.9,112.7,101.9,112.8z M111.7,101.4c-0.5,1-1.1,2-1.7,2.9l-0.2,0.4
			c-0.2,0.3-0.2,0.6,0,0.9l0.2,0.4c0.6,0.9,1.1,1.9,1.7,2.9c0.2,0.4,0.4,0.5,0.8,0.5v-0.3c-0.2,0-0.4-0.1-0.5-0.4
			c-0.5-1-1.1-2-1.7-2.9l-0.2-0.4c-0.1-0.2-0.1-0.4,0-0.6l0.2-0.4c0.6-0.9,1.2-1.9,1.7-2.9c0.1-0.3,0.3-0.3,0.5-0.4v-0.3
			C112.2,100.9,111.9,101,111.7,101.4z M111.8,86.1c-0.4,0.7-0.7,1.3-1.1,1.9c-0.1,0.2-0.3,0.5-0.4,0.7l-0.5,0.8
			c-0.2,0.3-0.2,0.5,0,0.8c0.2,0.4,0.4,0.8,0.7,1.2c0.2,0.4,0.4,0.7,0.6,1.1c0.1,0.2,0.2,0.4,0.3,0.6c0.1,0.2,0.3,0.5,0.4,0.7
			c0.2,0.3,0.4,0.4,0.7,0.4c0,0,0,0,0,0v-0.3c0,0,0,0,0,0c-0.2,0-0.3,0-0.4-0.2c-0.1-0.2-0.3-0.5-0.4-0.7c-0.1-0.2-0.2-0.4-0.3-0.6
			c-0.2-0.4-0.4-0.7-0.6-1.1c-0.2-0.4-0.4-0.8-0.7-1.2c-0.1-0.1-0.1-0.3,0-0.4l0.5-0.8c0.1-0.2,0.3-0.5,0.4-0.7
			c0.4-0.6,0.8-1.3,1.1-2c0.1-0.2,0.2-0.2,0.4-0.2c0,0,0,0,0,0v-0.3c0,0,0,0,0,0C112.2,85.7,112,85.8,111.8,86.1z M62.4,119.9
			L62.4,119.9c-0.2-0.3-0.7-0.5-1-0.3c-0.3,0.1-0.5,0.5-0.5,0.8c0,0.3,0.2,0.6,0.5,0.8c0.1,0,0.2,0.1,0.3,0.1c0.3,0,0.6-0.1,0.7-0.4
			c0.1-0.1,0.1-0.2,0.1-0.2l0.1-0.1c0,0,0-0.1,0-0.1c0,0,0,0,0-0.1C62.6,120.2,62.5,120,62.4,119.9z M62.2,120.4
			c0,0.1-0.1,0.2-0.1,0.2c-0.1,0.2-0.4,0.3-0.6,0.2c-0.2-0.1-0.3-0.3-0.3-0.5c0-0.2,0.1-0.4,0.3-0.5c0,0,0.1,0,0.1,0
			c0.2,0,0.4,0.1,0.4,0.2l0,0.1C62.2,120.2,62.3,120.3,62.2,120.4L62.2,120.4z M88.1,75.6c0.6,0,0.8-0.5,0.9-0.7c0,0,0-0.1,0-0.1
			c0,0,0,0,0,0c0-0.1-0.1-0.2-0.1-0.3c0,0,0,0,0-0.1c0-0.1-0.1-0.2-0.1-0.3l-0.2,0.2c0,0,0,0.1,0.1,0.1c0,0.1,0,0.1,0.1,0.2
			c0,0,0,0.1,0,0.1c0,0,0,0,0,0c-0.1,0.4-0.3,0.5-0.7,0.5c0,0-0.1-0.1-0.2-0.1l-0.2,0.2c0.1,0.1,0.3,0.2,0.4,0.2
			C88,75.6,88.1,75.6,88.1,75.6z M76.9,86.7c0.4,0,0.6-0.1,0.8-0.5c0.4-0.7,0.8-1.5,1.3-2.2L78,84.9c-0.2,0.4-0.4,0.7-0.6,1.1
			c-0.1,0.2-0.3,0.3-0.5,0.3c-0.1,0-0.2,0-0.3,0l-0.3,0.3C76.5,86.7,76.7,86.7,76.9,86.7C76.9,86.7,76.9,86.7,76.9,86.7z M84.7,92.6
			c0.1,0.2,0.2,0.4,0.3,0.6c0.1,0.2,0.3,0.5,0.4,0.7c0.2,0.3,0.4,0.4,0.7,0.4c1.3,0,2.7,0,4,0h0c0.3,0,0.5-0.1,0.7-0.4
			c0.2-0.4,0.5-0.8,0.7-1.3c0.3-0.5,0.5-1,0.8-1.4c0.1-0.1,0.1-0.2,0.2-0.3c0.1-0.2,0.3-0.5,0.4-0.7c0,0,0-0.1,0-0.1
			c0,0,0-0.1,0-0.1c-0.3-0.6-0.6-1.2-1-1.8c-0.2-0.3-0.3-0.5-0.5-0.8L91.3,87c-0.2-0.3-0.3-0.6-0.5-0.9c-0.2-0.3-0.4-0.4-0.7-0.4h0
			c-1.3,0-2.7,0-4,0c-0.3,0-0.5,0.1-0.7,0.4c-0.4,0.7-0.7,1.3-1.1,1.9c-0.1,0.2-0.3,0.5-0.4,0.7l-0.5,0.8c-0.2,0.3-0.2,0.5,0,0.8
			c0.2,0.4,0.4,0.8,0.7,1.2C84.3,91.9,84.5,92.2,84.7,92.6z M83.7,89.7l0.5-0.8c0.1-0.2,0.3-0.5,0.4-0.7c0.4-0.6,0.8-1.3,1.1-2
			c0.1-0.2,0.2-0.2,0.4-0.2c1.3,0,2.7,0,4,0c0.2,0,0.3,0,0.4,0.2c0.2,0.3,0.3,0.6,0.5,0.9l0.2,0.3c0.2,0.3,0.3,0.5,0.5,0.8
			c0.3,0.6,0.7,1.1,0.9,1.7c-0.1,0.2-0.2,0.4-0.4,0.7c-0.1,0.1-0.1,0.2-0.2,0.3c-0.3,0.5-0.5,1-0.8,1.4c-0.2,0.4-0.5,0.8-0.7,1.3
			c-0.1,0.2-0.2,0.2-0.4,0.2c-0.7,0-1.3,0-2,0c-0.7,0-1.3,0-2,0c-0.2,0-0.3,0-0.4-0.2c-0.1-0.2-0.3-0.5-0.4-0.7
			c-0.1-0.2-0.2-0.4-0.3-0.6c-0.2-0.4-0.4-0.7-0.6-1.1c-0.2-0.4-0.4-0.8-0.7-1.2C83.6,90,83.6,89.9,83.7,89.7z M61.6,106
			c0.1,0,0.1,0,0.2,0c0.6,0,0.8-0.5,0.9-0.7c0,0,0-0.1,0-0.1c0,0,0,0,0,0c0-0.1-0.1-0.2-0.1-0.3c0,0,0,0,0-0.1
			c-0.2-0.6-0.6-0.5-0.9-0.5l-0.1,0c-0.3,0-0.4,0.3-0.5,0.5c0,0.1,0,0.1-0.1,0.2c0,0.1-0.1,0.2,0,0.4C61,105.6,61.3,106,61.6,106z
			 M61.3,105c0.1-0.2,0.1-0.2,0.2-0.3l0.1,0c0.1,0,0.2,0,0.3,0c0.2,0,0.3,0.1,0.3,0.3c0,0.1,0,0.1,0.1,0.2c0,0,0,0.1,0,0.1
			c0,0,0,0,0,0c-0.1,0.4-0.3,0.5-0.7,0.5c-0.1,0-0.4-0.4-0.4-0.5C61.2,105.1,61.2,105.1,61.3,105z M79.3,111.7
			c-0.2-0.3-0.4-0.7-0.6-1c-0.3-0.5-0.6-1-0.8-1.5c-0.4-0.8-1-0.8-1.6-0.8c-0.9,0.1-1.8,0.1-2.8,0c-0.2,0-0.5,0-0.7,0l-0.2,0
			c-0.2,0-0.3,0.1-0.3,0.2l0,0c-0.3,0.5-0.6,0.9-0.8,1.4c-0.2,0.4-0.5,0.8-0.7,1.2c-0.1,0.1-0.1,0.2-0.2,0.4
			c-0.1,0.2-0.2,0.3-0.3,0.5c-0.2,0.3-0.2,0.6,0,1c0.4,0.7,0.9,1.4,1.3,2.2l0.2,0.3c0.2,0.3,0.4,0.7,0.6,1c0.2,0.3,0.4,0.4,0.6,0.4
			c1.2,0,2.6,0,4,0c0,0,0,0,0,0c0.4,0,0.6-0.1,0.8-0.5c0.4-0.8,0.9-1.6,1.4-2.4l0,0c0.1-0.1,0.1-0.2,0.2-0.3
			c0.2-0.3,0.3-0.6,0.5-0.9c0,0,0-0.1,0-0.1c0,0,0,0,0,0c0-0.3-0.2-0.6-0.3-0.8C79.4,111.9,79.3,111.8,79.3,111.7z M79,113.6
			c-0.1,0.1-0.1,0.2-0.2,0.3l0,0c-0.5,0.8-0.9,1.6-1.4,2.4c-0.1,0.2-0.3,0.3-0.5,0.3c-0.6,0-1.3,0-1.9,0c-0.7,0-1.4,0-2.1,0
			c-0.2,0-0.3,0-0.3-0.2c-0.2-0.4-0.4-0.7-0.6-1l-0.2-0.3c-0.4-0.7-0.8-1.5-1.3-2.2c-0.1-0.2-0.1-0.4,0-0.6c0.1-0.2,0.2-0.3,0.3-0.5
			c0.1-0.1,0.1-0.2,0.2-0.4c0.3-0.4,0.5-0.8,0.7-1.2c0.3-0.5,0.5-0.9,0.8-1.4l0,0c0,0,0-0.1,0-0.1l0.2,0c0.2,0,0.4,0,0.7,0
			c1,0.1,1.9,0.1,2.8,0c0.5,0,1,0,1.2,0.6c0.2,0.5,0.6,1.1,0.9,1.6c0.2,0.3,0.4,0.6,0.6,1c0.1,0.1,0.1,0.2,0.2,0.3
			c0.1,0.2,0.3,0.4,0.3,0.6C79.3,113.1,79.2,113.3,79,113.6z M74.6,112c-0.3,0.1-0.4,0.4-0.5,0.7l0,0c-0.1,0.3,0.3,0.8,0.6,0.9
			c0.1,0,0.2,0,0.2,0c0.3,0,0.6-0.2,0.8-0.4c0,0,0-0.1,0.1-0.1c0.1-0.1,0.1-0.2,0.2-0.4c0,0,0,0,0,0c0-0.1-0.1-0.2-0.1-0.3
			C75.5,112,75.1,111.8,74.6,112z M75.5,112.8c0,0.1-0.1,0.1-0.1,0.2c0,0,0,0.1-0.1,0.1c-0.1,0.2-0.4,0.3-0.6,0.2
			c-0.1,0-0.3-0.4-0.3-0.5l0,0c0.1-0.2,0.1-0.4,0.3-0.4c0.1,0,0.2,0,0.2,0c0.2,0,0.4,0.1,0.5,0.4C75.4,112.7,75.5,112.7,75.5,112.8
			C75.5,112.7,75.5,112.7,75.5,112.8z M87.8,90.8c0.1,0,0.2,0.1,0.3,0.1c0.3,0,0.6-0.1,0.7-0.4c0.1-0.1,0.1-0.2,0.1-0.2l0.1-0.1
			c0,0,0-0.1,0-0.1c0,0,0,0,0-0.1c0-0.2-0.1-0.3-0.2-0.4l0-0.1c-0.2-0.3-0.7-0.4-1-0.3c-0.3,0.1-0.5,0.5-0.5,0.8
			C87.3,90.2,87.4,90.6,87.8,90.8z M87.9,89.5c0,0,0.1,0,0.1,0c0.2,0,0.4,0.1,0.4,0.2l0,0.1c0.1,0.1,0.1,0.2,0.1,0.3l0,0.1
			c0,0.1-0.1,0.1-0.1,0.2c-0.1,0.2-0.4,0.3-0.6,0.2c-0.2-0.1-0.3-0.3-0.3-0.5C87.6,89.8,87.7,89.6,87.9,89.5z M101.2,96.7
			c-0.2,0-0.4,0.1-0.6,0.3c-0.2,0.2-0.3,0.4-0.3,0.6c0,0.4,0.4,0.7,0.8,0.8c0.1,0,0.1,0,0.2,0c0.5,0,0.7-0.4,0.8-0.7
			c0,0,0-0.1,0-0.1c0,0,0-0.1,0-0.1C101.9,96.9,101.8,96.7,101.2,96.7z M101.3,98c-0.2,0-0.5-0.2-0.5-0.5c0-0.1,0.1-0.2,0.2-0.3
			c0.1-0.1,0.2-0.2,0.3-0.2c0,0,0.1,0,0.1,0c0.3,0,0.3,0,0.5,0.5C101.7,97.9,101.6,98.1,101.3,98z M98.5,71c0.2,0.4,0.6,0.5,0.9,0.5
			c0.1,0,0.1,0,0.2,0c0.8,0,1.7,0,2.5,0c0.2,0,0.3,0,0.5,0c0.3,0,0.6,0,0.9,0c0.1,0,0.3-0.1,0.4-0.3c0.6-0.9,1.1-1.9,1.5-2.7
			c0.1-0.1,0.2-0.3,0.2-0.4c0.2-0.3,0.4-0.6,0.5-0.9c0,0,0,0,0-0.1c0,0,0-0.1,0-0.1c-0.3-0.6-0.6-1.2-1-1.7c-0.2-0.3-0.4-0.7-0.6-1
			c-0.1-0.2-0.2-0.3-0.3-0.5c-0.1-0.2-0.2-0.4-0.3-0.6c-0.2-0.3-0.4-0.4-0.6-0.4c-0.9,0-2.1,0-3.3,0l-0.3,0.3c1.3,0,2.6,0,3.7,0
			c0.2,0,0.3,0,0.3,0.2c0.1,0.2,0.2,0.4,0.3,0.6c0.1,0.2,0.2,0.3,0.3,0.5c0.2,0.4,0.4,0.7,0.6,1c0.3,0.5,0.7,1.1,0.9,1.7
			c-0.1,0.3-0.2,0.5-0.4,0.8c-0.1,0.1-0.2,0.3-0.2,0.4c-0.4,0.8-1,1.7-1.5,2.7c0,0.1-0.1,0.1-0.2,0.1c-0.3,0-0.5,0-0.8,0
			c-0.2,0-0.3,0-0.5,0c0,0,0,0-0.1,0c-0.8,0-1.7,0-2.5,0c-0.4,0-0.6,0-0.7-0.3c-0.6-1.1-1.2-2.2-2-3.4c-0.1-0.2-0.1-0.3,0-0.5
			c0.2-0.2,0.3-0.5,0.4-0.7c0.1-0.1,0.1-0.2,0.2-0.3l0.4-0.7c0.1-0.2,0.2-0.3,0.3-0.5l-0.9,0.9l0,0.1C97.1,65.9,97,66,97,66.1
			c-0.1,0.2-0.3,0.5-0.4,0.7c-0.2,0.3-0.2,0.5,0,0.8C97.3,68.8,98,69.9,98.5,71z M59,108.9c0.2,0.4,0.5,0.5,0.9,0.5c0,0,0,0,0.1,0
			c0.7,0,1.4,0,2.3,0c0.4,0,0.9,0,1.4,0c0.4,0,0.6-0.1,0.8-0.4c0.4-0.8,0.9-1.6,1.3-2.3l0.7-1.2c0,0,0-0.1,0.1-0.2l0-0.1
			c0,0,0-0.1,0-0.1c0,0,0,0,0,0c0-0.3-0.2-0.4-0.3-0.6c-0.1-0.1-0.1-0.2-0.1-0.2c-0.2-0.4-0.5-0.9-0.7-1.3c-0.3-0.5-0.7-1.1-0.9-1.7
			c-0.2-0.3-0.5-0.5-0.9-0.5c-0.5,0-1.1,0-1.6,0l-0.3,0.3c0.6,0,1.3,0,2,0c0.3,0,0.4,0.1,0.6,0.3c0.3,0.6,0.6,1.2,1,1.7
			c0.2,0.4,0.5,0.8,0.7,1.3c0,0.1,0.1,0.2,0.2,0.3c0.1,0.2,0.2,0.3,0.2,0.5l0,0c0,0,0,0.1,0,0.1l-0.7,1.2c-0.5,0.8-0.9,1.6-1.3,2.4
			c-0.1,0.2-0.3,0.3-0.5,0.3c-0.6,0-1,0-1.4,0c-0.9,0-1.7,0-2.4,0c-0.3,0-0.5-0.1-0.6-0.4c-0.5-1-1.1-2-1.7-2.9l-0.2-0.3l-0.3,0.3
			l0.1,0.2C57.8,107,58.4,107.9,59,108.9z M50.5,117.1C50.5,117.1,50.5,117.1,50.5,117.1c0.4,0,0.7-0.1,0.8-0.5
			c0.4-0.8,0.9-1.6,1.4-2.4l0-0.1c0.1-0.1,0.1-0.2,0.2-0.3c0.2-0.3,0.3-0.6,0.5-0.9c0,0,0-0.1,0-0.1c0,0,0,0,0,0
			c0-0.3-0.2-0.6-0.3-0.8c-0.1-0.1-0.1-0.2-0.2-0.3c-0.2-0.3-0.4-0.7-0.6-1c0,0,0-0.1-0.1-0.1l-0.3,0.3c0,0,0,0,0,0
			c0.2,0.3,0.4,0.6,0.6,1c0.1,0.1,0.1,0.2,0.2,0.3c0.1,0.2,0.3,0.4,0.3,0.6c-0.1,0.3-0.3,0.6-0.5,0.8c-0.1,0.1-0.1,0.2-0.2,0.3
			l0,0.1c-0.5,0.8-0.9,1.6-1.4,2.4c-0.1,0.2-0.3,0.3-0.5,0.3c-0.6,0-1.3,0-1.9,0c-0.7,0-1.4,0-2.1,0c-0.1,0-0.2,0-0.2,0l-0.2,0.2
			c0.2,0.1,0.3,0.1,0.5,0.1C47.7,117,49.1,117,50.5,117.1z M104.3,78.8c-0.4-0.8-1-0.8-1.6-0.8c-0.9,0.1-1.8,0.1-2.8,0
			c-0.2,0-0.5,0-0.7,0l-0.2,0c-0.2,0-0.3,0.1-0.3,0.2l0,0c-0.3,0.5-0.6,0.9-0.8,1.4c-0.2,0.4-0.5,0.8-0.7,1.2
			c-0.1,0.1-0.1,0.2-0.2,0.4c-0.1,0.2-0.2,0.3-0.3,0.5c-0.2,0.3-0.2,0.6,0,1c0.4,0.7,0.9,1.4,1.3,2.2l0.2,0.3c0.2,0.3,0.4,0.7,0.6,1
			c0.2,0.3,0.4,0.4,0.6,0.4c1.4,0,2.7,0,4,0c0,0,0,0,0,0c0.4,0,0.6-0.1,0.8-0.5c0.4-0.8,0.9-1.6,1.4-2.4l0-0.1
			c0.1-0.1,0.1-0.2,0.2-0.3c0.2-0.3,0.3-0.6,0.5-0.9c0,0,0-0.1,0-0.1c0,0,0,0,0,0c0-0.3-0.2-0.6-0.3-0.8c-0.1-0.1-0.1-0.2-0.2-0.3
			c-0.2-0.3-0.4-0.7-0.6-1C104.8,79.8,104.5,79.3,104.3,78.8z M105.6,81.8c0.1,0.2,0.3,0.4,0.3,0.6c-0.1,0.3-0.3,0.6-0.5,0.8
			c-0.1,0.1-0.1,0.2-0.2,0.3l0,0.1c-0.5,0.8-0.9,1.6-1.4,2.4c-0.1,0.2-0.3,0.3-0.5,0.3c-0.6,0-1.2,0-1.9,0c-0.7,0-1.4,0-2.1,0
			c-0.2,0-0.3,0-0.3-0.2c-0.2-0.4-0.4-0.7-0.6-1l-0.2-0.3c-0.4-0.7-0.8-1.5-1.3-2.2c-0.1-0.2-0.1-0.4,0-0.6c0.1-0.2,0.2-0.3,0.3-0.5
			c0.1-0.1,0.1-0.2,0.2-0.4c0.3-0.4,0.5-0.8,0.7-1.2c0.3-0.5,0.5-0.9,0.8-1.4l0,0c0,0,0-0.1,0-0.1l0.2,0c0.2,0,0.4,0,0.7,0
			c1,0.1,1.9,0.1,2.8,0c0.5,0,1,0,1.2,0.6c0.2,0.5,0.6,1.1,0.9,1.6c0.2,0.3,0.4,0.6,0.6,1C105.4,81.6,105.5,81.7,105.6,81.8z
			 M110.1,66.9c-1.2-2-2.3-3.9-3.4-5.9l-0.8-1.4c0.2-0.2,0.3-0.5,0.4-0.7c0.1-0.1,0.1-0.2,0.2-0.3c0.4-0.6,0.7-1.3,1.1-1.9
			c0.6-1.1,1.2-2.2,1.9-3.2l-1,1c-0.4,0.7-0.8,1.4-1.2,2.1c-0.4,0.6-0.7,1.3-1.1,1.9c-0.1,0.1-0.1,0.2-0.2,0.3
			c-0.1,0.2-0.3,0.5-0.4,0.7c-0.6,0-1.1,0-1.7,0c-0.1,0-0.3,0-0.4,0l-0.3,0.3c0.3,0,0.5,0,0.8,0c0.5,0,1.1,0,1.7,0l0.8,1.4
			c1.1,2,2.3,4,3.4,5.9c0.1,0.1,0.1,0.2,0,0.3c-0.8,1.3-1.6,2.7-2.4,4c-0.3,0.6-0.7,1.2-1.1,1.8c-0.2,0.3-0.4,0.7-0.6,1l-0.2,0.4H97
			l-0.2-0.4c-0.2-0.3-0.4-0.7-0.6-1c-0.4-0.6-0.7-1.2-1-1.8c-0.4-0.7-0.9-1.5-1.3-2.3l-0.3,0.3c0.4,0.7,0.8,1.5,1.3,2.2
			c0.3,0.6,0.7,1.2,1.1,1.8c0.2,0.3,0.4,0.7,0.6,1l0.2,0.4l-0.9,1.5c-0.9,1.5-1.7,3.1-2.6,4.6c-0.1,0.1-0.1,0.3-0.2,0.4
			c-0.2,0.3-0.3,0.5-0.5,0.8c0,0-0.1,0.1-0.1,0.2c-2.9,0-5.7,0-8.6,0c0-0.1-0.1-0.1-0.1-0.2c-0.2-0.2-0.3-0.5-0.5-0.8
			c-0.1-0.1-0.1-0.3-0.2-0.4c-0.1-0.2-0.2-0.4-0.4-0.6l-0.3,0.3c0.1,0.2,0.2,0.4,0.3,0.5c0.1,0.1,0.1,0.2,0.2,0.4
			c0.2,0.3,0.3,0.6,0.5,0.8c0.1,0.1,0.1,0.1,0,0.3c-1.2,2.1-2.6,4.4-4.1,7.1c-0.1,0.2-0.2,0.2-0.4,0.2c-1.9,0-3.9,0-5.8,0l-0.3,0.3
			c2.1,0,4.1,0,6.2,0c0.1,0,0.2,0,0.3,0l0.8,1.4c1.1,2,2.3,4,3.4,5.9c0.1,0.1,0.1,0.2,0,0.3c-0.8,1.3-1.6,2.7-2.4,4
			c-0.4,0.6-0.7,1.2-1.1,1.8c-0.2,0.4-0.4,0.7-0.6,1.1l-0.2,0.3h-8.6l-0.6-1c-0.3-0.5-0.6-1.1-0.9-1.6c-0.8-1.4-1.7-2.9-2.6-4.4
			c-0.2-0.4-0.2-0.6,0-0.9c0.3-0.6,0.7-1.2,1-1.8l-0.9,0.9c-0.1,0.2-0.3,0.5-0.4,0.7c-0.1,0.2-0.2,0.3-0.2,0.5c0,0,0,0,0,0
			c-0.2,0-0.4,0-0.6,0l-0.3,0.3c0.3,0,0.6,0,0.9,0h0c0,0,0,0,0,0c0,0.1,0.1,0.3,0.2,0.4c0.9,1.4,1.7,2.9,2.5,4.4
			c0.3,0.5,0.6,1.1,0.9,1.6l0.6,1l-0.9,1.5c-0.9,1.5-1.7,3.1-2.6,4.6c-0.1,0.1-0.1,0.3-0.2,0.4c-0.2,0.3-0.3,0.5-0.5,0.8
			c0,0-0.1,0.1-0.1,0.2c-2.9,0-5.7,0-8.6,0c0-0.1-0.1-0.1-0.1-0.2c-0.2-0.2-0.3-0.5-0.5-0.8c-0.1-0.1-0.1-0.3-0.2-0.4
			c-0.6-1-1.2-2.1-1.8-3.2l-0.3,0.3c0.6,1,1.2,2.1,1.8,3.1c0.1,0.1,0.1,0.2,0.2,0.4c0.2,0.3,0.3,0.6,0.5,0.8c0.1,0.1,0.1,0.1,0,0.3
			c-1.2,2.1-2.5,4.3-4.1,7.1c-0.1,0.2-0.2,0.2-0.4,0.2h0c-2.7,0-5.3,0-8,0h0c-0.1,0-0.2,0-0.3,0l-0.1-0.1c-0.1-0.1-0.2-0.3-0.2-0.4
			l-0.3-0.5l-0.3,0.3l0.2,0.4c0.1,0.1,0.2,0.3,0.2,0.4l0.1,0.1c-0.1,0.1-0.1,0.1-0.2,0.2c-0.1,0.2-0.3,0.5-0.4,0.7h0.4
			c0.1-0.2,0.2-0.4,0.3-0.6c0.1-0.2,0.2-0.3,0.5-0.3h0c2.7,0,5.3,0,8,0h0c0.1,0,0.2,0,0.3,0l0.5,0.9h0.4l-0.6-1.1
			c0.1,0,0.1-0.1,0.1-0.2c1.6-2.7,2.9-5,4.1-7.1c0-0.1,0-0.1,0.1-0.1c1.4,0,2.9,0,4.3,0c1.4,0,2.9,0,4.3,0c0,0,0,0.1,0.1,0.1
			c1.1,1.9,2.2,3.7,3.2,5.6l0.7,1.2c0.1,0.1,0.2,0.3,0.2,0.4l0.1,0.1c-0.1,0.1-0.1,0.1-0.2,0.2c-0.1,0.2-0.3,0.5-0.4,0.7h0.4
			c0.1-0.2,0.2-0.4,0.3-0.6c0.1-0.2,0.2-0.3,0.5-0.3h0c2.7,0,5.3,0,8,0h0c0.1,0,0.2,0,0.3,0l0.5,0.9h0.4l-0.6-1.1
			c0.1-0.1,0.1-0.1,0.1-0.2c1.6-2.7,2.9-5,4.1-7.1c0-0.1,0-0.1,0.1-0.1c1.4,0,2.9,0,4.3,0c1.4,0,2.9,0,4.3,0c0,0,0,0.1,0.1,0.1
			c1.1,1.8,2.1,3.7,3.2,5.5l0.7,1.3c0.1,0.1,0.2,0.3,0.2,0.4l0.1,0.1c-0.1,0.1-0.1,0.1-0.2,0.2c-0.1,0.2-0.3,0.5-0.4,0.7h0.4
			c0.1-0.2,0.2-0.4,0.3-0.6c0.1-0.2,0.2-0.3,0.5-0.3h0c2.7,0,5.3,0,8,0h0c0.1,0,0.2,0,0.3,0l0.5,0.9h0.4l-0.6-1.1
			c0.1-0.1,0.1-0.1,0.1-0.2c1.6-2.7,2.9-5,4.1-7.1c0-0.1,0-0.1,0.1-0.1c0.8,0,1.5,0,2.3,0v-0.3c-0.8,0-1.5,0-2.3,0
			c0-0.1-0.1-0.1-0.1-0.2c-0.2-0.2-0.3-0.5-0.5-0.8c-0.1-0.1-0.1-0.3-0.2-0.4c-0.9-1.5-1.8-3.1-2.6-4.6l-0.9-1.5l0.2-0.4
			c0.2-0.3,0.4-0.7,0.6-1c0.4-0.6,0.7-1.2,1.1-1.8c0.8-1.3,1.5-2.7,2.3-4c0,0,0-0.1,0.1-0.1c0.8,0,1.5,0,2.3,0v-0.3
			c-0.8,0-1.5,0-2.3,0c0,0,0-0.1-0.1-0.1c-1.2-2-2.3-4-3.4-6l-0.8-1.4c0.1,0,0.1-0.1,0.1-0.2c1.6-2.7,2.9-5,4.1-7.1
			c0-0.1,0-0.1,0.1-0.1c0.8,0,1.5,0,2.3,0v-0.3c-0.8,0-1.5,0-2.3,0c0-0.1-0.1-0.1-0.1-0.2c-0.2-0.2-0.3-0.5-0.5-0.8
			c-0.1-0.1-0.1-0.3-0.2-0.4c-0.9-1.5-1.8-3.1-2.7-4.6l-0.9-1.5l0.2-0.4c0.2-0.3,0.4-0.7,0.6-1c0.4-0.6,0.7-1.2,1.1-1.8
			c0.8-1.3,1.5-2.7,2.4-4c0,0,0-0.1,0.1-0.1c0.8,0,1.5,0,2.3,0V67c-0.8,0-1.5,0-2.3,0C110.2,67,110.2,66.9,110.1,66.9z M80.3,91.3
			l-0.8-1.4c0.1-0.1,0.1-0.1,0.1-0.2c1.5-2.6,2.9-5,4.1-7.1c0-0.1,0-0.1,0.1-0.1c1.4,0,2.9,0,4.3,0c1.4,0,2.9,0,4.3,0
			c0,0,0,0.1,0.1,0.1c1.1,1.9,2.2,3.7,3.2,5.6l0.7,1.2c0.1,0.1,0.1,0.3,0.2,0.4l0.1,0.1c-0.1,0.1-0.1,0.1-0.2,0.2
			c-1.5,2.7-2.7,4.7-3.8,6.6c-0.1,0.2-0.2,0.3-0.2,0.5c0,0,0,0,0,0c-2.9,0-5.8,0-8.7,0c0,0,0-0.1-0.1-0.1
			C82.6,95.3,81.5,93.3,80.3,91.3z M83.5,112.9c-1.2,2.1-2.5,4.4-4.1,7.1c-0.1,0.2-0.2,0.2-0.4,0.2h0c-2.7,0-5.3,0-8,0h0
			c-0.1,0-0.2,0-0.3,0l-0.1-0.1c-0.1-0.1-0.2-0.3-0.2-0.4l-0.7-1.2c-1.1-1.9-2.2-3.7-3.2-5.6c-0.1-0.1-0.1-0.2,0-0.3
			c0.2-0.3,0.4-0.6,0.5-0.8c0.1-0.1,0.1-0.2,0.2-0.4c0.9-1.5,1.8-3.1,2.6-4.6l0.9-1.5h8.6l0.9,1.5c0.9,1.5,1.7,3.1,2.6,4.6
			c0.1,0.1,0.1,0.2,0.2,0.4c0.2,0.3,0.3,0.6,0.5,0.8C83.5,112.7,83.5,112.8,83.5,112.9z M92.4,112.6c-2.9,0-5.7,0-8.6,0
			c0-0.1-0.1-0.1-0.1-0.2c-0.2-0.2-0.3-0.5-0.5-0.8c-0.1-0.1-0.1-0.3-0.2-0.4c-0.9-1.5-1.8-3.1-2.6-4.6l-0.9-1.5l0.2-0.3
			c0.2-0.3,0.4-0.7,0.6-1.1c0.4-0.6,0.7-1.2,1.1-1.8c0.8-1.3,1.5-2.7,2.3-4c0,0,0-0.1,0.1-0.1c2.9,0,5.8,0,8.7,0h0c0,0,0,0,0,0
			c0,0.1,0.1,0.3,0.2,0.4c0.9,1.4,1.7,2.9,2.5,4.4c0.3,0.5,0.6,1.1,0.9,1.6l0.6,1l-0.9,1.5c-0.9,1.5-1.7,3.1-2.6,4.6
			c-0.1,0.1-0.1,0.3-0.2,0.4c-0.2,0.3-0.3,0.5-0.5,0.8C92.5,112.5,92.4,112.5,92.4,112.6z M106.5,106.8c0.9,1.5,1.8,3.1,2.7,4.6
			c0.1,0.1,0.1,0.2,0.2,0.4c0.2,0.3,0.3,0.6,0.5,0.8c0,0.1,0.1,0.1,0,0.3c-1.2,2.1-2.5,4.3-4.1,7.1c-0.1,0.2-0.2,0.2-0.4,0.2h0
			c-2.7,0-5.3,0-8,0h0c-0.1,0-0.2,0-0.3,0l-0.1-0.1c-0.1-0.1-0.2-0.3-0.2-0.4l-0.7-1.3c-1.1-1.8-2.1-3.7-3.2-5.5
			c-0.1-0.1-0.1-0.2,0-0.3c0.2-0.3,0.4-0.6,0.5-0.8c0.1-0.1,0.1-0.2,0.2-0.4c0.9-1.5,1.8-3.1,2.6-4.6l0.9-1.5h8.6L106.5,106.8z
			 M106.4,91.5c1.1,2,2.3,4,3.4,6c0.1,0.1,0.1,0.2,0,0.3c-0.8,1.3-1.6,2.7-2.4,4c-0.4,0.6-0.7,1.2-1.1,1.8c-0.2,0.3-0.4,0.7-0.6,1
			l-0.2,0.4H97l-0.6-1c-0.3-0.5-0.6-1.1-0.9-1.6c-0.8-1.4-1.7-2.9-2.6-4.4c-0.2-0.4-0.2-0.6,0-0.9c1.1-1.9,2.3-4,3.8-6.6
			c0.1-0.2,0.2-0.3,0.5-0.3h0c2.7,0,5.3,0,8,0h0c0.1,0,0.2,0,0.3,0L106.4,91.5z M106.5,76.4c0.9,1.5,1.8,3.1,2.7,4.6
			c0.1,0.1,0.1,0.2,0.2,0.4c0.2,0.3,0.3,0.6,0.5,0.8c0.1,0.1,0.1,0.1,0,0.3c-1.2,2.1-2.5,4.4-4.1,7.1c-0.1,0.2-0.2,0.2-0.4,0.2h0
			c-2.7,0-5.3,0-8,0h0c-0.1,0-0.2,0-0.3,0l-0.1-0.1c-0.1-0.1-0.1-0.3-0.2-0.4L96,88.1c-1.1-1.9-2.1-3.7-3.2-5.6
			c-0.1-0.1-0.1-0.2,0-0.3c0.2-0.3,0.4-0.6,0.5-0.8c0.1-0.1,0.1-0.2,0.2-0.4c0.9-1.5,1.8-3.1,2.6-4.6l0.9-1.5h8.6L106.5,76.4z
			 M86.2,79.1C86.2,79.1,86.2,79.1,86.2,79.1c0.7,0,1.5,0,2.4,0c0.4,0,0.9,0,1.4,0c0.4,0,0.6-0.1,0.8-0.4c0.4-0.8,0.9-1.6,1.3-2.3
			l0.7-1.2c0,0,0-0.1,0.1-0.2l0-0.1c0,0,0-0.1,0-0.1c0,0,0,0,0,0c0-0.3-0.2-0.4-0.3-0.6c-0.1-0.1-0.1-0.2-0.1-0.2
			c-0.2-0.4-0.5-0.9-0.7-1.3c-0.2-0.3-0.4-0.6-0.6-1L91,71.9c0.2,0.3,0.3,0.6,0.5,0.9c0.2,0.4,0.5,0.8,0.7,1.3
			c0,0.1,0.1,0.2,0.2,0.3c0.1,0.2,0.2,0.3,0.2,0.5l0,0c0,0,0,0.1,0,0.1l-0.7,1.2c-0.4,0.8-0.9,1.6-1.3,2.3c-0.1,0.2-0.2,0.3-0.5,0.3
			c-0.6,0-1,0-1.4,0c-0.9,0-1.7,0-2.4,0c-0.3,0-0.5-0.1-0.6-0.4c-0.1-0.2-0.3-0.5-0.4-0.7L85,77.9c0.1,0.2,0.2,0.4,0.3,0.6
			C85.5,78.9,85.8,79.1,86.2,79.1z M101.4,68c0.5,0,0.7-0.4,0.8-0.7c0,0,0-0.1,0-0.1c0,0,0-0.1,0-0.1c-0.2-0.7-0.4-0.8-1-0.8
			c-0.2,0-0.4,0.1-0.6,0.3c-0.2,0.2-0.3,0.4-0.3,0.6c0,0.4,0.4,0.7,0.8,0.8C101.3,68,101.3,68,101.4,68z M100.8,67.2
			c0-0.1,0.1-0.2,0.2-0.3c0.1-0.1,0.2-0.2,0.3-0.2c0,0,0.1,0,0.1,0c0.3,0,0.3,0,0.5,0.5c-0.2,0.4-0.3,0.5-0.6,0.4
			C101,67.6,100.8,67.4,100.8,67.2z M70.3,98.2c0.1,0.1,0.1,0.2,0.1,0.2c0.2,0.4,0.5,0.8,0.7,1.2c0.3,0.6,0.7,1.1,1,1.7
			c0.2,0.4,0.6,0.5,0.9,0.5c0.1,0,0.1,0,0.2,0c0.6,0,1.2,0,1.8,0c0.3,0,0.6,0,0.8,0c0.1,0,0.3,0,0.4,0c0.3,0,0.6,0,0.9,0
			c0.1,0,0.3-0.1,0.4-0.3c0.3-0.4,0.5-0.9,0.8-1.3c0.2-0.4,0.5-0.9,0.8-1.3c0.1-0.1,0.1-0.2,0.2-0.4c0.1-0.2,0.2-0.3,0.3-0.5
			c0.2-0.3,0.2-0.6,0-1c-0.4-0.7-0.8-1.4-1.3-2.2l-0.2-0.3c-0.2-0.3-0.4-0.7-0.6-1c-0.2-0.3-0.4-0.4-0.6-0.4c-1.2,0-2.6,0-4,0
			c-0.4,0-0.7,0.1-0.8,0.5c-0.3,0.6-0.6,1.1-0.9,1.6l-0.5,0.8c-0.1,0.1-0.1,0.2-0.2,0.4c-0.2,0.3-0.4,0.6-0.5,0.9c0,0,0,0.1,0,0.1
			c0,0,0,0,0,0C70.1,97.9,70.2,98.1,70.3,98.2z M70.8,96.7c0.1-0.1,0.1-0.2,0.2-0.4l0.5-0.8c0.3-0.5,0.6-1.1,0.9-1.7
			c0.1-0.2,0.3-0.3,0.5-0.3c1.4,0,2.8,0,4,0c0.2,0,0.3,0,0.3,0.2c0.2,0.4,0.4,0.7,0.6,1l0.2,0.3c0.4,0.7,0.8,1.4,1.3,2.2
			c0.1,0.2,0.1,0.4,0,0.6c-0.1,0.2-0.2,0.3-0.3,0.5c-0.1,0.1-0.1,0.2-0.2,0.4c-0.3,0.4-0.5,0.9-0.8,1.3c-0.2,0.4-0.5,0.9-0.8,1.3
			c-0.1,0.1-0.1,0.1-0.2,0.1c-0.3,0-0.5,0-0.8,0c-0.2,0-0.3,0-0.5,0c-0.3,0-0.6,0-0.8,0c-0.6,0-1.2,0-1.8,0c-0.4,0-0.6,0-0.7-0.3
			c-0.3-0.6-0.6-1.2-1-1.7c-0.2-0.4-0.5-0.8-0.7-1.2c0-0.1-0.1-0.2-0.2-0.3c-0.1-0.2-0.2-0.3-0.2-0.5C70.5,97.3,70.7,97,70.8,96.7z
			 M104.3,109.2c-0.4-0.8-1-0.8-1.6-0.8c-0.9,0.1-1.8,0.1-2.8,0c-0.2,0-0.5,0-0.7,0l-0.2,0c-0.2,0-0.3,0.1-0.3,0.2l0,0
			c-0.3,0.5-0.6,0.9-0.8,1.4c-0.2,0.4-0.5,0.8-0.7,1.2c-0.1,0.1-0.1,0.3-0.2,0.4c-0.1,0.2-0.2,0.3-0.3,0.5c-0.2,0.3-0.3,0.6,0,1
			c0.4,0.7,0.8,1.4,1.3,2.2l0.2,0.3c0.2,0.3,0.4,0.7,0.6,1c0.2,0.3,0.4,0.4,0.6,0.4c1.2,0,2.6,0,4,0c0,0,0,0,0,0
			c0.4,0,0.6-0.1,0.8-0.5c0.4-0.8,0.9-1.6,1.4-2.4l0-0.1c0.1-0.1,0.1-0.2,0.2-0.3c0.2-0.3,0.3-0.6,0.5-0.9c0,0,0-0.1,0-0.1
			c0,0,0,0,0,0c0-0.3-0.2-0.6-0.3-0.8c-0.1-0.1-0.1-0.2-0.2-0.3c-0.2-0.3-0.4-0.7-0.6-1C104.8,110.2,104.5,109.7,104.3,109.2z
			 M105.6,112.2c0.1,0.2,0.3,0.4,0.3,0.6c-0.1,0.3-0.3,0.6-0.5,0.8c-0.1,0.1-0.1,0.2-0.2,0.3l0,0.1c-0.5,0.8-0.9,1.6-1.4,2.4
			c-0.1,0.2-0.3,0.3-0.5,0.3c-0.6,0-1.3,0-1.9,0c-0.7,0-1.4,0-2.1,0c-0.2,0-0.3,0-0.3-0.2c-0.2-0.4-0.4-0.7-0.6-1l-0.2-0.3
			c-0.4-0.7-0.8-1.4-1.3-2.2c-0.1-0.2-0.1-0.4,0-0.6c0.1-0.2,0.2-0.3,0.3-0.5c0.1-0.1,0.1-0.2,0.2-0.4c0.3-0.4,0.5-0.8,0.7-1.2
			c0.3-0.5,0.5-0.9,0.8-1.4l0,0c0,0,0-0.1,0-0.1l0.2,0c0.2,0,0.4,0,0.7,0c1,0.1,1.9,0.1,2.8,0c0.5,0,1,0,1.2,0.6
			c0.2,0.5,0.6,1.1,0.9,1.6c0.2,0.3,0.4,0.6,0.6,1C105.4,112,105.5,112.1,105.6,112.2z M111.8,116.5c-0.4,0.7-0.7,1.3-1.1,1.9
			c-0.1,0.2-0.3,0.5-0.4,0.7l-0.5,0.8c-0.2,0.3-0.2,0.5,0,0.8c0.1,0.2,0.2,0.4,0.4,0.6h0.4c-0.2-0.3-0.3-0.5-0.5-0.8
			c-0.1-0.1-0.1-0.3,0-0.4l0.5-0.8c0.1-0.2,0.3-0.5,0.4-0.7c0.4-0.6,0.8-1.3,1.1-1.9c0.1-0.2,0.2-0.2,0.4-0.2c0,0,0,0,0,0v-0.3
			c0,0,0,0,0,0C112.2,116.1,112,116.2,111.8,116.5z M74.8,98.4c0.1,0,0.1,0,0.2,0c0.5,0,0.7-0.4,0.8-0.7c0,0,0-0.1,0-0.1
			c0,0,0-0.1,0-0.1c-0.2-0.7-0.4-0.8-1-0.8c-0.2,0-0.4,0.1-0.6,0.3c-0.2,0.2-0.3,0.4-0.3,0.6C74.1,98,74.5,98.3,74.8,98.4z
			 M74.5,97.3c0.1-0.1,0.2-0.2,0.3-0.2c0,0,0.1,0,0.1,0c0.3,0,0.3,0,0.5,0.5c-0.2,0.4-0.3,0.5-0.6,0.4c-0.2,0-0.5-0.2-0.5-0.5
			C74.4,97.5,74.4,97.4,74.5,97.3z M101,81.6c-0.3,0.1-0.4,0.4-0.5,0.7l0,0c-0.1,0.3,0.3,0.8,0.6,0.9c0.1,0,0.2,0,0.2,0
			c0.3,0,0.6-0.2,0.8-0.4c0,0,0-0.1,0.1-0.1c0.1-0.1,0.1-0.2,0.2-0.4c0,0,0,0,0,0c0-0.1-0.1-0.2-0.1-0.3
			C101.8,81.6,101.5,81.4,101,81.6z M101.9,82.4c0,0.1-0.1,0.1-0.1,0.2c0,0,0,0.1-0.1,0.1c-0.1,0.2-0.4,0.3-0.6,0.2
			c-0.1,0-0.3-0.4-0.3-0.5l0,0c0.1-0.2,0.1-0.4,0.3-0.4c0.1,0,0.2,0,0.2,0c0.2,0,0.4,0.1,0.5,0.4C101.8,82.3,101.8,82.3,101.9,82.4
			C101.9,82.3,101.9,82.3,101.9,82.4z M111.7,71c-0.5,1-1.1,2-1.7,2.9l-0.2,0.4c-0.2,0.3-0.2,0.6,0,0.9l0.2,0.4
			c0.6,0.9,1.1,1.9,1.7,2.9c0.2,0.4,0.4,0.5,0.8,0.5v-0.3c-0.2,0-0.4-0.1-0.5-0.4c-0.5-1-1.1-2-1.7-2.9l-0.2-0.4
			c-0.1-0.2-0.1-0.4,0-0.6l0.2-0.4c0.6-0.9,1.2-1.9,1.7-2.9c0.1-0.3,0.3-0.3,0.5-0.4v-0.3C112.2,70.5,111.9,70.6,111.7,71z
			 M111.7,55.8c-0.7,1.3-1.3,2.4-2,3.4c-0.2,0.2-0.2,0.5,0,0.8c0.2,0.4,0.4,0.8,0.7,1.2c0.2,0.4,0.4,0.7,0.6,1.1
			c0.1,0.2,0.2,0.4,0.3,0.6c0.1,0.2,0.3,0.5,0.4,0.7c0.2,0.3,0.4,0.4,0.7,0.4c0,0,0,0,0,0v-0.3c0,0,0,0,0,0c-0.2,0-0.3,0-0.4-0.2
			c-0.1-0.2-0.3-0.5-0.4-0.7c-0.1-0.2-0.2-0.4-0.3-0.6c-0.2-0.4-0.4-0.7-0.6-1.1c-0.2-0.4-0.4-0.8-0.7-1.2c-0.1-0.1-0.1-0.3,0-0.4
			c0.7-1,1.3-2.2,2-3.4c0.1-0.2,0.2-0.3,0.5-0.3v-0.3C112.2,55.3,111.9,55.5,111.7,55.8z M65.6,118.5c-0.2-0.3-0.3-0.5-0.5-0.8
			l-0.2-0.3c-0.2-0.3-0.3-0.6-0.5-0.9c-0.2-0.3-0.4-0.4-0.7-0.4c-1.3,0-2.7,0-4,0c-0.3,0-0.5,0.1-0.7,0.4c-0.4,0.7-0.7,1.3-1.1,1.9
			c-0.1,0.2-0.3,0.5-0.4,0.7L57,120c-0.2,0.3-0.2,0.5,0,0.8c0.1,0.2,0.2,0.4,0.4,0.6h0.4c-0.2-0.3-0.3-0.5-0.5-0.8
			c-0.1-0.1-0.1-0.3,0-0.4l0.5-0.8c0.1-0.2,0.3-0.5,0.4-0.7c0.4-0.6,0.8-1.3,1.1-1.9c0.1-0.2,0.2-0.2,0.4-0.2c1.3,0,2.7,0,4,0
			c0.2,0,0.3,0,0.4,0.2c0.2,0.3,0.3,0.6,0.5,0.9l0.2,0.3c0.2,0.3,0.3,0.5,0.5,0.8c0.3,0.6,0.7,1.1,0.9,1.7c-0.1,0.2-0.2,0.4-0.4,0.7
			c-0.1,0.1-0.1,0.2-0.2,0.3c0,0,0,0,0,0h0.4c0-0.1,0.1-0.1,0.1-0.2c0.1-0.2,0.3-0.5,0.4-0.7c0,0,0-0.1,0-0.1c0,0,0-0.1,0-0.1
			C66.3,119.7,65.9,119.1,65.6,118.5z M92,118.5c-0.2-0.3-0.3-0.5-0.5-0.8l-0.2-0.3c-0.2-0.3-0.3-0.6-0.5-0.9
			c-0.2-0.3-0.4-0.4-0.7-0.4h0c-1.3,0-2.7,0-4,0c-0.3,0-0.5,0.1-0.7,0.4c-0.4,0.7-0.7,1.3-1.1,1.9c-0.1,0.2-0.3,0.5-0.4,0.7
			l-0.5,0.8c-0.2,0.3-0.2,0.5,0,0.8c0.1,0.2,0.2,0.4,0.4,0.6h0.4c-0.2-0.3-0.3-0.5-0.5-0.8c-0.1-0.1-0.1-0.3,0-0.4l0.5-0.8
			c0.1-0.2,0.3-0.5,0.4-0.7c0.4-0.6,0.8-1.3,1.1-1.9c0.1-0.2,0.2-0.2,0.4-0.2c1.3,0,2.7,0,4,0c0.2,0,0.3,0,0.4,0.2
			c0.2,0.3,0.3,0.6,0.5,0.9l0.2,0.3c0.2,0.3,0.3,0.5,0.5,0.8c0.3,0.6,0.7,1.1,0.9,1.7c-0.1,0.2-0.2,0.4-0.4,0.7
			c-0.1,0.1-0.1,0.2-0.2,0.3c0,0,0,0,0,0h0.4c0-0.1,0.1-0.1,0.1-0.2c0.1-0.2,0.3-0.5,0.4-0.7c0,0,0-0.1,0-0.1c0,0,0-0.1,0-0.1
			C92.7,119.7,92.3,119.1,92,118.5z M104.6,94.7c-0.2-0.3-0.4-0.7-0.6-1c-0.2-0.3-0.4-0.4-0.6-0.4c-1.2,0-2.6,0-4,0
			c-0.4,0-0.7,0.1-0.8,0.5c-0.3,0.6-0.6,1.1-0.9,1.6l-0.5,0.8c-0.1,0.1-0.1,0.2-0.2,0.4c-0.2,0.3-0.4,0.6-0.5,0.9c0,0,0,0.1,0,0.1
			c0,0,0,0,0,0c0,0.3,0.2,0.4,0.3,0.6c0.1,0.1,0.1,0.2,0.1,0.2c0.2,0.4,0.5,0.8,0.7,1.2c0.3,0.6,0.7,1.1,1,1.7
			c0.2,0.4,0.6,0.5,0.9,0.5c0.1,0,0.1,0,0.2,0c0.6,0,1.2,0,1.8,0c0.3,0,0.5,0,0.8,0c0.1,0,0.3,0,0.4,0c0.3,0,0.6,0,0.9,0
			c0.1,0,0.3-0.1,0.4-0.3c0.3-0.4,0.5-0.9,0.8-1.3c0.2-0.4,0.5-0.9,0.8-1.3c0.1-0.1,0.1-0.3,0.2-0.4c0.1-0.2,0.2-0.3,0.3-0.5
			c0.2-0.3,0.2-0.6,0-1c-0.4-0.7-0.8-1.4-1.3-2.2L104.6,94.7z M105.7,97.9c-0.1,0.2-0.2,0.3-0.3,0.5c-0.1,0.1-0.1,0.2-0.2,0.4
			c-0.3,0.4-0.5,0.9-0.8,1.3c-0.2,0.4-0.5,0.9-0.8,1.3c-0.1,0.1-0.1,0.1-0.2,0.1c-0.2,0-0.5,0-0.8,0c-0.2,0-0.3,0-0.5,0
			c-0.3,0-0.5,0-0.8,0c-0.6,0-1.2,0-1.9,0c-0.4,0-0.6,0-0.7-0.3c-0.3-0.6-0.6-1.2-1-1.7c-0.2-0.4-0.5-0.8-0.7-1.2
			c0-0.1-0.1-0.2-0.2-0.3c-0.1-0.2-0.2-0.3-0.2-0.5c0.1-0.3,0.3-0.6,0.4-0.8c0.1-0.1,0.1-0.2,0.2-0.4l0.5-0.8
			c0.3-0.5,0.6-1.1,0.9-1.7c0.1-0.2,0.3-0.3,0.5-0.3c1.4,0,2.8,0,4,0c0.2,0,0.3,0,0.3,0.2c0.2,0.4,0.4,0.7,0.6,1l0.2,0.3
			c0.4,0.7,0.8,1.4,1.3,2.2C105.9,97.5,105.8,97.7,105.7,97.9z"/>
	</g>
</g>
</svg>
